<?xml version="1.0" encoding="utf-8" standalone="no"?>
<!DOCTYPE svg PUBLIC "-//W3C//DTD SVG 1.1//EN"
  "http://www.w3.org/Graphics/SVG/1.1/DTD/svg11.dtd">
<svg xmlns:xlink="http://www.w3.org/1999/xlink" width="720pt" height="720pt" viewBox="0 0 720 720" xmlns="http://www.w3.org/2000/svg" version="1.1">
 <metadata>
  <rdf:RDF xmlns:dc="http://purl.org/dc/elements/1.1/" xmlns:cc="http://creativecommons.org/ns#" xmlns:rdf="http://www.w3.org/1999/02/22-rdf-syntax-ns#">
   <cc:Work>
    <dc:type rdf:resource="http://purl.org/dc/dcmitype/StillImage"/>
    <dc:date>2025-04-13T15:13:04.506749</dc:date>
    <dc:format>image/svg+xml</dc:format>
    <dc:creator>
     <cc:Agent>
      <dc:title>Matplotlib v3.9.2, https://matplotlib.org/</dc:title>
     </cc:Agent>
    </dc:creator>
   </cc:Work>
  </rdf:RDF>
 </metadata>
 <defs>
  <style type="text/css">*{stroke-linejoin: round; stroke-linecap: butt}</style>
 </defs>
 <g id="figure_1">
  <g id="patch_1">
   <path d="M 0 720 
L 720 720 
L 720 0 
L 0 0 
z
" style="fill: #ffffff"/>
  </g>
  <g id="axes_1">
   <g id="patch_2">
    <path d="M 667.03 368.115938 
C 667.03 325.785373 658.691802 283.866419 642.492596 244.758076 
C 626.29339 205.649734 602.54821 170.112561 572.615981 140.180331 
C 542.683751 110.248102 507.146578 86.502922 468.038236 70.303716 
C 428.929893 54.10451 387.010939 45.766312 344.680374 45.766312 
C 302.349809 45.766312 260.430856 54.10451 221.322513 70.303716 
C 182.214171 86.502922 146.676998 110.248102 116.744768 140.180331 
C 86.812539 170.112561 63.067359 205.649734 46.868153 244.758076 
C 30.668947 283.866419 22.330749 325.785373 22.330749 368.115938 
C 22.330749 410.446502 30.668947 452.365456 46.868153 491.473799 
C 63.067359 530.582141 86.812539 566.119314 116.744768 596.051544 
C 146.676998 625.983773 182.214171 649.728953 221.322513 665.928159 
C 260.430856 682.127365 302.349809 690.465563 344.680374 690.465563 
C 387.010939 690.465563 428.929893 682.127365 468.038236 665.928159 
C 507.146578 649.728953 542.683751 625.983773 572.615981 596.051544 
C 602.54821 566.119314 626.29339 530.582141 642.492596 491.473799 
C 658.691802 452.365456 667.03 410.446502 667.03 368.115938 
M 344.680374 368.115938 
C 344.680374 368.115938 344.680374 368.115938 344.680374 368.115938 
C 344.680374 368.115938 344.680374 368.115938 344.680374 368.115938 
C 344.680374 368.115938 344.680374 368.115938 344.680374 368.115938 
C 344.680374 368.115938 344.680374 368.115938 344.680374 368.115938 
C 344.680374 368.115938 344.680374 368.115938 344.680374 368.115938 
C 344.680374 368.115938 344.680374 368.115938 344.680374 368.115938 
C 344.680374 368.115938 344.680374 368.115938 344.680374 368.115938 
C 344.680374 368.115938 344.680374 368.115938 344.680374 368.115938 
C 344.680374 368.115938 344.680374 368.115938 344.680374 368.115938 
C 344.680374 368.115938 344.680374 368.115938 344.680374 368.115938 
C 344.680374 368.115938 344.680374 368.115938 344.680374 368.115938 
C 344.680374 368.115938 344.680374 368.115938 344.680374 368.115938 
C 344.680374 368.115938 344.680374 368.115938 344.680374 368.115938 
C 344.680374 368.115938 344.680374 368.115938 344.680374 368.115938 
C 344.680374 368.115938 344.680374 368.115938 344.680374 368.115938 
C 344.680374 368.115938 344.680374 368.115938 344.680374 368.115938 
z
" style="fill: #ffffff"/>
   </g>
   <g id="patch_3">
    <path d="M 667.03 368.115938 
L 344.680374 368.115938 
L 344.680374 368.115938 
L 344.680374 368.115938 
L 344.680374 368.115938 
z
" clip-path="url(#pe150105671)" style="fill: #1f77b4; opacity: 0.25"/>
   </g>
   <g id="patch_4">
    <path d="M 667.03 368.115938 
L 344.680374 368.115938 
L 344.680374 368.115938 
L 344.680374 368.115938 
L 344.680374 368.115938 
z
" clip-path="url(#pe150105671)" style="fill: #ff7f0e; opacity: 0.25"/>
   </g>
   <g id="matplotlib.axis_1">
    <g id="xtick_1">
     <g id="line2d_1">
      <path d="M 344.680374 368.115938 
L 667.03 368.115938 
" clip-path="url(#pe150105671)" style="fill: none; stroke: #b0b0b0; stroke-width: 0.8; stroke-linecap: square"/>
     </g>
     <g id="text_1">
      <!-- 价格歧视指数 -->
      <g transform="translate(651.03 371.494844) scale(0.1 -0.1)">
       <defs>
        <path id="SimHei-4ef7" d="M 2200 4975 
Q 2050 4725 1650 3775 
L 1650 450 
Q 1650 -225 1675 -650 
L 1175 -650 
Q 1175 -225 1200 450 
L 1200 2975 
Q 900 2425 650 2100 
Q 525 2275 225 2450 
Q 750 3025 1125 3800 
Q 1500 4575 1625 5175 
Q 1950 5025 2200 4975 
z
M 4175 4700 
Q 4850 3525 6150 2950 
Q 5925 2750 5775 2500 
Q 4725 3100 3950 4300 
Q 3300 3125 2250 2350 
Q 2125 2525 1900 2725 
Q 2825 3325 3250 4050 
Q 3675 4775 3750 5150 
Q 4150 4950 4325 4900 
L 4175 4700 
z
M 3475 2650 
Q 3400 2075 3325 1087 
Q 3250 100 2325 -675 
Q 2175 -450 1925 -300 
Q 2850 350 2912 1262 
Q 2975 2175 2950 2700 
Q 3275 2650 3475 2650 
z
M 5075 2700 
Q 5050 2150 5050 1725 
L 5050 150 
Q 5050 -225 5075 -650 
L 4550 -650 
Q 4575 -225 4575 175 
L 4575 1875 
Q 4575 2150 4550 2700 
L 5075 2700 
z
" transform="scale(0.015625)"/>
        <path id="SimHei-683c" d="M 4075 4875 
Q 3975 4750 3750 4350 
L 5625 4350 
Q 5450 3850 5212 3437 
Q 4975 3025 4650 2650 
Q 4950 2450 5412 2287 
Q 5875 2125 6150 2100 
Q 5975 1900 5875 1600 
Q 5550 1725 5125 1912 
Q 4700 2100 4300 2400 
Q 3925 2125 3537 1937 
Q 3150 1750 2575 1550 
Q 2475 1775 2300 1925 
Q 2825 2050 3262 2250 
Q 3700 2450 3975 2675 
Q 3625 3050 3325 3575 
Q 3175 3350 2875 2950 
Q 2700 3100 2475 3200 
Q 2825 3550 3112 4075 
Q 3400 4600 3550 5100 
Q 3775 4950 4075 4875 
z
M 5575 1650 
Q 5550 1350 5550 575 
Q 5550 -200 5575 -575 
L 5050 -575 
L 5050 -175 
L 3500 -175 
L 3500 -600 
L 2975 -600 
Q 3000 -200 3000 550 
Q 3000 1325 2975 1650 
L 5575 1650 
z
M 1850 5100 
Q 1825 4775 1825 4475 
L 1825 3825 
Q 2300 3825 2525 3850 
L 2525 3400 
Q 2300 3425 1825 3425 
L 1825 2725 
Q 1950 2800 2125 2950 
Q 2350 2600 2550 2200 
Q 2350 2075 2175 1950 
Q 1975 2375 1825 2625 
L 1825 275 
Q 1825 -275 1850 -625 
L 1350 -625 
Q 1375 -275 1375 275 
L 1375 2425 
Q 1150 1850 625 850 
Q 475 1025 250 1150 
Q 650 1775 900 2375 
Q 1150 2975 1250 3425 
Q 900 3425 475 3400 
L 475 3850 
Q 925 3825 1375 3825 
L 1375 4475 
Q 1375 4750 1350 5100 
L 1850 5100 
z
M 5050 200 
L 5050 1275 
L 3500 1275 
L 3500 200 
L 5050 200 
z
M 4300 2925 
Q 4675 3300 4975 3975 
L 3550 3975 
Q 3850 3350 4300 2925 
z
" transform="scale(0.015625)"/>
        <path id="SimHei-6b67" d="M 2825 2475 
L 2825 2900 
Q 3225 2875 3575 2875 
L 4075 2875 
L 4075 3925 
L 3550 3925 
Q 3225 3925 2675 3900 
L 2675 4350 
Q 3200 4325 3550 4325 
L 4075 4325 
Q 4075 4850 4050 5250 
L 4550 5250 
Q 4525 4850 4525 4325 
L 5275 4325 
Q 5750 4325 6050 4350 
L 6050 3900 
Q 5750 3925 5300 3925 
L 4525 3925 
L 4525 2875 
L 5700 2875 
Q 5500 1975 5237 1475 
Q 4975 975 4650 625 
Q 5050 275 5400 125 
Q 5750 -25 6175 -125 
Q 5900 -350 5775 -600 
Q 5300 -375 4937 -150 
Q 4575 75 4325 300 
Q 3900 0 3525 -200 
Q 3150 -400 2500 -625 
Q 2375 -375 2150 -150 
Q 2675 -75 3225 162 
Q 3775 400 4025 625 
Q 3325 1450 3175 2475 
L 2825 2475 
z
M 2875 1000 
Q 2150 850 1537 637 
Q 925 425 600 275 
Q 450 600 325 800 
Q 500 825 700 850 
L 700 3200 
Q 700 3675 650 4000 
L 1150 4000 
Q 1100 3675 1100 3200 
L 1100 975 
Q 1350 1025 1650 1100 
L 1650 4250 
Q 1650 4650 1600 5025 
L 2100 5025 
Q 2075 4700 2075 4250 
L 2075 3375 
Q 2400 3375 2725 3400 
L 2725 2950 
Q 2400 2975 2075 2975 
L 2075 1225 
Q 2525 1375 2900 1475 
Q 2875 1250 2875 1000 
z
M 3600 2475 
Q 3775 1675 4350 950 
Q 4875 1525 5150 2475 
L 3600 2475 
z
" transform="scale(0.015625)"/>
        <path id="SimHei-89c6" d="M 4500 3875 
Q 4400 3700 4375 3187 
Q 4350 2675 4225 1750 
L 4675 1750 
Q 4650 1500 4650 1075 
L 4650 400 
Q 4650 25 4825 12 
Q 5000 0 5225 0 
Q 5475 0 5537 100 
Q 5600 200 5650 725 
Q 5925 550 6175 500 
Q 6000 -425 5600 -425 
L 4600 -425 
Q 4200 -400 4200 100 
L 4200 1600 
Q 3900 800 3525 325 
Q 3150 -150 2500 -650 
Q 2300 -425 2050 -325 
Q 2750 100 3150 625 
Q 3550 1150 3712 1725 
Q 3875 2300 3900 2875 
Q 3925 3450 3875 3975 
Q 4175 3925 4500 3875 
z
M 5525 4875 
Q 5500 4475 5500 3925 
L 5500 2550 
Q 5500 2100 5525 1625 
L 5050 1625 
L 5050 4475 
L 3275 4475 
L 3275 1600 
L 2800 1600 
Q 2825 2025 2825 2525 
L 2825 3900 
Q 2825 4425 2800 4875 
L 5525 4875 
z
M 2275 3900 
Q 2200 3650 2062 3287 
Q 1925 2925 1650 2475 
L 1650 475 
Q 1650 25 1675 -625 
L 1175 -625 
Q 1200 75 1200 500 
L 1200 1875 
Q 950 1525 500 1125 
Q 350 1375 200 1525 
Q 725 1925 1100 2475 
Q 1475 3025 1650 3500 
L 1025 3500 
Q 650 3500 350 3475 
L 350 3925 
Q 725 3900 1025 3900 
L 2275 3900 
z
M 1350 5225 
Q 1675 4750 1900 4400 
Q 1725 4275 1450 4100 
Q 1250 4550 950 4950 
Q 1175 5075 1350 5225 
z
M 2025 2500 
Q 2325 2075 2550 1675 
Q 2350 1575 2150 1375 
Q 1925 1825 1675 2225 
Q 1850 2350 2025 2500 
z
" transform="scale(0.015625)"/>
        <path id="SimHei-6307" d="M 5625 2225 
Q 5600 1925 5600 1350 
L 5600 300 
Q 5600 -225 5625 -525 
L 5125 -525 
L 5125 -125 
L 3300 -125 
L 3300 -625 
L 2800 -625 
Q 2825 -300 2825 300 
L 2825 1350 
Q 2825 1925 2800 2225 
L 5625 2225 
z
M 500 25 
Q 1075 -25 1175 37 
Q 1275 100 1275 275 
L 1275 1675 
Q 1050 1600 925 1537 
Q 800 1475 475 1275 
Q 400 1525 225 1800 
Q 625 1900 825 1975 
Q 1025 2050 1275 2125 
L 1275 3300 
L 1100 3300 
Q 775 3300 450 3275 
L 450 3725 
Q 750 3700 1100 3700 
L 1275 3700 
L 1275 4450 
Q 1275 4800 1250 5125 
L 1775 5125 
Q 1750 4850 1750 4450 
L 1750 3700 
Q 2075 3700 2425 3725 
L 2425 3275 
Q 2050 3300 1750 3300 
L 1750 2325 
Q 1850 2350 2025 2425 
L 2375 2575 
Q 2350 2300 2375 2100 
Q 2225 2050 2062 1987 
Q 1900 1925 1750 1850 
L 1750 100 
Q 1725 -200 1575 -337 
Q 1425 -475 675 -525 
Q 625 -250 500 25 
z
M 3325 5025 
Q 3300 4675 3300 4125 
Q 4125 4275 4512 4412 
Q 4900 4550 5225 4725 
Q 5325 4475 5575 4250 
Q 5450 4225 5237 4175 
Q 5025 4125 4725 4050 
Q 4425 3975 4037 3887 
Q 3650 3800 3300 3725 
L 3300 3175 
Q 3275 2925 3700 2925 
L 4925 2925 
Q 5300 2925 5387 3087 
Q 5475 3250 5550 3600 
Q 5750 3400 6050 3300 
Q 5825 2725 5700 2637 
Q 5575 2550 5275 2525 
L 3350 2525 
Q 3050 2525 2937 2687 
Q 2825 2850 2825 2975 
L 2825 4125 
Q 2825 4775 2800 5025 
L 3325 5025 
z
M 5125 275 
L 5125 875 
L 3300 875 
L 3300 275 
L 5125 275 
z
M 5125 1250 
L 5125 1825 
L 3300 1825 
L 3300 1250 
L 5125 1250 
z
" transform="scale(0.015625)"/>
        <path id="SimHei-6570" d="M 4525 4925 
Q 4475 4800 4400 4587 
Q 4325 4375 4175 3825 
L 5325 3825 
Q 5575 3825 5925 3850 
L 5925 3400 
Q 5650 3425 5500 3425 
Q 5500 3025 5362 2162 
Q 5225 1300 4875 675 
Q 5125 375 5437 137 
Q 5750 -100 6025 -200 
Q 5725 -425 5625 -625 
Q 5325 -450 5075 -225 
Q 4825 0 4575 325 
Q 4300 25 3987 -187 
Q 3675 -400 3200 -650 
Q 3075 -425 2850 -300 
Q 3225 -150 3650 125 
Q 4075 400 4300 675 
Q 4125 1025 3962 1425 
Q 3800 1825 3675 2475 
Q 3600 2275 3425 1950 
Q 3250 2050 3000 2150 
Q 3400 2850 3650 3675 
Q 3900 4500 3975 5100 
Q 4275 4975 4525 4925 
z
M 2100 2250 
Q 2000 2150 1875 1925 
L 3250 1925 
Q 3100 1300 2725 675 
Q 3125 525 3350 400 
Q 3225 225 3125 25 
Q 2900 175 2450 325 
Q 1950 -225 725 -650 
Q 600 -375 400 -275 
Q 1575 0 2000 475 
Q 1300 650 850 775 
Q 1000 1000 1250 1525 
Q 1000 1525 425 1500 
L 425 1950 
Q 900 1925 1400 1925 
Q 1500 2150 1550 2425 
Q 1825 2325 2100 2250 
z
M 1775 3950 
Q 1775 4550 1750 5100 
L 2250 5100 
Q 2225 4575 2225 3950 
Q 3075 3950 3425 3975 
L 3425 3525 
Q 3075 3550 2225 3550 
Q 2225 2825 2250 2425 
L 1750 2425 
Q 1775 2775 1775 3300 
Q 1650 3100 1300 2787 
Q 950 2475 650 2300 
Q 525 2525 275 2625 
Q 500 2700 875 2975 
Q 1250 3250 1450 3550 
Q 950 3550 500 3525 
L 500 3975 
Q 925 3950 1775 3950 
z
M 3975 3175 
Q 4200 1700 4600 1125 
Q 4850 1700 4937 2287 
Q 5025 2875 5050 3425 
L 4075 3425 
L 3975 3175 
z
M 1450 1000 
Q 1750 925 2275 800 
Q 2475 1050 2650 1525 
L 1725 1525 
Q 1600 1275 1450 1000 
z
M 3325 4825 
Q 3200 4625 3125 4450 
Q 3050 4275 2925 4025 
Q 2725 4125 2525 4175 
Q 2725 4500 2900 5000 
Q 3150 4875 3325 4825 
z
M 2575 3375 
Q 2900 3050 3200 2725 
Q 3050 2600 2875 2425 
Q 2525 2850 2300 3100 
Q 2450 3225 2575 3375 
z
M 925 5000 
Q 1275 4650 1500 4300 
L 1125 4075 
Q 950 4425 600 4725 
Q 825 4875 925 5000 
z
" transform="scale(0.015625)"/>
       </defs>
       <use xlink:href="#SimHei-4ef7"/>
       <use xlink:href="#SimHei-683c" x="100"/>
       <use xlink:href="#SimHei-6b67" x="200"/>
       <use xlink:href="#SimHei-89c6" x="300"/>
       <use xlink:href="#SimHei-6307" x="400"/>
       <use xlink:href="#SimHei-6570" x="500"/>
      </g>
     </g>
    </g>
    <g id="xtick_2">
     <g id="line2d_2">
      <path d="M 344.680374 368.115938 
L 444.291887 61.543226 
" clip-path="url(#pe150105671)" style="fill: none; stroke: #b0b0b0; stroke-width: 0.8; stroke-linecap: square"/>
     </g>
     <g id="text_2">
      <!-- 价格上限消费者剩余变化 -->
      <g transform="translate(393.618125 51.626872) scale(0.1 -0.1)">
       <defs>
        <path id="SimHei-4e0a" d="M 3250 5075 
Q 3225 4650 3225 4275 
L 3225 3225 
L 4650 3225 
Q 5150 3225 5600 3250 
L 5600 2700 
Q 5100 2725 4600 2725 
L 3225 2725 
L 3225 200 
L 5200 200 
Q 5575 200 6075 225 
L 6075 -300 
Q 5600 -275 5200 -275 
L 1250 -275 
Q 850 -275 350 -300 
L 350 225 
Q 825 200 1250 200 
L 2700 200 
L 2700 4250 
Q 2700 4625 2675 5075 
L 3250 5075 
z
" transform="scale(0.015625)"/>
        <path id="SimHei-9650" d="M 5550 4950 
Q 5525 4500 5525 3700 
Q 5525 2925 5550 2475 
L 4375 2475 
Q 4375 2000 4625 1475 
Q 5275 1900 5475 2250 
Q 5675 1950 5850 1800 
Q 5400 1575 4750 1150 
Q 5025 775 5325 500 
Q 5625 225 6200 25 
Q 5900 -125 5750 -450 
Q 5150 -75 4812 312 
Q 4475 700 4262 1212 
Q 4050 1725 3975 2475 
L 3400 2475 
L 3400 200 
Q 3800 400 4125 675 
Q 4150 450 4225 150 
Q 4000 25 3637 -175 
Q 3275 -375 3025 -575 
Q 2925 -375 2750 -125 
Q 2900 25 2950 325 
L 2950 3850 
Q 2950 4350 2925 4950 
L 5550 4950 
z
M 2500 4950 
Q 2050 3475 1875 2950 
Q 2375 2350 2450 1850 
Q 2525 1350 2237 1025 
Q 1950 700 1525 575 
Q 1500 900 1300 1150 
Q 1750 1150 1875 1325 
Q 2000 1500 1975 1887 
Q 1950 2275 1375 2925 
Q 1775 4050 1875 4550 
L 1125 4550 
L 1125 -500 
L 650 -500 
Q 675 200 675 875 
L 675 3800 
Q 675 4250 650 4950 
L 2500 4950 
z
M 5075 2875 
L 5075 3550 
L 3400 3550 
L 3400 2875 
L 5075 2875 
z
M 5075 3925 
L 5075 4550 
L 3400 4550 
L 3400 3925 
L 5075 3925 
z
" transform="scale(0.015625)"/>
        <path id="SimHei-6d88" d="M 3850 3350 
Q 3850 4825 3825 5225 
L 4425 5225 
Q 4400 4825 4400 3350 
L 5875 3350 
Q 5850 2700 5850 2325 
L 5850 -100 
Q 5850 -275 5687 -412 
Q 5525 -550 4975 -650 
Q 4950 -400 4675 -75 
Q 5050 -100 5187 -75 
Q 5325 -50 5325 125 
L 5325 700 
L 2950 700 
L 2950 -600 
L 2425 -600 
Q 2450 100 2450 625 
L 2450 2350 
Q 2450 2950 2425 3350 
L 3850 3350 
z
M 5325 2250 
L 5325 2925 
L 2950 2925 
L 2950 2250 
L 5325 2250 
z
M 5325 1125 
L 5325 1800 
L 2950 1800 
L 2950 1125 
L 5325 1125 
z
M 1750 1500 
Q 1600 1275 1387 662 
Q 1175 50 1000 -600 
Q 700 -350 300 -250 
Q 550 25 800 550 
Q 1050 1075 1250 1875 
Q 1500 1650 1750 1500 
z
M 950 5025 
Q 1400 4700 1900 4200 
Q 1625 4000 1475 3800 
Q 1050 4300 550 4700 
Q 725 4775 950 5025 
z
M 525 3400 
Q 1125 3100 1650 2750 
Q 1475 2550 1300 2300 
Q 825 2675 250 3000 
Q 375 3150 525 3400 
z
M 6175 4675 
Q 6025 4575 5775 4262 
Q 5525 3950 5350 3650 
L 4900 3900 
Q 5250 4300 5600 5000 
Q 5900 4800 6175 4675 
z
M 2625 4975 
Q 2950 4575 3300 3950 
Q 3025 3825 2825 3675 
Q 2575 4200 2150 4700 
Q 2375 4800 2625 4975 
z
" transform="scale(0.015625)"/>
        <path id="SimHei-8d39" d="M 2250 5225 
Q 2525 5175 2825 5150 
Q 2775 5025 2750 4675 
L 3625 4675 
Q 3625 4925 3600 5200 
L 4075 5200 
Q 4050 4925 4050 4675 
L 5675 4675 
Q 5650 4375 5650 4050 
Q 5650 3725 5675 3450 
L 4050 3450 
L 4050 3000 
L 6025 3000 
Q 6000 2575 5987 2300 
Q 5975 2025 5837 1925 
Q 5700 1825 5225 1725 
Q 5175 1975 5000 2225 
Q 5325 2225 5425 2262 
Q 5525 2300 5525 2625 
L 4050 2625 
L 4050 2050 
L 5100 2050 
L 5100 1175 
Q 5100 900 5125 525 
L 4600 525 
L 4600 1675 
L 1900 1675 
L 1900 350 
L 1400 350 
Q 1425 775 1425 1100 
L 1425 1725 
Q 1175 1575 600 1350 
Q 475 1600 300 1850 
Q 625 1875 1162 2087 
Q 1700 2300 2000 2625 
L 875 2625 
Q 975 3350 975 3825 
L 2300 3825 
L 2300 4300 
Q 1200 4300 850 4275 
L 850 4700 
Q 1225 4675 2300 4675 
Q 2300 4900 2250 5225 
z
M 3650 1300 
Q 3525 1025 3362 650 
Q 3200 275 2925 50 
Q 2650 -175 2150 -362 
Q 1650 -550 850 -625 
Q 775 -375 600 -100 
Q 1125 -100 1600 -12 
Q 2075 75 2487 375 
Q 2900 675 3050 1450 
Q 3300 1350 3650 1300 
z
M 3900 700 
Q 4400 500 4862 300 
Q 5325 100 5750 -100 
Q 5525 -375 5400 -575 
Q 4925 -325 4600 -162 
Q 4275 0 3625 250 
Q 3725 400 3900 700 
z
M 3600 2050 
L 3600 2625 
L 2625 2625 
Q 2325 2200 2050 2050 
L 3600 2050 
z
M 5150 3825 
L 5150 4300 
L 4050 4300 
L 4050 3825 
L 5150 3825 
z
M 3600 3825 
L 3600 4300 
L 2750 4300 
L 2750 3825 
L 3600 3825 
z
M 3600 3000 
L 3600 3450 
L 2750 3450 
Q 2725 3175 2700 3000 
L 3600 3000 
z
M 2200 3000 
Q 2275 3275 2275 3450 
L 1450 3450 
L 1425 3000 
L 2200 3000 
z
" transform="scale(0.015625)"/>
        <path id="SimHei-8005" d="M 5650 4325 
Q 5450 4150 5187 3875 
Q 4925 3600 4450 3125 
L 5150 3125 
Q 5575 3125 6025 3150 
L 6025 2700 
Q 5575 2725 5125 2725 
L 3950 2725 
Q 3550 2425 3050 2075 
L 5175 2075 
Q 5150 1625 5150 1250 
L 5150 375 
Q 5150 -75 5175 -600 
L 4675 -600 
L 4675 -225 
L 2275 -225 
L 2275 -600 
L 1750 -600 
Q 1775 -200 1775 150 
L 1775 1300 
Q 1275 1025 650 750 
Q 400 1100 300 1175 
Q 475 1225 962 1412 
Q 1450 1600 1775 1825 
L 1775 2075 
L 2250 2075 
Q 2800 2375 3225 2725 
L 1450 2725 
Q 925 2725 475 2700 
L 475 3150 
Q 975 3125 1450 3125 
L 2775 3125 
L 2775 3900 
L 2025 3900 
Q 1600 3900 1250 3875 
L 1250 4325 
Q 1600 4300 2025 4300 
L 2775 4300 
Q 2775 4675 2750 5150 
L 3300 5150 
Q 3275 4800 3275 4300 
L 3650 4300 
Q 3975 4300 4400 4325 
L 4400 3875 
Q 3975 3900 3650 3900 
L 3275 3900 
L 3275 3125 
L 3775 3125 
Q 4125 3400 4475 3775 
Q 4825 4150 5200 4725 
Q 5475 4450 5650 4325 
z
M 4675 175 
L 4675 750 
L 2275 750 
L 2275 175 
L 4675 175 
z
M 4675 1150 
L 4675 1675 
L 2275 1675 
L 2275 1150 
L 4675 1150 
z
" transform="scale(0.015625)"/>
        <path id="SimHei-5269" d="M 3725 4600 
Q 3400 4600 2475 4475 
L 2475 3900 
L 3075 3900 
Q 3575 3900 3975 3925 
L 3975 3500 
Q 3600 3525 3100 3525 
L 2475 3525 
L 2475 1750 
Q 2900 1375 3237 1062 
Q 3575 750 3950 400 
Q 3700 200 3550 25 
Q 3250 425 2475 1150 
Q 2475 -125 2500 -525 
L 2025 -525 
Q 2050 -125 2050 1000 
Q 1800 675 1475 375 
Q 1150 75 750 -250 
Q 625 -75 350 100 
Q 850 400 1287 825 
Q 1725 1250 2050 1725 
L 2050 3525 
L 1375 3525 
Q 925 3525 475 3500 
L 475 3925 
Q 925 3900 1375 3900 
L 2050 3900 
L 2050 4425 
Q 1750 4400 1512 4387 
Q 1275 4375 900 4350 
Q 825 4575 675 4775 
Q 1025 4750 1887 4825 
Q 2750 4900 3400 5075 
Q 3525 4825 3725 4600 
z
M 5875 5175 
Q 5825 4950 5825 4425 
L 5825 50 
Q 5825 -250 5587 -362 
Q 5350 -475 4975 -550 
Q 4900 -250 4700 0 
Q 5200 25 5300 87 
Q 5400 150 5400 275 
L 5400 4425 
Q 5400 4875 5375 5175 
L 5875 5175 
z
M 1650 3225 
Q 1625 2950 1625 2675 
L 1625 2025 
Q 1625 1725 1650 1450 
L 1150 1450 
L 1150 1675 
Q 650 1475 400 1325 
Q 350 1525 200 1775 
Q 525 1850 1150 2100 
L 1150 2425 
Q 700 2425 450 2400 
L 450 2800 
Q 750 2775 1175 2775 
Q 1175 2950 1150 3225 
L 1650 3225 
z
M 4925 4300 
Q 4900 3875 4900 3500 
L 4900 1850 
Q 4900 1475 4925 1100 
L 4425 1100 
Q 4450 1500 4450 1850 
L 4450 3475 
Q 4450 3850 4425 4300 
L 4925 4300 
z
M 3850 3050 
Q 3950 2875 4125 2675 
Q 3975 2625 3300 2300 
Q 3275 1875 3387 1850 
Q 3500 1825 3612 1850 
Q 3725 1875 3750 2175 
Q 3950 2050 4200 2025 
Q 4100 1625 3975 1550 
Q 3850 1475 3600 1475 
Q 3375 1475 3137 1500 
Q 2900 1525 2875 1825 
L 2875 2575 
Q 2875 2850 2850 3250 
L 3325 3250 
Q 3300 2925 3300 2700 
Q 3700 2900 3850 3050 
z
" transform="scale(0.015625)"/>
        <path id="SimHei-4f59" d="M 3850 3050 
Q 4150 3050 4525 3075 
L 4525 2600 
Q 4225 2625 3850 2625 
L 3450 2625 
L 3450 1825 
L 4475 1825 
Q 5050 1825 5375 1850 
L 5375 1350 
Q 5025 1375 4500 1375 
L 3450 1375 
L 3450 -75 
Q 3450 -450 3187 -525 
Q 2925 -600 2550 -650 
Q 2525 -425 2350 -50 
Q 2825 -75 2887 -25 
Q 2950 25 2950 175 
L 2950 1375 
L 1800 1375 
Q 1225 1375 900 1350 
L 900 1850 
Q 1200 1825 1800 1825 
L 2950 1825 
L 2950 2625 
L 2550 2625 
Q 2325 2625 1825 2600 
L 1825 3075 
Q 2225 3050 2525 3050 
L 3850 3050 
z
M 3400 4850 
Q 4450 3575 6150 3300 
Q 5925 3150 5750 2700 
Q 4150 3250 3100 4550 
Q 2375 3350 800 2400 
Q 450 2725 325 2800 
Q 1475 3325 2112 4100 
Q 2750 4875 2900 5275 
Q 3150 5175 3550 5050 
L 3400 4850 
z
M 2325 700 
Q 2075 500 1625 112 
Q 1175 -275 925 -450 
Q 725 -225 525 -50 
Q 1600 675 1900 1075 
Q 2100 875 2325 700 
z
M 4400 1175 
Q 4750 850 5025 550 
L 5600 0 
Q 5375 -175 5125 -400 
Q 4875 25 4050 850 
Q 4200 950 4400 1175 
z
" transform="scale(0.015625)"/>
        <path id="SimHei-53d8" d="M 5200 1975 
Q 4950 1600 4537 1137 
Q 4125 675 3675 375 
Q 3925 225 4600 87 
Q 5275 -50 6000 -75 
Q 5700 -400 5650 -625 
Q 4850 -525 4212 -312 
Q 3575 -100 3225 125 
Q 2800 -125 2150 -325 
Q 1500 -525 700 -675 
Q 600 -425 400 -175 
Q 950 -150 1687 12 
Q 2425 175 2825 375 
Q 2275 775 1675 1575 
Q 1350 1575 1000 1550 
L 1000 2000 
Q 1450 1975 2075 1975 
L 5200 1975 
z
M 3225 5275 
Q 3400 4900 3550 4475 
L 4675 4475 
Q 5400 4475 5975 4500 
L 5975 4025 
Q 5375 4050 4725 4050 
L 4125 4050 
L 4125 2950 
Q 4125 2550 4150 2150 
L 3600 2150 
Q 3625 2550 3625 2950 
L 3625 4050 
L 2750 4050 
L 2750 2950 
Q 2750 2675 2775 2150 
L 2225 2150 
Q 2250 2675 2250 2950 
L 2250 4050 
L 1700 4050 
Q 975 4050 425 4025 
L 425 4500 
Q 950 4475 1700 4475 
L 2975 4475 
Q 2925 4675 2700 5125 
Q 2950 5150 3225 5275 
z
M 2200 1575 
Q 2650 975 3250 600 
Q 3850 1000 4275 1575 
L 2200 1575 
z
M 4850 3750 
Q 5375 3275 5950 2675 
Q 5750 2525 5500 2300 
Q 5075 2800 4450 3400 
Q 4675 3575 4850 3750 
z
M 1825 3500 
Q 1700 3375 1425 3025 
Q 1150 2675 825 2300 
Q 575 2475 375 2600 
Q 975 3150 1300 3825 
Q 1525 3650 1825 3500 
z
" transform="scale(0.015625)"/>
        <path id="SimHei-5316" d="M 3925 5025 
Q 3900 4900 3900 4400 
L 3900 2625 
Q 4375 3025 4775 3450 
Q 5175 3875 5400 4300 
Q 5600 4100 5900 3925 
Q 5700 3700 5225 3212 
Q 4750 2725 4487 2512 
Q 4225 2300 3900 2025 
L 3900 450 
Q 3900 50 4225 50 
L 5200 50 
Q 5400 75 5462 262 
Q 5525 450 5575 850 
Q 5800 650 6150 600 
Q 6000 -100 5825 -250 
Q 5650 -400 5350 -400 
L 3950 -400 
Q 3425 -400 3400 200 
L 3400 1675 
Q 3225 1525 2962 1350 
Q 2700 1175 2375 975 
Q 2225 1225 2025 1400 
Q 2350 1550 2737 1787 
Q 3125 2025 3400 2250 
L 3400 4500 
Q 3400 4800 3375 5025 
L 3925 5025 
z
M 2400 4850 
Q 2175 4550 2075 4337 
Q 1975 4125 1825 3775 
L 1825 675 
Q 1825 -75 1850 -550 
L 1325 -550 
Q 1350 -125 1350 650 
L 1350 3050 
Q 1125 2725 962 2525 
Q 800 2325 675 2175 
Q 500 2375 275 2525 
Q 625 2850 875 3212 
Q 1125 3575 1312 3912 
Q 1500 4250 1625 4575 
Q 1750 4900 1825 5100 
Q 1975 4975 2400 4850 
z
" transform="scale(0.015625)"/>
       </defs>
       <use xlink:href="#SimHei-4ef7"/>
       <use xlink:href="#SimHei-683c" x="100"/>
       <use xlink:href="#SimHei-4e0a" x="200"/>
       <use xlink:href="#SimHei-9650" x="300"/>
       <use xlink:href="#SimHei-6d88" x="400"/>
       <use xlink:href="#SimHei-8d39" x="500"/>
       <use xlink:href="#SimHei-8005" x="600"/>
       <use xlink:href="#SimHei-5269" x="700"/>
       <use xlink:href="#SimHei-4f59" x="800"/>
       <use xlink:href="#SimHei-53d8" x="900"/>
       <use xlink:href="#SimHei-5316" x="1000"/>
      </g>
     </g>
    </g>
    <g id="xtick_3">
     <g id="line2d_3">
      <path d="M 344.680374 368.115938 
L 83.894049 178.643581 
" clip-path="url(#pe150105671)" style="fill: none; stroke: #b0b0b0; stroke-width: 0.8; stroke-linecap: square"/>
     </g>
     <g id="text_3">
      <!-- 价格区间消费者剩余变化 -->
      <g transform="translate(17.567811 173.832557) scale(0.1 -0.1)">
       <defs>
        <path id="SimHei-533a" d="M 5850 4525 
Q 5475 4550 4850 4550 
L 1150 4550 
L 1150 -75 
L 5225 -75 
Q 5725 -75 6025 -50 
L 6025 -500 
Q 5700 -475 5175 -475 
L 625 -475 
Q 650 125 650 400 
L 650 4200 
Q 650 4625 625 4975 
L 5850 4975 
L 5850 4525 
z
M 2275 3875 
Q 3150 3275 3800 2700 
Q 4375 3375 4650 4050 
Q 4925 3875 5300 3700 
Q 5025 3525 4825 3225 
Q 4625 2925 4225 2375 
Q 5075 1675 5600 1000 
Q 5300 800 5175 575 
Q 4775 1175 3850 1950 
Q 3475 1525 3087 1175 
Q 2700 825 2125 400 
Q 1900 625 1625 775 
Q 2125 1000 2525 1312 
Q 2925 1625 3475 2300 
Q 2850 2875 1925 3450 
Q 2175 3650 2275 3875 
z
" transform="scale(0.015625)"/>
        <path id="SimHei-95f4" d="M 4450 3550 
Q 4425 3075 4425 2725 
L 4425 1400 
Q 4425 1075 4450 625 
L 1925 625 
Q 1950 1075 1950 1425 
L 1950 2725 
Q 1950 3075 1925 3550 
L 4450 3550 
z
M 5800 4875 
Q 5775 4400 5775 3925 
L 5775 250 
Q 5800 -325 5462 -450 
Q 5125 -575 4725 -625 
Q 4700 -325 4525 -25 
Q 5000 -50 5137 25 
Q 5275 100 5275 350 
L 5275 4450 
L 3775 4450 
Q 3175 4450 2650 4425 
L 2650 4900 
Q 3175 4875 3775 4875 
L 5800 4875 
z
M 550 -525 
Q 600 -25 600 525 
L 600 3150 
Q 600 3675 550 4025 
L 1125 4025 
Q 1100 3650 1100 3300 
L 1100 500 
Q 1100 0 1125 -525 
L 550 -525 
z
M 3950 1025 
L 3950 1950 
L 2425 1950 
L 2425 1025 
L 3950 1025 
z
M 3950 2350 
L 3950 3150 
L 2425 3150 
L 2425 2350 
L 3950 2350 
z
M 1525 5300 
Q 1750 5000 2225 4350 
Q 1950 4225 1700 4075 
Q 1450 4575 1075 5025 
Q 1350 5225 1525 5300 
z
" transform="scale(0.015625)"/>
       </defs>
       <use xlink:href="#SimHei-4ef7"/>
       <use xlink:href="#SimHei-683c" x="100"/>
       <use xlink:href="#SimHei-533a" x="200"/>
       <use xlink:href="#SimHei-95f4" x="300"/>
       <use xlink:href="#SimHei-6d88" x="400"/>
       <use xlink:href="#SimHei-8d39" x="500"/>
       <use xlink:href="#SimHei-8005" x="600"/>
       <use xlink:href="#SimHei-5269" x="700"/>
       <use xlink:href="#SimHei-4f59" x="800"/>
       <use xlink:href="#SimHei-53d8" x="900"/>
       <use xlink:href="#SimHei-5316" x="1000"/>
      </g>
     </g>
    </g>
    <g id="xtick_4">
     <g id="line2d_4">
      <path d="M 344.680374 368.115938 
L 83.894049 557.588294 
" clip-path="url(#pe150105671)" style="fill: none; stroke: #b0b0b0; stroke-width: 0.8; stroke-linecap: square"/>
     </g>
     <g id="text_4">
      <!-- 价格上限净福利变化 -->
      <g transform="translate(27.567811 569.235256) scale(0.1 -0.1)">
       <defs>
        <path id="SimHei-51c0" d="M 3425 5075 
Q 3275 4900 3100 4625 
L 4950 4625 
Q 4725 4325 4250 3475 
L 5525 3475 
Q 5500 3150 5500 2450 
Q 5825 2450 6150 2475 
L 6150 2025 
Q 5825 2050 5500 2050 
Q 5500 1075 5525 1000 
L 3875 1000 
L 3875 -75 
Q 3875 -375 3625 -475 
Q 3375 -575 2775 -650 
Q 2725 -350 2575 -75 
Q 2975 -75 3175 -62 
Q 3375 -50 3375 200 
L 3375 1000 
L 2725 1000 
Q 2325 1000 1900 975 
L 1900 1425 
Q 2325 1400 2725 1400 
L 3375 1400 
L 3375 2050 
L 2625 2050 
Q 2225 2050 1700 2025 
L 1700 2475 
Q 2225 2450 2675 2450 
L 3375 2450 
L 3375 3075 
L 3000 3075 
Q 2675 3075 2250 3050 
L 2250 3425 
Q 2100 3225 1900 3000 
Q 1700 3175 1475 3300 
Q 1725 3525 2187 4150 
Q 2650 4775 2825 5300 
Q 3075 5200 3425 5075 
z
M 1625 2025 
Q 1000 775 675 100 
Q 500 275 225 450 
Q 525 875 800 1450 
Q 1075 2025 1175 2325 
Q 1400 2150 1625 2025 
z
M 2325 3500 
Q 2850 3475 3325 3475 
L 3700 3475 
Q 3900 3825 4100 4225 
L 2850 4225 
Q 2550 3775 2325 3500 
z
M 5000 1400 
L 5000 2050 
L 3875 2050 
L 3875 1400 
L 5000 1400 
z
M 700 4750 
Q 1275 4150 1600 3725 
Q 1325 3550 1175 3375 
Q 900 3775 300 4425 
Q 500 4575 700 4750 
z
M 5000 2450 
L 5000 3075 
L 3875 3075 
L 3875 2450 
L 5000 2450 
z
" transform="scale(0.015625)"/>
        <path id="SimHei-798f" d="M 6000 2175 
Q 5975 1800 5975 800 
Q 5975 -175 6000 -575 
L 5500 -575 
L 5500 -275 
L 3100 -275 
L 3100 -575 
L 2625 -575 
Q 2650 -250 2650 775 
Q 2650 1800 2625 2175 
L 6000 2175 
z
M 1250 -625 
Q 1275 -225 1275 250 
L 1275 1775 
Q 950 1350 575 1000 
Q 450 1200 250 1375 
Q 800 1825 1200 2337 
Q 1600 2850 1825 3450 
L 1125 3450 
Q 850 3450 400 3425 
L 400 3875 
Q 825 3850 1100 3850 
L 2425 3850 
Q 2350 3550 2150 3112 
Q 1950 2675 1725 2325 
L 1725 2000 
Q 1850 2100 2025 2275 
Q 2250 1925 2575 1500 
Q 2400 1400 2250 1200 
Q 1975 1625 1725 1925 
L 1725 300 
Q 1725 -225 1750 -625 
L 1250 -625 
z
M 5625 3900 
Q 5600 3575 5600 3250 
Q 5600 2950 5625 2575 
L 2950 2575 
Q 2975 2950 2975 3275 
Q 2975 3600 2950 3900 
L 5625 3900 
z
M 2600 4825 
Q 3000 4800 3475 4800 
L 5125 4800 
Q 5575 4800 5975 4825 
L 5975 4375 
Q 5575 4400 5125 4400 
L 3500 4400 
Q 2850 4400 2600 4375 
L 2600 4825 
z
M 5150 2950 
L 5150 3525 
L 3400 3525 
L 3400 2950 
L 5150 2950 
z
M 4075 100 
L 4075 775 
L 3100 775 
L 3100 100 
L 4075 100 
z
M 5500 100 
L 5500 775 
L 4550 775 
L 4550 100 
L 5500 100 
z
M 4075 1150 
L 4075 1800 
L 3100 1800 
L 3100 1150 
L 4075 1150 
z
M 5500 1150 
L 5500 1800 
L 4550 1800 
L 4550 1150 
L 5500 1150 
z
M 1350 5200 
Q 1725 4825 2125 4350 
Q 1875 4200 1750 4050 
Q 1375 4575 1025 4900 
Q 1250 5050 1350 5200 
z
" transform="scale(0.015625)"/>
        <path id="SimHei-5229" d="M 2400 2650 
Q 2950 2150 3500 1525 
Q 3325 1375 3125 1150 
Q 2775 1675 2400 2075 
L 2400 225 
Q 2400 -375 2425 -675 
L 1875 -675 
Q 1900 -350 1900 225 
L 1900 1975 
Q 1625 1450 1375 1100 
Q 1125 750 725 275 
Q 575 525 300 700 
Q 850 1150 1287 1837 
Q 1725 2525 1850 2950 
L 1375 2950 
Q 775 2950 500 2925 
L 500 3400 
Q 800 3375 1375 3375 
L 1900 3375 
L 1900 4350 
Q 1400 4250 825 4150 
Q 750 4400 625 4625 
Q 1050 4650 1800 4800 
Q 2550 4950 3225 5175 
Q 3350 4875 3550 4650 
Q 3050 4575 2400 4450 
L 2400 3375 
L 2825 3375 
Q 3350 3375 3750 3400 
L 3750 2925 
Q 3350 2950 2850 2950 
L 2400 2950 
L 2400 2650 
z
M 5775 5125 
Q 5750 4875 5750 4275 
L 5750 -100 
Q 5750 -400 5512 -487 
Q 5275 -575 4675 -675 
Q 4600 -300 4500 -75 
Q 5025 -100 5137 -50 
Q 5250 0 5250 150 
L 5250 4300 
Q 5250 4650 5225 5125 
L 5775 5125 
z
M 4625 4100 
Q 4600 3800 4600 3300 
L 4600 1725 
Q 4600 1200 4625 825 
L 4075 825 
Q 4100 1275 4100 1725 
L 4100 3300 
Q 4100 3700 4075 4100 
L 4625 4100 
z
" transform="scale(0.015625)"/>
       </defs>
       <use xlink:href="#SimHei-4ef7"/>
       <use xlink:href="#SimHei-683c" x="100"/>
       <use xlink:href="#SimHei-4e0a" x="200"/>
       <use xlink:href="#SimHei-9650" x="300"/>
       <use xlink:href="#SimHei-51c0" x="400"/>
       <use xlink:href="#SimHei-798f" x="500"/>
       <use xlink:href="#SimHei-5229" x="600"/>
       <use xlink:href="#SimHei-53d8" x="700"/>
       <use xlink:href="#SimHei-5316" x="800"/>
      </g>
     </g>
    </g>
    <g id="xtick_5">
     <g id="line2d_5">
      <path d="M 344.680374 368.115938 
L 444.291887 674.688649 
" clip-path="url(#pe150105671)" style="fill: none; stroke: #b0b0b0; stroke-width: 0.8; stroke-linecap: square"/>
     </g>
     <g id="text_5">
      <!-- 价格区间净福利变化 -->
      <g transform="translate(403.618125 691.421409) scale(0.1 -0.1)">
       <use xlink:href="#SimHei-4ef7"/>
       <use xlink:href="#SimHei-683c" x="100"/>
       <use xlink:href="#SimHei-533a" x="200"/>
       <use xlink:href="#SimHei-95f4" x="300"/>
       <use xlink:href="#SimHei-51c0" x="400"/>
       <use xlink:href="#SimHei-798f" x="500"/>
       <use xlink:href="#SimHei-5229" x="600"/>
       <use xlink:href="#SimHei-53d8" x="700"/>
       <use xlink:href="#SimHei-5316" x="800"/>
      </g>
     </g>
    </g>
   </g>
   <g id="matplotlib.axis_2">
    <g id="ytick_1">
     <g id="line2d_6">
      <path d="M 409.1503 368.115938 
C 409.1503 359.649825 407.48266 351.266034 404.242819 343.444365 
C 401.002977 335.622697 396.253942 328.515262 390.267496 322.528816 
C 384.28105 316.54237 377.173615 311.793334 369.351947 308.553493 
C 361.530278 305.313652 353.146487 303.646012 344.680374 303.646012 
C 336.214261 303.646012 327.830471 305.313652 320.008802 308.553493 
C 312.187134 311.793334 305.079699 316.54237 299.093253 322.528816 
C 293.106807 328.515262 288.357771 335.622697 285.11793 343.444365 
C 281.878089 351.266034 280.210449 359.649825 280.210449 368.115938 
C 280.210449 376.58205 281.878089 384.965841 285.11793 392.78751 
C 288.357771 400.609178 293.106807 407.716613 299.093253 413.703059 
C 305.079699 419.689505 312.187134 424.438541 320.008802 427.678382 
C 327.830471 430.918223 336.214261 432.585863 344.680374 432.585863 
C 353.146487 432.585863 361.530278 430.918223 369.351947 427.678382 
C 377.173615 424.438541 384.28105 419.689505 390.267496 413.703059 
C 396.253942 407.716613 401.002977 400.609178 404.242819 392.78751 
C 407.48266 384.965841 409.1503 376.58205 409.1503 368.115938 
" clip-path="url(#pe150105671)" style="fill: none; stroke: #b0b0b0; stroke-width: 0.8; stroke-linecap: square"/>
     </g>
     <g id="text_6">
      <!-- 0.2 -->
      <g transform="translate(404.242819 342.194365) scale(0.1 -0.1)">
       <defs>
        <path id="SimHei-30" d="M 225 2537 
Q 250 3200 412 3587 
Q 575 3975 875 4225 
Q 1175 4475 1612 4475 
Q 2050 4475 2375 4112 
Q 2700 3750 2800 3200 
Q 2900 2650 2862 1937 
Q 2825 1225 2612 775 
Q 2400 325 1975 150 
Q 1550 -25 1125 187 
Q 700 400 525 750 
Q 350 1100 275 1487 
Q 200 1875 225 2537 
z
M 750 2687 
Q 675 2000 800 1462 
Q 925 925 1212 700 
Q 1500 475 1800 612 
Q 2100 750 2237 1162 
Q 2375 1575 2375 2062 
Q 2375 2550 2337 2950 
Q 2300 3350 2112 3675 
Q 1925 4000 1612 4012 
Q 1300 4025 1062 3700 
Q 825 3375 750 2687 
z
" transform="scale(0.015625)"/>
        <path id="SimHei-2e" d="M 1075 125 
L 500 125 
L 500 675 
L 1075 675 
L 1075 125 
z
" transform="scale(0.015625)"/>
        <path id="SimHei-32" d="M 300 250 
Q 325 625 650 925 
Q 975 1225 1475 1862 
Q 1975 2500 2125 2850 
Q 2275 3200 2237 3450 
Q 2200 3700 2000 3862 
Q 1800 4025 1537 4000 
Q 1275 3975 1037 3800 
Q 800 3625 675 3275 
L 200 3350 
Q 400 3925 712 4187 
Q 1025 4450 1450 4475 
Q 1700 4500 1900 4462 
Q 2100 4425 2312 4287 
Q 2525 4150 2662 3875 
Q 2800 3600 2762 3212 
Q 2725 2825 2375 2287 
Q 2025 1750 1025 600 
L 2825 600 
L 2825 150 
L 300 150 
L 300 250 
z
" transform="scale(0.015625)"/>
       </defs>
       <use xlink:href="#SimHei-30"/>
       <use xlink:href="#SimHei-2e" x="50"/>
       <use xlink:href="#SimHei-32" x="100"/>
      </g>
     </g>
    </g>
    <g id="ytick_2">
     <g id="line2d_7">
      <path d="M 473.620225 368.115938 
C 473.620225 351.183712 470.284945 334.41613 463.805263 318.772793 
C 457.325581 303.129456 447.827509 288.914587 435.854617 276.941695 
C 423.881725 264.968803 409.666856 255.470731 394.023519 248.991049 
C 378.380182 242.511367 361.6126 239.176087 344.680374 239.176087 
C 327.748148 239.176087 310.980567 242.511367 295.33723 248.991049 
C 279.693893 255.470731 265.479024 264.968803 253.506132 276.941695 
C 241.53324 288.914587 232.035168 303.129456 225.555486 318.772793 
C 219.075803 334.41613 215.740524 351.183712 215.740524 368.115938 
C 215.740524 385.048163 219.075803 401.815745 225.555486 417.459082 
C 232.035168 433.102419 241.53324 447.317288 253.506132 459.29018 
C 265.479024 471.263072 279.693893 480.761144 295.33723 487.240826 
C 310.980567 493.720508 327.748148 497.055788 344.680374 497.055788 
C 361.6126 497.055788 378.380182 493.720508 394.023519 487.240826 
C 409.666856 480.761144 423.881725 471.263072 435.854617 459.29018 
C 447.827509 447.317288 457.325581 433.102419 463.805263 417.459082 
C 470.284945 401.815745 473.620225 385.048163 473.620225 368.115938 
" clip-path="url(#pe150105671)" style="fill: none; stroke: #b0b0b0; stroke-width: 0.8; stroke-linecap: square"/>
     </g>
     <g id="text_7">
      <!-- 0.4 -->
      <g transform="translate(463.805263 317.522793) scale(0.1 -0.1)">
       <defs>
        <path id="SimHei-34" d="M 2000 1100 
L 75 1100 
L 75 1525 
L 2100 4450 
L 2475 4450 
L 2475 1525 
L 3075 1525 
L 3075 1100 
L 2475 1100 
L 2475 150 
L 2000 150 
L 2000 1100 
z
M 2000 1525 
L 2000 3500 
L 600 1525 
L 2000 1525 
z
" transform="scale(0.015625)"/>
       </defs>
       <use xlink:href="#SimHei-30"/>
       <use xlink:href="#SimHei-2e" x="50"/>
       <use xlink:href="#SimHei-34" x="100"/>
      </g>
     </g>
    </g>
    <g id="ytick_3">
     <g id="line2d_8">
      <path d="M 538.09015 368.115938 
C 538.09015 342.717599 533.087231 317.566226 523.367707 294.101221 
C 513.648184 270.636215 499.401076 249.313912 481.441738 231.354574 
C 463.4824 213.395236 442.160097 199.148128 418.695091 189.428605 
C 395.230086 179.709081 370.078713 174.706162 344.680374 174.706162 
C 319.282035 174.706162 294.130663 179.709081 270.665658 189.428605 
C 247.200652 199.148128 225.878348 213.395236 207.919011 231.354574 
C 189.959673 249.313912 175.712565 270.636215 165.993042 294.101221 
C 156.273518 317.566226 151.270599 342.717599 151.270599 368.115938 
C 151.270599 393.514276 156.273518 418.665649 165.993042 442.130654 
C 175.712565 465.59566 189.959673 486.917963 207.919011 504.877301 
C 225.878348 522.836639 247.200652 537.083747 270.665658 546.80327 
C 294.130663 556.522794 319.282035 561.525713 344.680374 561.525713 
C 370.078713 561.525713 395.230086 556.522794 418.695091 546.80327 
C 442.160097 537.083747 463.4824 522.836639 481.441738 504.877301 
C 499.401076 486.917963 513.648184 465.59566 523.367707 442.130654 
C 533.087231 418.665649 538.09015 393.514276 538.09015 368.115938 
" clip-path="url(#pe150105671)" style="fill: none; stroke: #b0b0b0; stroke-width: 0.8; stroke-linecap: square"/>
     </g>
     <g id="text_8">
      <!-- 0.6 -->
      <g transform="translate(523.367707 292.851221) scale(0.1 -0.1)">
       <defs>
        <path id="SimHei-36" d="M 250 1612 
Q 275 1975 387 2225 
Q 500 2475 725 2850 
L 1750 4450 
L 2325 4450 
L 1275 2800 
Q 1950 2975 2350 2750 
Q 2750 2525 2887 2237 
Q 3025 1950 3037 1612 
Q 3050 1275 2937 950 
Q 2825 625 2537 362 
Q 2250 100 1737 75 
Q 1225 50 862 262 
Q 500 475 362 862 
Q 225 1250 250 1612 
z
M 1025 787 
Q 1250 550 1625 525 
Q 2000 500 2250 775 
Q 2500 1050 2500 1575 
Q 2500 2100 2187 2300 
Q 1875 2500 1487 2450 
Q 1100 2400 925 2075 
Q 750 1750 775 1387 
Q 800 1025 1025 787 
z
" transform="scale(0.015625)"/>
       </defs>
       <use xlink:href="#SimHei-30"/>
       <use xlink:href="#SimHei-2e" x="50"/>
       <use xlink:href="#SimHei-36" x="100"/>
      </g>
     </g>
    </g>
    <g id="ytick_4">
     <g id="line2d_9">
      <path d="M 602.560075 368.115938 
C 602.560075 334.251486 595.889516 300.716323 582.930152 269.429649 
C 569.970787 238.142975 550.974643 209.713236 527.028859 185.767453 
C 503.083076 161.821669 474.653337 142.825525 443.366663 129.86616 
C 412.079989 116.906796 378.544826 110.236237 344.680374 110.236237 
C 310.815922 110.236237 277.28076 116.906796 245.994085 129.86616 
C 214.707411 142.825525 186.277673 161.821669 162.331889 185.767453 
C 138.386106 209.713236 119.389962 238.142975 106.430597 269.429649 
C 93.471233 300.716323 86.800674 334.251486 86.800674 368.115938 
C 86.800674 401.980389 93.471233 435.515552 106.430597 466.802226 
C 119.389962 498.0889 138.386106 526.518639 162.331889 550.464422 
C 186.277673 574.410206 214.707411 593.40635 245.994085 606.365715 
C 277.28076 619.325079 310.815922 625.995638 344.680374 625.995638 
C 378.544826 625.995638 412.079989 619.325079 443.366663 606.365715 
C 474.653337 593.40635 503.083076 574.410206 527.028859 550.464422 
C 550.974643 526.518639 569.970787 498.0889 582.930152 466.802226 
C 595.889516 435.515552 602.560075 401.980389 602.560075 368.115938 
" clip-path="url(#pe150105671)" style="fill: none; stroke: #b0b0b0; stroke-width: 0.8; stroke-linecap: square"/>
     </g>
     <g id="text_9">
      <!-- 0.8 -->
      <g transform="translate(582.930152 268.179649) scale(0.1 -0.1)">
       <defs>
        <path id="SimHei-38" d="M 175 1375 
Q 175 1675 325 1962 
Q 475 2250 825 2425 
Q 525 2600 425 2812 
Q 325 3025 312 3300 
Q 300 3575 387 3775 
Q 475 3975 650 4150 
Q 825 4325 1037 4387 
Q 1250 4450 1500 4450 
Q 1750 4450 1950 4400 
Q 2150 4350 2375 4187 
Q 2600 4025 2700 3725 
Q 2800 3425 2687 3025 
Q 2575 2625 2100 2400 
Q 2525 2275 2700 2012 
Q 2875 1750 2875 1375 
Q 2875 1000 2762 775 
Q 2650 550 2512 400 
Q 2375 250 2137 162 
Q 1900 75 1537 75 
Q 1175 75 912 162 
Q 650 250 475 425 
Q 300 600 237 837 
Q 175 1075 175 1375 
z
M 687 1400 
Q 675 1100 787 875 
Q 900 650 1200 587 
Q 1500 525 1825 600 
Q 2150 675 2275 950 
Q 2400 1225 2362 1500 
Q 2325 1775 2050 1962 
Q 1775 2150 1450 2125 
Q 1125 2100 912 1900 
Q 700 1700 687 1400 
z
M 775 3350 
Q 775 3100 950 2875 
Q 1125 2650 1500 2650 
Q 1875 2650 2062 2875 
Q 2250 3100 2237 3412 
Q 2225 3725 2012 3875 
Q 1800 4025 1437 4000 
Q 1075 3975 925 3787 
Q 775 3600 775 3350 
z
" transform="scale(0.015625)"/>
       </defs>
       <use xlink:href="#SimHei-30"/>
       <use xlink:href="#SimHei-2e" x="50"/>
       <use xlink:href="#SimHei-38" x="100"/>
      </g>
     </g>
    </g>
    <g id="ytick_5">
     <g id="line2d_10">
      <path d="M 667.03 368.115938 
C 667.03 325.785373 658.691802 283.866419 642.492596 244.758076 
C 626.29339 205.649734 602.54821 170.112561 572.615981 140.180331 
C 542.683751 110.248102 507.146578 86.502922 468.038236 70.303716 
C 428.929893 54.10451 387.010939 45.766312 344.680374 45.766312 
C 302.349809 45.766312 260.430856 54.10451 221.322513 70.303716 
C 182.214171 86.502922 146.676998 110.248102 116.744768 140.180331 
C 86.812539 170.112561 63.067359 205.649734 46.868153 244.758076 
C 30.668947 283.866419 22.330749 325.785373 22.330749 368.115938 
C 22.330749 410.446502 30.668947 452.365456 46.868153 491.473799 
C 63.067359 530.582141 86.812539 566.119314 116.744768 596.051544 
C 146.676998 625.983773 182.214171 649.728953 221.322513 665.928159 
C 260.430856 682.127365 302.349809 690.465563 344.680374 690.465563 
C 387.010939 690.465563 428.929893 682.127365 468.038236 665.928159 
C 507.146578 649.728953 542.683751 625.983773 572.615981 596.051544 
C 602.54821 566.119314 626.29339 530.582141 642.492596 491.473799 
C 658.691802 452.365456 667.03 410.446502 667.03 368.115938 
" clip-path="url(#pe150105671)" style="fill: none; stroke: #b0b0b0; stroke-width: 0.8; stroke-linecap: square"/>
     </g>
     <g id="text_10">
      <!-- 1.0 -->
      <g transform="translate(642.492596 243.508076) scale(0.1 -0.1)">
       <defs>
        <path id="SimHei-31" d="M 1400 3600 
Q 1075 3275 575 2975 
L 575 3450 
Q 1200 3875 1600 4450 
L 1900 4450 
L 1900 150 
L 1400 150 
L 1400 3600 
z
" transform="scale(0.015625)"/>
       </defs>
       <use xlink:href="#SimHei-31"/>
       <use xlink:href="#SimHei-2e" x="50"/>
       <use xlink:href="#SimHei-30" x="100"/>
      </g>
     </g>
    </g>
   </g>
   <g id="line2d_11">
    <path d="M 667.03 368.115938 
L 344.680374 368.115938 
L 344.680374 368.115938 
L 344.680374 368.115938 
L 344.680374 368.115938 
L 667.03 368.115938 
" clip-path="url(#pe150105671)" style="fill: none; stroke: #1f77b4; stroke-width: 2; stroke-linecap: square"/>
   </g>
   <g id="line2d_12">
    <path d="M 667.03 368.115938 
L 344.680374 368.115938 
L 344.680374 368.115938 
L 344.680374 368.115938 
L 344.680374 368.115938 
L 667.03 368.115938 
" clip-path="url(#pe150105671)" style="fill: none; stroke: #ff7f0e; stroke-width: 2; stroke-linecap: square"/>
   </g>
   <g id="patch_5">
    <path d="M 667.03 368.115938 
C 667.03 325.785373 658.691802 283.866419 642.492596 244.758076 
C 626.29339 205.649734 602.54821 170.112561 572.615981 140.180331 
C 542.683751 110.248102 507.146578 86.502922 468.038236 70.303716 
C 428.929893 54.10451 387.010939 45.766312 344.680374 45.766312 
C 302.349809 45.766312 260.430856 54.10451 221.322513 70.303716 
C 182.214171 86.502922 146.676998 110.248102 116.744768 140.180331 
C 86.812539 170.112561 63.067359 205.649734 46.868153 244.758076 
C 30.668947 283.866419 22.330749 325.785373 22.330749 368.115938 
C 22.330749 410.446502 30.668947 452.365456 46.868153 491.473799 
C 63.067359 530.582141 86.812539 566.119314 116.744768 596.051544 
C 146.676998 625.983773 182.214171 649.728953 221.322513 665.928159 
C 260.430856 682.127365 302.349809 690.465563 344.680374 690.465563 
C 387.010939 690.465563 428.929893 682.127365 468.038236 665.928159 
C 507.146578 649.728953 542.683751 625.983773 572.615981 596.051544 
C 602.54821 566.119314 626.29339 530.582141 642.492596 491.473799 
C 658.691802 452.365456 667.03 410.446502 667.03 368.115938 
" style="fill: none; stroke: #000000; stroke-width: 0.8; stroke-linejoin: miter; stroke-linecap: square"/>
   </g>
   <g id="text_11">
    <!-- 不同市场监管效果雷达图比较 (归一化数据) -->
    <g transform="translate(227.680374 39.766312) scale(0.12 -0.12)">
     <defs>
      <path id="SimHei-4e0d" d="M 5975 4450 
Q 5525 4475 5200 4475 
L 3725 4475 
Q 3550 4125 3300 3700 
L 3300 575 
Q 3300 75 3325 -550 
L 2775 -550 
Q 2800 50 2800 575 
L 2800 3025 
Q 2025 1950 700 1050 
Q 500 1350 325 1475 
Q 825 1700 1650 2437 
Q 2475 3175 3175 4475 
L 1525 4475 
Q 1050 4475 525 4450 
L 525 4950 
Q 1275 4925 1675 4925 
L 5175 4925 
Q 5500 4925 5975 4950 
L 5975 4450 
z
M 5450 1125 
Q 4975 1725 3750 2975 
Q 3950 3150 4075 3325 
Q 4675 2775 5100 2362 
Q 5525 1950 5900 1550 
Q 5650 1350 5450 1125 
z
" transform="scale(0.015625)"/>
      <path id="SimHei-540c" d="M 5825 4925 
Q 5775 4550 5775 3975 
L 5775 -50 
Q 5775 -400 5525 -487 
Q 5275 -575 4725 -625 
Q 4725 -400 4525 -50 
Q 4925 -50 5100 -12 
Q 5275 25 5275 200 
L 5275 4450 
L 1150 4450 
L 1150 -600 
L 575 -600 
Q 600 -250 625 200 
L 625 3975 
Q 625 4575 600 4925 
L 5825 4925 
z
M 4375 2550 
Q 4325 2275 4325 1700 
Q 4325 1150 4375 725 
L 2025 725 
Q 2050 1175 2050 1750 
Q 2050 2325 2025 2550 
L 4375 2550 
z
M 4100 3750 
Q 4600 3750 4825 3775 
L 4825 3275 
Q 4575 3300 4075 3300 
L 2450 3300 
Q 1850 3300 1600 3275 
L 1600 3775 
Q 1875 3750 2475 3750 
L 4100 3750 
z
M 3875 1150 
L 3875 2150 
L 2525 2150 
L 2525 1150 
L 3875 1150 
z
" transform="scale(0.015625)"/>
      <path id="SimHei-5e02" d="M 4750 4200 
Q 5350 4200 6050 4225 
L 6050 3725 
Q 5350 3750 4750 3750 
L 3450 3750 
L 3450 2900 
L 5375 2900 
Q 5350 2450 5350 1975 
L 5350 750 
Q 5350 325 5062 175 
Q 4775 25 4250 -25 
Q 4200 275 4025 575 
Q 4550 575 4687 600 
Q 4825 625 4825 850 
L 4825 2450 
L 3450 2450 
L 3450 475 
Q 3450 -150 3475 -600 
L 2900 -600 
Q 2925 -150 2925 475 
L 2925 2450 
L 1525 2450 
L 1525 0 
L 975 0 
Q 1000 400 1000 950 
L 1000 1875 
Q 1000 2450 975 2900 
L 2925 2900 
L 2925 3750 
L 1625 3750 
Q 975 3750 325 3725 
L 325 4225 
Q 975 4200 1625 4200 
L 4750 4200 
z
M 2950 5275 
Q 3250 4975 3575 4475 
Q 3300 4350 3125 4225 
Q 2900 4625 2550 5000 
Q 2750 5150 2950 5275 
z
" transform="scale(0.015625)"/>
      <path id="SimHei-573a" d="M 5625 5000 
L 5625 4600 
Q 5275 4525 4862 4150 
Q 4450 3775 3750 3100 
L 6000 3100 
Q 5975 2925 5950 2300 
L 5850 425 
Q 5825 -200 5587 -350 
Q 5350 -500 4750 -550 
Q 4700 -250 4525 50 
Q 5050 0 5200 75 
Q 5350 150 5375 400 
L 5475 2675 
L 5000 2675 
Q 4875 1925 4700 1425 
Q 4525 925 4287 562 
Q 4050 200 3750 -62 
Q 3450 -325 3000 -600 
Q 2875 -350 2650 -175 
Q 3075 50 3425 350 
Q 3775 650 4000 1050 
Q 4225 1450 4337 1900 
Q 4450 2350 4500 2675 
L 4000 2675 
Q 3950 2300 3787 1912 
Q 3625 1525 3325 1150 
Q 3025 775 2550 425 
Q 2450 600 2175 800 
Q 2775 1125 3112 1675 
Q 3450 2225 3500 2675 
Q 3225 2650 3125 2625 
Q 3025 2600 2800 2525 
Q 2725 2825 2650 3025 
Q 3075 3075 3637 3587 
Q 4200 4100 4650 4575 
L 3700 4575 
Q 3150 4575 2675 4550 
L 2675 5025 
Q 3125 5000 3675 5000 
L 5625 5000 
z
M 1200 4375 
Q 1200 4650 1175 5075 
L 1700 5075 
Q 1675 4625 1675 4375 
L 1675 3450 
Q 2050 3450 2450 3475 
L 2450 3025 
Q 2000 3050 1675 3050 
L 1675 1225 
Q 1950 1325 2500 1575 
Q 2500 1350 2525 1125 
Q 2100 925 1500 687 
Q 900 450 500 225 
Q 400 450 200 725 
Q 650 850 1200 1050 
L 1200 3050 
Q 650 3050 325 3025 
L 325 3475 
Q 750 3450 1200 3450 
L 1200 4375 
z
" transform="scale(0.015625)"/>
      <path id="SimHei-76d1" d="M 5525 1775 
Q 5500 1350 5500 950 
L 5500 0 
Q 5850 0 6175 50 
L 6175 -475 
Q 5575 -425 4875 -425 
L 1425 -425 
Q 725 -425 225 -475 
L 225 50 
Q 600 0 925 0 
L 925 950 
Q 925 1350 900 1775 
L 5525 1775 
z
M 4600 5025 
Q 4425 4800 4337 4562 
Q 4250 4325 4175 4125 
L 5300 4125 
Q 5725 4125 6150 4150 
L 6150 3675 
Q 5750 3725 5275 3725 
L 4050 3725 
Q 3800 3125 3375 2425 
Q 3175 2575 2900 2675 
Q 3100 2925 3312 3362 
Q 3525 3800 3700 4325 
Q 3875 4850 3975 5250 
Q 4300 5125 4600 5025 
z
M 2750 5200 
Q 2700 4950 2700 4475 
L 2700 3050 
Q 2700 2600 2725 2075 
L 2200 2075 
Q 2225 2600 2225 3050 
L 2225 4425 
Q 2225 4775 2200 5200 
L 2750 5200 
z
M 1450 4900 
Q 1400 4575 1400 4125 
L 1400 3200 
Q 1400 2825 1425 2325 
L 900 2325 
Q 925 2825 925 3200 
L 925 4200 
Q 925 4550 900 4900 
L 1450 4900 
z
M 5025 -25 
L 5025 1325 
L 4125 1325 
L 4125 -25 
L 5025 -25 
z
M 2300 -25 
L 2300 1325 
L 1400 1325 
L 1400 -25 
L 2300 -25 
z
M 3650 -25 
L 3650 1325 
L 2775 1325 
L 2775 -25 
L 3650 -25 
z
M 4575 3500 
Q 4850 3300 5100 3037 
Q 5350 2775 5625 2475 
Q 5450 2325 5225 2125 
L 4725 2675 
Q 4475 2950 4250 3150 
Q 4400 3350 4575 3500 
z
" transform="scale(0.015625)"/>
      <path id="SimHei-7ba1" d="M 4975 2550 
Q 4950 2150 4950 1950 
Q 4950 1775 4975 1400 
L 1900 1400 
L 1900 975 
L 5225 975 
Q 5200 425 5200 150 
Q 5200 -100 5225 -550 
L 4725 -550 
L 4725 -300 
L 1900 -300 
L 1900 -625 
L 1375 -625 
Q 1400 25 1400 150 
L 1400 1725 
Q 1400 2150 1375 2550 
L 4975 2550 
z
M 3200 4050 
Q 3500 3475 3550 3350 
L 6000 3350 
Q 5975 3000 5975 2825 
Q 5975 2675 6000 2375 
L 5450 2375 
L 5450 2950 
L 925 2950 
L 925 2350 
L 375 2350 
Q 400 2575 400 2800 
Q 400 3025 375 3350 
L 2975 3350 
Q 2900 3550 2725 3850 
Q 2975 3900 3200 4050 
z
M 3250 4275 
Q 2850 4300 2325 4300 
L 2575 3800 
Q 2275 3725 2050 3625 
Q 1975 3975 1850 4300 
L 1525 4300 
Q 1300 4025 1137 3862 
Q 975 3700 750 3525 
Q 600 3725 300 3875 
Q 825 4225 1100 4575 
Q 1375 4925 1500 5300 
Q 1725 5200 2125 5100 
Q 1950 4925 1800 4700 
L 2625 4700 
Q 2925 4700 3250 4725 
L 3250 4275 
z
M 4925 3600 
Q 4850 3950 4700 4300 
L 4225 4300 
Q 4000 3950 3850 3725 
Q 3575 3875 3350 4000 
Q 3650 4275 3825 4587 
Q 4000 4900 4100 5275 
Q 4375 5175 4725 5100 
Q 4525 4925 4425 4700 
L 5400 4700 
Q 5625 4700 6125 4725 
L 6125 4275 
Q 5750 4300 5175 4300 
L 5425 3800 
L 4925 3600 
z
M 4725 75 
L 4725 575 
L 1900 575 
L 1900 75 
L 4725 75 
z
M 4475 1775 
L 4475 2175 
L 1900 2175 
L 1900 1775 
L 4475 1775 
z
" transform="scale(0.015625)"/>
      <path id="SimHei-6548" d="M 3500 2400 
Q 3400 2675 3200 2900 
Q 3500 3350 3750 4025 
Q 4000 4700 4100 5300 
Q 4400 5150 4750 5075 
Q 4625 4950 4500 4687 
Q 4375 4425 4225 4025 
Q 5800 4025 6150 4050 
L 6150 3625 
Q 5850 3650 5475 3650 
Q 5450 2925 5300 2137 
Q 5150 1350 4825 800 
Q 4900 575 5312 275 
Q 5725 -25 6175 -175 
Q 5875 -350 5775 -650 
Q 5350 -425 5050 -162 
Q 4750 100 4500 425 
Q 4175 125 3837 -112 
Q 3500 -350 2850 -700 
Q 2725 -425 2425 -250 
Q 2750 -200 3325 137 
Q 3900 475 4200 800 
Q 4000 1225 3887 1675 
Q 3775 2125 3675 2700 
L 3500 2400 
z
M 1100 2225 
Q 1525 1875 1925 1575 
Q 2125 1900 2200 2400 
Q 2450 2275 2700 2200 
Q 2475 1625 2300 1250 
L 3000 550 
Q 2775 375 2575 175 
Q 2400 450 2025 825 
Q 1825 600 1550 312 
Q 1275 25 700 -425 
Q 500 -175 250 -25 
Q 575 125 950 400 
Q 1325 675 1675 1175 
Q 1325 1475 850 1875 
L 1100 2225 
z
M 4075 2950 
Q 4100 2700 4212 2187 
Q 4325 1675 4525 1225 
Q 4775 1700 4887 2475 
Q 5000 3250 4975 3650 
L 4100 3650 
Q 3900 3125 3725 2850 
Q 3900 2850 4075 2950 
z
M 2500 4200 
Q 2875 4200 3175 4225 
L 3175 3800 
Q 2875 3825 2525 3825 
L 1000 3825 
Q 600 3825 275 3800 
L 275 4225 
Q 600 4200 1000 4200 
L 2500 4200 
z
M 1125 3650 
Q 1400 3500 1625 3325 
Q 1525 3250 1300 2900 
Q 1050 2525 675 2000 
Q 450 2150 225 2275 
Q 550 2575 787 2975 
Q 1025 3375 1125 3650 
z
M 2475 3625 
Q 2625 3400 2850 3100 
Q 3075 2800 3250 2575 
Q 3025 2450 2825 2275 
Q 2325 3000 2075 3325 
Q 2275 3425 2475 3625 
z
M 1825 5250 
Q 2025 4875 2175 4475 
Q 1950 4375 1700 4275 
Q 1550 4650 1350 5075 
Q 1575 5150 1825 5250 
z
" transform="scale(0.015625)"/>
      <path id="SimHei-679c" d="M 2975 -525 
Q 3000 -75 3000 575 
L 3000 1600 
L 2900 1600 
Q 2725 1275 2500 1000 
Q 2275 725 1987 512 
Q 1700 300 1362 100 
Q 1025 -100 675 -250 
Q 575 25 400 275 
Q 700 350 975 487 
Q 1250 625 1525 787 
Q 1800 950 2000 1150 
Q 2200 1350 2375 1600 
L 1375 1600 
Q 1000 1600 450 1550 
L 450 2050 
Q 950 2000 1375 2000 
L 3000 2000 
L 3000 2450 
L 1150 2450 
Q 1175 3050 1175 3775 
Q 1175 4500 1150 5000 
L 5325 5000 
Q 5300 4500 5300 3775 
Q 5300 3050 5325 2450 
L 3475 2450 
L 3475 2000 
L 5050 2000 
Q 5550 2000 5925 2025 
L 5925 1550 
Q 5500 1600 5100 1600 
L 4125 1600 
Q 4450 1075 4925 800 
Q 5400 525 6050 375 
Q 5875 150 5775 -175 
Q 4925 150 4425 550 
Q 3925 950 3675 1600 
L 3475 1600 
L 3475 550 
Q 3475 0 3500 -525 
L 2975 -525 
z
M 4825 3875 
L 4825 4625 
L 3475 4625 
L 3475 3875 
L 4825 3875 
z
M 3000 3875 
L 3000 4625 
L 1675 4625 
L 1675 3875 
L 3000 3875 
z
M 4825 2825 
L 4825 3500 
L 3475 3500 
L 3475 2825 
L 4825 2825 
z
M 3000 2825 
L 3000 3500 
L 1675 3500 
L 1675 2825 
L 3000 2825 
z
" transform="scale(0.015625)"/>
      <path id="SimHei-96f7" d="M 5375 2125 
Q 5325 1525 5325 1125 
L 5325 275 
Q 5325 -200 5375 -625 
L 4850 -625 
L 4850 -250 
L 1525 -250 
L 1525 -650 
L 1000 -650 
Q 1025 -250 1025 325 
L 1025 1125 
Q 1025 1700 1000 2125 
L 5375 2125 
z
M 5500 3100 
L 5500 3850 
L 3450 3850 
L 3450 3200 
Q 3450 2700 3475 2250 
L 2950 2250 
L 2950 3850 
L 925 3850 
L 925 3100 
L 375 3100 
Q 400 3375 400 3650 
Q 400 3950 375 4225 
L 2950 4225 
L 2950 4675 
L 1750 4675 
Q 1375 4675 900 4650 
L 900 5050 
Q 1300 5025 1700 5025 
L 4650 5025 
Q 5050 5025 5525 5050 
L 5525 4650 
Q 5075 4675 4650 4675 
L 3450 4675 
L 3450 4225 
L 6025 4225 
Q 6000 4050 6000 3650 
Q 6000 3275 6025 3100 
L 5500 3100 
z
M 2950 125 
L 2950 750 
L 1525 750 
L 1525 125 
L 2950 125 
z
M 4850 125 
L 4850 750 
L 3450 750 
L 3450 125 
L 4850 125 
z
M 2950 1125 
L 2950 1725 
L 1525 1725 
L 1525 1125 
L 2950 1125 
z
M 4850 1125 
L 4850 1725 
L 3450 1725 
L 3450 1125 
L 4850 1125 
z
M 2525 2450 
L 1275 2450 
L 1275 2800 
L 2525 2800 
L 2525 2450 
z
M 5100 2450 
L 3875 2450 
L 3875 2800 
L 5100 2800 
L 5100 2450 
z
M 2525 3175 
L 1300 3175 
L 1300 3525 
L 2525 3525 
L 2525 3175 
z
M 5075 3175 
L 3850 3175 
L 3850 3525 
L 5075 3525 
L 5075 3175 
z
" transform="scale(0.015625)"/>
      <path id="SimHei-8fbe" d="M 1700 2975 
Q 1675 2500 1675 2225 
L 1675 775 
Q 2025 350 2600 150 
Q 3175 -50 4375 -50 
Q 5600 -50 6150 75 
Q 5975 -325 5975 -550 
Q 4925 -575 4212 -550 
Q 3500 -525 3025 -437 
Q 2550 -350 2287 -225 
Q 2025 -100 1737 137 
Q 1450 375 1212 125 
Q 975 -125 700 -475 
Q 525 -300 275 -100 
Q 625 200 1175 700 
L 1175 2550 
Q 825 2550 375 2525 
L 375 3000 
Q 900 2975 1700 2975 
z
M 3700 3700 
Q 3700 4800 3675 5225 
Q 4100 5175 4275 5150 
Q 4200 4825 4175 3700 
Q 5475 3700 5875 3725 
L 5875 3225 
Q 5475 3250 4150 3250 
Q 4075 2400 3687 1700 
Q 3300 1000 2500 375 
Q 2400 575 2125 775 
Q 2775 1225 3162 1812 
Q 3550 2400 3650 3250 
Q 2625 3250 2150 3225 
L 2150 3725 
Q 2625 3700 3700 3700 
z
M 4475 2450 
Q 5600 1225 5925 800 
Q 5675 650 5450 425 
Q 5075 1000 4100 2100 
Q 4275 2225 4475 2450 
z
M 1100 5125 
Q 1575 4575 1950 4075 
Q 1725 3900 1525 3700 
Q 1125 4325 700 4800 
Q 900 4925 1100 5125 
z
" transform="scale(0.015625)"/>
      <path id="SimHei-56fe" d="M 5800 4975 
Q 5775 4350 5775 3600 
L 5775 925 
Q 5775 150 5800 -600 
L 5300 -600 
L 5300 -275 
L 1125 -275 
L 1125 -650 
L 625 -650 
Q 650 125 650 950 
L 650 3600 
Q 650 4325 625 4975 
L 5800 4975 
z
M 5300 150 
L 5300 4575 
L 1125 4575 
L 1125 150 
L 5300 150 
z
M 3225 4250 
Q 3075 4100 2950 3925 
L 4625 3925 
Q 4525 3700 4300 3375 
Q 4075 3050 3600 2600 
Q 4350 2225 5075 2150 
Q 4900 1925 4775 1675 
Q 3850 1950 3225 2350 
Q 2500 1875 1675 1650 
Q 1600 1875 1400 2075 
Q 2200 2200 2875 2600 
Q 2525 2925 2375 3150 
Q 2150 2900 1900 2650 
Q 1725 2850 1525 2950 
Q 1950 3300 2250 3737 
Q 2550 4175 2675 4475 
Q 2925 4350 3225 4250 
z
M 2450 1275 
Q 3550 950 4100 725 
Q 3975 525 3850 300 
Q 2825 725 2275 850 
Q 2375 1050 2450 1275 
z
M 2925 2050 
Q 3775 1700 4075 1600 
Q 3950 1400 3850 1150 
Q 3000 1550 2700 1650 
Q 2825 1825 2925 2050 
z
M 2625 3450 
Q 3000 3025 3275 2850 
Q 3600 3100 3875 3525 
L 2675 3525 
L 2625 3450 
z
" transform="scale(0.015625)"/>
      <path id="SimHei-6bd4" d="M 3775 5100 
Q 3750 4575 3750 4100 
L 3750 3050 
Q 4925 3600 5475 4175 
Q 5675 3900 5900 3675 
Q 5600 3500 5037 3187 
Q 4475 2875 3750 2550 
L 3750 450 
Q 3750 100 4050 100 
L 5000 100 
Q 5175 100 5262 250 
Q 5350 400 5450 900 
Q 5650 775 6025 675 
Q 5850 0 5650 -175 
Q 5450 -350 5225 -350 
L 3900 -350 
Q 3250 -350 3250 275 
L 3250 4000 
Q 3250 4550 3225 5100 
L 3775 5100 
z
M 1275 4975 
Q 1250 4575 1250 4000 
L 1250 3150 
L 1850 3150 
Q 2325 3150 2875 3175 
L 2875 2650 
Q 2325 2675 1850 2675 
L 1250 2675 
L 1250 475 
Q 1650 650 1962 812 
Q 2275 975 2850 1275 
Q 2900 950 2950 750 
Q 2375 475 1762 175 
Q 1150 -125 925 -325 
Q 750 -100 575 200 
Q 700 300 750 600 
L 750 3950 
Q 750 4550 725 4975 
L 1275 4975 
z
" transform="scale(0.015625)"/>
      <path id="SimHei-8f83" d="M 2950 1425 
Q 2925 1225 2925 1000 
Q 2725 975 2025 850 
Q 2025 225 2050 -625 
L 1525 -625 
Q 1550 225 1550 750 
Q 875 600 425 450 
Q 350 750 200 1000 
Q 625 1050 1550 1175 
L 1550 2100 
Q 1250 2100 937 2087 
Q 625 2075 425 2000 
L 275 2450 
Q 500 2675 662 3075 
Q 825 3475 950 3950 
Q 775 3950 350 3925 
L 350 4400 
Q 725 4350 1050 4350 
Q 1225 4800 1275 5250 
Q 1550 5150 1850 5075 
Q 1725 4775 1575 4350 
Q 2200 4350 2650 4375 
L 2650 3925 
Q 2200 3950 1450 3950 
Q 1300 3475 900 2500 
L 1550 2500 
Q 1550 3100 1525 3400 
L 2050 3400 
Q 2025 3050 2025 2500 
L 2675 2500 
L 2675 2100 
L 2025 2100 
L 2025 1250 
Q 2700 1375 2950 1425 
z
M 5450 2325 
Q 5300 1925 5100 1437 
Q 4900 950 4675 575 
Q 4900 375 5300 225 
Q 5700 75 6200 -25 
Q 6000 -275 5950 -575 
Q 5300 -375 4925 -162 
Q 4550 50 4325 250 
Q 4025 -25 3687 -212 
Q 3350 -400 2825 -625 
Q 2725 -375 2450 -125 
Q 3025 0 3425 212 
Q 3825 425 4025 625 
Q 3800 1000 3650 1425 
L 3350 2275 
Q 3550 2375 3850 2475 
Q 4000 1875 4100 1600 
Q 4200 1325 4350 1025 
Q 4525 1275 4650 1662 
Q 4775 2050 4850 2525 
Q 5125 2425 5450 2325 
z
M 5175 4400 
Q 5725 4425 6025 4425 
L 6025 3975 
Q 5725 4000 5200 4000 
L 3800 4000 
Q 3250 4000 2925 3975 
L 2925 4425 
Q 3350 4400 3800 4400 
L 5175 4400 
z
M 4150 3425 
Q 3875 3100 3175 2275 
Q 3025 2475 2775 2625 
Q 3425 3300 3675 3750 
Q 3875 3600 4150 3425 
z
M 5200 3750 
Q 5450 3500 6125 2750 
Q 5825 2550 5650 2400 
Q 5425 2775 4775 3425 
Q 4975 3600 5200 3750 
z
M 4275 5300 
Q 4625 4925 4775 4675 
Q 4525 4550 4300 4425 
Q 4225 4625 3850 5050 
Q 4075 5175 4275 5300 
z
" transform="scale(0.015625)"/>
      <path id="SimHei-20" transform="scale(0.015625)"/>
      <path id="SimHei-28" d="M 2975 -200 
L 2700 -475 
Q 2075 125 1762 775 
Q 1450 1425 1450 2250 
Q 1450 3075 1762 3725 
Q 2075 4375 2700 5000 
L 2975 4725 
Q 2400 4175 2112 3587 
Q 1825 3000 1825 2250 
Q 1825 1500 2112 912 
Q 2400 325 2975 -200 
z
" transform="scale(0.015625)"/>
      <path id="SimHei-5f52" d="M 2600 800 
Q 3075 775 3600 775 
L 5300 775 
L 5300 2275 
L 4150 2275 
Q 3550 2275 3100 2250 
L 3100 2725 
Q 3550 2700 4150 2700 
L 5300 2700 
L 5300 4175 
L 3775 4175 
Q 3300 4175 2800 4150 
L 2800 4625 
Q 3250 4600 3725 4600 
L 5850 4600 
Q 5825 4075 5825 3775 
L 5825 825 
Q 5825 200 5850 -300 
L 5300 -300 
L 5300 350 
L 3600 350 
Q 3075 350 2600 325 
L 2600 800 
z
M 350 -150 
Q 1125 325 1475 975 
Q 1825 1625 1900 2362 
Q 1975 3100 1962 3837 
Q 1950 4575 1925 5125 
L 2475 5125 
Q 2450 4725 2450 3950 
Q 2450 3175 2400 2437 
Q 2350 1700 2012 950 
Q 1675 200 800 -550 
Q 625 -325 350 -150 
z
M 500 1225 
Q 525 1650 525 2050 
L 525 3700 
Q 525 4125 500 4475 
L 1050 4475 
Q 1025 4100 1025 3700 
L 1025 2050 
Q 1025 1650 1050 1225 
L 500 1225 
z
" transform="scale(0.015625)"/>
      <path id="SimHei-4e00" d="M 4875 2675 
Q 5525 2675 6050 2700 
L 6050 2050 
Q 5525 2075 4900 2075 
L 1600 2075 
Q 950 2075 350 2050 
L 350 2700 
Q 950 2675 1600 2675 
L 4875 2675 
z
" transform="scale(0.015625)"/>
      <path id="SimHei-636e" d="M 5750 4775 
Q 5725 4550 5725 4225 
L 5725 3900 
Q 5725 3450 5750 3250 
L 3100 3250 
L 3100 2500 
L 4250 2500 
Q 4250 2725 4225 3175 
L 4700 3175 
Q 4675 2775 4675 2500 
L 5350 2500 
Q 5800 2500 6100 2525 
L 6100 2075 
Q 5800 2100 5375 2100 
L 4675 2100 
L 4675 1425 
L 5775 1425 
Q 5750 950 5750 800 
L 5750 175 
Q 5750 -225 5775 -575 
L 5325 -575 
L 5325 -225 
L 3675 -225 
L 3675 -600 
L 3225 -600 
Q 3250 -325 3250 100 
L 3250 825 
Q 3250 1075 3225 1425 
L 4250 1425 
L 4250 2100 
L 3075 2100 
Q 3050 1375 2887 737 
Q 2725 100 2425 -475 
Q 2200 -325 1950 -250 
Q 2250 150 2387 600 
Q 2525 1050 2600 1562 
Q 2675 2075 2675 2625 
L 2675 3575 
Q 2675 3975 2650 4775 
L 5750 4775 
z
M 1275 4425 
Q 1275 4775 1250 5075 
L 1750 5075 
Q 1725 4800 1725 4425 
L 1725 3775 
Q 1975 3775 2500 3800 
L 2500 3375 
Q 1975 3400 1725 3400 
L 1725 2450 
Q 2050 2625 2400 2850 
Q 2425 2650 2525 2475 
Q 2050 2200 1725 2000 
L 1725 175 
Q 1725 -300 1487 -400 
Q 1250 -500 775 -575 
Q 725 -325 600 -50 
Q 1025 -50 1150 -12 
Q 1275 25 1275 325 
L 1275 1800 
Q 900 1600 525 1325 
Q 450 1525 275 1800 
Q 775 1975 1275 2250 
L 1275 3400 
Q 800 3400 350 3375 
L 350 3800 
Q 800 3775 1275 3775 
L 1275 4425 
z
M 5300 3625 
L 5300 4400 
L 3100 4400 
L 3100 3625 
L 5300 3625 
z
M 5325 150 
L 5325 1075 
L 3675 1075 
L 3675 150 
L 5325 150 
z
" transform="scale(0.015625)"/>
      <path id="SimHei-29" d="M 1675 2250 
Q 1675 1425 1362 775 
Q 1050 125 425 -475 
L 150 -200 
Q 725 325 1012 912 
Q 1300 1500 1300 2250 
Q 1300 3000 1012 3587 
Q 725 4175 150 4725 
L 425 5000 
Q 1050 4375 1362 3725 
Q 1675 3075 1675 2250 
z
" transform="scale(0.015625)"/>
     </defs>
     <use xlink:href="#SimHei-4e0d"/>
     <use xlink:href="#SimHei-540c" x="100"/>
     <use xlink:href="#SimHei-5e02" x="200"/>
     <use xlink:href="#SimHei-573a" x="300"/>
     <use xlink:href="#SimHei-76d1" x="400"/>
     <use xlink:href="#SimHei-7ba1" x="500"/>
     <use xlink:href="#SimHei-6548" x="600"/>
     <use xlink:href="#SimHei-679c" x="700"/>
     <use xlink:href="#SimHei-96f7" x="800"/>
     <use xlink:href="#SimHei-8fbe" x="900"/>
     <use xlink:href="#SimHei-56fe" x="1000"/>
     <use xlink:href="#SimHei-6bd4" x="1100"/>
     <use xlink:href="#SimHei-8f83" x="1200"/>
     <use xlink:href="#SimHei-20" x="1300"/>
     <use xlink:href="#SimHei-28" x="1350"/>
     <use xlink:href="#SimHei-5f52" x="1400"/>
     <use xlink:href="#SimHei-4e00" x="1500"/>
     <use xlink:href="#SimHei-5316" x="1600"/>
     <use xlink:href="#SimHei-6570" x="1700"/>
     <use xlink:href="#SimHei-636e" x="1800"/>
     <use xlink:href="#SimHei-29" x="1900"/>
    </g>
   </g>
   <g id="legend_1">
    <g id="patch_6">
     <path d="M 588.03 82.281937 
L 660.03 82.281937 
Q 662.03 82.281937 662.03 80.281937 
L 662.03 52.766312 
Q 662.03 50.766312 660.03 50.766312 
L 588.03 50.766312 
Q 586.03 50.766312 586.03 52.766312 
L 586.03 80.281937 
Q 586.03 82.281937 588.03 82.281937 
z
" style="fill: #ffffff; opacity: 0.8; stroke: #cccccc; stroke-linejoin: miter"/>
    </g>
    <g id="line2d_13">
     <path d="M 590.03 59.352249 
L 600.03 59.352249 
L 610.03 59.352249 
" style="fill: none; stroke: #1f77b4; stroke-width: 2; stroke-linecap: square"/>
    </g>
    <g id="text_12">
     <!-- 航空市场 -->
     <g transform="translate(618.03 62.852249) scale(0.1 -0.1)">
      <defs>
       <path id="SimHei-822a" d="M 2000 5000 
Q 1850 4725 1650 4275 
L 2600 4275 
L 2600 150 
Q 2600 -250 2425 -350 
Q 2250 -450 1750 -525 
Q 1700 -250 1550 25 
Q 1950 0 2062 25 
Q 2175 50 2175 350 
L 2175 1975 
L 1125 1975 
Q 1125 1400 1087 962 
Q 1050 525 950 137 
Q 850 -250 650 -675 
Q 450 -500 200 -450 
Q 525 125 612 662 
Q 700 1200 700 1975 
Q 525 1975 275 1950 
L 275 2375 
Q 550 2350 700 2350 
L 700 3450 
Q 700 3825 675 4275 
L 1200 4275 
Q 1400 4750 1475 5175 
Q 1750 5075 2000 5000 
z
M 5200 2975 
Q 5175 2650 5175 2075 
L 5175 300 
Q 5175 0 5325 0 
L 5450 0 
Q 5575 0 5625 150 
Q 5675 300 5675 625 
Q 5900 475 6175 425 
Q 6075 -50 5975 -225 
Q 5875 -400 5550 -400 
L 5150 -400 
Q 4725 -400 4725 100 
L 4725 2575 
L 3825 2575 
Q 3825 1725 3800 1237 
Q 3775 750 3587 287 
Q 3400 -175 2950 -675 
Q 2800 -450 2550 -350 
Q 3075 125 3212 575 
Q 3350 1025 3362 1362 
Q 3375 1700 3375 2125 
Q 3375 2550 3350 2975 
L 5200 2975 
z
M 2175 2350 
L 2175 3900 
L 1125 3900 
L 1125 2350 
L 2175 2350 
z
M 5925 3675 
Q 5625 3700 5300 3700 
L 3500 3700 
Q 3225 3700 2975 3675 
L 2975 4125 
Q 3250 4100 3475 4100 
L 5325 4100 
Q 5625 4100 5925 4125 
L 5925 3675 
z
M 4125 5225 
Q 4450 4725 4625 4375 
Q 4325 4250 4150 4150 
Q 4000 4525 3700 5000 
Q 3950 5125 4125 5225 
z
M 1550 1675 
Q 1800 1250 2025 825 
Q 1850 725 1650 600 
Q 1425 1125 1225 1450 
Q 1400 1550 1550 1675 
z
M 2000 2800 
Q 1800 2725 1625 2625 
Q 1525 2925 1275 3425 
Q 1425 3500 1625 3625 
L 2000 2800 
z
" transform="scale(0.015625)"/>
       <path id="SimHei-7a7a" d="M 4025 1925 
Q 4700 1925 5225 1975 
L 5225 1450 
Q 4725 1500 4025 1500 
L 3475 1500 
L 3475 0 
L 5000 0 
Q 5725 0 6175 50 
L 6175 -475 
Q 5750 -425 5050 -425 
L 1750 -425 
Q 775 -425 350 -475 
L 350 50 
Q 825 0 1800 0 
L 2925 0 
L 2925 1500 
L 2300 1500 
Q 1625 1500 1125 1450 
L 1125 1975 
Q 1600 1925 2375 1925 
L 4025 1925 
z
M 5250 3250 
L 5250 3925 
L 1150 3925 
L 1150 3175 
L 600 3175 
Q 625 3425 625 3750 
Q 625 4100 600 4375 
L 3100 4375 
Q 2950 4725 2750 5075 
Q 3000 5200 3300 5300 
Q 3500 4850 3650 4525 
Q 3400 4450 3175 4375 
L 5825 4375 
Q 5800 4150 5800 3775 
Q 5800 3425 5825 3250 
L 5250 3250 
z
M 3975 3525 
Q 4275 3400 4762 3175 
Q 5250 2950 5925 2550 
Q 5675 2275 5575 2075 
Q 5100 2375 4650 2625 
Q 4200 2875 3675 3125 
Q 3800 3275 3975 3525 
z
M 2700 3225 
Q 2425 3100 1937 2737 
Q 1450 2375 825 2000 
Q 675 2225 450 2450 
Q 925 2650 1375 2962 
Q 1825 3275 2150 3650 
Q 2400 3425 2700 3225 
z
" transform="scale(0.015625)"/>
      </defs>
      <use xlink:href="#SimHei-822a"/>
      <use xlink:href="#SimHei-7a7a" x="100"/>
      <use xlink:href="#SimHei-5e02" x="200"/>
      <use xlink:href="#SimHei-573a" x="300"/>
     </g>
    </g>
    <g id="line2d_14">
     <path d="M 590.03 73.531937 
L 600.03 73.531937 
L 610.03 73.531937 
" style="fill: none; stroke: #ff7f0e; stroke-width: 2; stroke-linecap: square"/>
    </g>
    <g id="text_13">
     <!-- 酒店市场 -->
     <g transform="translate(618.03 77.031937) scale(0.1 -0.1)">
      <defs>
       <path id="SimHei-9152" d="M 6025 4400 
Q 5600 4425 4750 4425 
L 4750 3650 
L 5825 3650 
Q 5800 2850 5800 1550 
Q 5800 250 5825 -600 
L 5350 -600 
L 5350 -200 
L 2625 -200 
L 2625 -600 
L 2150 -600 
Q 2175 250 2175 1550 
Q 2175 2875 2150 3650 
L 3275 3650 
L 3275 4425 
Q 2525 4425 1925 4400 
L 1925 4875 
Q 2525 4850 4050 4850 
Q 5575 4850 6025 4875 
L 6025 4400 
z
M 5350 1275 
L 5350 1825 
L 4825 1825 
Q 4300 1825 4300 2375 
L 4300 3250 
L 3725 3250 
Q 3700 2600 3562 2225 
Q 3425 1850 3200 1575 
Q 3025 1750 2750 1825 
Q 2975 2075 3125 2412 
Q 3275 2750 3275 3250 
L 2625 3250 
L 2625 1275 
L 5350 1275 
z
M 5350 225 
L 5350 825 
L 2625 825 
L 2625 225 
L 5350 225 
z
M 1775 1600 
Q 1675 1475 1425 975 
Q 1175 475 750 -475 
Q 550 -275 225 -75 
Q 450 200 725 712 
Q 1000 1225 1225 1975 
Q 1475 1800 1775 1600 
z
M 650 3700 
Q 1375 3250 1725 3050 
Q 1475 2800 1325 2525 
Q 1125 2750 300 3250 
Q 475 3450 650 3700 
z
M 4750 2625 
Q 4750 2325 4825 2275 
Q 4900 2225 5350 2225 
L 5350 3250 
L 4750 3250 
L 4750 2625 
z
M 950 5200 
Q 1650 4750 1875 4575 
Q 1675 4375 1500 4125 
Q 1300 4350 625 4750 
Q 850 4975 950 5200 
z
M 4300 3650 
L 4300 4425 
L 3725 4425 
L 3725 3650 
L 4300 3650 
z
" transform="scale(0.015625)"/>
       <path id="SimHei-5e97" d="M 3800 3900 
Q 3775 3500 3775 3125 
L 5100 3125 
Q 5500 3125 5800 3150 
L 5800 2675 
Q 5525 2700 5100 2700 
L 3775 2700 
L 3775 1850 
L 5425 1850 
Q 5400 1200 5400 650 
Q 5400 100 5425 -525 
L 4900 -525 
L 4900 -75 
L 2400 -75 
L 2400 -550 
L 1900 -550 
Q 1925 150 1925 700 
Q 1925 1275 1900 1850 
L 3275 1850 
L 3275 3100 
Q 3275 3525 3250 3900 
L 3800 3900 
z
M 3450 5250 
Q 3625 4825 3750 4450 
L 4625 4450 
Q 5275 4450 5750 4475 
L 5750 4025 
Q 5300 4050 4825 4050 
L 1475 4050 
Q 1475 2450 1450 1862 
Q 1425 1275 1300 662 
Q 1175 50 900 -525 
Q 675 -350 375 -225 
Q 750 350 862 1062 
Q 975 1775 987 2612 
Q 1000 3450 950 4450 
L 3150 4450 
Q 3100 4675 2925 5075 
Q 3175 5125 3450 5250 
z
M 4900 325 
L 4900 1425 
L 2400 1425 
L 2400 325 
L 4900 325 
z
" transform="scale(0.015625)"/>
      </defs>
      <use xlink:href="#SimHei-9152"/>
      <use xlink:href="#SimHei-5e97" x="100"/>
      <use xlink:href="#SimHei-5e02" x="200"/>
      <use xlink:href="#SimHei-573a" x="300"/>
     </g>
    </g>
   </g>
  </g>
 </g>
 <defs>
  <clipPath id="pe150105671">
   <path d="M 667.03 368.115938 
C 667.03 325.785373 658.691802 283.866419 642.492596 244.758076 
C 626.29339 205.649734 602.54821 170.112561 572.615981 140.180331 
C 542.683751 110.248102 507.146578 86.502922 468.038236 70.303716 
C 428.929893 54.10451 387.010939 45.766312 344.680374 45.766312 
C 302.349809 45.766312 260.430856 54.10451 221.322513 70.303716 
C 182.214171 86.502922 146.676998 110.248102 116.744768 140.180331 
C 86.812539 170.112561 63.067359 205.649734 46.868153 244.758076 
C 30.668947 283.866419 22.330749 325.785373 22.330749 368.115938 
C 22.330749 410.446502 30.668947 452.365456 46.868153 491.473799 
C 63.067359 530.582141 86.812539 566.119314 116.744768 596.051544 
C 146.676998 625.983773 182.214171 649.728953 221.322513 665.928159 
C 260.430856 682.127365 302.349809 690.465563 344.680374 690.465563 
C 387.010939 690.465563 428.929893 682.127365 468.038236 665.928159 
C 507.146578 649.728953 542.683751 625.983773 572.615981 596.051544 
C 602.54821 566.119314 626.29339 530.582141 642.492596 491.473799 
C 658.691802 452.365456 667.03 410.446502 667.03 368.115938 
M 344.680374 368.115938 
C 344.680374 368.115938 344.680374 368.115938 344.680374 368.115938 
C 344.680374 368.115938 344.680374 368.115938 344.680374 368.115938 
C 344.680374 368.115938 344.680374 368.115938 344.680374 368.115938 
C 344.680374 368.115938 344.680374 368.115938 344.680374 368.115938 
C 344.680374 368.115938 344.680374 368.115938 344.680374 368.115938 
C 344.680374 368.115938 344.680374 368.115938 344.680374 368.115938 
C 344.680374 368.115938 344.680374 368.115938 344.680374 368.115938 
C 344.680374 368.115938 344.680374 368.115938 344.680374 368.115938 
C 344.680374 368.115938 344.680374 368.115938 344.680374 368.115938 
C 344.680374 368.115938 344.680374 368.115938 344.680374 368.115938 
C 344.680374 368.115938 344.680374 368.115938 344.680374 368.115938 
C 344.680374 368.115938 344.680374 368.115938 344.680374 368.115938 
C 344.680374 368.115938 344.680374 368.115938 344.680374 368.115938 
C 344.680374 368.115938 344.680374 368.115938 344.680374 368.115938 
C 344.680374 368.115938 344.680374 368.115938 344.680374 368.115938 
C 344.680374 368.115938 344.680374 368.115938 344.680374 368.115938 
z
"/>
  </clipPath>
 </defs>
</svg>
