<?xml version="1.0" encoding="utf-8" standalone="no"?>
<!DOCTYPE svg PUBLIC "-//W3C//DTD SVG 1.1//EN"
  "http://www.w3.org/Graphics/SVG/1.1/DTD/svg11.dtd">
<svg xmlns:xlink="http://www.w3.org/1999/xlink" width="864pt" height="432pt" viewBox="0 0 864 432" xmlns="http://www.w3.org/2000/svg" version="1.1">
 <metadata>
  <rdf:RDF xmlns:dc="http://purl.org/dc/elements/1.1/" xmlns:cc="http://creativecommons.org/ns#" xmlns:rdf="http://www.w3.org/1999/02/22-rdf-syntax-ns#">
   <cc:Work>
    <dc:type rdf:resource="http://purl.org/dc/dcmitype/StillImage"/>
    <dc:date>2025-04-13T15:13:04.389143</dc:date>
    <dc:format>image/svg+xml</dc:format>
    <dc:creator>
     <cc:Agent>
      <dc:title>Matplotlib v3.9.2, https://matplotlib.org/</dc:title>
     </cc:Agent>
    </dc:creator>
   </cc:Work>
  </rdf:RDF>
 </metadata>
 <defs>
  <style type="text/css">*{stroke-linejoin: round; stroke-linecap: butt}</style>
 </defs>
 <g id="figure_1">
  <g id="patch_1">
   <path d="M 0 432 
L 864 432 
L 864 0 
L 0 0 
z
" style="fill: #ffffff"/>
  </g>
  <g id="axes_1">
   <g id="patch_2">
    <path d="M 36.2225 391.85125 
L 853.2 391.85125 
L 853.2 26.84625 
L 36.2225 26.84625 
z
" style="fill: #ffffff"/>
   </g>
   <g id="patch_3">
    <path d="M 63.455083 391.85125 
L 172.385417 391.85125 
L 172.385417 44.22744 
L 63.455083 44.22744 
z
" clip-path="url(#p938048b9d5)" style="fill: #3274a1"/>
   </g>
   <g id="patch_4">
    <path d="M 335.780917 391.85125 
L 444.71125 391.85125 
L 444.71125 121.477176 
L 335.780917 121.477176 
z
" clip-path="url(#p938048b9d5)" style="fill: #3274a1"/>
   </g>
   <g id="patch_5">
    <path d="M 608.10675 391.85125 
L 717.037083 391.85125 
L 717.037083 82.852308 
L 608.10675 82.852308 
z
" clip-path="url(#p938048b9d5)" style="fill: #3274a1"/>
   </g>
   <g id="patch_6">
    <path d="M 172.385417 391.85125 
L 281.31575 391.85125 
L 281.31575 160.102044 
L 172.385417 160.102044 
z
" clip-path="url(#p938048b9d5)" style="fill: #e1812c"/>
   </g>
   <g id="patch_7">
    <path d="M 444.71125 391.85125 
L 553.641583 391.85125 
L 553.641583 237.351779 
L 444.71125 237.351779 
z
" clip-path="url(#p938048b9d5)" style="fill: #e1812c"/>
   </g>
   <g id="patch_8">
    <path d="M 717.037083 391.85125 
L 825.967417 391.85125 
L 825.967417 198.726911 
L 717.037083 198.726911 
z
" clip-path="url(#p938048b9d5)" style="fill: #e1812c"/>
   </g>
   <g id="patch_9">
    <path d="M 172.385417 391.85125 
L 172.385417 391.85125 
L 172.385417 391.85125 
L 172.385417 391.85125 
z
" clip-path="url(#p938048b9d5)" style="fill: #3274a1"/>
   </g>
   <g id="patch_10">
    <path d="M 172.385417 391.85125 
L 172.385417 391.85125 
L 172.385417 391.85125 
L 172.385417 391.85125 
z
" clip-path="url(#p938048b9d5)" style="fill: #e1812c"/>
   </g>
   <g id="matplotlib.axis_1">
    <g id="xtick_1">
     <g id="line2d_1">
      <path d="M 172.385417 391.85125 
L 172.385417 26.84625 
" clip-path="url(#p938048b9d5)" style="fill: none; stroke: #b0b0b0; stroke-opacity: 0.3; stroke-width: 0.8; stroke-linecap: square"/>
     </g>
     <g id="line2d_2">
      <defs>
       <path id="m5a8633c869" d="M 0 0 
L 0 3.5 
" style="stroke: #000000; stroke-width: 0.8"/>
      </defs>
      <g>
       <use xlink:href="#m5a8633c869" x="172.385417" y="391.85125" style="stroke: #000000; stroke-width: 0.8"/>
      </g>
     </g>
     <g id="text_1">
      <!-- 容量限制 -->
      <g transform="translate(152.385417 406.898125) scale(0.1 -0.1)">
       <defs>
        <path id="SimHei-5bb9" d="M 3350 2725 
Q 4025 2150 4687 1850 
Q 5350 1550 6100 1425 
Q 5875 1250 5800 950 
Q 5325 1075 4850 1275 
Q 4850 -200 4875 -575 
L 4400 -575 
L 4400 -225 
L 2050 -225 
L 2050 -650 
L 1575 -650 
Q 1600 -325 1600 1275 
Q 1125 1050 550 825 
Q 450 1025 225 1250 
Q 1325 1500 2137 2137 
Q 2950 2775 3125 3275 
Q 3375 3125 3600 3025 
L 3350 2725 
z
M 5750 4350 
Q 5725 4125 5725 3875 
Q 5725 3625 5750 3400 
L 5250 3400 
L 5250 4000 
L 1200 4000 
L 1200 3375 
L 700 3375 
Q 725 3650 725 3875 
Q 725 4125 700 4350 
L 5750 4350 
z
M 4400 150 
L 4400 1025 
L 2050 1025 
L 2050 150 
L 4400 150 
z
M 4625 1400 
Q 3875 1700 3100 2425 
Q 2525 1850 1750 1400 
L 4625 1400 
z
M 4000 3725 
Q 5175 3075 5550 2850 
Q 5375 2650 5250 2450 
Q 4400 3025 3725 3375 
Q 3925 3575 4000 3725 
z
M 775 2775 
Q 1875 3225 2325 3700 
Q 2400 3575 2650 3325 
Q 1725 2700 1100 2425 
Q 975 2625 775 2775 
z
M 2650 5025 
Q 2850 5125 3125 5300 
Q 3400 4950 3575 4600 
Q 3225 4475 3075 4375 
Q 3050 4475 2650 5025 
z
" transform="scale(0.015625)"/>
        <path id="SimHei-91cf" d="M 5250 2500 
Q 5225 2200 5225 1700 
Q 5225 1225 5250 950 
L 3425 950 
L 3425 625 
L 4575 625 
Q 5000 625 5375 650 
L 5375 275 
Q 5025 300 4575 300 
L 3425 300 
L 3425 -75 
L 5125 -75 
Q 5525 -75 5925 -50 
L 5925 -425 
Q 5525 -400 5125 -400 
L 1275 -400 
Q 900 -400 475 -425 
L 475 -50 
Q 925 -50 1275 -75 
L 2975 -75 
L 2975 300 
L 1725 300 
Q 1350 300 975 250 
L 975 650 
Q 1375 625 1725 625 
L 2975 625 
L 2975 950 
L 1150 950 
Q 1175 1375 1175 1775 
Q 1175 2175 1150 2500 
L 5250 2500 
z
M 5200 4950 
Q 5175 4575 5175 4250 
Q 5175 3925 5200 3400 
L 1200 3400 
Q 1225 3925 1225 4250 
Q 1225 4575 1200 4950 
L 5200 4950 
z
M 4900 3100 
Q 5500 3125 6000 3150 
L 6000 2750 
Q 5500 2775 4925 2775 
L 1650 2775 
Q 975 2775 325 2750 
L 325 3150 
Q 975 3125 1650 3100 
L 4900 3100 
z
M 4725 3700 
L 4725 4025 
L 1675 4025 
L 1675 3700 
L 4725 3700 
z
M 4725 4350 
L 4725 4650 
L 1675 4650 
L 1675 4350 
L 4725 4350 
z
M 4750 1875 
L 4750 2175 
L 3425 2175 
L 3425 1875 
L 4750 1875 
z
M 2975 1875 
L 2975 2175 
L 1650 2175 
L 1650 1875 
L 2975 1875 
z
M 2975 1275 
L 2975 1550 
L 1650 1550 
L 1650 1275 
L 2975 1275 
z
M 4750 1275 
L 4750 1550 
L 3425 1550 
L 3425 1275 
L 4750 1275 
z
" transform="scale(0.015625)"/>
        <path id="SimHei-9650" d="M 5550 4950 
Q 5525 4500 5525 3700 
Q 5525 2925 5550 2475 
L 4375 2475 
Q 4375 2000 4625 1475 
Q 5275 1900 5475 2250 
Q 5675 1950 5850 1800 
Q 5400 1575 4750 1150 
Q 5025 775 5325 500 
Q 5625 225 6200 25 
Q 5900 -125 5750 -450 
Q 5150 -75 4812 312 
Q 4475 700 4262 1212 
Q 4050 1725 3975 2475 
L 3400 2475 
L 3400 200 
Q 3800 400 4125 675 
Q 4150 450 4225 150 
Q 4000 25 3637 -175 
Q 3275 -375 3025 -575 
Q 2925 -375 2750 -125 
Q 2900 25 2950 325 
L 2950 3850 
Q 2950 4350 2925 4950 
L 5550 4950 
z
M 2500 4950 
Q 2050 3475 1875 2950 
Q 2375 2350 2450 1850 
Q 2525 1350 2237 1025 
Q 1950 700 1525 575 
Q 1500 900 1300 1150 
Q 1750 1150 1875 1325 
Q 2000 1500 1975 1887 
Q 1950 2275 1375 2925 
Q 1775 4050 1875 4550 
L 1125 4550 
L 1125 -500 
L 650 -500 
Q 675 200 675 875 
L 675 3800 
Q 675 4250 650 4950 
L 2500 4950 
z
M 5075 2875 
L 5075 3550 
L 3400 3550 
L 3400 2875 
L 5075 2875 
z
M 5075 3925 
L 5075 4550 
L 3400 4550 
L 3400 3925 
L 5075 3925 
z
" transform="scale(0.015625)"/>
        <path id="SimHei-5236" d="M 1325 4625 
Q 1175 4375 1075 4150 
L 1800 4150 
Q 1800 4775 1775 5125 
L 2350 5125 
Q 2325 4800 2325 4150 
L 2700 4150 
Q 3200 4150 3600 4175 
L 3600 3725 
Q 3250 3750 2725 3750 
L 2325 3750 
L 2325 3025 
L 2950 3025 
Q 3325 3025 3750 3050 
L 3750 2625 
L 2325 2625 
L 2325 1950 
L 3675 1950 
Q 3650 1650 3637 1125 
Q 3625 600 3612 412 
Q 3600 225 3400 137 
Q 3200 50 2825 -25 
Q 2775 250 2650 550 
Q 2975 550 3050 587 
Q 3125 625 3125 975 
L 3125 1550 
L 2325 1550 
L 2325 175 
Q 2325 -250 2350 -550 
L 1775 -550 
Q 1800 -75 1800 175 
L 1800 1550 
L 1025 1550 
L 1025 -25 
L 500 -25 
Q 525 300 525 650 
L 525 1200 
Q 525 1675 500 1950 
L 1800 1950 
L 1800 2625 
L 1000 2625 
Q 550 2625 225 2600 
L 225 3050 
Q 550 3025 1000 3025 
L 1800 3025 
L 1800 3750 
L 925 3750 
Q 800 3450 675 3250 
Q 450 3400 225 3500 
Q 400 3750 525 4075 
Q 650 4400 750 4800 
Q 1000 4700 1325 4625 
z
M 5875 5075 
Q 5850 4825 5850 4350 
L 5850 25 
Q 5850 -325 5587 -412 
Q 5325 -500 4825 -575 
Q 4750 -250 4625 0 
Q 5050 0 5200 25 
Q 5350 50 5350 350 
L 5350 4350 
Q 5350 4775 5325 5075 
L 5875 5075 
z
M 4675 4325 
Q 4650 3975 4650 3700 
L 4650 1625 
Q 4650 1275 4675 775 
L 4125 775 
Q 4175 1200 4175 1625 
L 4175 3700 
Q 4175 3950 4125 4325 
L 4675 4325 
z
" transform="scale(0.015625)"/>
       </defs>
       <use xlink:href="#SimHei-5bb9"/>
       <use xlink:href="#SimHei-91cf" x="100"/>
       <use xlink:href="#SimHei-9650" x="200"/>
       <use xlink:href="#SimHei-5236" x="300"/>
      </g>
     </g>
    </g>
    <g id="xtick_2">
     <g id="line2d_3">
      <path d="M 444.71125 391.85125 
L 444.71125 26.84625 
" clip-path="url(#p938048b9d5)" style="fill: none; stroke: #b0b0b0; stroke-opacity: 0.3; stroke-width: 0.8; stroke-linecap: square"/>
     </g>
     <g id="line2d_4">
      <g>
       <use xlink:href="#m5a8633c869" x="444.71125" y="391.85125" style="stroke: #000000; stroke-width: 0.8"/>
      </g>
     </g>
     <g id="text_2">
      <!-- 需求弹性 -->
      <g transform="translate(424.71125 406.82) scale(0.1 -0.1)">
       <defs>
        <path id="SimHei-9700" d="M 5150 2100 
Q 5500 2100 5975 2125 
L 5975 1700 
Q 5500 1725 5150 1725 
L 3425 1725 
Q 3300 1500 3250 1275 
L 5600 1275 
Q 5575 950 5575 700 
L 5575 -50 
Q 5575 -350 5425 -437 
Q 5275 -525 4775 -625 
Q 4750 -400 4550 -100 
Q 4950 -100 5025 -50 
Q 5100 0 5100 200 
L 5100 900 
L 4125 900 
L 4125 -375 
L 3650 -375 
L 3650 900 
L 2775 900 
L 2775 -375 
L 2300 -375 
L 2300 900 
L 1350 900 
L 1350 -575 
L 875 -575 
Q 900 -225 900 175 
L 900 575 
Q 900 900 875 1275 
L 2800 1275 
Q 2875 1500 2925 1725 
L 1350 1725 
Q 925 1725 525 1700 
L 525 2125 
Q 900 2100 1325 2100 
L 5150 2100 
z
M 4700 5075 
Q 5075 5075 5550 5100 
L 5550 4675 
Q 5075 4700 4700 4700 
L 3475 4700 
L 3475 4275 
L 5975 4275 
L 5975 3100 
L 5500 3100 
L 5500 3900 
L 3475 3900 
L 3475 3200 
Q 3475 2775 3500 2425 
L 2975 2425 
Q 3000 2750 3000 3175 
L 3000 3900 
L 950 3900 
L 950 3100 
L 450 3100 
Q 450 3375 462 3650 
Q 475 3925 450 4275 
L 3000 4275 
L 3000 4700 
L 1775 4700 
Q 1400 4700 1025 4675 
L 1025 5100 
Q 1400 5075 1750 5075 
L 4700 5075 
z
M 2475 2450 
L 1250 2450 
L 1250 2800 
L 2475 2800 
L 2475 2450 
z
M 2500 3150 
L 1325 3150 
L 1325 3500 
L 2500 3500 
L 2500 3150 
z
M 5000 3175 
L 3825 3175 
L 3825 3525 
L 5000 3525 
L 5000 3175 
z
M 5025 2500 
L 3850 2500 
L 3850 2850 
L 5025 2850 
L 5025 2500 
z
" transform="scale(0.015625)"/>
        <path id="SimHei-6c42" d="M 475 4025 
Q 875 4000 1325 4000 
L 2875 4000 
Q 2875 4725 2850 5125 
L 3400 5125 
Q 3375 4725 3375 4000 
L 5150 4000 
Q 5500 4000 5925 4025 
L 5925 3575 
Q 5475 3600 5150 3600 
L 3375 3600 
Q 3400 3200 3612 2750 
Q 3825 2300 4050 2000 
Q 4600 2450 5075 3150 
Q 5250 2950 5575 2750 
Q 5275 2600 4250 1650 
Q 4575 1225 5037 850 
Q 5500 475 6050 325 
Q 5700 125 5550 -150 
Q 5000 150 4437 687 
Q 3875 1225 3375 2375 
L 3375 150 
Q 3400 -225 3137 -350 
Q 2875 -475 2375 -525 
Q 2325 -275 2150 25 
Q 2575 0 2737 37 
Q 2900 75 2875 300 
L 2875 1675 
Q 1875 900 1437 550 
Q 1000 200 725 -50 
Q 500 200 300 400 
Q 650 575 1200 937 
Q 1750 1300 2875 2250 
L 2875 3600 
L 1325 3600 
Q 875 3600 475 3575 
L 475 4025 
z
M 1225 3175 
Q 1775 2725 2250 2325 
L 1825 1950 
Q 1450 2375 825 2825 
L 1225 3175 
z
M 4500 5100 
Q 4900 4825 5300 4425 
Q 5125 4300 4925 4100 
Q 4650 4400 4125 4825 
Q 4275 4950 4500 5100 
z
" transform="scale(0.015625)"/>
        <path id="SimHei-5f39" d="M 3900 -600 
Q 3925 -25 3925 500 
L 2950 500 
Q 2550 475 2250 450 
L 2250 925 
Q 2550 900 2950 875 
L 3925 875 
L 3925 1550 
L 2550 1550 
Q 2575 2175 2575 2900 
Q 2575 3625 2550 4150 
L 4375 4150 
Q 4600 4675 4775 5225 
Q 5050 5100 5350 5000 
Q 5100 4725 4875 4150 
L 5750 4150 
Q 5725 3675 5725 2875 
Q 5725 2075 5750 1550 
L 4375 1550 
L 4375 875 
L 5225 875 
Q 5550 875 6100 900 
L 6100 475 
Q 5600 500 5250 500 
L 4375 500 
Q 4375 -75 4400 -600 
L 3900 -600 
z
M 2125 4850 
Q 2100 4450 2100 4050 
Q 2100 3650 2125 3125 
L 975 3125 
L 925 2225 
L 2150 2225 
Q 2100 1875 2075 1500 
L 1975 325 
Q 1925 -175 1537 -275 
Q 1150 -375 750 -425 
Q 700 -100 575 200 
Q 1150 175 1325 212 
Q 1500 250 1525 550 
L 1625 1800 
L 425 1800 
Q 525 2600 525 3525 
L 1650 3525 
L 1650 4450 
Q 825 4450 350 4425 
L 350 4875 
Q 750 4850 1125 4850 
L 2125 4850 
z
M 5275 1950 
L 5275 2675 
L 4375 2675 
L 4375 1950 
L 5275 1950 
z
M 3925 1950 
L 3925 2675 
L 3050 2675 
L 3050 1950 
L 3925 1950 
z
M 5275 3075 
L 5275 3775 
L 4375 3775 
L 4375 3075 
L 5275 3075 
z
M 3925 3075 
L 3925 3775 
L 3050 3775 
L 3050 3075 
L 3925 3075 
z
M 3350 4225 
Q 3250 4675 3050 5050 
L 3500 5275 
Q 3675 4950 3850 4425 
Q 3625 4350 3350 4225 
z
" transform="scale(0.015625)"/>
        <path id="SimHei-6027" d="M 3450 4525 
Q 3325 4075 3275 3750 
L 4050 3750 
L 4050 4275 
Q 4050 4700 4025 5100 
L 4550 5100 
Q 4525 4700 4525 4275 
L 4525 3750 
L 5025 3750 
Q 5350 3750 5800 3775 
L 5800 3300 
Q 5350 3325 5025 3325 
L 4525 3325 
L 4525 2000 
L 4975 2000 
Q 5350 2000 5725 2025 
L 5725 1550 
Q 5350 1575 4975 1575 
L 4525 1575 
L 4525 25 
L 5200 25 
Q 5625 25 6025 50 
L 6025 -400 
Q 5625 -375 5200 -375 
L 3275 -375 
Q 2825 -375 2400 -400 
L 2400 50 
Q 2825 25 3250 25 
L 4050 25 
L 4050 1575 
L 3625 1575 
Q 3300 1575 2875 1550 
L 2875 2025 
Q 3200 2000 3625 2000 
L 4050 2000 
L 4050 3325 
L 3175 3325 
Q 3100 2950 2775 2225 
Q 2500 2375 2325 2400 
Q 2675 3125 2775 3650 
Q 2875 4175 2950 4650 
Q 3200 4575 3450 4525 
z
M 1700 5150 
Q 1675 4650 1675 4175 
L 1675 425 
Q 1675 -100 1700 -625 
L 1175 -625 
Q 1200 -100 1200 425 
L 1200 4175 
Q 1200 4700 1175 5150 
L 1700 5150 
z
M 975 3725 
Q 825 2675 700 2150 
Q 450 2200 250 2250 
Q 425 2900 525 3800 
Q 725 3775 975 3725 
z
M 2125 4025 
Q 2325 3625 2525 3000 
Q 2300 2925 2125 2825 
Q 1950 3375 1750 3850 
Q 1950 3950 2125 4025 
z
" transform="scale(0.015625)"/>
       </defs>
       <use xlink:href="#SimHei-9700"/>
       <use xlink:href="#SimHei-6c42" x="100"/>
       <use xlink:href="#SimHei-5f39" x="200"/>
       <use xlink:href="#SimHei-6027" x="300"/>
      </g>
     </g>
    </g>
    <g id="xtick_3">
     <g id="line2d_5">
      <path d="M 717.037083 391.85125 
L 717.037083 26.84625 
" clip-path="url(#p938048b9d5)" style="fill: none; stroke: #b0b0b0; stroke-opacity: 0.3; stroke-width: 0.8; stroke-linecap: square"/>
     </g>
     <g id="line2d_6">
      <g>
       <use xlink:href="#m5a8633c869" x="717.037083" y="391.85125" style="stroke: #000000; stroke-width: 0.8"/>
      </g>
     </g>
     <g id="text_3">
      <!-- 预订提前期重要性 -->
      <g transform="translate(677.037083 406.937187) scale(0.1 -0.1)">
       <defs>
        <path id="SimHei-9884" d="M 5200 4800 
Q 5575 4800 5950 4825 
L 5950 4400 
Q 5575 4425 5200 4425 
L 4500 4425 
Q 4425 4050 4350 3600 
L 5725 3600 
Q 5700 3225 5700 2800 
L 5700 1725 
Q 5700 1300 5725 850 
L 5250 850 
L 5250 3225 
L 3550 3225 
L 3550 800 
L 3075 800 
Q 3100 1375 3100 1725 
L 3100 2775 
Q 3100 3175 3075 3600 
L 3900 3600 
Q 4000 4150 4000 4425 
L 3725 4425 
Q 3300 4425 2850 4400 
L 2850 4825 
Q 3325 4800 3725 4800 
L 5200 4800 
z
M 2600 1775 
Q 2350 1825 2150 1825 
Q 2250 2250 2300 2450 
L 1750 2450 
L 1750 125 
Q 1725 -300 1425 -400 
Q 1125 -500 750 -500 
Q 700 -225 575 25 
Q 1125 -25 1212 37 
Q 1300 100 1300 350 
L 1300 2450 
L 1025 2450 
Q 700 2450 350 2425 
L 350 2850 
Q 700 2825 1000 2825 
L 2850 2825 
Q 2725 2325 2600 1775 
z
M 4725 2875 
Q 4625 2575 4600 2100 
Q 4575 1625 4462 1037 
Q 4350 450 3962 62 
Q 3575 -325 2925 -675 
Q 2700 -500 2475 -350 
Q 3075 -125 3437 200 
Q 3800 525 3950 937 
Q 4100 1350 4137 1850 
Q 4175 2350 4175 2925 
L 4725 2875 
z
M 1625 2900 
Q 1275 3275 800 3650 
Q 925 3775 1075 3950 
Q 1250 3825 1425 3675 
Q 1750 4150 1950 4375 
L 1400 4375 
Q 900 4375 450 4350 
L 450 4775 
Q 900 4750 1375 4750 
L 2575 4750 
L 2575 4375 
Q 2200 4100 1725 3400 
L 1950 3200 
Q 1750 3025 1625 2900 
z
M 4775 725 
Q 5725 0 6075 -325 
Q 5850 -500 5725 -650 
Q 5400 -325 5137 -87 
Q 4875 150 4525 350 
Q 4650 525 4775 725 
z
" transform="scale(0.015625)"/>
        <path id="SimHei-8ba2" d="M 5250 4750 
Q 5525 4750 6125 4775 
L 6125 4300 
Q 5575 4325 4775 4325 
L 4775 100 
Q 4775 -350 4387 -462 
Q 4000 -575 3600 -600 
Q 3575 -275 3400 75 
Q 3825 25 4050 50 
Q 4275 75 4300 300 
L 4300 4325 
L 3225 4325 
Q 2850 4325 2450 4300 
L 2450 4775 
Q 3075 4750 3250 4750 
L 5250 4750 
z
M 1850 425 
Q 2400 900 2750 1225 
Q 2825 925 2950 725 
Q 2575 425 2175 87 
Q 1775 -250 1500 -550 
Q 1350 -325 1150 -150 
Q 1400 50 1375 400 
L 1375 2725 
L 1025 2725 
Q 600 2725 300 2700 
L 300 3175 
Q 600 3150 1025 3150 
L 1875 3150 
Q 1875 2675 1850 2250 
L 1850 425 
z
M 1150 5125 
Q 1525 4775 2150 4100 
Q 1950 3925 1725 3700 
Q 1300 4275 775 4750 
Q 1000 4950 1150 5125 
z
" transform="scale(0.015625)"/>
        <path id="SimHei-63d0" d="M 5600 5025 
Q 5575 4625 5575 3900 
Q 5575 3200 5600 2825 
L 2750 2825 
Q 2775 3325 2775 3900 
Q 2775 4500 2750 5025 
L 5600 5025 
z
M 5250 2375 
Q 5675 2375 6075 2400 
L 6075 1950 
Q 5700 1975 5275 1975 
L 4400 1975 
L 4400 1275 
L 4775 1275 
Q 5225 1275 5625 1300 
L 5625 850 
Q 5225 875 4800 875 
L 4400 875 
L 4400 75 
Q 4675 25 5150 25 
Q 5625 25 6150 100 
Q 6050 -75 5950 -450 
Q 5200 -450 4650 -437 
Q 4100 -425 3700 -250 
Q 3300 -75 2950 250 
Q 2725 -225 2200 -650 
Q 2025 -450 1775 -325 
Q 2300 0 2537 562 
Q 2775 1125 2775 1675 
Q 3075 1550 3325 1525 
Q 3250 1375 3125 725 
Q 3450 300 3925 175 
L 3925 1975 
L 3375 1975 
Q 2850 1975 2350 1950 
L 2350 2400 
Q 2850 2375 3400 2375 
L 5250 2375 
z
M 1125 4475 
Q 1125 4900 1100 5200 
L 1625 5200 
Q 1600 4925 1600 4500 
L 1600 3825 
Q 1975 3825 2350 3850 
L 2350 3400 
Q 1975 3425 1600 3425 
L 1600 2300 
Q 1925 2475 2175 2625 
Q 2175 2425 2200 2175 
Q 1975 2050 1600 1850 
L 1600 0 
Q 1550 -350 1350 -437 
Q 1150 -525 650 -575 
Q 650 -275 500 0 
Q 875 -25 1000 0 
Q 1125 25 1125 225 
L 1125 1675 
Q 825 1550 425 1300 
Q 325 1625 200 1800 
Q 650 1900 1125 2125 
L 1125 3425 
Q 675 3425 350 3400 
L 350 3850 
Q 675 3825 1125 3825 
L 1125 4475 
z
M 5125 3225 
L 5125 3725 
L 3225 3725 
L 3225 3225 
L 5125 3225 
z
M 5125 4150 
L 5125 4600 
L 3225 4600 
L 3225 4150 
L 5125 4150 
z
" transform="scale(0.015625)"/>
        <path id="SimHei-524d" d="M 2075 -100 
Q 2400 -100 2537 -87 
Q 2675 -75 2675 100 
L 2675 875 
L 1325 875 
L 1325 -650 
L 800 -650 
Q 850 -200 850 350 
L 850 2350 
Q 850 2850 825 3300 
L 3175 3300 
Q 3150 2875 3150 2375 
L 3150 -150 
Q 3150 -400 2950 -475 
Q 2750 -550 2275 -625 
Q 2200 -350 2075 -100 
z
M 4950 5075 
Q 4825 4975 4687 4750 
Q 4550 4525 4375 4225 
L 5400 4225 
Q 5750 4225 6175 4250 
L 6175 3775 
Q 5775 3825 5300 3825 
L 1350 3825 
Q 700 3825 250 3775 
L 250 4250 
Q 775 4225 1350 4225 
L 3875 4225 
Q 4300 5025 4350 5300 
Q 4625 5150 4950 5075 
z
M 4375 -75 
Q 4825 -100 4937 -75 
Q 5050 -50 5050 150 
L 5050 2750 
Q 5050 3050 5025 3400 
L 5550 3400 
Q 5525 3075 5525 2750 
L 5525 -25 
Q 5525 -350 5362 -450 
Q 5200 -550 4600 -600 
Q 4550 -275 4375 -75 
z
M 3775 575 
Q 3800 950 3800 1225 
L 3800 2375 
Q 3800 2775 3775 3075 
L 4300 3075 
Q 4275 2775 4275 2375 
L 4275 1250 
Q 4275 875 4300 575 
L 3775 575 
z
M 2675 2250 
L 2675 2925 
L 1325 2925 
L 1325 2250 
L 2675 2250 
z
M 2675 1250 
L 2675 1875 
L 1325 1875 
L 1325 1250 
L 2675 1250 
z
M 2225 4300 
Q 2125 4575 1750 5050 
Q 2025 5175 2200 5300 
Q 2550 4850 2725 4550 
Q 2500 4450 2225 4300 
z
" transform="scale(0.015625)"/>
        <path id="SimHei-671f" d="M 4900 -25 
Q 5475 -100 5425 175 
L 5425 1575 
L 4325 1575 
Q 4275 975 4050 425 
Q 3825 -125 3400 -600 
Q 3225 -375 2925 -275 
Q 3350 150 3562 625 
Q 3775 1100 3812 1575 
Q 3850 2050 3850 3125 
Q 3850 4225 3825 4875 
L 5950 4875 
Q 5925 4400 5925 3725 
L 5925 50 
Q 5925 -300 5700 -425 
Q 5475 -550 5100 -600 
Q 5100 -325 4900 -25 
z
M 950 4300 
Q 950 4675 925 5125 
L 1450 5125 
Q 1425 4625 1425 4300 
L 2550 4300 
Q 2550 4775 2525 5125 
L 3075 5125 
Q 3050 4700 3050 4300 
Q 3225 4300 3500 4325 
L 3500 3900 
Q 3250 3925 3050 3925 
L 3050 1550 
Q 3250 1550 3500 1575 
L 3500 1150 
Q 3025 1175 2575 1175 
L 1225 1175 
Q 675 1175 275 1150 
L 275 1575 
Q 650 1550 950 1550 
L 950 3925 
Q 725 3925 425 3900 
L 425 4325 
Q 700 4300 950 4300 
z
M 5425 3375 
L 5425 4500 
L 4350 4500 
L 4350 3375 
L 5425 3375 
z
M 5425 1950 
L 5425 3000 
L 4350 3000 
L 4350 1950 
L 5425 1950 
z
M 1600 725 
Q 1425 650 1162 287 
Q 900 -75 650 -350 
Q 400 -175 225 -75 
Q 450 100 700 412 
Q 950 725 1100 1025 
L 1600 725 
z
M 2550 3375 
L 2550 3925 
L 1425 3925 
L 1425 3375 
L 2550 3375 
z
M 2550 1550 
L 2550 2100 
L 1425 2100 
L 1425 1550 
L 2550 1550 
z
M 2550 2475 
L 2550 3000 
L 1425 3000 
L 1425 2475 
L 2550 2475 
z
M 2850 -75 
Q 2450 525 2225 725 
Q 2375 825 2550 1025 
Q 2850 725 3250 275 
Q 3050 125 2850 -75 
z
" transform="scale(0.015625)"/>
        <path id="SimHei-91cd" d="M 5300 4575 
Q 3900 4450 3425 4400 
L 3425 3875 
L 5150 3875 
Q 5500 3875 6000 3900 
L 6000 3450 
Q 5500 3475 5150 3475 
L 3425 3475 
L 3425 3050 
L 5150 3050 
Q 5125 2675 5125 2125 
Q 5125 1575 5150 1175 
L 3425 1175 
L 3425 750 
L 4550 750 
Q 5000 750 5500 775 
L 5500 375 
Q 5025 400 4575 400 
L 3425 400 
L 3425 -50 
L 5050 -50 
Q 5475 -50 5975 -25 
L 5975 -450 
Q 5475 -425 5075 -425 
L 1475 -425 
Q 975 -425 450 -450 
L 450 -25 
Q 975 -50 1450 -50 
L 2925 -50 
L 2925 400 
L 2050 400 
Q 1450 400 950 375 
L 950 775 
Q 1600 750 2075 750 
L 2925 750 
L 2925 1175 
L 1250 1175 
Q 1275 1800 1275 2125 
Q 1275 2450 1250 3050 
L 2925 3050 
L 2925 3475 
L 1225 3475 
Q 875 3475 400 3450 
L 400 3900 
Q 875 3875 1225 3875 
L 2925 3875 
L 2925 4375 
Q 2425 4350 1075 4250 
Q 1000 4475 875 4675 
Q 2275 4700 3362 4812 
Q 4450 4925 4925 5075 
Q 5025 4825 5300 4575 
z
M 4650 2300 
L 4650 2650 
L 3425 2650 
L 3425 2300 
L 4650 2300 
z
M 2925 2300 
L 2925 2650 
L 1750 2650 
L 1750 2300 
L 2925 2300 
z
M 4625 1575 
L 4625 1900 
L 3425 1900 
L 3425 1575 
L 4625 1575 
z
M 2925 1575 
L 2925 1900 
L 1750 1900 
L 1750 1575 
L 2925 1575 
z
" transform="scale(0.015625)"/>
        <path id="SimHei-8981" d="M 5100 5000 
Q 5475 5000 5950 5025 
L 5950 4600 
Q 5475 4625 5100 4625 
L 4100 4625 
L 4100 3975 
L 5500 3975 
Q 5475 3550 5475 3175 
Q 5475 2800 5500 2400 
L 2850 2400 
Q 3125 2225 3275 2125 
Q 3050 1975 2950 1850 
L 5300 1850 
Q 5700 1850 6150 1900 
L 6150 1425 
Q 5700 1450 5275 1450 
L 4550 1450 
Q 4300 1025 3875 525 
Q 5000 225 6000 -125 
Q 5750 -300 5600 -550 
Q 4650 -125 3500 200 
Q 3150 -50 2612 -250 
Q 2075 -450 1587 -525 
Q 1100 -600 700 -650 
Q 625 -325 375 -125 
Q 850 -150 1375 -100 
Q 1900 -50 2325 87 
Q 2750 225 3000 375 
Q 2175 575 1375 725 
Q 1750 1100 2075 1450 
L 1025 1450 
Q 600 1450 200 1425 
L 200 1875 
Q 700 1850 1025 1850 
L 2350 1850 
Q 2600 2150 2750 2400 
L 900 2400 
Q 925 2800 925 3175 
Q 925 3550 900 3975 
L 2275 3975 
L 2275 4625 
L 1300 4625 
Q 875 4625 400 4600 
L 400 5025 
Q 875 5000 1275 5000 
L 5100 5000 
z
M 2225 975 
Q 2625 900 3400 675 
Q 3700 975 4025 1450 
L 2675 1450 
Q 2450 1225 2225 975 
z
M 3650 2775 
L 3650 3575 
L 2750 3575 
L 2750 2775 
L 3650 2775 
z
M 5000 2775 
L 5000 3575 
L 4100 3575 
L 4100 2775 
L 5000 2775 
z
M 2275 2775 
L 2275 3575 
L 1400 3575 
L 1400 2775 
L 2275 2775 
z
M 3650 3975 
L 3650 4625 
L 2750 4625 
L 2750 3975 
L 3650 3975 
z
" transform="scale(0.015625)"/>
       </defs>
       <use xlink:href="#SimHei-9884"/>
       <use xlink:href="#SimHei-8ba2" x="100"/>
       <use xlink:href="#SimHei-63d0" x="200"/>
       <use xlink:href="#SimHei-524d" x="300"/>
       <use xlink:href="#SimHei-671f" x="400"/>
       <use xlink:href="#SimHei-91cd" x="500"/>
       <use xlink:href="#SimHei-8981" x="600"/>
       <use xlink:href="#SimHei-6027" x="700"/>
      </g>
     </g>
    </g>
    <g id="text_4">
     <!-- 特征 -->
     <g transform="translate(434.71125 420.273125) scale(0.1 -0.1)">
      <defs>
       <path id="SimHei-7279" d="M 4050 3150 
L 4050 4050 
L 3675 4050 
Q 3275 4050 2975 4025 
L 2975 4475 
Q 3250 4450 3675 4450 
L 4050 4450 
Q 4050 4950 4000 5200 
L 4525 5200 
Q 4500 4950 4500 4450 
L 5075 4450 
Q 5450 4450 5800 4475 
L 5800 4025 
Q 5550 4050 5075 4050 
L 4500 4050 
L 4500 3150 
L 5450 3150 
Q 5825 3150 6150 3175 
L 6150 2725 
Q 5850 2750 5500 2750 
L 5275 2750 
L 5275 2000 
Q 5825 2000 6100 2025 
L 6100 1550 
Q 5800 1575 5275 1575 
L 5275 -75 
Q 5250 -375 5050 -487 
Q 4850 -600 4275 -675 
Q 4225 -375 4075 -100 
Q 4525 -125 4675 -100 
Q 4825 -75 4825 150 
L 4825 1575 
L 3600 1575 
Q 3175 1575 2850 1550 
L 2850 2025 
Q 3125 2000 3600 2000 
L 4825 2000 
L 4825 2750 
L 3575 2750 
Q 3125 2750 2775 2725 
L 2775 3175 
Q 3125 3150 3550 3150 
L 4050 3150 
z
M 1150 4275 
Q 1050 4125 950 3600 
L 1500 3600 
L 1500 4425 
Q 1500 4800 1475 5200 
L 2000 5200 
Q 1950 4825 1950 4425 
L 1950 3600 
Q 2300 3600 2600 3625 
L 2600 3175 
Q 2325 3200 1950 3200 
L 1950 2075 
Q 2275 2200 2575 2325 
Q 2600 2125 2650 1900 
Q 2375 1800 1950 1625 
L 1950 225 
Q 1950 -175 1975 -650 
L 1475 -650 
Q 1500 -200 1500 225 
L 1500 1450 
Q 850 1200 550 1025 
Q 450 1275 275 1550 
Q 600 1575 1500 1925 
L 1500 3200 
L 850 3200 
Q 750 2775 675 2450 
Q 425 2550 225 2600 
Q 350 2950 462 3487 
Q 575 4025 600 4400 
Q 900 4325 1150 4275 
z
M 3600 1200 
Q 3800 750 3975 325 
Q 3750 275 3500 150 
Q 3325 675 3125 1025 
Q 3375 1100 3600 1200 
z
" transform="scale(0.015625)"/>
       <path id="SimHei-5f81" d="M 5050 4650 
Q 5575 4650 5975 4675 
L 5975 4175 
Q 5575 4200 5050 4200 
L 4450 4200 
L 4450 2625 
L 5000 2625 
Q 5475 2625 5875 2650 
L 5875 2175 
Q 5475 2200 5000 2200 
L 4450 2200 
L 4450 200 
L 5100 200 
Q 5575 200 6125 225 
L 6125 -250 
Q 5575 -225 5100 -225 
L 2875 -225 
Q 2275 -225 1875 -250 
L 1875 225 
Q 2225 200 2650 200 
L 2650 2100 
Q 2650 2475 2625 2925 
L 3175 2925 
Q 3150 2500 3150 2100 
L 3150 200 
L 3925 200 
L 3925 4200 
L 3425 4200 
Q 2850 4200 2425 4175 
L 2425 4675 
Q 2850 4650 3425 4650 
L 5050 4650 
z
M 2250 3450 
Q 2100 3225 1625 2575 
L 1625 450 
Q 1625 -100 1650 -700 
L 1100 -700 
Q 1125 -100 1125 450 
L 1125 2000 
Q 825 1600 550 1300 
Q 425 1550 225 1725 
Q 675 2150 1062 2650 
Q 1450 3150 1725 3775 
Q 1950 3625 2250 3450 
z
M 250 3675 
Q 675 3975 1025 4412 
Q 1375 4850 1550 5275 
Q 1825 5125 2125 4975 
Q 1900 4725 1487 4212 
Q 1075 3700 675 3275 
Q 475 3475 250 3675 
z
" transform="scale(0.015625)"/>
      </defs>
      <use xlink:href="#SimHei-7279"/>
      <use xlink:href="#SimHei-5f81" x="100"/>
     </g>
    </g>
   </g>
   <g id="matplotlib.axis_2">
    <g id="ytick_1">
     <g id="line2d_7">
      <path d="M 36.2225 391.85125 
L 853.2 391.85125 
" clip-path="url(#p938048b9d5)" style="fill: none; stroke: #b0b0b0; stroke-opacity: 0.3; stroke-width: 0.8; stroke-linecap: square"/>
     </g>
     <g id="line2d_8">
      <defs>
       <path id="m4c42309ed3" d="M 0 0 
L -3.5 0 
" style="stroke: #000000; stroke-width: 0.8"/>
      </defs>
      <g>
       <use xlink:href="#m4c42309ed3" x="36.2225" y="391.85125" style="stroke: #000000; stroke-width: 0.8"/>
      </g>
     </g>
     <g id="text_5">
      <!-- 0 -->
      <g transform="translate(24.2225 395.28875) scale(0.1 -0.1)">
       <defs>
        <path id="SimHei-30" d="M 225 2537 
Q 250 3200 412 3587 
Q 575 3975 875 4225 
Q 1175 4475 1612 4475 
Q 2050 4475 2375 4112 
Q 2700 3750 2800 3200 
Q 2900 2650 2862 1937 
Q 2825 1225 2612 775 
Q 2400 325 1975 150 
Q 1550 -25 1125 187 
Q 700 400 525 750 
Q 350 1100 275 1487 
Q 200 1875 225 2537 
z
M 750 2687 
Q 675 2000 800 1462 
Q 925 925 1212 700 
Q 1500 475 1800 612 
Q 2100 750 2237 1162 
Q 2375 1575 2375 2062 
Q 2375 2550 2337 2950 
Q 2300 3350 2112 3675 
Q 1925 4000 1612 4012 
Q 1300 4025 1062 3700 
Q 825 3375 750 2687 
z
" transform="scale(0.015625)"/>
       </defs>
       <use xlink:href="#SimHei-30"/>
      </g>
     </g>
    </g>
    <g id="ytick_2">
     <g id="line2d_9">
      <path d="M 36.2225 314.601515 
L 853.2 314.601515 
" clip-path="url(#p938048b9d5)" style="fill: none; stroke: #b0b0b0; stroke-opacity: 0.3; stroke-width: 0.8; stroke-linecap: square"/>
     </g>
     <g id="line2d_10">
      <g>
       <use xlink:href="#m4c42309ed3" x="36.2225" y="314.601515" style="stroke: #000000; stroke-width: 0.8"/>
      </g>
     </g>
     <g id="text_6">
      <!-- 2 -->
      <g transform="translate(24.2225 318.039015) scale(0.1 -0.1)">
       <defs>
        <path id="SimHei-32" d="M 300 250 
Q 325 625 650 925 
Q 975 1225 1475 1862 
Q 1975 2500 2125 2850 
Q 2275 3200 2237 3450 
Q 2200 3700 2000 3862 
Q 1800 4025 1537 4000 
Q 1275 3975 1037 3800 
Q 800 3625 675 3275 
L 200 3350 
Q 400 3925 712 4187 
Q 1025 4450 1450 4475 
Q 1700 4500 1900 4462 
Q 2100 4425 2312 4287 
Q 2525 4150 2662 3875 
Q 2800 3600 2762 3212 
Q 2725 2825 2375 2287 
Q 2025 1750 1025 600 
L 2825 600 
L 2825 150 
L 300 150 
L 300 250 
z
" transform="scale(0.015625)"/>
       </defs>
       <use xlink:href="#SimHei-32"/>
      </g>
     </g>
    </g>
    <g id="ytick_3">
     <g id="line2d_11">
      <path d="M 36.2225 237.351779 
L 853.2 237.351779 
" clip-path="url(#p938048b9d5)" style="fill: none; stroke: #b0b0b0; stroke-opacity: 0.3; stroke-width: 0.8; stroke-linecap: square"/>
     </g>
     <g id="line2d_12">
      <g>
       <use xlink:href="#m4c42309ed3" x="36.2225" y="237.351779" style="stroke: #000000; stroke-width: 0.8"/>
      </g>
     </g>
     <g id="text_7">
      <!-- 4 -->
      <g transform="translate(24.2225 240.789279) scale(0.1 -0.1)">
       <defs>
        <path id="SimHei-34" d="M 2000 1100 
L 75 1100 
L 75 1525 
L 2100 4450 
L 2475 4450 
L 2475 1525 
L 3075 1525 
L 3075 1100 
L 2475 1100 
L 2475 150 
L 2000 150 
L 2000 1100 
z
M 2000 1525 
L 2000 3500 
L 600 1525 
L 2000 1525 
z
" transform="scale(0.015625)"/>
       </defs>
       <use xlink:href="#SimHei-34"/>
      </g>
     </g>
    </g>
    <g id="ytick_4">
     <g id="line2d_13">
      <path d="M 36.2225 160.102044 
L 853.2 160.102044 
" clip-path="url(#p938048b9d5)" style="fill: none; stroke: #b0b0b0; stroke-opacity: 0.3; stroke-width: 0.8; stroke-linecap: square"/>
     </g>
     <g id="line2d_14">
      <g>
       <use xlink:href="#m4c42309ed3" x="36.2225" y="160.102044" style="stroke: #000000; stroke-width: 0.8"/>
      </g>
     </g>
     <g id="text_8">
      <!-- 6 -->
      <g transform="translate(24.2225 163.539544) scale(0.1 -0.1)">
       <defs>
        <path id="SimHei-36" d="M 250 1612 
Q 275 1975 387 2225 
Q 500 2475 725 2850 
L 1750 4450 
L 2325 4450 
L 1275 2800 
Q 1950 2975 2350 2750 
Q 2750 2525 2887 2237 
Q 3025 1950 3037 1612 
Q 3050 1275 2937 950 
Q 2825 625 2537 362 
Q 2250 100 1737 75 
Q 1225 50 862 262 
Q 500 475 362 862 
Q 225 1250 250 1612 
z
M 1025 787 
Q 1250 550 1625 525 
Q 2000 500 2250 775 
Q 2500 1050 2500 1575 
Q 2500 2100 2187 2300 
Q 1875 2500 1487 2450 
Q 1100 2400 925 2075 
Q 750 1750 775 1387 
Q 800 1025 1025 787 
z
" transform="scale(0.015625)"/>
       </defs>
       <use xlink:href="#SimHei-36"/>
      </g>
     </g>
    </g>
    <g id="ytick_5">
     <g id="line2d_15">
      <path d="M 36.2225 82.852308 
L 853.2 82.852308 
" clip-path="url(#p938048b9d5)" style="fill: none; stroke: #b0b0b0; stroke-opacity: 0.3; stroke-width: 0.8; stroke-linecap: square"/>
     </g>
     <g id="line2d_16">
      <g>
       <use xlink:href="#m4c42309ed3" x="36.2225" y="82.852308" style="stroke: #000000; stroke-width: 0.8"/>
      </g>
     </g>
     <g id="text_9">
      <!-- 8 -->
      <g transform="translate(24.2225 86.289808) scale(0.1 -0.1)">
       <defs>
        <path id="SimHei-38" d="M 175 1375 
Q 175 1675 325 1962 
Q 475 2250 825 2425 
Q 525 2600 425 2812 
Q 325 3025 312 3300 
Q 300 3575 387 3775 
Q 475 3975 650 4150 
Q 825 4325 1037 4387 
Q 1250 4450 1500 4450 
Q 1750 4450 1950 4400 
Q 2150 4350 2375 4187 
Q 2600 4025 2700 3725 
Q 2800 3425 2687 3025 
Q 2575 2625 2100 2400 
Q 2525 2275 2700 2012 
Q 2875 1750 2875 1375 
Q 2875 1000 2762 775 
Q 2650 550 2512 400 
Q 2375 250 2137 162 
Q 1900 75 1537 75 
Q 1175 75 912 162 
Q 650 250 475 425 
Q 300 600 237 837 
Q 175 1075 175 1375 
z
M 687 1400 
Q 675 1100 787 875 
Q 900 650 1200 587 
Q 1500 525 1825 600 
Q 2150 675 2275 950 
Q 2400 1225 2362 1500 
Q 2325 1775 2050 1962 
Q 1775 2150 1450 2125 
Q 1125 2100 912 1900 
Q 700 1700 687 1400 
z
M 775 3350 
Q 775 3100 950 2875 
Q 1125 2650 1500 2650 
Q 1875 2650 2062 2875 
Q 2250 3100 2237 3412 
Q 2225 3725 2012 3875 
Q 1800 4025 1437 4000 
Q 1075 3975 925 3787 
Q 775 3600 775 3350 
z
" transform="scale(0.015625)"/>
       </defs>
       <use xlink:href="#SimHei-38"/>
      </g>
     </g>
    </g>
    <g id="text_10">
     <!-- 特征评分 (1-10) -->
     <g transform="translate(18.9725 246.84875) rotate(-90) scale(0.1 -0.1)">
      <defs>
       <path id="SimHei-8bc4" d="M 5900 4500 
Q 5400 4525 4425 4525 
L 4425 2125 
L 5200 2125 
Q 5750 2125 6175 2150 
L 6175 1675 
Q 5775 1700 5200 1700 
L 4425 1700 
L 4425 200 
Q 4425 -300 4450 -675 
L 3900 -675 
Q 3925 -200 3925 200 
L 3925 1700 
L 3075 1700 
Q 2625 1700 2225 1675 
L 2225 2150 
Q 2625 2125 3075 2125 
L 3925 2125 
L 3925 4525 
Q 2850 4525 2425 4500 
L 2425 4975 
Q 2850 4950 3300 4950 
L 4950 4950 
Q 5400 4950 5900 4975 
L 5900 4500 
z
M 875 225 
Q 1150 400 1150 650 
L 1150 2875 
Q 475 2875 225 2850 
L 225 3350 
Q 475 3325 825 3325 
L 1650 3325 
Q 1625 2825 1625 2325 
L 1625 725 
Q 1900 975 2275 1375 
Q 2375 1225 2550 950 
Q 2100 550 1812 300 
Q 1525 50 1250 -250 
Q 1100 25 875 225 
z
M 4825 2625 
Q 5200 3425 5375 4050 
Q 5650 3975 5975 3850 
Q 5925 3800 5700 3325 
Q 5475 2850 5300 2450 
Q 5050 2575 4825 2625 
z
M 2850 4000 
Q 3275 3175 3450 2700 
Q 3150 2600 2950 2475 
Q 2700 3300 2400 3800 
Q 2650 3875 2850 4000 
z
M 1100 5225 
Q 1400 4975 1975 4275 
Q 1750 4125 1575 3950 
Q 1300 4350 750 4900 
Q 900 5025 1100 5225 
z
" transform="scale(0.015625)"/>
       <path id="SimHei-5206" d="M 1000 -650 
Q 825 -375 575 -225 
Q 975 -75 1300 137 
Q 1625 350 1875 662 
Q 2125 975 2250 1350 
Q 2375 1725 2425 2275 
Q 1850 2275 1500 2250 
L 1500 2775 
Q 1900 2750 2525 2750 
L 5025 2750 
Q 4975 2375 4950 2100 
L 4750 250 
Q 4700 -200 4350 -350 
Q 4000 -500 3575 -525 
Q 3550 -275 3325 50 
Q 3850 25 4037 87 
Q 4225 150 4275 525 
L 4450 2275 
L 2950 2275 
Q 2875 1625 2737 1187 
Q 2600 750 2350 425 
Q 2100 100 1750 -175 
Q 1400 -450 1000 -650 
z
M 3950 5175 
Q 4125 4650 4662 3975 
Q 5200 3300 6175 2800 
Q 5975 2625 5775 2275 
Q 5325 2600 4987 2887 
Q 4650 3175 4425 3425 
Q 4200 3675 3925 4137 
Q 3650 4600 3475 5000 
Q 3750 5075 3950 5175 
z
M 2700 4825 
Q 2475 4425 2325 4125 
Q 2175 3825 2025 3587 
Q 1875 3350 1575 2950 
Q 1275 2550 850 2125 
Q 625 2350 400 2475 
Q 900 2925 1187 3300 
Q 1475 3675 1737 4112 
Q 2000 4550 2200 5075 
Q 2400 4925 2700 4825 
z
" transform="scale(0.015625)"/>
       <path id="SimHei-20" transform="scale(0.015625)"/>
       <path id="SimHei-28" d="M 2975 -200 
L 2700 -475 
Q 2075 125 1762 775 
Q 1450 1425 1450 2250 
Q 1450 3075 1762 3725 
Q 2075 4375 2700 5000 
L 2975 4725 
Q 2400 4175 2112 3587 
Q 1825 3000 1825 2250 
Q 1825 1500 2112 912 
Q 2400 325 2975 -200 
z
" transform="scale(0.015625)"/>
       <path id="SimHei-31" d="M 1400 3600 
Q 1075 3275 575 2975 
L 575 3450 
Q 1200 3875 1600 4450 
L 1900 4450 
L 1900 150 
L 1400 150 
L 1400 3600 
z
" transform="scale(0.015625)"/>
       <path id="SimHei-2d" d="M 2975 2125 
L 125 2125 
L 125 2525 
L 2975 2525 
L 2975 2125 
z
" transform="scale(0.015625)"/>
       <path id="SimHei-29" d="M 1675 2250 
Q 1675 1425 1362 775 
Q 1050 125 425 -475 
L 150 -200 
Q 725 325 1012 912 
Q 1300 1500 1300 2250 
Q 1300 3000 1012 3587 
Q 725 4175 150 4725 
L 425 5000 
Q 1050 4375 1362 3725 
Q 1675 3075 1675 2250 
z
" transform="scale(0.015625)"/>
      </defs>
      <use xlink:href="#SimHei-7279"/>
      <use xlink:href="#SimHei-5f81" x="100"/>
      <use xlink:href="#SimHei-8bc4" x="200"/>
      <use xlink:href="#SimHei-5206" x="300"/>
      <use xlink:href="#SimHei-20" x="400"/>
      <use xlink:href="#SimHei-28" x="450"/>
      <use xlink:href="#SimHei-31" x="500"/>
      <use xlink:href="#SimHei-2d" x="550"/>
      <use xlink:href="#SimHei-31" x="600"/>
      <use xlink:href="#SimHei-30" x="650"/>
      <use xlink:href="#SimHei-29" x="700"/>
     </g>
    </g>
   </g>
   <g id="line2d_17">
    <path clip-path="url(#p938048b9d5)" style="fill: none; stroke: #424242; stroke-width: 2.25; stroke-linecap: square"/>
   </g>
   <g id="line2d_18">
    <path clip-path="url(#p938048b9d5)" style="fill: none; stroke: #424242; stroke-width: 2.25; stroke-linecap: square"/>
   </g>
   <g id="line2d_19">
    <path clip-path="url(#p938048b9d5)" style="fill: none; stroke: #424242; stroke-width: 2.25; stroke-linecap: square"/>
   </g>
   <g id="line2d_20">
    <path clip-path="url(#p938048b9d5)" style="fill: none; stroke: #424242; stroke-width: 2.25; stroke-linecap: square"/>
   </g>
   <g id="line2d_21">
    <path clip-path="url(#p938048b9d5)" style="fill: none; stroke: #424242; stroke-width: 2.25; stroke-linecap: square"/>
   </g>
   <g id="line2d_22">
    <path clip-path="url(#p938048b9d5)" style="fill: none; stroke: #424242; stroke-width: 2.25; stroke-linecap: square"/>
   </g>
   <g id="patch_11">
    <path d="M 36.2225 391.85125 
L 36.2225 26.84625 
" style="fill: none; stroke: #000000; stroke-width: 0.8; stroke-linejoin: miter; stroke-linecap: square"/>
   </g>
   <g id="patch_12">
    <path d="M 853.2 391.85125 
L 853.2 26.84625 
" style="fill: none; stroke: #000000; stroke-width: 0.8; stroke-linejoin: miter; stroke-linecap: square"/>
   </g>
   <g id="patch_13">
    <path d="M 36.2225 391.85125 
L 853.2 391.85125 
" style="fill: none; stroke: #000000; stroke-width: 0.8; stroke-linejoin: miter; stroke-linecap: square"/>
   </g>
   <g id="patch_14">
    <path d="M 36.2225 26.84625 
L 853.2 26.84625 
" style="fill: none; stroke: #000000; stroke-width: 0.8; stroke-linejoin: miter; stroke-linecap: square"/>
   </g>
   <g id="text_11">
    <!-- 不同市场关键特征比较 -->
    <g transform="translate(384.71125 20.84625) scale(0.12 -0.12)">
     <defs>
      <path id="SimHei-4e0d" d="M 5975 4450 
Q 5525 4475 5200 4475 
L 3725 4475 
Q 3550 4125 3300 3700 
L 3300 575 
Q 3300 75 3325 -550 
L 2775 -550 
Q 2800 50 2800 575 
L 2800 3025 
Q 2025 1950 700 1050 
Q 500 1350 325 1475 
Q 825 1700 1650 2437 
Q 2475 3175 3175 4475 
L 1525 4475 
Q 1050 4475 525 4450 
L 525 4950 
Q 1275 4925 1675 4925 
L 5175 4925 
Q 5500 4925 5975 4950 
L 5975 4450 
z
M 5450 1125 
Q 4975 1725 3750 2975 
Q 3950 3150 4075 3325 
Q 4675 2775 5100 2362 
Q 5525 1950 5900 1550 
Q 5650 1350 5450 1125 
z
" transform="scale(0.015625)"/>
      <path id="SimHei-540c" d="M 5825 4925 
Q 5775 4550 5775 3975 
L 5775 -50 
Q 5775 -400 5525 -487 
Q 5275 -575 4725 -625 
Q 4725 -400 4525 -50 
Q 4925 -50 5100 -12 
Q 5275 25 5275 200 
L 5275 4450 
L 1150 4450 
L 1150 -600 
L 575 -600 
Q 600 -250 625 200 
L 625 3975 
Q 625 4575 600 4925 
L 5825 4925 
z
M 4375 2550 
Q 4325 2275 4325 1700 
Q 4325 1150 4375 725 
L 2025 725 
Q 2050 1175 2050 1750 
Q 2050 2325 2025 2550 
L 4375 2550 
z
M 4100 3750 
Q 4600 3750 4825 3775 
L 4825 3275 
Q 4575 3300 4075 3300 
L 2450 3300 
Q 1850 3300 1600 3275 
L 1600 3775 
Q 1875 3750 2475 3750 
L 4100 3750 
z
M 3875 1150 
L 3875 2150 
L 2525 2150 
L 2525 1150 
L 3875 1150 
z
" transform="scale(0.015625)"/>
      <path id="SimHei-5e02" d="M 4750 4200 
Q 5350 4200 6050 4225 
L 6050 3725 
Q 5350 3750 4750 3750 
L 3450 3750 
L 3450 2900 
L 5375 2900 
Q 5350 2450 5350 1975 
L 5350 750 
Q 5350 325 5062 175 
Q 4775 25 4250 -25 
Q 4200 275 4025 575 
Q 4550 575 4687 600 
Q 4825 625 4825 850 
L 4825 2450 
L 3450 2450 
L 3450 475 
Q 3450 -150 3475 -600 
L 2900 -600 
Q 2925 -150 2925 475 
L 2925 2450 
L 1525 2450 
L 1525 0 
L 975 0 
Q 1000 400 1000 950 
L 1000 1875 
Q 1000 2450 975 2900 
L 2925 2900 
L 2925 3750 
L 1625 3750 
Q 975 3750 325 3725 
L 325 4225 
Q 975 4200 1625 4200 
L 4750 4200 
z
M 2950 5275 
Q 3250 4975 3575 4475 
Q 3300 4350 3125 4225 
Q 2900 4625 2550 5000 
Q 2750 5150 2950 5275 
z
" transform="scale(0.015625)"/>
      <path id="SimHei-573a" d="M 5625 5000 
L 5625 4600 
Q 5275 4525 4862 4150 
Q 4450 3775 3750 3100 
L 6000 3100 
Q 5975 2925 5950 2300 
L 5850 425 
Q 5825 -200 5587 -350 
Q 5350 -500 4750 -550 
Q 4700 -250 4525 50 
Q 5050 0 5200 75 
Q 5350 150 5375 400 
L 5475 2675 
L 5000 2675 
Q 4875 1925 4700 1425 
Q 4525 925 4287 562 
Q 4050 200 3750 -62 
Q 3450 -325 3000 -600 
Q 2875 -350 2650 -175 
Q 3075 50 3425 350 
Q 3775 650 4000 1050 
Q 4225 1450 4337 1900 
Q 4450 2350 4500 2675 
L 4000 2675 
Q 3950 2300 3787 1912 
Q 3625 1525 3325 1150 
Q 3025 775 2550 425 
Q 2450 600 2175 800 
Q 2775 1125 3112 1675 
Q 3450 2225 3500 2675 
Q 3225 2650 3125 2625 
Q 3025 2600 2800 2525 
Q 2725 2825 2650 3025 
Q 3075 3075 3637 3587 
Q 4200 4100 4650 4575 
L 3700 4575 
Q 3150 4575 2675 4550 
L 2675 5025 
Q 3125 5000 3675 5000 
L 5625 5000 
z
M 1200 4375 
Q 1200 4650 1175 5075 
L 1700 5075 
Q 1675 4625 1675 4375 
L 1675 3450 
Q 2050 3450 2450 3475 
L 2450 3025 
Q 2000 3050 1675 3050 
L 1675 1225 
Q 1950 1325 2500 1575 
Q 2500 1350 2525 1125 
Q 2100 925 1500 687 
Q 900 450 500 225 
Q 400 450 200 725 
Q 650 850 1200 1050 
L 1200 3050 
Q 650 3050 325 3025 
L 325 3475 
Q 750 3450 1200 3450 
L 1200 4375 
z
" transform="scale(0.015625)"/>
      <path id="SimHei-5173" d="M 4675 4850 
Q 4525 4675 4362 4375 
Q 4200 4075 4075 3825 
L 4625 3825 
Q 5150 3825 5550 3850 
L 5550 3375 
Q 5225 3400 4700 3400 
L 3400 3400 
L 3400 2150 
L 4975 2150 
Q 5475 2150 5875 2175 
L 5875 1700 
Q 5475 1725 5025 1725 
L 3500 1725 
Q 4250 450 6000 75 
Q 5775 -175 5600 -525 
Q 4025 0 3225 1300 
Q 2800 200 875 -600 
Q 775 -350 500 -150 
Q 2425 375 2875 1725 
L 1550 1725 
Q 975 1725 600 1700 
L 600 2150 
Q 875 2125 1450 2125 
L 2925 2125 
L 2925 3400 
L 1750 3400 
Q 1275 3400 900 3375 
L 900 3850 
Q 1275 3825 1775 3825 
L 3575 3825 
Q 3925 4625 4075 5150 
Q 4325 5000 4675 4850 
z
M 2125 5125 
Q 2450 4725 2800 4175 
Q 2500 4025 2325 3875 
Q 2025 4450 1725 4825 
Q 1950 4975 2125 5125 
z
" transform="scale(0.015625)"/>
      <path id="SimHei-952e" d="M 5675 3750 
Q 5825 3750 6075 3775 
L 6075 3325 
Q 5825 3350 5675 3350 
Q 5675 2650 5700 2450 
L 4700 2450 
L 4700 1975 
L 5200 1975 
Q 5400 1975 5650 2000 
L 5650 1575 
Q 5550 1600 5225 1600 
L 4700 1600 
L 4700 1075 
L 5375 1075 
Q 5575 1100 5825 1100 
L 5825 675 
Q 5550 700 5350 700 
L 4700 700 
L 4700 -50 
Q 5425 -100 6150 0 
Q 6025 -225 6000 -500 
Q 5125 -525 4562 -462 
Q 4000 -400 3637 -300 
Q 3275 -200 2875 175 
Q 2650 -250 2225 -625 
Q 2025 -425 1850 -275 
Q 2275 -25 2575 450 
Q 2250 950 2125 1700 
Q 2350 1750 2550 1800 
Q 2600 1325 2750 925 
Q 2900 1650 2925 2400 
Q 2500 2400 2250 2275 
Q 2150 2500 2075 2675 
Q 2300 2775 2462 3212 
Q 2625 3650 2750 4200 
Q 2475 4200 2125 4175 
L 2125 4625 
Q 2450 4600 2675 4600 
L 3300 4600 
Q 3225 4300 3075 3837 
Q 2925 3375 2750 2775 
L 3375 2775 
Q 3325 2275 3275 1725 
Q 3225 1175 3025 525 
Q 3375 225 3650 137 
Q 3925 50 4275 -25 
L 4275 700 
Q 3875 700 3425 675 
L 3425 1100 
Q 3925 1075 4275 1075 
L 4275 1600 
Q 3950 1600 3550 1575 
L 3550 2000 
Q 3950 1975 4275 1975 
L 4275 2450 
Q 3900 2450 3650 2400 
L 3650 2850 
Q 3950 2825 4275 2825 
L 4275 3375 
L 3725 3375 
Q 3525 3375 3350 3350 
L 3350 3775 
Q 3550 3750 3725 3750 
L 4275 3750 
L 4275 4250 
Q 4000 4250 3625 4225 
L 3625 4650 
Q 3950 4625 4300 4625 
Q 4300 5025 4275 5200 
L 4725 5200 
Q 4700 5000 4700 4625 
L 5725 4625 
Q 5675 4375 5675 3750 
z
M 2200 600 
Q 1925 400 1662 162 
Q 1400 -75 1125 -375 
Q 975 -200 775 0 
Q 975 200 1000 400 
L 1000 1625 
Q 825 1625 450 1600 
L 450 2025 
Q 800 2000 1000 2000 
L 1000 2800 
Q 875 2800 700 2775 
L 700 3200 
Q 1025 3175 1325 3175 
Q 1650 3175 2050 3225 
L 2050 2800 
Q 1625 2825 1400 2825 
L 1400 2025 
Q 1700 2025 1975 2050 
L 1975 1625 
Q 1650 1650 1400 1650 
L 1400 525 
Q 1750 800 1900 1000 
Q 1975 850 2200 600 
z
M 1025 3875 
Q 825 3575 500 3175 
Q 350 3350 175 3525 
Q 400 3700 675 4162 
Q 950 4625 1150 5200 
Q 1300 5125 1650 4975 
Q 1450 4650 1250 4275 
Q 1675 4275 2000 4300 
L 2000 3850 
Q 1625 3875 1025 3875 
z
M 5250 2825 
L 5250 3375 
L 4700 3375 
L 4700 2825 
L 5250 2825 
z
M 5250 3750 
L 5250 4250 
L 4700 4250 
L 4700 3750 
L 5250 3750 
z
" transform="scale(0.015625)"/>
      <path id="SimHei-6bd4" d="M 3775 5100 
Q 3750 4575 3750 4100 
L 3750 3050 
Q 4925 3600 5475 4175 
Q 5675 3900 5900 3675 
Q 5600 3500 5037 3187 
Q 4475 2875 3750 2550 
L 3750 450 
Q 3750 100 4050 100 
L 5000 100 
Q 5175 100 5262 250 
Q 5350 400 5450 900 
Q 5650 775 6025 675 
Q 5850 0 5650 -175 
Q 5450 -350 5225 -350 
L 3900 -350 
Q 3250 -350 3250 275 
L 3250 4000 
Q 3250 4550 3225 5100 
L 3775 5100 
z
M 1275 4975 
Q 1250 4575 1250 4000 
L 1250 3150 
L 1850 3150 
Q 2325 3150 2875 3175 
L 2875 2650 
Q 2325 2675 1850 2675 
L 1250 2675 
L 1250 475 
Q 1650 650 1962 812 
Q 2275 975 2850 1275 
Q 2900 950 2950 750 
Q 2375 475 1762 175 
Q 1150 -125 925 -325 
Q 750 -100 575 200 
Q 700 300 750 600 
L 750 3950 
Q 750 4550 725 4975 
L 1275 4975 
z
" transform="scale(0.015625)"/>
      <path id="SimHei-8f83" d="M 2950 1425 
Q 2925 1225 2925 1000 
Q 2725 975 2025 850 
Q 2025 225 2050 -625 
L 1525 -625 
Q 1550 225 1550 750 
Q 875 600 425 450 
Q 350 750 200 1000 
Q 625 1050 1550 1175 
L 1550 2100 
Q 1250 2100 937 2087 
Q 625 2075 425 2000 
L 275 2450 
Q 500 2675 662 3075 
Q 825 3475 950 3950 
Q 775 3950 350 3925 
L 350 4400 
Q 725 4350 1050 4350 
Q 1225 4800 1275 5250 
Q 1550 5150 1850 5075 
Q 1725 4775 1575 4350 
Q 2200 4350 2650 4375 
L 2650 3925 
Q 2200 3950 1450 3950 
Q 1300 3475 900 2500 
L 1550 2500 
Q 1550 3100 1525 3400 
L 2050 3400 
Q 2025 3050 2025 2500 
L 2675 2500 
L 2675 2100 
L 2025 2100 
L 2025 1250 
Q 2700 1375 2950 1425 
z
M 5450 2325 
Q 5300 1925 5100 1437 
Q 4900 950 4675 575 
Q 4900 375 5300 225 
Q 5700 75 6200 -25 
Q 6000 -275 5950 -575 
Q 5300 -375 4925 -162 
Q 4550 50 4325 250 
Q 4025 -25 3687 -212 
Q 3350 -400 2825 -625 
Q 2725 -375 2450 -125 
Q 3025 0 3425 212 
Q 3825 425 4025 625 
Q 3800 1000 3650 1425 
L 3350 2275 
Q 3550 2375 3850 2475 
Q 4000 1875 4100 1600 
Q 4200 1325 4350 1025 
Q 4525 1275 4650 1662 
Q 4775 2050 4850 2525 
Q 5125 2425 5450 2325 
z
M 5175 4400 
Q 5725 4425 6025 4425 
L 6025 3975 
Q 5725 4000 5200 4000 
L 3800 4000 
Q 3250 4000 2925 3975 
L 2925 4425 
Q 3350 4400 3800 4400 
L 5175 4400 
z
M 4150 3425 
Q 3875 3100 3175 2275 
Q 3025 2475 2775 2625 
Q 3425 3300 3675 3750 
Q 3875 3600 4150 3425 
z
M 5200 3750 
Q 5450 3500 6125 2750 
Q 5825 2550 5650 2400 
Q 5425 2775 4775 3425 
Q 4975 3600 5200 3750 
z
M 4275 5300 
Q 4625 4925 4775 4675 
Q 4525 4550 4300 4425 
Q 4225 4625 3850 5050 
Q 4075 5175 4275 5300 
z
" transform="scale(0.015625)"/>
     </defs>
     <use xlink:href="#SimHei-4e0d"/>
     <use xlink:href="#SimHei-540c" x="100"/>
     <use xlink:href="#SimHei-5e02" x="200"/>
     <use xlink:href="#SimHei-573a" x="300"/>
     <use xlink:href="#SimHei-5173" x="400"/>
     <use xlink:href="#SimHei-952e" x="500"/>
     <use xlink:href="#SimHei-7279" x="600"/>
     <use xlink:href="#SimHei-5f81" x="700"/>
     <use xlink:href="#SimHei-6bd4" x="800"/>
     <use xlink:href="#SimHei-8f83" x="900"/>
    </g>
   </g>
   <g id="legend_1">
    <g id="patch_15">
     <path d="M 794.2 77.5025 
L 846.2 77.5025 
Q 848.2 77.5025 848.2 75.5025 
L 848.2 33.84625 
Q 848.2 31.84625 846.2 31.84625 
L 794.2 31.84625 
Q 792.2 31.84625 792.2 33.84625 
L 792.2 75.5025 
Q 792.2 77.5025 794.2 77.5025 
z
" style="fill: #ffffff; opacity: 0.8; stroke: #cccccc; stroke-linejoin: miter"/>
    </g>
    <g id="text_12">
     <!-- 市场 -->
     <g transform="translate(810.2 43.775937) scale(0.1 -0.1)">
      <use xlink:href="#SimHei-5e02"/>
      <use xlink:href="#SimHei-573a" x="100"/>
     </g>
    </g>
    <g id="patch_16">
     <path d="M 796.2 58.111875 
L 816.2 58.111875 
L 816.2 51.111875 
L 796.2 51.111875 
z
" style="fill: #3274a1"/>
    </g>
    <g id="text_13">
     <!-- 航空 -->
     <g transform="translate(824.2 58.111875) scale(0.1 -0.1)">
      <defs>
       <path id="SimHei-822a" d="M 2000 5000 
Q 1850 4725 1650 4275 
L 2600 4275 
L 2600 150 
Q 2600 -250 2425 -350 
Q 2250 -450 1750 -525 
Q 1700 -250 1550 25 
Q 1950 0 2062 25 
Q 2175 50 2175 350 
L 2175 1975 
L 1125 1975 
Q 1125 1400 1087 962 
Q 1050 525 950 137 
Q 850 -250 650 -675 
Q 450 -500 200 -450 
Q 525 125 612 662 
Q 700 1200 700 1975 
Q 525 1975 275 1950 
L 275 2375 
Q 550 2350 700 2350 
L 700 3450 
Q 700 3825 675 4275 
L 1200 4275 
Q 1400 4750 1475 5175 
Q 1750 5075 2000 5000 
z
M 5200 2975 
Q 5175 2650 5175 2075 
L 5175 300 
Q 5175 0 5325 0 
L 5450 0 
Q 5575 0 5625 150 
Q 5675 300 5675 625 
Q 5900 475 6175 425 
Q 6075 -50 5975 -225 
Q 5875 -400 5550 -400 
L 5150 -400 
Q 4725 -400 4725 100 
L 4725 2575 
L 3825 2575 
Q 3825 1725 3800 1237 
Q 3775 750 3587 287 
Q 3400 -175 2950 -675 
Q 2800 -450 2550 -350 
Q 3075 125 3212 575 
Q 3350 1025 3362 1362 
Q 3375 1700 3375 2125 
Q 3375 2550 3350 2975 
L 5200 2975 
z
M 2175 2350 
L 2175 3900 
L 1125 3900 
L 1125 2350 
L 2175 2350 
z
M 5925 3675 
Q 5625 3700 5300 3700 
L 3500 3700 
Q 3225 3700 2975 3675 
L 2975 4125 
Q 3250 4100 3475 4100 
L 5325 4100 
Q 5625 4100 5925 4125 
L 5925 3675 
z
M 4125 5225 
Q 4450 4725 4625 4375 
Q 4325 4250 4150 4150 
Q 4000 4525 3700 5000 
Q 3950 5125 4125 5225 
z
M 1550 1675 
Q 1800 1250 2025 825 
Q 1850 725 1650 600 
Q 1425 1125 1225 1450 
Q 1400 1550 1550 1675 
z
M 2000 2800 
Q 1800 2725 1625 2625 
Q 1525 2925 1275 3425 
Q 1425 3500 1625 3625 
L 2000 2800 
z
" transform="scale(0.015625)"/>
       <path id="SimHei-7a7a" d="M 4025 1925 
Q 4700 1925 5225 1975 
L 5225 1450 
Q 4725 1500 4025 1500 
L 3475 1500 
L 3475 0 
L 5000 0 
Q 5725 0 6175 50 
L 6175 -475 
Q 5750 -425 5050 -425 
L 1750 -425 
Q 775 -425 350 -475 
L 350 50 
Q 825 0 1800 0 
L 2925 0 
L 2925 1500 
L 2300 1500 
Q 1625 1500 1125 1450 
L 1125 1975 
Q 1600 1925 2375 1925 
L 4025 1925 
z
M 5250 3250 
L 5250 3925 
L 1150 3925 
L 1150 3175 
L 600 3175 
Q 625 3425 625 3750 
Q 625 4100 600 4375 
L 3100 4375 
Q 2950 4725 2750 5075 
Q 3000 5200 3300 5300 
Q 3500 4850 3650 4525 
Q 3400 4450 3175 4375 
L 5825 4375 
Q 5800 4150 5800 3775 
Q 5800 3425 5825 3250 
L 5250 3250 
z
M 3975 3525 
Q 4275 3400 4762 3175 
Q 5250 2950 5925 2550 
Q 5675 2275 5575 2075 
Q 5100 2375 4650 2625 
Q 4200 2875 3675 3125 
Q 3800 3275 3975 3525 
z
M 2700 3225 
Q 2425 3100 1937 2737 
Q 1450 2375 825 2000 
Q 675 2225 450 2450 
Q 925 2650 1375 2962 
Q 1825 3275 2150 3650 
Q 2400 3425 2700 3225 
z
" transform="scale(0.015625)"/>
      </defs>
      <use xlink:href="#SimHei-822a"/>
      <use xlink:href="#SimHei-7a7a" x="100"/>
     </g>
    </g>
    <g id="patch_17">
     <path d="M 796.2 72.2525 
L 816.2 72.2525 
L 816.2 65.2525 
L 796.2 65.2525 
z
" style="fill: #e1812c"/>
    </g>
    <g id="text_14">
     <!-- 酒店 -->
     <g transform="translate(824.2 72.2525) scale(0.1 -0.1)">
      <defs>
       <path id="SimHei-9152" d="M 6025 4400 
Q 5600 4425 4750 4425 
L 4750 3650 
L 5825 3650 
Q 5800 2850 5800 1550 
Q 5800 250 5825 -600 
L 5350 -600 
L 5350 -200 
L 2625 -200 
L 2625 -600 
L 2150 -600 
Q 2175 250 2175 1550 
Q 2175 2875 2150 3650 
L 3275 3650 
L 3275 4425 
Q 2525 4425 1925 4400 
L 1925 4875 
Q 2525 4850 4050 4850 
Q 5575 4850 6025 4875 
L 6025 4400 
z
M 5350 1275 
L 5350 1825 
L 4825 1825 
Q 4300 1825 4300 2375 
L 4300 3250 
L 3725 3250 
Q 3700 2600 3562 2225 
Q 3425 1850 3200 1575 
Q 3025 1750 2750 1825 
Q 2975 2075 3125 2412 
Q 3275 2750 3275 3250 
L 2625 3250 
L 2625 1275 
L 5350 1275 
z
M 5350 225 
L 5350 825 
L 2625 825 
L 2625 225 
L 5350 225 
z
M 1775 1600 
Q 1675 1475 1425 975 
Q 1175 475 750 -475 
Q 550 -275 225 -75 
Q 450 200 725 712 
Q 1000 1225 1225 1975 
Q 1475 1800 1775 1600 
z
M 650 3700 
Q 1375 3250 1725 3050 
Q 1475 2800 1325 2525 
Q 1125 2750 300 3250 
Q 475 3450 650 3700 
z
M 4750 2625 
Q 4750 2325 4825 2275 
Q 4900 2225 5350 2225 
L 5350 3250 
L 4750 3250 
L 4750 2625 
z
M 950 5200 
Q 1650 4750 1875 4575 
Q 1675 4375 1500 4125 
Q 1300 4350 625 4750 
Q 850 4975 950 5200 
z
M 4300 3650 
L 4300 4425 
L 3725 4425 
L 3725 3650 
L 4300 3650 
z
" transform="scale(0.015625)"/>
       <path id="SimHei-5e97" d="M 3800 3900 
Q 3775 3500 3775 3125 
L 5100 3125 
Q 5500 3125 5800 3150 
L 5800 2675 
Q 5525 2700 5100 2700 
L 3775 2700 
L 3775 1850 
L 5425 1850 
Q 5400 1200 5400 650 
Q 5400 100 5425 -525 
L 4900 -525 
L 4900 -75 
L 2400 -75 
L 2400 -550 
L 1900 -550 
Q 1925 150 1925 700 
Q 1925 1275 1900 1850 
L 3275 1850 
L 3275 3100 
Q 3275 3525 3250 3900 
L 3800 3900 
z
M 3450 5250 
Q 3625 4825 3750 4450 
L 4625 4450 
Q 5275 4450 5750 4475 
L 5750 4025 
Q 5300 4050 4825 4050 
L 1475 4050 
Q 1475 2450 1450 1862 
Q 1425 1275 1300 662 
Q 1175 50 900 -525 
Q 675 -350 375 -225 
Q 750 350 862 1062 
Q 975 1775 987 2612 
Q 1000 3450 950 4450 
L 3150 4450 
Q 3100 4675 2925 5075 
Q 3175 5125 3450 5250 
z
M 4900 325 
L 4900 1425 
L 2400 1425 
L 2400 325 
L 4900 325 
z
" transform="scale(0.015625)"/>
      </defs>
      <use xlink:href="#SimHei-9152"/>
      <use xlink:href="#SimHei-5e97" x="100"/>
     </g>
    </g>
   </g>
  </g>
 </g>
 <defs>
  <clipPath id="p938048b9d5">
   <rect x="36.2225" y="26.84625" width="816.9775" height="365.005"/>
  </clipPath>
 </defs>
</svg>
