<?xml version="1.0" encoding="utf-8" standalone="no"?>
<!DOCTYPE svg PUBLIC "-//W3C//DTD SVG 1.1//EN"
  "http://www.w3.org/Graphics/SVG/1.1/DTD/svg11.dtd">
<svg xmlns:xlink="http://www.w3.org/1999/xlink" width="864pt" height="432pt" viewBox="0 0 864 432" xmlns="http://www.w3.org/2000/svg" version="1.1">
 <metadata>
  <rdf:RDF xmlns:dc="http://purl.org/dc/elements/1.1/" xmlns:cc="http://creativecommons.org/ns#" xmlns:rdf="http://www.w3.org/1999/02/22-rdf-syntax-ns#">
   <cc:Work>
    <dc:type rdf:resource="http://purl.org/dc/dcmitype/StillImage"/>
    <dc:date>2025-04-13T15:13:05.130980</dc:date>
    <dc:format>image/svg+xml</dc:format>
    <dc:creator>
     <cc:Agent>
      <dc:title>Matplotlib v3.9.2, https://matplotlib.org/</dc:title>
     </cc:Agent>
    </dc:creator>
   </cc:Work>
  </rdf:RDF>
 </metadata>
 <defs>
  <style type="text/css">*{stroke-linejoin: round; stroke-linecap: butt}</style>
 </defs>
 <g id="figure_1">
  <g id="patch_1">
   <path d="M 0 432 
L 864 432 
L 864 0 
L 0 0 
z
" style="fill: #ffffff"/>
  </g>
  <g id="axes_1">
   <g id="patch_2">
    <path d="M 36.25625 352.385473 
L 853.2 352.385473 
L 853.2 26.8575 
L 36.25625 26.8575 
z
" style="fill: #ffffff"/>
   </g>
   <g id="patch_3">
    <path d="M 52.595125 352.385473 
L 117.950625 352.385473 
L 117.950625 274.878813 
L 52.595125 274.878813 
z
" clip-path="url(#p739c678715)" style="fill: #3274a1"/>
   </g>
   <g id="patch_4">
    <path d="M 215.983875 352.385473 
L 281.339375 352.385473 
L 281.339375 197.372153 
L 215.983875 197.372153 
z
" clip-path="url(#p739c678715)" style="fill: #3274a1"/>
   </g>
   <g id="patch_5">
    <path d="M 379.372625 352.385473 
L 444.728125 352.385473 
L 444.728125 42.358832 
L 379.372625 42.358832 
z
" clip-path="url(#p739c678715)" style="fill: #3274a1"/>
   </g>
   <g id="patch_6">
    <path d="M 542.761375 352.385473 
L 608.116875 352.385473 
L 608.116875 119.865492 
L 542.761375 119.865492 
z
" clip-path="url(#p739c678715)" style="fill: #3274a1"/>
   </g>
   <g id="patch_7">
    <path d="M 706.150125 352.385473 
L 771.505625 352.385473 
L 771.505625 81.112162 
L 706.150125 81.112162 
z
" clip-path="url(#p739c678715)" style="fill: #3274a1"/>
   </g>
   <g id="patch_8">
    <path d="M 117.950625 352.385473 
L 183.306125 352.385473 
L 183.306125 119.865492 
L 117.950625 119.865492 
z
" clip-path="url(#p739c678715)" style="fill: #e1812c"/>
   </g>
   <g id="patch_9">
    <path d="M 281.339375 352.385473 
L 346.694875 352.385473 
L 346.694875 42.358832 
L 281.339375 42.358832 
z
" clip-path="url(#p739c678715)" style="fill: #e1812c"/>
   </g>
   <g id="patch_10">
    <path d="M 444.728125 352.385473 
L 510.083625 352.385473 
L 510.083625 197.372153 
L 444.728125 197.372153 
z
" clip-path="url(#p739c678715)" style="fill: #e1812c"/>
   </g>
   <g id="patch_11">
    <path d="M 608.116875 352.385473 
L 673.472375 352.385473 
L 673.472375 236.125483 
L 608.116875 236.125483 
z
" clip-path="url(#p739c678715)" style="fill: #e1812c"/>
   </g>
   <g id="patch_12">
    <path d="M 771.505625 352.385473 
L 836.861125 352.385473 
L 836.861125 158.618823 
L 771.505625 158.618823 
z
" clip-path="url(#p739c678715)" style="fill: #e1812c"/>
   </g>
   <g id="patch_13">
    <path d="M 117.950625 352.385473 
L 117.950625 352.385473 
L 117.950625 352.385473 
L 117.950625 352.385473 
z
" clip-path="url(#p739c678715)" style="fill: #3274a1"/>
   </g>
   <g id="patch_14">
    <path d="M 117.950625 352.385473 
L 117.950625 352.385473 
L 117.950625 352.385473 
L 117.950625 352.385473 
z
" clip-path="url(#p739c678715)" style="fill: #e1812c"/>
   </g>
   <g id="matplotlib.axis_1">
    <g id="xtick_1">
     <g id="line2d_1">
      <path d="M 117.950625 352.385473 
L 117.950625 26.8575 
" clip-path="url(#p739c678715)" style="fill: none; stroke: #b0b0b0; stroke-opacity: 0.3; stroke-width: 0.8; stroke-linecap: square"/>
     </g>
     <g id="line2d_2">
      <defs>
       <path id="m4c84fa226c" d="M 0 0 
L 0 3.5 
" style="stroke: #000000; stroke-width: 0.8"/>
      </defs>
      <g>
       <use xlink:href="#m4c84fa226c" x="117.950625" y="352.385473" style="stroke: #000000; stroke-width: 0.8"/>
      </g>
     </g>
     <g id="text_1">
      <!-- 价格离散点过少 -->
      <g transform="translate(56.703847 401.354272) rotate(-30) scale(0.1 -0.1)">
       <defs>
        <path id="SimHei-4ef7" d="M 2200 4975 
Q 2050 4725 1650 3775 
L 1650 450 
Q 1650 -225 1675 -650 
L 1175 -650 
Q 1175 -225 1200 450 
L 1200 2975 
Q 900 2425 650 2100 
Q 525 2275 225 2450 
Q 750 3025 1125 3800 
Q 1500 4575 1625 5175 
Q 1950 5025 2200 4975 
z
M 4175 4700 
Q 4850 3525 6150 2950 
Q 5925 2750 5775 2500 
Q 4725 3100 3950 4300 
Q 3300 3125 2250 2350 
Q 2125 2525 1900 2725 
Q 2825 3325 3250 4050 
Q 3675 4775 3750 5150 
Q 4150 4950 4325 4900 
L 4175 4700 
z
M 3475 2650 
Q 3400 2075 3325 1087 
Q 3250 100 2325 -675 
Q 2175 -450 1925 -300 
Q 2850 350 2912 1262 
Q 2975 2175 2950 2700 
Q 3275 2650 3475 2650 
z
M 5075 2700 
Q 5050 2150 5050 1725 
L 5050 150 
Q 5050 -225 5075 -650 
L 4550 -650 
Q 4575 -225 4575 175 
L 4575 1875 
Q 4575 2150 4550 2700 
L 5075 2700 
z
" transform="scale(0.015625)"/>
        <path id="SimHei-683c" d="M 4075 4875 
Q 3975 4750 3750 4350 
L 5625 4350 
Q 5450 3850 5212 3437 
Q 4975 3025 4650 2650 
Q 4950 2450 5412 2287 
Q 5875 2125 6150 2100 
Q 5975 1900 5875 1600 
Q 5550 1725 5125 1912 
Q 4700 2100 4300 2400 
Q 3925 2125 3537 1937 
Q 3150 1750 2575 1550 
Q 2475 1775 2300 1925 
Q 2825 2050 3262 2250 
Q 3700 2450 3975 2675 
Q 3625 3050 3325 3575 
Q 3175 3350 2875 2950 
Q 2700 3100 2475 3200 
Q 2825 3550 3112 4075 
Q 3400 4600 3550 5100 
Q 3775 4950 4075 4875 
z
M 5575 1650 
Q 5550 1350 5550 575 
Q 5550 -200 5575 -575 
L 5050 -575 
L 5050 -175 
L 3500 -175 
L 3500 -600 
L 2975 -600 
Q 3000 -200 3000 550 
Q 3000 1325 2975 1650 
L 5575 1650 
z
M 1850 5100 
Q 1825 4775 1825 4475 
L 1825 3825 
Q 2300 3825 2525 3850 
L 2525 3400 
Q 2300 3425 1825 3425 
L 1825 2725 
Q 1950 2800 2125 2950 
Q 2350 2600 2550 2200 
Q 2350 2075 2175 1950 
Q 1975 2375 1825 2625 
L 1825 275 
Q 1825 -275 1850 -625 
L 1350 -625 
Q 1375 -275 1375 275 
L 1375 2425 
Q 1150 1850 625 850 
Q 475 1025 250 1150 
Q 650 1775 900 2375 
Q 1150 2975 1250 3425 
Q 900 3425 475 3400 
L 475 3850 
Q 925 3825 1375 3825 
L 1375 4475 
Q 1375 4750 1350 5100 
L 1850 5100 
z
M 5050 200 
L 5050 1275 
L 3500 1275 
L 3500 200 
L 5050 200 
z
M 4300 2925 
Q 4675 3300 4975 3975 
L 3550 3975 
Q 3850 3350 4300 2925 
z
" transform="scale(0.015625)"/>
        <path id="SimHei-79bb" d="M 3000 2275 
Q 3150 2175 3425 2050 
Q 3275 1900 3150 1725 
L 5825 1725 
L 5825 0 
Q 5825 -475 5612 -537 
Q 5400 -600 4850 -650 
Q 4775 -350 4650 -100 
Q 5225 -125 5300 -87 
Q 5375 -50 5375 175 
L 5375 1350 
L 2950 1350 
Q 2825 1150 2675 962 
Q 2525 775 2350 525 
Q 2650 525 4075 675 
Q 3975 800 3850 950 
Q 3975 1075 4200 1225 
Q 4350 1075 4537 825 
Q 4725 575 4900 300 
Q 4650 200 4475 50 
Q 4350 200 4275 350 
Q 3175 225 2700 150 
Q 2225 75 1850 -25 
Q 1800 275 1675 600 
Q 1875 700 2075 900 
Q 2275 1100 2450 1350 
L 1125 1350 
L 1125 -625 
L 650 -625 
Q 675 -225 675 225 
L 675 1000 
Q 675 1450 650 1725 
L 2625 1725 
Q 2800 2000 2925 2275 
L 1025 2275 
Q 1050 2525 1050 2725 
L 1050 3325 
Q 1050 3550 1025 3800 
L 1525 3800 
Q 1500 3525 1500 3275 
L 1500 2650 
L 5050 2650 
L 5050 3325 
Q 5050 3575 5025 3775 
L 5525 3775 
Q 5500 3575 5500 3325 
L 5500 2750 
Q 5500 2550 5525 2275 
L 3000 2275 
z
M 3300 5275 
Q 3400 5000 3525 4650 
L 4950 4650 
Q 5375 4650 5950 4675 
L 5950 4275 
Q 5375 4300 4775 4300 
L 1525 4300 
Q 1050 4300 475 4275 
L 475 4675 
Q 1025 4650 1050 4650 
L 2975 4650 
Q 2900 4900 2750 5150 
Q 3025 5200 3300 5275 
z
M 2175 4125 
Q 2450 4050 2750 3937 
Q 3050 3825 3350 3725 
Q 3850 4025 4125 4250 
Q 4375 4100 4650 3925 
Q 4200 3800 3825 3550 
Q 4250 3350 4800 3100 
Q 4625 2950 4375 2775 
Q 4025 3000 3787 3112 
Q 3550 3225 3325 3300 
Q 3125 3175 2825 3050 
Q 2525 2925 2150 2775 
Q 2000 2975 1800 3125 
Q 2175 3200 2412 3287 
Q 2650 3375 2950 3475 
Q 2625 3575 2425 3637 
Q 2225 3700 1850 3775 
Q 2050 3950 2175 4125 
z
" transform="scale(0.015625)"/>
        <path id="SimHei-6563" d="M 4750 4975 
Q 4625 4850 4537 4600 
Q 4450 4350 4325 3975 
L 5350 3975 
Q 5650 3975 6050 4000 
L 6050 3550 
Q 5675 3575 5475 3575 
Q 5450 2800 5350 2112 
Q 5250 1425 4925 875 
Q 5450 250 6200 -100 
Q 5950 -200 5750 -500 
Q 5075 0 4650 500 
Q 4275 -50 3525 -600 
Q 3375 -425 3100 -300 
Q 3875 150 4375 875 
Q 3925 1575 3800 2700 
Q 3700 2525 3550 2275 
Q 3350 2425 3125 2525 
Q 3450 2975 3725 3662 
Q 4000 4350 4150 5150 
L 4750 4975 
z
M 3025 2550 
Q 3000 2075 3000 1625 
L 3000 25 
Q 3000 -450 2250 -500 
Q 2225 -275 2050 0 
Q 2525 0 2525 200 
L 2525 525 
L 1275 525 
L 1275 -550 
L 800 -550 
Q 825 -75 825 450 
L 825 1650 
Q 825 2100 800 2550 
L 3025 2550 
z
M 1075 4350 
Q 1075 4775 1050 5150 
L 1550 5150 
Q 1525 4825 1525 4350 
L 2225 4350 
Q 2225 4850 2200 5150 
L 2725 5150 
Q 2700 4850 2700 4350 
Q 2925 4350 3250 4375 
L 3250 3950 
Q 2925 3975 2700 3975 
L 2700 3375 
Q 2900 3375 3300 3400 
L 3300 2975 
Q 2925 3000 2525 3000 
L 1100 3000 
Q 750 3000 275 2975 
L 275 3400 
Q 750 3375 1075 3375 
L 1075 3975 
Q 825 3975 425 3950 
L 425 4375 
Q 800 4350 1075 4350 
z
M 4150 3375 
Q 4250 2000 4625 1300 
Q 4800 1625 4900 2187 
Q 5000 2750 5025 3575 
L 4225 3575 
L 4150 3375 
z
M 2525 900 
L 2525 1350 
L 1275 1350 
L 1275 900 
L 2525 900 
z
M 2525 1725 
L 2525 2175 
L 1275 2175 
L 1275 1725 
L 2525 1725 
z
M 2225 3375 
L 2225 3975 
L 1525 3975 
L 1525 3375 
L 2225 3375 
z
" transform="scale(0.015625)"/>
        <path id="SimHei-70b9" d="M 3325 5200 
Q 3300 4925 3300 4375 
L 4900 4375 
Q 5275 4375 5725 4400 
L 5725 3925 
Q 5300 3950 4900 3950 
L 3300 3950 
L 3300 3225 
L 5225 3225 
Q 5200 2700 5200 2150 
Q 5200 1625 5225 1175 
L 1175 1175 
Q 1200 1625 1200 2175 
Q 1200 2725 1175 3225 
L 2775 3225 
L 2775 4500 
Q 2775 4900 2750 5200 
L 3325 5200 
z
M 4700 1600 
L 4700 2800 
L 1725 2800 
L 1725 1600 
L 4700 1600 
z
M 1500 750 
Q 1025 -250 825 -625 
Q 625 -475 325 -375 
Q 650 50 950 925 
Q 1200 800 1500 750 
z
M 5325 850 
Q 5775 150 6075 -350 
Q 5925 -425 5575 -625 
Q 5375 -150 4900 575 
Q 5150 700 5325 850 
z
M 3975 -575 
Q 3775 -100 3400 575 
Q 3575 675 3825 825 
Q 4350 -75 4450 -325 
Q 4200 -450 3975 -575 
z
M 2375 -575 
Q 2350 -300 1975 550 
Q 2200 625 2425 775 
Q 2800 -75 2900 -350 
Q 2625 -450 2375 -575 
z
" transform="scale(0.015625)"/>
        <path id="SimHei-8fc7" d="M 250 -200 
Q 1025 475 1275 650 
L 1275 2475 
Q 675 2475 400 2450 
L 400 2950 
Q 625 2900 1325 2900 
L 1800 2900 
Q 1775 2525 1775 2150 
L 1775 600 
Q 2500 -25 3912 -37 
Q 5325 -50 6150 75 
Q 6000 -175 5925 -550 
L 4425 -550 
Q 3800 -550 3275 -512 
Q 2750 -475 2387 -300 
Q 2025 -125 1750 75 
Q 1475 275 1237 37 
Q 1000 -200 700 -625 
Q 550 -375 250 -200 
z
M 3625 850 
Q 4200 825 4350 875 
Q 4500 925 4500 1300 
L 4500 3575 
L 2875 3575 
Q 2600 3575 2275 3550 
L 2275 4025 
Q 2600 4000 3075 4000 
L 4500 4000 
Q 4500 4650 4450 5125 
L 5025 5125 
Q 5000 4800 5000 4000 
Q 5525 4000 5950 4025 
L 5950 3550 
Q 5550 3575 5000 3575 
L 5000 1100 
Q 5000 525 4662 412 
Q 4325 300 3825 275 
Q 3775 550 3625 850 
z
M 3125 1600 
Q 2900 2275 2575 2850 
Q 2800 2950 3050 3125 
Q 3500 2225 3625 1875 
Q 3450 1775 3125 1600 
z
M 1150 4975 
Q 1400 4675 1925 3875 
Q 1675 3725 1450 3550 
Q 950 4400 700 4625 
Q 925 4750 1150 4975 
z
" transform="scale(0.015625)"/>
        <path id="SimHei-5c11" d="M 5375 1875 
Q 4775 1225 4250 775 
Q 3725 325 2937 -12 
Q 2150 -350 825 -550 
Q 750 -225 500 -50 
Q 1225 -25 2225 262 
Q 3225 550 3900 1137 
Q 4575 1725 4850 2225 
Q 5050 2000 5375 1875 
z
M 3425 5125 
Q 3400 4750 3400 4150 
L 3400 2400 
Q 3400 1950 3425 1350 
L 2875 1350 
Q 2900 1950 2900 2400 
L 2900 4150 
Q 2900 4725 2850 5125 
L 3425 5125 
z
M 2275 3875 
Q 2100 3650 1712 3112 
Q 1325 2575 775 1825 
Q 600 2025 325 2150 
Q 925 2775 1275 3312 
Q 1625 3850 1750 4175 
Q 2025 3975 2275 3875 
z
M 4400 4225 
Q 5500 3350 6025 2800 
Q 5775 2650 5600 2425 
Q 5200 2950 4050 3850 
Q 4300 4025 4400 4225 
z
" transform="scale(0.015625)"/>
       </defs>
       <use xlink:href="#SimHei-4ef7"/>
       <use xlink:href="#SimHei-683c" x="100"/>
       <use xlink:href="#SimHei-79bb" x="200"/>
       <use xlink:href="#SimHei-6563" x="300"/>
       <use xlink:href="#SimHei-70b9" x="400"/>
       <use xlink:href="#SimHei-8fc7" x="500"/>
       <use xlink:href="#SimHei-5c11" x="600"/>
      </g>
     </g>
    </g>
    <g id="xtick_2">
     <g id="line2d_3">
      <path d="M 281.339375 352.385473 
L 281.339375 26.8575 
" clip-path="url(#p739c678715)" style="fill: none; stroke: #b0b0b0; stroke-opacity: 0.3; stroke-width: 0.8; stroke-linecap: square"/>
     </g>
     <g id="line2d_4">
      <g>
       <use xlink:href="#m4c84fa226c" x="281.339375" y="352.385473" style="stroke: #000000; stroke-width: 0.8"/>
      </g>
     </g>
     <g id="text_2">
      <!-- 过度集中分布 -->
      <g transform="translate(228.752851 396.388101) rotate(-30) scale(0.1 -0.1)">
       <defs>
        <path id="SimHei-5ea6" d="M 1750 1675 
Q 2450 1650 2875 1650 
L 5200 1650 
Q 4975 1250 4650 850 
Q 4325 450 4025 200 
Q 4350 50 4950 -50 
Q 5550 -150 6100 -150 
Q 5950 -300 5825 -650 
Q 5100 -550 4550 -412 
Q 4000 -275 3625 -100 
Q 3100 -325 2587 -462 
Q 2075 -600 1525 -675 
Q 1450 -475 1225 -250 
Q 1675 -250 2250 -125 
Q 2825 0 3250 200 
Q 2825 550 2400 1275 
L 1750 1250 
L 1750 1675 
z
M 2975 5075 
Q 3250 5150 3475 5250 
Q 3625 4975 3775 4525 
L 4700 4525 
Q 4975 4525 5700 4550 
L 5700 4100 
Q 5000 4125 4650 4125 
L 1375 4125 
Q 1375 3000 1350 2312 
Q 1325 1625 1212 950 
Q 1100 275 725 -525 
Q 500 -375 250 -300 
Q 650 400 762 1075 
Q 875 1750 887 2800 
Q 900 3850 875 4525 
L 3200 4525 
Q 3100 4850 2975 5075 
z
M 2475 3300 
Q 2475 3700 2450 3925 
L 2975 3925 
Q 2950 3725 2950 3300 
L 4300 3300 
Q 4300 3700 4275 3950 
L 4800 3950 
Q 4775 3650 4775 3300 
Q 5325 3300 5725 3325 
L 5725 2900 
Q 5350 2925 4775 2925 
Q 4775 2250 4800 1950 
L 2450 1950 
Q 2475 2350 2475 2925 
Q 2175 2925 1600 2900 
L 1600 3325 
Q 2175 3300 2475 3300 
z
M 4300 2350 
L 4300 2925 
L 2950 2925 
L 2950 2350 
L 4300 2350 
z
M 2875 1275 
Q 3200 775 3650 425 
Q 4025 700 4425 1275 
L 2900 1275 
L 2875 1275 
z
" transform="scale(0.015625)"/>
        <path id="SimHei-96c6" d="M 2275 4925 
Q 2125 4800 2025 4662 
Q 1925 4525 1850 4350 
L 4925 4350 
Q 5300 4350 5750 4375 
L 5750 3975 
L 3650 3975 
L 3650 3575 
L 4625 3575 
Q 4925 3575 5325 3600 
L 5325 3175 
Q 4925 3200 4625 3200 
L 3650 3200 
L 3650 2800 
L 4675 2800 
Q 5000 2800 5425 2825 
L 5425 2400 
Q 5000 2425 4675 2425 
L 3650 2425 
L 3650 2075 
L 4875 2075 
Q 5275 2075 5675 2100 
L 5675 1675 
Q 5300 1700 4900 1700 
L 1650 1700 
L 1650 1500 
L 1150 1500 
Q 1200 1950 1200 2325 
L 1200 3475 
Q 1050 3250 937 3125 
Q 825 3000 675 2825 
Q 500 3000 300 3125 
Q 475 3325 875 3825 
Q 1275 4325 1462 4650 
Q 1650 4975 1725 5225 
Q 1950 5100 2275 4925 
z
M 2975 1200 
Q 2975 1300 2950 1625 
L 3475 1625 
Q 3450 1275 3450 1200 
L 5050 1200 
Q 5500 1200 5925 1225 
L 5925 825 
L 4150 825 
Q 4500 525 4925 362 
Q 5350 200 6100 25 
Q 5875 -225 5775 -475 
Q 5275 -300 4962 -162 
Q 4650 -25 4387 137 
Q 4125 300 3950 462 
Q 3775 625 3575 825 
L 3450 825 
L 3450 250 
Q 3450 -275 3500 -650 
L 2950 -650 
Q 2975 -300 2975 250 
L 2975 825 
L 2875 825 
Q 2700 575 2475 375 
Q 2250 175 1987 12 
Q 1725 -150 1425 -300 
Q 1125 -450 700 -575 
Q 600 -325 400 -75 
Q 925 50 1475 262 
Q 2025 475 2300 825 
L 500 825 
L 500 1225 
Q 800 1200 1400 1200 
L 2975 1200 
z
M 3150 2800 
L 3150 3200 
L 1650 3200 
L 1650 2800 
L 3150 2800 
z
M 3150 3575 
L 3150 3975 
L 1650 3975 
L 1650 3575 
L 3150 3575 
z
M 3150 2075 
L 3150 2425 
L 1650 2425 
L 1650 2075 
L 3150 2075 
z
M 3450 5250 
Q 3575 5150 3712 5000 
Q 3850 4850 4000 4650 
Q 3850 4525 3575 4375 
Q 3425 4575 3325 4700 
Q 3225 4825 3075 4950 
Q 3275 5075 3450 5250 
z
" transform="scale(0.015625)"/>
        <path id="SimHei-4e2d" d="M 3475 5200 
Q 3450 4500 3450 3875 
L 5625 3875 
Q 5600 3375 5600 2500 
Q 5600 1650 5625 1225 
L 5075 1225 
L 5075 1600 
L 3450 1600 
L 3450 525 
Q 3450 225 3475 -600 
L 2875 -600 
Q 2925 -150 2925 450 
L 2925 1600 
L 1300 1600 
L 1300 1225 
L 750 1225 
Q 775 1600 775 2500 
Q 775 3425 750 3875 
L 2925 3875 
Q 2925 4550 2900 5200 
L 3475 5200 
z
M 5075 2000 
L 5075 3475 
L 3450 3475 
L 3450 2000 
L 5075 2000 
z
M 2925 2000 
L 2925 3475 
L 1300 3475 
L 1300 2000 
L 2925 2000 
z
" transform="scale(0.015625)"/>
        <path id="SimHei-5206" d="M 1000 -650 
Q 825 -375 575 -225 
Q 975 -75 1300 137 
Q 1625 350 1875 662 
Q 2125 975 2250 1350 
Q 2375 1725 2425 2275 
Q 1850 2275 1500 2250 
L 1500 2775 
Q 1900 2750 2525 2750 
L 5025 2750 
Q 4975 2375 4950 2100 
L 4750 250 
Q 4700 -200 4350 -350 
Q 4000 -500 3575 -525 
Q 3550 -275 3325 50 
Q 3850 25 4037 87 
Q 4225 150 4275 525 
L 4450 2275 
L 2950 2275 
Q 2875 1625 2737 1187 
Q 2600 750 2350 425 
Q 2100 100 1750 -175 
Q 1400 -450 1000 -650 
z
M 3950 5175 
Q 4125 4650 4662 3975 
Q 5200 3300 6175 2800 
Q 5975 2625 5775 2275 
Q 5325 2600 4987 2887 
Q 4650 3175 4425 3425 
Q 4200 3675 3925 4137 
Q 3650 4600 3475 5000 
Q 3750 5075 3950 5175 
z
M 2700 4825 
Q 2475 4425 2325 4125 
Q 2175 3825 2025 3587 
Q 1875 3350 1575 2950 
Q 1275 2550 850 2125 
Q 625 2350 400 2475 
Q 900 2925 1187 3300 
Q 1475 3675 1737 4112 
Q 2000 4550 2200 5075 
Q 2400 4925 2700 4825 
z
" transform="scale(0.015625)"/>
        <path id="SimHei-5e03" d="M 2375 4225 
Q 2650 4775 2775 5300 
Q 3125 5175 3400 5075 
Q 3275 4975 2950 4225 
L 4800 4225 
Q 5550 4225 6025 4250 
L 6025 3800 
L 2725 3800 
Q 2325 3100 1975 2675 
L 3275 2675 
Q 3275 3225 3250 3575 
L 3775 3575 
Q 3750 3225 3750 2675 
L 5500 2675 
Q 5475 2225 5475 1775 
L 5475 750 
Q 5475 275 5212 150 
Q 4950 25 4450 -25 
Q 4400 325 4225 550 
Q 4800 550 4912 625 
Q 5025 700 5000 1025 
L 5000 2250 
L 3750 2250 
L 3750 550 
Q 3750 25 3775 -600 
L 3250 -600 
Q 3275 25 3275 550 
L 3275 2250 
L 2100 2250 
L 2100 0 
L 1600 0 
Q 1625 525 1625 1025 
L 1625 2225 
Q 1300 1850 650 1275 
Q 475 1475 200 1650 
Q 750 2025 1262 2562 
Q 1775 3100 2150 3800 
L 1550 3800 
Q 925 3800 400 3775 
L 400 4250 
Q 925 4225 1550 4225 
L 2375 4225 
z
" transform="scale(0.015625)"/>
       </defs>
       <use xlink:href="#SimHei-8fc7"/>
       <use xlink:href="#SimHei-5ea6" x="100"/>
       <use xlink:href="#SimHei-96c6" x="200"/>
       <use xlink:href="#SimHei-4e2d" x="300"/>
       <use xlink:href="#SimHei-5206" x="400"/>
       <use xlink:href="#SimHei-5e03" x="500"/>
      </g>
     </g>
    </g>
    <g id="xtick_3">
     <g id="line2d_5">
      <path d="M 444.728125 352.385473 
L 444.728125 26.8575 
" clip-path="url(#p739c678715)" style="fill: none; stroke: #b0b0b0; stroke-opacity: 0.3; stroke-width: 0.8; stroke-linecap: square"/>
     </g>
     <g id="line2d_6">
      <g>
       <use xlink:href="#m4c84fa226c" x="444.728125" y="352.385473" style="stroke: #000000; stroke-width: 0.8"/>
      </g>
     </g>
     <g id="text_3">
      <!-- F值不可行 -->
      <g transform="translate(405.131982 388.888101) rotate(-30) scale(0.1 -0.1)">
       <defs>
        <path id="SimHei-46" d="M 2925 3925 
L 875 3925 
L 875 2525 
L 2425 2525 
L 2425 2050 
L 875 2050 
L 875 125 
L 300 125 
L 300 4400 
L 2925 4400 
L 2925 3925 
z
" transform="scale(0.015625)"/>
        <path id="SimHei-503c" d="M 3675 4450 
L 3675 5100 
Q 3975 5075 4350 5050 
Q 4225 4875 4200 4450 
L 5125 4450 
Q 5550 4450 5875 4475 
L 5875 4025 
Q 5525 4050 5125 4050 
L 4175 4050 
L 4125 3500 
L 5400 3500 
Q 5375 3200 5375 2700 
L 5375 150 
Q 5875 150 6100 175 
L 6100 -275 
Q 5775 -250 5200 -250 
L 2850 -250 
Q 2275 -250 1900 -275 
L 1900 175 
Q 2125 150 2600 150 
L 2600 2700 
Q 2600 3175 2575 3500 
L 3600 3500 
L 3650 4050 
L 3200 4050 
Q 2575 4050 2225 4025 
L 2225 4475 
Q 2550 4450 3200 4450 
L 3675 4450 
z
M 2225 4900 
Q 2025 4675 1650 3750 
L 1650 450 
Q 1650 -75 1675 -550 
L 1150 -550 
Q 1175 -125 1175 375 
L 1175 2950 
Q 875 2450 625 2150 
Q 425 2425 250 2575 
Q 500 2825 937 3537 
Q 1375 4250 1625 5150 
Q 1975 4975 2225 4900 
z
M 4925 2650 
L 4925 3150 
L 3075 3150 
L 3075 2650 
L 4925 2650 
z
M 4925 150 
L 4925 625 
L 3075 625 
L 3075 150 
L 4925 150 
z
M 4925 1000 
L 4925 1450 
L 3075 1450 
L 3075 1000 
L 4925 1000 
z
M 4925 1825 
L 4925 2275 
L 3075 2275 
L 3075 1825 
L 4925 1825 
z
" transform="scale(0.015625)"/>
        <path id="SimHei-4e0d" d="M 5975 4450 
Q 5525 4475 5200 4475 
L 3725 4475 
Q 3550 4125 3300 3700 
L 3300 575 
Q 3300 75 3325 -550 
L 2775 -550 
Q 2800 50 2800 575 
L 2800 3025 
Q 2025 1950 700 1050 
Q 500 1350 325 1475 
Q 825 1700 1650 2437 
Q 2475 3175 3175 4475 
L 1525 4475 
Q 1050 4475 525 4450 
L 525 4950 
Q 1275 4925 1675 4925 
L 5175 4925 
Q 5500 4925 5975 4950 
L 5975 4450 
z
M 5450 1125 
Q 4975 1725 3750 2975 
Q 3950 3150 4075 3325 
Q 4675 2775 5100 2362 
Q 5525 1950 5900 1550 
Q 5650 1350 5450 1125 
z
" transform="scale(0.015625)"/>
        <path id="SimHei-53ef" d="M 3600 3500 
Q 3575 3175 3575 2775 
L 3575 1550 
Q 3575 1125 3600 825 
L 3075 825 
L 3075 1275 
L 1650 1275 
L 1650 600 
L 1150 600 
Q 1175 775 1175 1175 
L 1175 2775 
Q 1175 3175 1150 3500 
L 3600 3500 
z
M 5200 4675 
Q 5600 4675 6050 4700 
L 6050 4225 
Q 5650 4250 5225 4250 
L 5075 4250 
L 5075 125 
Q 5075 -325 4812 -462 
Q 4550 -600 3750 -675 
Q 3700 -350 3550 -75 
Q 4075 -100 4300 -50 
Q 4525 0 4525 225 
L 4525 4250 
L 1525 4250 
Q 875 4250 350 4225 
L 350 4700 
Q 875 4675 1500 4675 
L 5200 4675 
z
M 3075 1700 
L 3075 3075 
L 1650 3075 
L 1650 1700 
L 3075 1700 
z
" transform="scale(0.015625)"/>
        <path id="SimHei-884c" d="M 5300 3100 
Q 5775 3100 6175 3125 
L 6175 2625 
Q 5775 2650 5325 2650 
L 4975 2650 
L 4975 -75 
Q 5000 -375 4787 -487 
Q 4575 -600 3950 -675 
Q 3900 -375 3675 -75 
Q 4100 -125 4275 -112 
Q 4450 -100 4475 150 
L 4475 2650 
L 3475 2650 
Q 3000 2650 2575 2625 
L 2575 3125 
Q 3025 3100 3475 3100 
L 5300 3100 
z
M 2300 3400 
Q 2075 3275 1962 3075 
Q 1850 2875 1650 2575 
L 1650 325 
Q 1650 0 1675 -675 
L 1150 -675 
Q 1175 75 1175 450 
L 1175 2050 
Q 950 1675 575 1300 
Q 400 1550 250 1725 
Q 825 2275 1150 2775 
Q 1475 3275 1725 3725 
Q 1975 3575 2300 3400 
z
M 4875 4800 
Q 5300 4800 5750 4825 
L 5750 4350 
Q 5300 4375 4825 4375 
L 3900 4375 
Q 3350 4375 2950 4350 
L 2950 4825 
Q 3350 4800 3900 4800 
L 4875 4800 
z
M 2075 4925 
Q 1875 4900 1550 4387 
Q 1225 3875 650 3250 
Q 500 3450 325 3625 
Q 725 4025 1050 4487 
Q 1375 4950 1525 5300 
Q 1775 5150 2075 4925 
z
" transform="scale(0.015625)"/>
       </defs>
       <use xlink:href="#SimHei-46"/>
       <use xlink:href="#SimHei-503c" x="50"/>
       <use xlink:href="#SimHei-4e0d" x="150"/>
       <use xlink:href="#SimHei-53ef" x="250"/>
       <use xlink:href="#SimHei-884c" x="350"/>
      </g>
     </g>
    </g>
    <g id="xtick_4">
     <g id="line2d_7">
      <path d="M 608.116875 352.385473 
L 608.116875 26.8575 
" clip-path="url(#p739c678715)" style="fill: none; stroke: #b0b0b0; stroke-opacity: 0.3; stroke-width: 0.8; stroke-linecap: square"/>
     </g>
     <g id="line2d_8">
      <g>
       <use xlink:href="#m4c84fa226c" x="608.116875" y="352.385473" style="stroke: #000000; stroke-width: 0.8"/>
      </g>
     </g>
     <g id="text_4">
      <!-- 市场高度分层 -->
      <g transform="translate(555.530351 396.388101) rotate(-30) scale(0.1 -0.1)">
       <defs>
        <path id="SimHei-5e02" d="M 4750 4200 
Q 5350 4200 6050 4225 
L 6050 3725 
Q 5350 3750 4750 3750 
L 3450 3750 
L 3450 2900 
L 5375 2900 
Q 5350 2450 5350 1975 
L 5350 750 
Q 5350 325 5062 175 
Q 4775 25 4250 -25 
Q 4200 275 4025 575 
Q 4550 575 4687 600 
Q 4825 625 4825 850 
L 4825 2450 
L 3450 2450 
L 3450 475 
Q 3450 -150 3475 -600 
L 2900 -600 
Q 2925 -150 2925 475 
L 2925 2450 
L 1525 2450 
L 1525 0 
L 975 0 
Q 1000 400 1000 950 
L 1000 1875 
Q 1000 2450 975 2900 
L 2925 2900 
L 2925 3750 
L 1625 3750 
Q 975 3750 325 3725 
L 325 4225 
Q 975 4200 1625 4200 
L 4750 4200 
z
M 2950 5275 
Q 3250 4975 3575 4475 
Q 3300 4350 3125 4225 
Q 2900 4625 2550 5000 
Q 2750 5150 2950 5275 
z
" transform="scale(0.015625)"/>
        <path id="SimHei-573a" d="M 5625 5000 
L 5625 4600 
Q 5275 4525 4862 4150 
Q 4450 3775 3750 3100 
L 6000 3100 
Q 5975 2925 5950 2300 
L 5850 425 
Q 5825 -200 5587 -350 
Q 5350 -500 4750 -550 
Q 4700 -250 4525 50 
Q 5050 0 5200 75 
Q 5350 150 5375 400 
L 5475 2675 
L 5000 2675 
Q 4875 1925 4700 1425 
Q 4525 925 4287 562 
Q 4050 200 3750 -62 
Q 3450 -325 3000 -600 
Q 2875 -350 2650 -175 
Q 3075 50 3425 350 
Q 3775 650 4000 1050 
Q 4225 1450 4337 1900 
Q 4450 2350 4500 2675 
L 4000 2675 
Q 3950 2300 3787 1912 
Q 3625 1525 3325 1150 
Q 3025 775 2550 425 
Q 2450 600 2175 800 
Q 2775 1125 3112 1675 
Q 3450 2225 3500 2675 
Q 3225 2650 3125 2625 
Q 3025 2600 2800 2525 
Q 2725 2825 2650 3025 
Q 3075 3075 3637 3587 
Q 4200 4100 4650 4575 
L 3700 4575 
Q 3150 4575 2675 4550 
L 2675 5025 
Q 3125 5000 3675 5000 
L 5625 5000 
z
M 1200 4375 
Q 1200 4650 1175 5075 
L 1700 5075 
Q 1675 4625 1675 4375 
L 1675 3450 
Q 2050 3450 2450 3475 
L 2450 3025 
Q 2000 3050 1675 3050 
L 1675 1225 
Q 1950 1325 2500 1575 
Q 2500 1350 2525 1125 
Q 2100 925 1500 687 
Q 900 450 500 225 
Q 400 450 200 725 
Q 650 850 1200 1050 
L 1200 3050 
Q 650 3050 325 3025 
L 325 3475 
Q 750 3450 1200 3450 
L 1200 4375 
z
" transform="scale(0.015625)"/>
        <path id="SimHei-9ad8" d="M 5825 -25 
Q 5850 -400 5550 -500 
Q 5250 -600 4975 -625 
Q 4875 -325 4725 -100 
Q 4975 -100 5175 -87 
Q 5375 -75 5350 250 
L 5350 1825 
L 1100 1825 
L 1100 -575 
L 600 -575 
Q 625 -225 625 850 
Q 625 1950 600 2200 
L 5850 2200 
Q 5825 1850 5825 1425 
L 5825 -25 
z
M 4925 3800 
Q 4900 3475 4900 3175 
Q 4900 2900 4925 2600 
L 1400 2600 
Q 1425 2825 1425 3175 
Q 1425 3525 1400 3800 
L 4925 3800 
z
M 4500 1400 
Q 4475 1125 4475 800 
Q 4475 500 4500 200 
L 1950 200 
Q 2000 500 2000 800 
Q 2000 1125 1950 1400 
L 4500 1400 
z
M 425 4600 
Q 750 4575 1125 4575 
L 2925 4575 
Q 2850 4875 2750 5100 
Q 3050 5125 3350 5200 
Q 3400 4950 3525 4575 
L 5250 4575 
Q 5600 4575 5975 4600 
L 5975 4150 
Q 5600 4175 5050 4175 
L 1150 4175 
Q 750 4175 425 4150 
L 425 4600 
z
M 4450 2975 
L 4450 3425 
L 1900 3425 
L 1900 2975 
L 4450 2975 
z
M 4025 550 
L 4025 1050 
L 2400 1050 
L 2400 550 
L 4025 550 
z
" transform="scale(0.015625)"/>
        <path id="SimHei-5c42" d="M 5425 5025 
Q 5400 4500 5400 4175 
Q 5400 3875 5425 3425 
L 1475 3425 
Q 1475 2325 1375 1400 
Q 1275 475 725 -650 
Q 525 -500 275 -375 
Q 575 50 725 587 
Q 875 1125 950 1850 
Q 1025 2575 1025 3400 
Q 1025 4250 1000 5025 
L 5425 5025 
z
M 5075 1575 
Q 5450 1575 5900 1600 
L 5900 1125 
Q 5450 1150 5075 1150 
L 3525 1150 
Q 3100 425 2625 -25 
Q 3475 0 4825 50 
Q 4600 300 4300 600 
Q 4500 775 4675 925 
Q 5325 300 5900 -350 
Q 5725 -500 5475 -700 
Q 5325 -525 5150 -325 
Q 4325 -350 3412 -425 
Q 2500 -500 2150 -600 
Q 2050 -300 1925 -50 
Q 2175 25 2475 375 
Q 2775 725 2950 1150 
L 2425 1150 
Q 2125 1150 1600 1125 
L 1600 1600 
Q 2125 1575 2500 1575 
L 5075 1575 
z
M 4975 3850 
L 4975 4600 
L 1475 4600 
L 1475 3850 
L 4975 3850 
z
M 4475 2750 
Q 4975 2750 5400 2775 
L 5400 2300 
Q 5075 2325 4525 2325 
L 2925 2325 
Q 2525 2325 2075 2300 
L 2075 2775 
Q 2525 2750 2925 2750 
L 4475 2750 
z
" transform="scale(0.015625)"/>
       </defs>
       <use xlink:href="#SimHei-5e02"/>
       <use xlink:href="#SimHei-573a" x="100"/>
       <use xlink:href="#SimHei-9ad8" x="200"/>
       <use xlink:href="#SimHei-5ea6" x="300"/>
       <use xlink:href="#SimHei-5206" x="400"/>
       <use xlink:href="#SimHei-5c42" x="500"/>
      </g>
     </g>
    </g>
    <g id="xtick_5">
     <g id="line2d_9">
      <path d="M 771.505625 352.385473 
L 771.505625 26.8575 
" clip-path="url(#p739c678715)" style="fill: none; stroke: #b0b0b0; stroke-opacity: 0.3; stroke-width: 0.8; stroke-linecap: square"/>
     </g>
     <g id="line2d_10">
      <g>
       <use xlink:href="#m4c84fa226c" x="771.505625" y="352.385473" style="stroke: #000000; stroke-width: 0.8"/>
      </g>
     </g>
     <g id="text_5">
      <!-- 固定成本占比过高 -->
      <g transform="translate(701.598593 406.354272) rotate(-30) scale(0.1 -0.1)">
       <defs>
        <path id="SimHei-56fa" d="M 5800 5025 
Q 5775 4350 5775 3600 
L 5775 925 
Q 5775 150 5800 -575 
L 5300 -575 
L 5300 -250 
L 1075 -250 
L 1075 -625 
L 575 -625 
Q 600 150 600 950 
L 600 3600 
Q 600 4325 575 5025 
L 5800 5025 
z
M 5300 200 
L 5300 4575 
L 1075 4575 
L 1075 200 
L 5300 200 
z
M 4875 3025 
Q 4650 3050 4050 3050 
L 3475 3050 
L 3475 2325 
L 4575 2325 
Q 4550 1900 4550 1475 
Q 4550 1075 4575 650 
L 1900 650 
Q 1925 1050 1925 1450 
Q 1925 1875 1900 2325 
L 3000 2325 
L 3000 3050 
L 2350 3050 
Q 2125 3050 1550 3025 
L 1550 3500 
Q 2125 3475 2350 3475 
L 3000 3475 
Q 3000 3850 2975 4225 
L 3500 4225 
Q 3475 3800 3475 3475 
L 4025 3475 
Q 4525 3475 4875 3500 
L 4875 3025 
z
M 4075 1075 
L 4075 1900 
L 2375 1900 
L 2375 1075 
L 4075 1075 
z
" transform="scale(0.015625)"/>
        <path id="SimHei-5b9a" d="M 4200 3125 
Q 4675 3125 5175 3150 
L 5175 2675 
Q 4725 2700 4100 2700 
L 3550 2700 
L 3550 1700 
L 4600 1700 
Q 4875 1700 5375 1725 
L 5375 1250 
Q 4875 1275 4575 1275 
L 3550 1275 
L 3550 100 
Q 4600 -25 6050 125 
Q 5850 -200 5800 -475 
Q 4800 -475 4150 -450 
Q 3500 -425 3050 -300 
Q 2600 -175 2250 75 
Q 1900 325 1600 675 
Q 1200 -50 675 -575 
Q 450 -350 175 -250 
Q 875 300 1200 1050 
Q 1525 1800 1550 2200 
Q 1800 2050 2150 1975 
Q 2075 1875 1987 1662 
Q 1900 1450 1775 1125 
Q 1950 900 2300 612 
Q 2650 325 3050 200 
L 3050 2700 
L 2250 2700 
Q 1825 2700 1400 2675 
L 1400 3150 
Q 1825 3125 2400 3125 
L 4200 3125 
z
M 5750 4275 
Q 5725 3925 5725 3750 
Q 5725 3575 5750 3275 
L 5225 3275 
L 5225 3875 
L 1225 3875 
L 1225 3275 
L 700 3275 
Q 725 3475 725 3725 
Q 725 3975 700 4275 
L 5750 4275 
z
M 2650 5050 
Q 2875 5125 3100 5300 
Q 3375 4975 3600 4550 
Q 3250 4400 3100 4300 
Q 3050 4525 2650 5050 
z
" transform="scale(0.015625)"/>
        <path id="SimHei-6210" d="M 3500 4000 
Q 3475 4725 3450 5225 
Q 3750 5200 4025 5175 
Q 3975 4850 4000 4000 
L 4725 4000 
Q 5250 4000 5875 4025 
L 5875 3550 
Q 5225 3575 4725 3575 
L 4025 3575 
Q 4050 2625 4350 1500 
Q 4825 2225 5100 3175 
Q 5350 2975 5675 2825 
Q 5475 2600 5225 2075 
Q 4975 1550 4575 975 
Q 4800 525 5062 262 
Q 5325 0 5425 37 
Q 5525 75 5625 900 
Q 5875 700 6150 600 
Q 5975 -425 5762 -537 
Q 5550 -650 5250 -537 
Q 4950 -425 4687 -112 
Q 4425 200 4250 575 
Q 3650 -75 2725 -650 
Q 2600 -425 2350 -250 
Q 2850 -25 3312 350 
Q 3775 725 4000 1050 
Q 3825 1525 3700 2212 
Q 3575 2900 3550 3575 
L 1400 3575 
L 1400 2700 
L 3025 2700 
Q 2975 2250 2950 1775 
L 2875 775 
Q 2850 300 2612 200 
Q 2375 100 1800 50 
Q 1775 275 1600 600 
Q 2225 575 2325 675 
Q 2425 775 2450 1250 
L 2500 2250 
L 1400 2250 
Q 1400 1275 1250 625 
Q 1100 -25 700 -575 
Q 425 -375 200 -300 
Q 525 100 650 462 
Q 775 825 837 1250 
Q 900 1675 912 2450 
Q 925 3225 900 4000 
L 3500 4000 
z
M 4750 5225 
Q 5250 4825 5625 4425 
Q 5400 4250 5225 4075 
Q 4925 4475 4425 4900 
Q 4600 5050 4750 5225 
z
" transform="scale(0.015625)"/>
        <path id="SimHei-672c" d="M 2950 3925 
L 2950 4425 
Q 2950 4825 2925 5175 
L 3475 5175 
Q 3450 4900 3450 4450 
L 3450 3925 
L 4850 3925 
Q 5275 3925 5850 3950 
L 5850 3475 
Q 5300 3500 4875 3500 
L 3850 3500 
Q 4200 2350 4862 1687 
Q 5525 1025 6075 800 
Q 5850 625 5650 325 
Q 4800 900 4262 1637 
Q 3725 2375 3450 3350 
L 3450 1000 
L 3775 1000 
Q 4175 1000 4600 1025 
L 4600 550 
Q 4175 575 3750 575 
L 3450 575 
Q 3450 0 3475 -600 
L 2925 -600 
Q 2950 0 2950 575 
L 2625 575 
Q 2225 575 1825 550 
L 1825 1025 
Q 2225 1000 2625 1000 
L 2950 1000 
L 2950 3300 
Q 2550 2275 2062 1575 
Q 1575 875 750 175 
Q 550 450 275 575 
Q 1100 1075 1650 1825 
Q 2200 2575 2525 3500 
L 1425 3500 
Q 1025 3500 575 3475 
L 575 3950 
Q 1025 3925 1400 3925 
L 2950 3925 
z
" transform="scale(0.015625)"/>
        <path id="SimHei-5360" d="M 2725 4400 
Q 2725 4800 2700 5075 
L 3375 5075 
Q 3350 4775 3350 4400 
L 3350 4000 
L 5250 4000 
Q 5900 4000 6150 4025 
L 6150 3525 
Q 5900 3550 5300 3550 
L 3350 3550 
L 3350 2325 
L 5450 2325 
Q 5400 2000 5400 1525 
L 5400 325 
Q 5400 -250 5450 -550 
L 4850 -550 
L 4850 -25 
L 1475 -25 
L 1475 -550 
L 875 -550 
Q 900 -150 900 175 
L 900 1550 
Q 900 2000 875 2325 
L 2725 2325 
L 2725 4400 
z
M 4850 425 
L 4850 1875 
L 1475 1875 
L 1475 425 
L 4850 425 
z
" transform="scale(0.015625)"/>
        <path id="SimHei-6bd4" d="M 3775 5100 
Q 3750 4575 3750 4100 
L 3750 3050 
Q 4925 3600 5475 4175 
Q 5675 3900 5900 3675 
Q 5600 3500 5037 3187 
Q 4475 2875 3750 2550 
L 3750 450 
Q 3750 100 4050 100 
L 5000 100 
Q 5175 100 5262 250 
Q 5350 400 5450 900 
Q 5650 775 6025 675 
Q 5850 0 5650 -175 
Q 5450 -350 5225 -350 
L 3900 -350 
Q 3250 -350 3250 275 
L 3250 4000 
Q 3250 4550 3225 5100 
L 3775 5100 
z
M 1275 4975 
Q 1250 4575 1250 4000 
L 1250 3150 
L 1850 3150 
Q 2325 3150 2875 3175 
L 2875 2650 
Q 2325 2675 1850 2675 
L 1250 2675 
L 1250 475 
Q 1650 650 1962 812 
Q 2275 975 2850 1275 
Q 2900 950 2950 750 
Q 2375 475 1762 175 
Q 1150 -125 925 -325 
Q 750 -100 575 200 
Q 700 300 750 600 
L 750 3950 
Q 750 4550 725 4975 
L 1275 4975 
z
" transform="scale(0.015625)"/>
       </defs>
       <use xlink:href="#SimHei-56fa"/>
       <use xlink:href="#SimHei-5b9a" x="100"/>
       <use xlink:href="#SimHei-6210" x="200"/>
       <use xlink:href="#SimHei-672c" x="300"/>
       <use xlink:href="#SimHei-5360" x="400"/>
       <use xlink:href="#SimHei-6bd4" x="500"/>
       <use xlink:href="#SimHei-8fc7" x="600"/>
       <use xlink:href="#SimHei-9ad8" x="700"/>
      </g>
     </g>
    </g>
    <g id="text_6">
     <!-- 应用限制条件 -->
     <g transform="translate(414.728125 419.444616) scale(0.1 -0.1)">
      <defs>
       <path id="SimHei-5e94" d="M 3525 5275 
Q 3700 4825 3850 4400 
L 4750 4400 
Q 5275 4400 5850 4425 
L 5850 3975 
Q 5275 4000 4750 4000 
L 1475 4000 
Q 1475 2525 1425 1900 
Q 1375 1275 1237 625 
Q 1100 -25 750 -625 
Q 575 -400 300 -250 
Q 625 175 800 937 
Q 975 1700 1000 2575 
Q 1025 3450 1000 4400 
L 3250 4400 
Q 3175 4750 3000 5100 
Q 3250 5150 3525 5275 
z
M 5625 3125 
Q 5375 2575 5187 2050 
Q 5000 1525 4450 225 
L 5150 225 
Q 5500 225 5925 250 
L 5925 -275 
Q 5500 -250 5150 -250 
L 2475 -250 
Q 2050 -250 1450 -275 
L 1450 250 
Q 2025 225 2475 225 
L 3950 225 
Q 4325 1000 4612 1850 
Q 4900 2700 5025 3350 
Q 5350 3175 5625 3125 
z
M 2100 2850 
Q 2750 1825 3075 1050 
Q 2900 950 2650 800 
Q 2150 1925 1700 2575 
Q 1925 2750 2100 2850 
z
M 3300 3425 
Q 3800 2550 4175 1700 
Q 3950 1575 3700 1450 
Q 3400 2300 2900 3200 
Q 3100 3275 3300 3425 
z
" transform="scale(0.015625)"/>
       <path id="SimHei-7528" d="M 350 -300 
Q 650 125 812 600 
Q 975 1075 1012 1550 
Q 1050 2025 1050 3150 
Q 1050 4275 1025 4950 
L 5500 4950 
Q 5475 4225 5475 3650 
L 5475 375 
Q 5475 -150 5175 -275 
Q 4875 -400 4475 -450 
Q 4425 -75 4300 125 
Q 4800 100 4887 162 
Q 4975 225 4975 400 
L 4975 1650 
L 3450 1650 
L 3450 675 
Q 3450 125 3475 -325 
L 2925 -325 
Q 2950 100 2950 650 
L 2950 1650 
L 1525 1650 
Q 1425 575 850 -525 
Q 575 -350 350 -300 
z
M 4975 3475 
L 4975 4550 
L 3450 4550 
L 3450 3475 
L 4975 3475 
z
M 4975 2050 
L 4975 3100 
L 3450 3100 
L 3450 2050 
L 4975 2050 
z
M 2950 3475 
L 2950 4550 
L 1525 4550 
L 1525 3475 
L 2950 3475 
z
M 2950 2050 
L 2950 3100 
L 1525 3100 
L 1525 2050 
L 2950 2050 
z
" transform="scale(0.015625)"/>
       <path id="SimHei-9650" d="M 5550 4950 
Q 5525 4500 5525 3700 
Q 5525 2925 5550 2475 
L 4375 2475 
Q 4375 2000 4625 1475 
Q 5275 1900 5475 2250 
Q 5675 1950 5850 1800 
Q 5400 1575 4750 1150 
Q 5025 775 5325 500 
Q 5625 225 6200 25 
Q 5900 -125 5750 -450 
Q 5150 -75 4812 312 
Q 4475 700 4262 1212 
Q 4050 1725 3975 2475 
L 3400 2475 
L 3400 200 
Q 3800 400 4125 675 
Q 4150 450 4225 150 
Q 4000 25 3637 -175 
Q 3275 -375 3025 -575 
Q 2925 -375 2750 -125 
Q 2900 25 2950 325 
L 2950 3850 
Q 2950 4350 2925 4950 
L 5550 4950 
z
M 2500 4950 
Q 2050 3475 1875 2950 
Q 2375 2350 2450 1850 
Q 2525 1350 2237 1025 
Q 1950 700 1525 575 
Q 1500 900 1300 1150 
Q 1750 1150 1875 1325 
Q 2000 1500 1975 1887 
Q 1950 2275 1375 2925 
Q 1775 4050 1875 4550 
L 1125 4550 
L 1125 -500 
L 650 -500 
Q 675 200 675 875 
L 675 3800 
Q 675 4250 650 4950 
L 2500 4950 
z
M 5075 2875 
L 5075 3550 
L 3400 3550 
L 3400 2875 
L 5075 2875 
z
M 5075 3925 
L 5075 4550 
L 3400 4550 
L 3400 3925 
L 5075 3925 
z
" transform="scale(0.015625)"/>
       <path id="SimHei-5236" d="M 1325 4625 
Q 1175 4375 1075 4150 
L 1800 4150 
Q 1800 4775 1775 5125 
L 2350 5125 
Q 2325 4800 2325 4150 
L 2700 4150 
Q 3200 4150 3600 4175 
L 3600 3725 
Q 3250 3750 2725 3750 
L 2325 3750 
L 2325 3025 
L 2950 3025 
Q 3325 3025 3750 3050 
L 3750 2625 
L 2325 2625 
L 2325 1950 
L 3675 1950 
Q 3650 1650 3637 1125 
Q 3625 600 3612 412 
Q 3600 225 3400 137 
Q 3200 50 2825 -25 
Q 2775 250 2650 550 
Q 2975 550 3050 587 
Q 3125 625 3125 975 
L 3125 1550 
L 2325 1550 
L 2325 175 
Q 2325 -250 2350 -550 
L 1775 -550 
Q 1800 -75 1800 175 
L 1800 1550 
L 1025 1550 
L 1025 -25 
L 500 -25 
Q 525 300 525 650 
L 525 1200 
Q 525 1675 500 1950 
L 1800 1950 
L 1800 2625 
L 1000 2625 
Q 550 2625 225 2600 
L 225 3050 
Q 550 3025 1000 3025 
L 1800 3025 
L 1800 3750 
L 925 3750 
Q 800 3450 675 3250 
Q 450 3400 225 3500 
Q 400 3750 525 4075 
Q 650 4400 750 4800 
Q 1000 4700 1325 4625 
z
M 5875 5075 
Q 5850 4825 5850 4350 
L 5850 25 
Q 5850 -325 5587 -412 
Q 5325 -500 4825 -575 
Q 4750 -250 4625 0 
Q 5050 0 5200 25 
Q 5350 50 5350 350 
L 5350 4350 
Q 5350 4775 5325 5075 
L 5875 5075 
z
M 4675 4325 
Q 4650 3975 4650 3700 
L 4650 1625 
Q 4650 1275 4675 775 
L 4125 775 
Q 4175 1200 4175 1625 
L 4175 3700 
Q 4175 3950 4125 4325 
L 4675 4325 
z
" transform="scale(0.015625)"/>
       <path id="SimHei-6761" d="M 2700 5075 
Q 2600 5000 2400 4700 
L 5225 4700 
Q 4975 4300 4625 3875 
Q 4275 3450 3750 3050 
Q 4100 2850 4750 2687 
Q 5400 2525 6200 2525 
Q 5950 2275 5925 2000 
Q 5000 2100 4387 2300 
Q 3775 2500 3275 2825 
Q 2500 2375 1837 2175 
Q 1175 1975 575 1850 
Q 500 2125 275 2300 
Q 1250 2400 1912 2625 
Q 2575 2850 2825 3075 
Q 2400 3425 1925 3975 
Q 1600 3550 1150 3075 
Q 925 3300 725 3350 
Q 1225 3775 1625 4350 
Q 2025 4925 2125 5300 
Q 2525 5125 2700 5075 
z
M 2950 1775 
Q 2950 2000 2925 2400 
L 3475 2400 
Q 3450 1975 3450 1775 
L 4500 1775 
Q 5025 1775 5550 1800 
L 5550 1325 
Q 5025 1350 4525 1350 
L 3450 1350 
L 3450 -50 
Q 3475 -575 2450 -625 
Q 2375 -375 2225 -75 
Q 2975 -150 2950 200 
L 2950 1350 
L 1850 1350 
Q 1350 1350 825 1325 
L 825 1800 
Q 1350 1775 1850 1775 
L 2950 1775 
z
M 3300 3300 
Q 4025 3775 4325 4275 
L 2250 4275 
Q 2700 3675 3300 3300 
z
M 4200 1000 
Q 4950 575 5800 0 
Q 5650 -175 5500 -400 
Q 5150 -150 4787 100 
Q 4425 350 3925 600 
Q 4075 775 4200 1000 
z
M 2375 700 
Q 2275 600 1800 250 
Q 1325 -100 850 -400 
Q 700 -200 500 -50 
Q 825 100 1287 437 
Q 1750 775 1950 1050 
L 2375 700 
z
" transform="scale(0.015625)"/>
       <path id="SimHei-4ef6" d="M 3275 4475 
Q 3150 4375 2925 3775 
L 3900 3775 
L 3900 4275 
Q 3900 4900 3875 5125 
L 4400 5125 
Q 4375 4925 4375 4300 
L 4375 3775 
L 5125 3775 
Q 5450 3775 5725 3800 
L 5725 3325 
Q 5450 3350 5125 3350 
L 4375 3350 
L 4375 2000 
L 5200 2000 
Q 5575 2000 6100 2025 
L 6100 1550 
Q 5675 1575 5175 1575 
L 4375 1575 
L 4375 275 
Q 4375 -100 4400 -550 
L 3875 -550 
Q 3900 -100 3900 275 
L 3900 1575 
L 2925 1575 
Q 2500 1575 1925 1550 
L 1925 2025 
Q 2475 2000 2825 2000 
L 3900 2000 
L 3900 3350 
L 2775 3350 
Q 2700 3150 2350 2425 
Q 2275 2500 1900 2650 
Q 2150 3025 2350 3500 
Q 2550 3975 2700 4700 
Q 2900 4575 3275 4475 
z
M 1150 3200 
Q 900 2825 550 2375 
Q 425 2625 200 2750 
Q 650 3200 1025 3850 
Q 1400 4500 1650 5250 
Q 1950 5050 2175 4975 
Q 2000 4825 1625 4025 
L 1625 625 
Q 1625 -175 1650 -575 
L 1125 -575 
Q 1150 -225 1150 600 
L 1150 3200 
z
" transform="scale(0.015625)"/>
      </defs>
      <use xlink:href="#SimHei-5e94"/>
      <use xlink:href="#SimHei-7528" x="100"/>
      <use xlink:href="#SimHei-9650" x="200"/>
      <use xlink:href="#SimHei-5236" x="300"/>
      <use xlink:href="#SimHei-6761" x="400"/>
      <use xlink:href="#SimHei-4ef6" x="500"/>
     </g>
    </g>
   </g>
   <g id="matplotlib.axis_2">
    <g id="ytick_1">
     <g id="line2d_11">
      <path d="M 36.25625 352.385473 
L 853.2 352.385473 
" clip-path="url(#p739c678715)" style="fill: none; stroke: #b0b0b0; stroke-opacity: 0.3; stroke-width: 0.8; stroke-linecap: square"/>
     </g>
     <g id="line2d_12">
      <defs>
       <path id="m8e48e0d18e" d="M 0 0 
L -3.5 0 
" style="stroke: #000000; stroke-width: 0.8"/>
      </defs>
      <g>
       <use xlink:href="#m8e48e0d18e" x="36.25625" y="352.385473" style="stroke: #000000; stroke-width: 0.8"/>
      </g>
     </g>
     <g id="text_7">
      <!-- 0 -->
      <g transform="translate(24.25625 355.822973) scale(0.1 -0.1)">
       <defs>
        <path id="SimHei-30" d="M 225 2537 
Q 250 3200 412 3587 
Q 575 3975 875 4225 
Q 1175 4475 1612 4475 
Q 2050 4475 2375 4112 
Q 2700 3750 2800 3200 
Q 2900 2650 2862 1937 
Q 2825 1225 2612 775 
Q 2400 325 1975 150 
Q 1550 -25 1125 187 
Q 700 400 525 750 
Q 350 1100 275 1487 
Q 200 1875 225 2537 
z
M 750 2687 
Q 675 2000 800 1462 
Q 925 925 1212 700 
Q 1500 475 1800 612 
Q 2100 750 2237 1162 
Q 2375 1575 2375 2062 
Q 2375 2550 2337 2950 
Q 2300 3350 2112 3675 
Q 1925 4000 1612 4012 
Q 1300 4025 1062 3700 
Q 825 3375 750 2687 
z
" transform="scale(0.015625)"/>
       </defs>
       <use xlink:href="#SimHei-30"/>
      </g>
     </g>
    </g>
    <g id="ytick_2">
     <g id="line2d_13">
      <path d="M 36.25625 313.632143 
L 853.2 313.632143 
" clip-path="url(#p739c678715)" style="fill: none; stroke: #b0b0b0; stroke-opacity: 0.3; stroke-width: 0.8; stroke-linecap: square"/>
     </g>
     <g id="line2d_14">
      <g>
       <use xlink:href="#m8e48e0d18e" x="36.25625" y="313.632143" style="stroke: #000000; stroke-width: 0.8"/>
      </g>
     </g>
     <g id="text_8">
      <!-- 1 -->
      <g transform="translate(24.25625 317.069643) scale(0.1 -0.1)">
       <defs>
        <path id="SimHei-31" d="M 1400 3600 
Q 1075 3275 575 2975 
L 575 3450 
Q 1200 3875 1600 4450 
L 1900 4450 
L 1900 150 
L 1400 150 
L 1400 3600 
z
" transform="scale(0.015625)"/>
       </defs>
       <use xlink:href="#SimHei-31"/>
      </g>
     </g>
    </g>
    <g id="ytick_3">
     <g id="line2d_15">
      <path d="M 36.25625 274.878813 
L 853.2 274.878813 
" clip-path="url(#p739c678715)" style="fill: none; stroke: #b0b0b0; stroke-opacity: 0.3; stroke-width: 0.8; stroke-linecap: square"/>
     </g>
     <g id="line2d_16">
      <g>
       <use xlink:href="#m8e48e0d18e" x="36.25625" y="274.878813" style="stroke: #000000; stroke-width: 0.8"/>
      </g>
     </g>
     <g id="text_9">
      <!-- 2 -->
      <g transform="translate(24.25625 278.316313) scale(0.1 -0.1)">
       <defs>
        <path id="SimHei-32" d="M 300 250 
Q 325 625 650 925 
Q 975 1225 1475 1862 
Q 1975 2500 2125 2850 
Q 2275 3200 2237 3450 
Q 2200 3700 2000 3862 
Q 1800 4025 1537 4000 
Q 1275 3975 1037 3800 
Q 800 3625 675 3275 
L 200 3350 
Q 400 3925 712 4187 
Q 1025 4450 1450 4475 
Q 1700 4500 1900 4462 
Q 2100 4425 2312 4287 
Q 2525 4150 2662 3875 
Q 2800 3600 2762 3212 
Q 2725 2825 2375 2287 
Q 2025 1750 1025 600 
L 2825 600 
L 2825 150 
L 300 150 
L 300 250 
z
" transform="scale(0.015625)"/>
       </defs>
       <use xlink:href="#SimHei-32"/>
      </g>
     </g>
    </g>
    <g id="ytick_4">
     <g id="line2d_17">
      <path d="M 36.25625 236.125483 
L 853.2 236.125483 
" clip-path="url(#p739c678715)" style="fill: none; stroke: #b0b0b0; stroke-opacity: 0.3; stroke-width: 0.8; stroke-linecap: square"/>
     </g>
     <g id="line2d_18">
      <g>
       <use xlink:href="#m8e48e0d18e" x="36.25625" y="236.125483" style="stroke: #000000; stroke-width: 0.8"/>
      </g>
     </g>
     <g id="text_10">
      <!-- 3 -->
      <g transform="translate(24.25625 239.562983) scale(0.1 -0.1)">
       <defs>
        <path id="SimHei-33" d="M 250 1225 
L 700 1300 
Q 800 975 1025 762 
Q 1250 550 1587 562 
Q 1925 575 2125 837 
Q 2325 1100 2300 1437 
Q 2275 1775 2037 1962 
Q 1800 2150 1275 2225 
L 1275 2550 
Q 1800 2600 2037 2825 
Q 2275 3050 2250 3412 
Q 2225 3775 1925 3937 
Q 1625 4100 1287 3975 
Q 950 3850 750 3275 
L 300 3350 
Q 450 3800 712 4100 
Q 975 4400 1425 4450 
Q 1875 4500 2212 4337 
Q 2550 4175 2687 3837 
Q 2825 3500 2725 3100 
Q 2625 2700 2150 2400 
Q 2500 2250 2687 1950 
Q 2875 1650 2812 1162 
Q 2750 675 2375 375 
Q 2000 75 1525 87 
Q 1050 100 700 387 
Q 350 675 250 1225 
z
" transform="scale(0.015625)"/>
       </defs>
       <use xlink:href="#SimHei-33"/>
      </g>
     </g>
    </g>
    <g id="ytick_5">
     <g id="line2d_19">
      <path d="M 36.25625 197.372153 
L 853.2 197.372153 
" clip-path="url(#p739c678715)" style="fill: none; stroke: #b0b0b0; stroke-opacity: 0.3; stroke-width: 0.8; stroke-linecap: square"/>
     </g>
     <g id="line2d_20">
      <g>
       <use xlink:href="#m8e48e0d18e" x="36.25625" y="197.372153" style="stroke: #000000; stroke-width: 0.8"/>
      </g>
     </g>
     <g id="text_11">
      <!-- 4 -->
      <g transform="translate(24.25625 200.809653) scale(0.1 -0.1)">
       <defs>
        <path id="SimHei-34" d="M 2000 1100 
L 75 1100 
L 75 1525 
L 2100 4450 
L 2475 4450 
L 2475 1525 
L 3075 1525 
L 3075 1100 
L 2475 1100 
L 2475 150 
L 2000 150 
L 2000 1100 
z
M 2000 1525 
L 2000 3500 
L 600 1525 
L 2000 1525 
z
" transform="scale(0.015625)"/>
       </defs>
       <use xlink:href="#SimHei-34"/>
      </g>
     </g>
    </g>
    <g id="ytick_6">
     <g id="line2d_21">
      <path d="M 36.25625 158.618823 
L 853.2 158.618823 
" clip-path="url(#p739c678715)" style="fill: none; stroke: #b0b0b0; stroke-opacity: 0.3; stroke-width: 0.8; stroke-linecap: square"/>
     </g>
     <g id="line2d_22">
      <g>
       <use xlink:href="#m8e48e0d18e" x="36.25625" y="158.618823" style="stroke: #000000; stroke-width: 0.8"/>
      </g>
     </g>
     <g id="text_12">
      <!-- 5 -->
      <g transform="translate(24.25625 162.056323) scale(0.1 -0.1)">
       <defs>
        <path id="SimHei-35" d="M 550 1325 
Q 725 650 1150 575 
Q 1575 500 1837 662 
Q 2100 825 2212 1087 
Q 2325 1350 2312 1675 
Q 2300 2000 2137 2225 
Q 1975 2450 1725 2525 
Q 1475 2600 1162 2525 
Q 850 2450 650 2175 
L 225 2225 
Q 275 2375 700 4375 
L 2675 4375 
L 2675 3925 
L 1075 3925 
Q 950 3250 825 2850 
Q 1200 3025 1525 3012 
Q 1850 3000 2150 2862 
Q 2450 2725 2587 2487 
Q 2725 2250 2787 2012 
Q 2850 1775 2837 1500 
Q 2825 1225 2725 937 
Q 2625 650 2425 462 
Q 2225 275 1937 162 
Q 1650 50 1275 75 
Q 900 100 562 350 
Q 225 600 100 1200 
L 550 1325 
z
" transform="scale(0.015625)"/>
       </defs>
       <use xlink:href="#SimHei-35"/>
      </g>
     </g>
    </g>
    <g id="ytick_7">
     <g id="line2d_23">
      <path d="M 36.25625 119.865492 
L 853.2 119.865492 
" clip-path="url(#p739c678715)" style="fill: none; stroke: #b0b0b0; stroke-opacity: 0.3; stroke-width: 0.8; stroke-linecap: square"/>
     </g>
     <g id="line2d_24">
      <g>
       <use xlink:href="#m8e48e0d18e" x="36.25625" y="119.865492" style="stroke: #000000; stroke-width: 0.8"/>
      </g>
     </g>
     <g id="text_13">
      <!-- 6 -->
      <g transform="translate(24.25625 123.302992) scale(0.1 -0.1)">
       <defs>
        <path id="SimHei-36" d="M 250 1612 
Q 275 1975 387 2225 
Q 500 2475 725 2850 
L 1750 4450 
L 2325 4450 
L 1275 2800 
Q 1950 2975 2350 2750 
Q 2750 2525 2887 2237 
Q 3025 1950 3037 1612 
Q 3050 1275 2937 950 
Q 2825 625 2537 362 
Q 2250 100 1737 75 
Q 1225 50 862 262 
Q 500 475 362 862 
Q 225 1250 250 1612 
z
M 1025 787 
Q 1250 550 1625 525 
Q 2000 500 2250 775 
Q 2500 1050 2500 1575 
Q 2500 2100 2187 2300 
Q 1875 2500 1487 2450 
Q 1100 2400 925 2075 
Q 750 1750 775 1387 
Q 800 1025 1025 787 
z
" transform="scale(0.015625)"/>
       </defs>
       <use xlink:href="#SimHei-36"/>
      </g>
     </g>
    </g>
    <g id="ytick_8">
     <g id="line2d_25">
      <path d="M 36.25625 81.112162 
L 853.2 81.112162 
" clip-path="url(#p739c678715)" style="fill: none; stroke: #b0b0b0; stroke-opacity: 0.3; stroke-width: 0.8; stroke-linecap: square"/>
     </g>
     <g id="line2d_26">
      <g>
       <use xlink:href="#m8e48e0d18e" x="36.25625" y="81.112162" style="stroke: #000000; stroke-width: 0.8"/>
      </g>
     </g>
     <g id="text_14">
      <!-- 7 -->
      <g transform="translate(24.25625 84.549662) scale(0.1 -0.1)">
       <defs>
        <path id="SimHei-37" d="M 850 150 
Q 1300 2050 2425 3925 
L 275 3925 
L 275 4375 
L 2950 4375 
L 2950 3950 
Q 1775 2050 1400 150 
L 850 150 
z
" transform="scale(0.015625)"/>
       </defs>
       <use xlink:href="#SimHei-37"/>
      </g>
     </g>
    </g>
    <g id="ytick_9">
     <g id="line2d_27">
      <path d="M 36.25625 42.358832 
L 853.2 42.358832 
" clip-path="url(#p739c678715)" style="fill: none; stroke: #b0b0b0; stroke-opacity: 0.3; stroke-width: 0.8; stroke-linecap: square"/>
     </g>
     <g id="line2d_28">
      <g>
       <use xlink:href="#m8e48e0d18e" x="36.25625" y="42.358832" style="stroke: #000000; stroke-width: 0.8"/>
      </g>
     </g>
     <g id="text_15">
      <!-- 8 -->
      <g transform="translate(24.25625 45.796332) scale(0.1 -0.1)">
       <defs>
        <path id="SimHei-38" d="M 175 1375 
Q 175 1675 325 1962 
Q 475 2250 825 2425 
Q 525 2600 425 2812 
Q 325 3025 312 3300 
Q 300 3575 387 3775 
Q 475 3975 650 4150 
Q 825 4325 1037 4387 
Q 1250 4450 1500 4450 
Q 1750 4450 1950 4400 
Q 2150 4350 2375 4187 
Q 2600 4025 2700 3725 
Q 2800 3425 2687 3025 
Q 2575 2625 2100 2400 
Q 2525 2275 2700 2012 
Q 2875 1750 2875 1375 
Q 2875 1000 2762 775 
Q 2650 550 2512 400 
Q 2375 250 2137 162 
Q 1900 75 1537 75 
Q 1175 75 912 162 
Q 650 250 475 425 
Q 300 600 237 837 
Q 175 1075 175 1375 
z
M 687 1400 
Q 675 1100 787 875 
Q 900 650 1200 587 
Q 1500 525 1825 600 
Q 2150 675 2275 950 
Q 2400 1225 2362 1500 
Q 2325 1775 2050 1962 
Q 1775 2150 1450 2125 
Q 1125 2100 912 1900 
Q 700 1700 687 1400 
z
M 775 3350 
Q 775 3100 950 2875 
Q 1125 2650 1500 2650 
Q 1875 2650 2062 2875 
Q 2250 3100 2237 3412 
Q 2225 3725 2012 3875 
Q 1800 4025 1437 4000 
Q 1075 3975 925 3787 
Q 775 3600 775 3350 
z
" transform="scale(0.015625)"/>
       </defs>
       <use xlink:href="#SimHei-38"/>
      </g>
     </g>
    </g>
    <g id="text_16">
     <!-- 风险评分 (1-10) -->
     <g transform="translate(19.00625 227.121487) rotate(-90) scale(0.1 -0.1)">
      <defs>
       <path id="SimHei-98ce" d="M 5100 4950 
Q 5050 3950 5062 3137 
Q 5075 2325 5087 1825 
Q 5100 1325 5262 712 
Q 5425 100 5525 150 
Q 5625 200 5700 775 
Q 5925 550 6200 450 
Q 5950 -475 5687 -562 
Q 5425 -650 5175 -337 
Q 4925 -25 4787 575 
Q 4650 1175 4625 1862 
Q 4600 2550 4600 4500 
L 1500 4500 
Q 1500 2475 1437 1825 
Q 1375 1175 1187 525 
Q 1000 -125 625 -675 
Q 400 -425 275 -275 
Q 600 150 775 737 
Q 950 1325 1000 2062 
Q 1050 2800 1050 3675 
Q 1050 4550 1025 4950 
L 5100 4950 
z
M 4225 3625 
Q 4075 3425 3875 2950 
Q 3675 2475 3475 2100 
Q 4025 1200 4350 525 
Q 4100 400 3925 275 
Q 3750 700 3225 1625 
Q 2950 1250 2650 925 
Q 2350 600 1950 250 
Q 1750 525 1600 625 
Q 2000 875 2375 1287 
Q 2750 1700 2950 2025 
Q 2450 2825 1850 3450 
Q 2075 3600 2200 3750 
Q 2700 3175 3200 2475 
Q 3475 3000 3725 3925 
L 4225 3625 
z
" transform="scale(0.015625)"/>
       <path id="SimHei-9669" d="M 2325 4875 
Q 2175 4525 2025 3975 
Q 1875 3425 1675 2850 
Q 2025 2350 2137 1987 
Q 2250 1625 2250 1300 
Q 2250 975 2000 800 
Q 1750 625 1400 550 
Q 1325 850 1175 1075 
Q 1650 1075 1712 1250 
Q 1775 1425 1712 1775 
Q 1650 2125 1225 2750 
Q 1600 3925 1700 4475 
L 1000 4475 
L 1000 -650 
L 525 -650 
Q 550 0 550 550 
L 550 3750 
Q 550 4250 525 4875 
L 2325 4875 
z
M 4225 4875 
Q 4675 4100 5112 3737 
Q 5550 3375 6200 3050 
Q 5950 2875 5825 2600 
Q 5425 2800 4975 3175 
L 4975 2750 
Q 4675 2775 4350 2775 
L 3675 2775 
Q 3275 2775 2925 2750 
L 2925 3025 
Q 2650 2725 2350 2425 
Q 2200 2675 1925 2825 
Q 2350 3075 2875 3725 
Q 3400 4375 3700 5250 
Q 4050 5100 4350 5025 
L 4225 4875 
z
M 5500 2100 
Q 5350 1850 5150 1262 
Q 4950 675 4775 25 
Q 5425 25 5950 50 
L 5950 -400 
Q 5525 -375 5100 -375 
L 3100 -375 
Q 2475 -375 2100 -400 
L 2100 50 
Q 2550 25 3125 25 
L 4325 25 
Q 4600 875 4712 1387 
Q 4825 1900 4850 2275 
Q 5125 2175 5500 2100 
z
M 4950 3200 
Q 4450 3675 3950 4550 
Q 3550 3825 3050 3200 
L 4950 3200 
z
M 3950 2250 
Q 4125 1625 4275 775 
Q 4050 775 3800 725 
Q 3625 1750 3500 2150 
Q 3750 2175 3950 2250 
z
M 2950 2075 
Q 3125 1425 3350 525 
Q 3125 500 2925 400 
Q 2825 975 2525 1925 
Q 2750 2000 2950 2075 
z
" transform="scale(0.015625)"/>
       <path id="SimHei-8bc4" d="M 5900 4500 
Q 5400 4525 4425 4525 
L 4425 2125 
L 5200 2125 
Q 5750 2125 6175 2150 
L 6175 1675 
Q 5775 1700 5200 1700 
L 4425 1700 
L 4425 200 
Q 4425 -300 4450 -675 
L 3900 -675 
Q 3925 -200 3925 200 
L 3925 1700 
L 3075 1700 
Q 2625 1700 2225 1675 
L 2225 2150 
Q 2625 2125 3075 2125 
L 3925 2125 
L 3925 4525 
Q 2850 4525 2425 4500 
L 2425 4975 
Q 2850 4950 3300 4950 
L 4950 4950 
Q 5400 4950 5900 4975 
L 5900 4500 
z
M 875 225 
Q 1150 400 1150 650 
L 1150 2875 
Q 475 2875 225 2850 
L 225 3350 
Q 475 3325 825 3325 
L 1650 3325 
Q 1625 2825 1625 2325 
L 1625 725 
Q 1900 975 2275 1375 
Q 2375 1225 2550 950 
Q 2100 550 1812 300 
Q 1525 50 1250 -250 
Q 1100 25 875 225 
z
M 4825 2625 
Q 5200 3425 5375 4050 
Q 5650 3975 5975 3850 
Q 5925 3800 5700 3325 
Q 5475 2850 5300 2450 
Q 5050 2575 4825 2625 
z
M 2850 4000 
Q 3275 3175 3450 2700 
Q 3150 2600 2950 2475 
Q 2700 3300 2400 3800 
Q 2650 3875 2850 4000 
z
M 1100 5225 
Q 1400 4975 1975 4275 
Q 1750 4125 1575 3950 
Q 1300 4350 750 4900 
Q 900 5025 1100 5225 
z
" transform="scale(0.015625)"/>
       <path id="SimHei-20" transform="scale(0.015625)"/>
       <path id="SimHei-28" d="M 2975 -200 
L 2700 -475 
Q 2075 125 1762 775 
Q 1450 1425 1450 2250 
Q 1450 3075 1762 3725 
Q 2075 4375 2700 5000 
L 2975 4725 
Q 2400 4175 2112 3587 
Q 1825 3000 1825 2250 
Q 1825 1500 2112 912 
Q 2400 325 2975 -200 
z
" transform="scale(0.015625)"/>
       <path id="SimHei-2d" d="M 2975 2125 
L 125 2125 
L 125 2525 
L 2975 2525 
L 2975 2125 
z
" transform="scale(0.015625)"/>
       <path id="SimHei-29" d="M 1675 2250 
Q 1675 1425 1362 775 
Q 1050 125 425 -475 
L 150 -200 
Q 725 325 1012 912 
Q 1300 1500 1300 2250 
Q 1300 3000 1012 3587 
Q 725 4175 150 4725 
L 425 5000 
Q 1050 4375 1362 3725 
Q 1675 3075 1675 2250 
z
" transform="scale(0.015625)"/>
      </defs>
      <use xlink:href="#SimHei-98ce"/>
      <use xlink:href="#SimHei-9669" x="100"/>
      <use xlink:href="#SimHei-8bc4" x="200"/>
      <use xlink:href="#SimHei-5206" x="300"/>
      <use xlink:href="#SimHei-20" x="400"/>
      <use xlink:href="#SimHei-28" x="450"/>
      <use xlink:href="#SimHei-31" x="500"/>
      <use xlink:href="#SimHei-2d" x="550"/>
      <use xlink:href="#SimHei-31" x="600"/>
      <use xlink:href="#SimHei-30" x="650"/>
      <use xlink:href="#SimHei-29" x="700"/>
     </g>
    </g>
   </g>
   <g id="line2d_29">
    <path clip-path="url(#p739c678715)" style="fill: none; stroke: #424242; stroke-width: 2.25; stroke-linecap: square"/>
   </g>
   <g id="line2d_30">
    <path clip-path="url(#p739c678715)" style="fill: none; stroke: #424242; stroke-width: 2.25; stroke-linecap: square"/>
   </g>
   <g id="line2d_31">
    <path clip-path="url(#p739c678715)" style="fill: none; stroke: #424242; stroke-width: 2.25; stroke-linecap: square"/>
   </g>
   <g id="line2d_32">
    <path clip-path="url(#p739c678715)" style="fill: none; stroke: #424242; stroke-width: 2.25; stroke-linecap: square"/>
   </g>
   <g id="line2d_33">
    <path clip-path="url(#p739c678715)" style="fill: none; stroke: #424242; stroke-width: 2.25; stroke-linecap: square"/>
   </g>
   <g id="line2d_34">
    <path clip-path="url(#p739c678715)" style="fill: none; stroke: #424242; stroke-width: 2.25; stroke-linecap: square"/>
   </g>
   <g id="line2d_35">
    <path clip-path="url(#p739c678715)" style="fill: none; stroke: #424242; stroke-width: 2.25; stroke-linecap: square"/>
   </g>
   <g id="line2d_36">
    <path clip-path="url(#p739c678715)" style="fill: none; stroke: #424242; stroke-width: 2.25; stroke-linecap: square"/>
   </g>
   <g id="line2d_37">
    <path clip-path="url(#p739c678715)" style="fill: none; stroke: #424242; stroke-width: 2.25; stroke-linecap: square"/>
   </g>
   <g id="line2d_38">
    <path clip-path="url(#p739c678715)" style="fill: none; stroke: #424242; stroke-width: 2.25; stroke-linecap: square"/>
   </g>
   <g id="patch_15">
    <path d="M 36.25625 352.385473 
L 36.25625 26.8575 
" style="fill: none; stroke: #000000; stroke-width: 0.8; stroke-linejoin: miter; stroke-linecap: square"/>
   </g>
   <g id="patch_16">
    <path d="M 853.2 352.385473 
L 853.2 26.8575 
" style="fill: none; stroke: #000000; stroke-width: 0.8; stroke-linejoin: miter; stroke-linecap: square"/>
   </g>
   <g id="patch_17">
    <path d="M 36.25625 352.385473 
L 853.2 352.385473 
" style="fill: none; stroke: #000000; stroke-width: 0.8; stroke-linejoin: miter; stroke-linecap: square"/>
   </g>
   <g id="patch_18">
    <path d="M 36.25625 26.8575 
L 853.2 26.8575 
" style="fill: none; stroke: #000000; stroke-width: 0.8; stroke-linejoin: miter; stroke-linecap: square"/>
   </g>
   <g id="text_17">
    <!-- 理论模型在不同市场的应用限制条件风险对比 -->
    <g transform="translate(324.728125 20.8575) scale(0.12 -0.12)">
     <defs>
      <path id="SimHei-7406" d="M 5825 4850 
Q 5800 4525 5800 3425 
Q 5800 2350 5825 1875 
L 4450 1875 
L 4450 1125 
L 5200 1125 
Q 5650 1125 5900 1150 
L 5900 700 
Q 5625 725 5200 725 
L 4450 725 
L 4450 -125 
L 5350 -125 
Q 5825 -125 6150 -100 
L 6150 -550 
Q 5825 -525 5375 -525 
L 2950 -525 
Q 2550 -525 2250 -550 
L 2250 -100 
Q 2575 -125 2950 -125 
L 3975 -125 
L 3975 725 
L 3150 725 
Q 2825 725 2575 700 
L 2575 1150 
Q 2825 1125 3150 1125 
L 3975 1125 
L 3975 1875 
L 2625 1875 
Q 2650 2250 2650 3400 
Q 2650 4550 2625 4850 
L 5825 4850 
z
M 1750 4525 
Q 2025 4525 2350 4550 
L 2350 4075 
Q 2000 4100 1750 4100 
L 1525 4100 
L 1525 2750 
Q 1875 2750 2225 2775 
L 2225 2300 
Q 1875 2325 1525 2325 
L 1525 725 
Q 2000 900 2325 1050 
Q 2375 800 2425 625 
Q 1950 475 1362 237 
Q 775 0 450 -200 
Q 350 50 225 325 
Q 550 375 1075 600 
L 1075 2325 
Q 625 2325 300 2300 
L 300 2775 
Q 650 2750 1075 2750 
L 1075 4100 
L 775 4100 
Q 550 4100 225 4075 
L 225 4550 
Q 550 4525 775 4525 
L 1750 4525 
z
M 5325 2275 
L 5325 3175 
L 4450 3175 
L 4450 2275 
L 5325 2275 
z
M 5325 3550 
L 5325 4450 
L 4450 4450 
L 4450 3550 
L 5325 3550 
z
M 3975 2275 
L 3975 3175 
L 3125 3175 
L 3125 2275 
L 3975 2275 
z
M 3975 3550 
L 3975 4450 
L 3125 4450 
L 3125 3550 
L 3975 3550 
z
" transform="scale(0.015625)"/>
      <path id="SimHei-8bba" d="M 3500 1600 
Q 3825 1725 4250 2000 
Q 4675 2275 4975 2575 
Q 5225 2275 5400 2100 
Q 5050 1950 4550 1675 
Q 4050 1400 3500 1150 
L 3500 300 
Q 3500 -100 3800 -100 
L 4825 -100 
Q 5125 -100 5250 137 
Q 5375 375 5375 575 
Q 5675 350 5925 275 
Q 5750 -225 5550 -375 
Q 5350 -525 5100 -525 
L 3550 -525 
Q 3025 -475 3025 0 
L 3025 2175 
Q 3025 2525 3000 2850 
L 3525 2850 
Q 3500 2400 3500 2200 
L 3500 1600 
z
M 4175 4850 
Q 4400 4350 4950 3687 
Q 5500 3025 6175 2700 
Q 5975 2575 5800 2275 
Q 5100 2750 4637 3375 
Q 4175 4000 3950 4425 
Q 3725 3950 3387 3425 
Q 3050 2900 2325 2200 
Q 2175 2375 1950 2575 
Q 2350 2825 2650 3175 
Q 2950 3525 3200 3962 
Q 3450 4400 3575 4725 
Q 3700 5050 3750 5250 
Q 3975 5150 4275 5050 
L 4175 4850 
z
M 1600 3150 
Q 1575 2750 1575 2275 
L 1575 550 
Q 1950 825 2400 1300 
Q 2500 1075 2650 800 
Q 2250 475 1900 187 
Q 1550 -100 1250 -375 
Q 1150 -225 900 50 
Q 1100 250 1100 450 
L 1100 2700 
L 800 2700 
Q 550 2700 275 2675 
L 275 3175 
Q 550 3150 800 3150 
L 1600 3150 
z
M 975 5000 
Q 1550 4525 2125 4025 
Q 1950 3875 1750 3650 
Q 1325 4150 650 4650 
Q 825 4800 975 5000 
z
" transform="scale(0.015625)"/>
      <path id="SimHei-6a21" d="M 5700 3675 
Q 5675 3400 5675 2725 
Q 5675 2050 5700 1725 
L 4375 1725 
Q 4350 1450 4325 1200 
L 5225 1200 
Q 5750 1200 6025 1225 
L 6025 825 
Q 5725 850 5225 850 
L 4700 850 
Q 5075 375 5437 137 
Q 5800 -100 6200 -200 
Q 5975 -375 5850 -625 
Q 5275 -400 4862 25 
Q 4450 450 4300 775 
L 4225 775 
Q 4000 275 3537 -62 
Q 3075 -400 2475 -625 
Q 2350 -375 2125 -200 
Q 2775 -75 3200 200 
Q 3625 475 3775 850 
L 3325 850 
Q 2800 850 2400 825 
L 2400 1225 
Q 2800 1200 3350 1200 
L 3875 1200 
Q 3925 1475 3925 1725 
L 2750 1725 
Q 2775 2075 2775 2700 
Q 2775 3350 2750 3675 
L 5700 3675 
z
M 2175 1650 
Q 2025 1975 1675 2525 
L 1675 300 
Q 1675 -300 1700 -550 
L 1175 -550 
Q 1200 -275 1200 250 
L 1200 2225 
Q 1125 2000 962 1712 
Q 800 1425 600 1050 
Q 450 1275 200 1425 
Q 600 1825 850 2425 
Q 1100 3025 1175 3425 
L 950 3425 
Q 700 3425 400 3400 
L 400 3825 
Q 675 3800 825 3800 
L 1200 3800 
L 1200 4350 
Q 1200 4775 1175 5150 
L 1700 5150 
Q 1675 4825 1675 4425 
L 1675 3800 
Q 2075 3800 2375 3825 
L 2375 3400 
Q 2050 3425 1675 3425 
L 1675 2575 
Q 1850 2675 2000 2775 
Q 2150 2525 2287 2325 
Q 2425 2125 2550 1925 
Q 2325 1775 2175 1650 
z
M 3375 4300 
L 3175 4300 
Q 2700 4300 2425 4275 
L 2425 4675 
Q 2700 4650 3150 4650 
L 3375 4650 
Q 3375 5000 3350 5225 
L 3825 5225 
Q 3800 5000 3800 4650 
L 4550 4650 
Q 4550 4975 4525 5200 
L 5025 5200 
Q 5000 4925 5000 4650 
L 5375 4650 
Q 5650 4650 5950 4675 
L 5950 4275 
Q 5650 4300 5375 4300 
L 5000 4300 
L 5000 3850 
L 4550 3850 
L 4550 4300 
L 3800 4300 
L 3800 3875 
L 3375 3875 
L 3375 4300 
z
M 5275 2075 
L 5275 2525 
L 3200 2525 
L 3200 2075 
L 5275 2075 
z
M 5275 2875 
L 5275 3325 
L 3200 3325 
L 3200 2875 
L 5275 2875 
z
" transform="scale(0.015625)"/>
      <path id="SimHei-578b" d="M 2625 1775 
Q 2650 2325 2650 2700 
L 2650 3000 
L 1825 3000 
Q 1725 2375 1425 2000 
Q 1125 1625 775 1425 
Q 650 1650 375 1900 
Q 850 2075 1062 2362 
Q 1275 2650 1350 3000 
Q 900 3000 375 2975 
L 375 3450 
Q 925 3425 1400 3425 
Q 1425 3950 1425 4475 
Q 1075 4475 700 4450 
L 700 4900 
Q 1050 4875 1525 4875 
L 3000 4875 
Q 3275 4875 3650 4900 
L 3650 4450 
Q 3325 4475 3125 4475 
L 3125 3425 
Q 3450 3425 3825 3450 
L 3825 2975 
Q 3450 3000 3125 3000 
L 3125 2675 
Q 3125 2225 3150 1775 
L 2625 1775 
z
M 3000 1175 
Q 3000 1375 2975 1725 
L 3500 1725 
Q 3475 1375 3475 1175 
L 4550 1175 
Q 5050 1175 5450 1200 
L 5450 725 
Q 4975 750 4550 750 
L 3475 750 
L 3475 -50 
L 5275 -50 
Q 5700 -50 6100 -25 
L 6100 -500 
Q 5725 -475 5300 -475 
L 1250 -475 
Q 775 -475 400 -500 
L 400 -25 
Q 775 -50 1250 -50 
L 3000 -50 
L 3000 750 
L 2025 750 
Q 1500 750 975 725 
L 1050 1200 
Q 1500 1175 2025 1175 
L 3000 1175 
z
M 5775 5200 
Q 5750 4775 5750 4325 
L 5750 2400 
Q 5775 1950 5612 1775 
Q 5450 1600 4900 1525 
Q 4825 1775 4675 2100 
Q 5175 2075 5237 2150 
Q 5300 2225 5300 2525 
L 5300 4325 
Q 5300 4775 5275 5200 
L 5775 5200 
z
M 4600 4750 
Q 4575 4450 4575 3975 
L 4575 3200 
Q 4575 2825 4600 2425 
L 4100 2425 
Q 4125 2825 4125 3200 
L 4125 3975 
Q 4125 4450 4100 4750 
L 4600 4750 
z
M 2650 3425 
L 2650 4475 
L 1875 4475 
Q 1850 3750 1850 3425 
L 2650 3425 
z
" transform="scale(0.015625)"/>
      <path id="SimHei-5728" d="M 2425 4200 
Q 2525 4525 2600 4762 
Q 2675 5000 2700 5250 
Q 3050 5175 3325 5100 
Q 3200 4850 3150 4712 
Q 3100 4575 2975 4200 
L 5000 4200 
Q 5525 4200 5950 4225 
L 5950 3750 
Q 5525 3775 5000 3775 
L 2825 3775 
Q 2675 3425 2437 3000 
Q 2200 2575 1825 2075 
L 1825 325 
Q 1825 -175 1850 -650 
L 1325 -650 
Q 1350 -175 1350 325 
L 1350 1625 
Q 950 1250 625 1000 
Q 450 1225 200 1375 
Q 500 1550 800 1800 
Q 1100 2050 1350 2375 
Q 1350 2600 1325 2825 
L 1725 2825 
Q 1900 3025 2037 3275 
Q 2175 3525 2275 3775 
L 1675 3775 
Q 1075 3775 625 3750 
L 625 4225 
Q 1100 4200 1675 4200 
L 2425 4200 
z
M 3700 2250 
L 3700 2600 
Q 3700 3100 3675 3400 
L 4225 3400 
Q 4200 3100 4200 2600 
L 4200 2250 
L 4775 2250 
Q 5225 2250 5600 2275 
L 5600 1800 
Q 5225 1825 4775 1825 
L 4200 1825 
L 4200 150 
L 5150 150 
Q 5625 150 6000 175 
L 6000 -275 
Q 5625 -250 5150 -250 
L 3125 -250 
Q 2475 -250 2100 -275 
L 2100 175 
Q 2475 150 3125 150 
L 3700 150 
L 3700 1825 
L 3225 1825 
Q 2775 1825 2350 1800 
L 2350 2275 
Q 2775 2250 3225 2250 
L 3700 2250 
z
" transform="scale(0.015625)"/>
      <path id="SimHei-540c" d="M 5825 4925 
Q 5775 4550 5775 3975 
L 5775 -50 
Q 5775 -400 5525 -487 
Q 5275 -575 4725 -625 
Q 4725 -400 4525 -50 
Q 4925 -50 5100 -12 
Q 5275 25 5275 200 
L 5275 4450 
L 1150 4450 
L 1150 -600 
L 575 -600 
Q 600 -250 625 200 
L 625 3975 
Q 625 4575 600 4925 
L 5825 4925 
z
M 4375 2550 
Q 4325 2275 4325 1700 
Q 4325 1150 4375 725 
L 2025 725 
Q 2050 1175 2050 1750 
Q 2050 2325 2025 2550 
L 4375 2550 
z
M 4100 3750 
Q 4600 3750 4825 3775 
L 4825 3275 
Q 4575 3300 4075 3300 
L 2450 3300 
Q 1850 3300 1600 3275 
L 1600 3775 
Q 1875 3750 2475 3750 
L 4100 3750 
z
M 3875 1150 
L 3875 2150 
L 2525 2150 
L 2525 1150 
L 3875 1150 
z
" transform="scale(0.015625)"/>
      <path id="SimHei-7684" d="M 2100 4975 
Q 1975 4750 1750 3950 
L 2875 3950 
Q 2850 3525 2850 2875 
L 2850 675 
Q 2850 300 2875 -400 
L 2375 -400 
L 2375 100 
L 1100 100 
L 1100 -450 
L 600 -450 
Q 625 350 625 550 
L 625 2850 
Q 625 3525 600 3950 
L 1325 3950 
Q 1450 4525 1525 5150 
Q 1875 5025 2100 4975 
z
M 5825 3075 
Q 5800 1550 5700 175 
Q 5650 -275 5225 -425 
Q 4800 -575 4275 -625 
Q 4250 -350 4050 -50 
Q 4550 -75 4837 -25 
Q 5125 25 5200 200 
Q 5275 375 5312 1225 
Q 5350 2075 5375 3600 
L 3925 3600 
Q 3725 3125 3350 2475 
Q 3175 2650 2925 2750 
Q 3150 3050 3350 3475 
Q 3550 3900 3700 4400 
Q 3850 4900 3875 5175 
Q 4225 5025 4475 4950 
Q 4350 4750 4262 4512 
Q 4175 4275 4075 4050 
L 5850 4050 
Q 5825 3525 5825 3075 
z
M 2375 525 
L 2375 1850 
L 1100 1850 
L 1100 525 
L 2375 525 
z
M 2375 2275 
L 2375 3525 
L 1100 3525 
L 1100 2275 
L 2375 2275 
z
M 4350 2050 
Q 4500 1750 4700 1275 
Q 4525 1200 4225 1025 
Q 4050 1500 3900 1837 
Q 3750 2175 3600 2400 
Q 3775 2500 4050 2650 
L 4350 2050 
z
" transform="scale(0.015625)"/>
      <path id="SimHei-5bf9" d="M 525 4250 
Q 900 4225 1400 4225 
L 2825 4225 
Q 2575 2625 2200 1750 
Q 2825 875 3125 400 
Q 2950 275 2725 75 
Q 2200 975 1950 1300 
Q 1650 775 1350 425 
Q 1050 75 600 -350 
Q 425 -125 200 -25 
Q 625 275 975 675 
Q 1325 1075 1650 1700 
Q 1050 2425 550 2900 
Q 700 3025 900 3225 
Q 1625 2425 1875 2150 
Q 2200 3050 2300 3825 
L 1400 3825 
Q 900 3825 525 3800 
L 525 4250 
z
M 2925 3700 
Q 3525 3675 3750 3675 
L 4825 3675 
L 4825 4425 
Q 4825 4750 4775 5125 
L 5350 5125 
Q 5325 4825 5325 4375 
L 5325 3675 
Q 5575 3675 6150 3700 
L 6150 3250 
Q 5575 3275 5325 3275 
L 5325 125 
Q 5350 -350 5012 -475 
Q 4675 -600 4250 -650 
Q 4175 -350 4025 -100 
Q 4575 -100 4712 -37 
Q 4850 25 4825 325 
L 4825 3275 
L 3775 3275 
Q 3550 3275 2925 3225 
L 2925 3700 
z
M 3450 2725 
Q 3875 1975 4175 1325 
Q 3850 1200 3700 1075 
Q 3475 1750 3050 2475 
Q 3225 2550 3450 2725 
z
" transform="scale(0.015625)"/>
     </defs>
     <use xlink:href="#SimHei-7406"/>
     <use xlink:href="#SimHei-8bba" x="100"/>
     <use xlink:href="#SimHei-6a21" x="200"/>
     <use xlink:href="#SimHei-578b" x="300"/>
     <use xlink:href="#SimHei-5728" x="400"/>
     <use xlink:href="#SimHei-4e0d" x="500"/>
     <use xlink:href="#SimHei-540c" x="600"/>
     <use xlink:href="#SimHei-5e02" x="700"/>
     <use xlink:href="#SimHei-573a" x="800"/>
     <use xlink:href="#SimHei-7684" x="900"/>
     <use xlink:href="#SimHei-5e94" x="1000"/>
     <use xlink:href="#SimHei-7528" x="1100"/>
     <use xlink:href="#SimHei-9650" x="1200"/>
     <use xlink:href="#SimHei-5236" x="1300"/>
     <use xlink:href="#SimHei-6761" x="1400"/>
     <use xlink:href="#SimHei-4ef6" x="1500"/>
     <use xlink:href="#SimHei-98ce" x="1600"/>
     <use xlink:href="#SimHei-9669" x="1700"/>
     <use xlink:href="#SimHei-5bf9" x="1800"/>
     <use xlink:href="#SimHei-6bd4" x="1900"/>
    </g>
   </g>
   <g id="legend_1">
    <g id="patch_19">
     <path d="M 794.2 77.51375 
L 846.2 77.51375 
Q 848.2 77.51375 848.2 75.51375 
L 848.2 33.8575 
Q 848.2 31.8575 846.2 31.8575 
L 794.2 31.8575 
Q 792.2 31.8575 792.2 33.8575 
L 792.2 75.51375 
Q 792.2 77.51375 794.2 77.51375 
z
" style="fill: #ffffff; opacity: 0.8; stroke: #cccccc; stroke-linejoin: miter"/>
    </g>
    <g id="text_18">
     <!-- 市场 -->
     <g transform="translate(810.2 43.787188) scale(0.1 -0.1)">
      <use xlink:href="#SimHei-5e02"/>
      <use xlink:href="#SimHei-573a" x="100"/>
     </g>
    </g>
    <g id="patch_20">
     <path d="M 796.2 58.123125 
L 816.2 58.123125 
L 816.2 51.123125 
L 796.2 51.123125 
z
" style="fill: #3274a1"/>
    </g>
    <g id="text_19">
     <!-- 航空 -->
     <g transform="translate(824.2 58.123125) scale(0.1 -0.1)">
      <defs>
       <path id="SimHei-822a" d="M 2000 5000 
Q 1850 4725 1650 4275 
L 2600 4275 
L 2600 150 
Q 2600 -250 2425 -350 
Q 2250 -450 1750 -525 
Q 1700 -250 1550 25 
Q 1950 0 2062 25 
Q 2175 50 2175 350 
L 2175 1975 
L 1125 1975 
Q 1125 1400 1087 962 
Q 1050 525 950 137 
Q 850 -250 650 -675 
Q 450 -500 200 -450 
Q 525 125 612 662 
Q 700 1200 700 1975 
Q 525 1975 275 1950 
L 275 2375 
Q 550 2350 700 2350 
L 700 3450 
Q 700 3825 675 4275 
L 1200 4275 
Q 1400 4750 1475 5175 
Q 1750 5075 2000 5000 
z
M 5200 2975 
Q 5175 2650 5175 2075 
L 5175 300 
Q 5175 0 5325 0 
L 5450 0 
Q 5575 0 5625 150 
Q 5675 300 5675 625 
Q 5900 475 6175 425 
Q 6075 -50 5975 -225 
Q 5875 -400 5550 -400 
L 5150 -400 
Q 4725 -400 4725 100 
L 4725 2575 
L 3825 2575 
Q 3825 1725 3800 1237 
Q 3775 750 3587 287 
Q 3400 -175 2950 -675 
Q 2800 -450 2550 -350 
Q 3075 125 3212 575 
Q 3350 1025 3362 1362 
Q 3375 1700 3375 2125 
Q 3375 2550 3350 2975 
L 5200 2975 
z
M 2175 2350 
L 2175 3900 
L 1125 3900 
L 1125 2350 
L 2175 2350 
z
M 5925 3675 
Q 5625 3700 5300 3700 
L 3500 3700 
Q 3225 3700 2975 3675 
L 2975 4125 
Q 3250 4100 3475 4100 
L 5325 4100 
Q 5625 4100 5925 4125 
L 5925 3675 
z
M 4125 5225 
Q 4450 4725 4625 4375 
Q 4325 4250 4150 4150 
Q 4000 4525 3700 5000 
Q 3950 5125 4125 5225 
z
M 1550 1675 
Q 1800 1250 2025 825 
Q 1850 725 1650 600 
Q 1425 1125 1225 1450 
Q 1400 1550 1550 1675 
z
M 2000 2800 
Q 1800 2725 1625 2625 
Q 1525 2925 1275 3425 
Q 1425 3500 1625 3625 
L 2000 2800 
z
" transform="scale(0.015625)"/>
       <path id="SimHei-7a7a" d="M 4025 1925 
Q 4700 1925 5225 1975 
L 5225 1450 
Q 4725 1500 4025 1500 
L 3475 1500 
L 3475 0 
L 5000 0 
Q 5725 0 6175 50 
L 6175 -475 
Q 5750 -425 5050 -425 
L 1750 -425 
Q 775 -425 350 -475 
L 350 50 
Q 825 0 1800 0 
L 2925 0 
L 2925 1500 
L 2300 1500 
Q 1625 1500 1125 1450 
L 1125 1975 
Q 1600 1925 2375 1925 
L 4025 1925 
z
M 5250 3250 
L 5250 3925 
L 1150 3925 
L 1150 3175 
L 600 3175 
Q 625 3425 625 3750 
Q 625 4100 600 4375 
L 3100 4375 
Q 2950 4725 2750 5075 
Q 3000 5200 3300 5300 
Q 3500 4850 3650 4525 
Q 3400 4450 3175 4375 
L 5825 4375 
Q 5800 4150 5800 3775 
Q 5800 3425 5825 3250 
L 5250 3250 
z
M 3975 3525 
Q 4275 3400 4762 3175 
Q 5250 2950 5925 2550 
Q 5675 2275 5575 2075 
Q 5100 2375 4650 2625 
Q 4200 2875 3675 3125 
Q 3800 3275 3975 3525 
z
M 2700 3225 
Q 2425 3100 1937 2737 
Q 1450 2375 825 2000 
Q 675 2225 450 2450 
Q 925 2650 1375 2962 
Q 1825 3275 2150 3650 
Q 2400 3425 2700 3225 
z
" transform="scale(0.015625)"/>
      </defs>
      <use xlink:href="#SimHei-822a"/>
      <use xlink:href="#SimHei-7a7a" x="100"/>
     </g>
    </g>
    <g id="patch_21">
     <path d="M 796.2 72.26375 
L 816.2 72.26375 
L 816.2 65.26375 
L 796.2 65.26375 
z
" style="fill: #e1812c"/>
    </g>
    <g id="text_20">
     <!-- 酒店 -->
     <g transform="translate(824.2 72.26375) scale(0.1 -0.1)">
      <defs>
       <path id="SimHei-9152" d="M 6025 4400 
Q 5600 4425 4750 4425 
L 4750 3650 
L 5825 3650 
Q 5800 2850 5800 1550 
Q 5800 250 5825 -600 
L 5350 -600 
L 5350 -200 
L 2625 -200 
L 2625 -600 
L 2150 -600 
Q 2175 250 2175 1550 
Q 2175 2875 2150 3650 
L 3275 3650 
L 3275 4425 
Q 2525 4425 1925 4400 
L 1925 4875 
Q 2525 4850 4050 4850 
Q 5575 4850 6025 4875 
L 6025 4400 
z
M 5350 1275 
L 5350 1825 
L 4825 1825 
Q 4300 1825 4300 2375 
L 4300 3250 
L 3725 3250 
Q 3700 2600 3562 2225 
Q 3425 1850 3200 1575 
Q 3025 1750 2750 1825 
Q 2975 2075 3125 2412 
Q 3275 2750 3275 3250 
L 2625 3250 
L 2625 1275 
L 5350 1275 
z
M 5350 225 
L 5350 825 
L 2625 825 
L 2625 225 
L 5350 225 
z
M 1775 1600 
Q 1675 1475 1425 975 
Q 1175 475 750 -475 
Q 550 -275 225 -75 
Q 450 200 725 712 
Q 1000 1225 1225 1975 
Q 1475 1800 1775 1600 
z
M 650 3700 
Q 1375 3250 1725 3050 
Q 1475 2800 1325 2525 
Q 1125 2750 300 3250 
Q 475 3450 650 3700 
z
M 4750 2625 
Q 4750 2325 4825 2275 
Q 4900 2225 5350 2225 
L 5350 3250 
L 4750 3250 
L 4750 2625 
z
M 950 5200 
Q 1650 4750 1875 4575 
Q 1675 4375 1500 4125 
Q 1300 4350 625 4750 
Q 850 4975 950 5200 
z
M 4300 3650 
L 4300 4425 
L 3725 4425 
L 3725 3650 
L 4300 3650 
z
" transform="scale(0.015625)"/>
       <path id="SimHei-5e97" d="M 3800 3900 
Q 3775 3500 3775 3125 
L 5100 3125 
Q 5500 3125 5800 3150 
L 5800 2675 
Q 5525 2700 5100 2700 
L 3775 2700 
L 3775 1850 
L 5425 1850 
Q 5400 1200 5400 650 
Q 5400 100 5425 -525 
L 4900 -525 
L 4900 -75 
L 2400 -75 
L 2400 -550 
L 1900 -550 
Q 1925 150 1925 700 
Q 1925 1275 1900 1850 
L 3275 1850 
L 3275 3100 
Q 3275 3525 3250 3900 
L 3800 3900 
z
M 3450 5250 
Q 3625 4825 3750 4450 
L 4625 4450 
Q 5275 4450 5750 4475 
L 5750 4025 
Q 5300 4050 4825 4050 
L 1475 4050 
Q 1475 2450 1450 1862 
Q 1425 1275 1300 662 
Q 1175 50 900 -525 
Q 675 -350 375 -225 
Q 750 350 862 1062 
Q 975 1775 987 2612 
Q 1000 3450 950 4450 
L 3150 4450 
Q 3100 4675 2925 5075 
Q 3175 5125 3450 5250 
z
M 4900 325 
L 4900 1425 
L 2400 1425 
L 2400 325 
L 4900 325 
z
" transform="scale(0.015625)"/>
      </defs>
      <use xlink:href="#SimHei-9152"/>
      <use xlink:href="#SimHei-5e97" x="100"/>
     </g>
    </g>
   </g>
  </g>
 </g>
 <defs>
  <clipPath id="p739c678715">
   <rect x="36.25625" y="26.8575" width="816.94375" height="325.527973"/>
  </clipPath>
 </defs>
</svg>
