<?xml version="1.0" encoding="utf-8" standalone="no"?>
<!DOCTYPE svg PUBLIC "-//W3C//DTD SVG 1.1//EN"
  "http://www.w3.org/Graphics/SVG/1.1/DTD/svg11.dtd">
<svg xmlns:xlink="http://www.w3.org/1999/xlink" width="720pt" height="432pt" viewBox="0 0 720 432" xmlns="http://www.w3.org/2000/svg" version="1.1">
 <metadata>
  <rdf:RDF xmlns:dc="http://purl.org/dc/elements/1.1/" xmlns:cc="http://creativecommons.org/ns#" xmlns:rdf="http://www.w3.org/1999/02/22-rdf-syntax-ns#">
   <cc:Work>
    <dc:type rdf:resource="http://purl.org/dc/dcmitype/StillImage"/>
    <dc:date>2025-04-13T15:13:04.629355</dc:date>
    <dc:format>image/svg+xml</dc:format>
    <dc:creator>
     <cc:Agent>
      <dc:title>Matplotlib v3.9.2, https://matplotlib.org/</dc:title>
     </cc:Agent>
    </dc:creator>
   </cc:Work>
  </rdf:RDF>
 </metadata>
 <defs>
  <style type="text/css">*{stroke-linejoin: round; stroke-linecap: butt}</style>
 </defs>
 <g id="figure_1">
  <g id="patch_1">
   <path d="M 0 432 
L 720 432 
L 720 0 
L 0 0 
z
" style="fill: #ffffff"/>
  </g>
  <g id="axes_1">
   <g id="patch_2">
    <path d="M 46.44875 391.525 
L 709.2 391.525 
L 709.2 26.8125 
L 46.44875 26.8125 
z
" style="fill: #ffffff"/>
   </g>
   <g id="patch_3">
    <path d="M 79.586313 391.525 
L 344.686813 391.525 
L 344.686813 44.179762 
L 79.586313 44.179762 
z
" clip-path="url(#pffee93f7f1)" style="fill: #94c9de"/>
   </g>
   <g id="patch_4">
    <path d="M 410.961938 391.525 
L 676.062437 391.525 
L 676.062437 44.179762 
L 410.961938 44.179762 
z
" clip-path="url(#pffee93f7f1)" style="fill: #9ce29c"/>
   </g>
   <g id="matplotlib.axis_1">
    <g id="xtick_1">
     <g id="line2d_1">
      <path d="M 212.136563 391.525 
L 212.136563 26.8125 
" clip-path="url(#pffee93f7f1)" style="fill: none; stroke: #b0b0b0; stroke-opacity: 0.3; stroke-width: 0.8; stroke-linecap: square"/>
     </g>
     <g id="line2d_2">
      <defs>
       <path id="ma4720ab0b1" d="M 0 0 
L 0 3.5 
" style="stroke: #000000; stroke-width: 0.8"/>
      </defs>
      <g>
       <use xlink:href="#ma4720ab0b1" x="212.136563" y="391.525" style="stroke: #000000; stroke-width: 0.8"/>
      </g>
     </g>
     <g id="text_1">
      <!-- 航空 -->
      <g transform="translate(202.136563 406.610937) scale(0.1 -0.1)">
       <defs>
        <path id="SimHei-822a" d="M 2000 5000 
Q 1850 4725 1650 4275 
L 2600 4275 
L 2600 150 
Q 2600 -250 2425 -350 
Q 2250 -450 1750 -525 
Q 1700 -250 1550 25 
Q 1950 0 2062 25 
Q 2175 50 2175 350 
L 2175 1975 
L 1125 1975 
Q 1125 1400 1087 962 
Q 1050 525 950 137 
Q 850 -250 650 -675 
Q 450 -500 200 -450 
Q 525 125 612 662 
Q 700 1200 700 1975 
Q 525 1975 275 1950 
L 275 2375 
Q 550 2350 700 2350 
L 700 3450 
Q 700 3825 675 4275 
L 1200 4275 
Q 1400 4750 1475 5175 
Q 1750 5075 2000 5000 
z
M 5200 2975 
Q 5175 2650 5175 2075 
L 5175 300 
Q 5175 0 5325 0 
L 5450 0 
Q 5575 0 5625 150 
Q 5675 300 5675 625 
Q 5900 475 6175 425 
Q 6075 -50 5975 -225 
Q 5875 -400 5550 -400 
L 5150 -400 
Q 4725 -400 4725 100 
L 4725 2575 
L 3825 2575 
Q 3825 1725 3800 1237 
Q 3775 750 3587 287 
Q 3400 -175 2950 -675 
Q 2800 -450 2550 -350 
Q 3075 125 3212 575 
Q 3350 1025 3362 1362 
Q 3375 1700 3375 2125 
Q 3375 2550 3350 2975 
L 5200 2975 
z
M 2175 2350 
L 2175 3900 
L 1125 3900 
L 1125 2350 
L 2175 2350 
z
M 5925 3675 
Q 5625 3700 5300 3700 
L 3500 3700 
Q 3225 3700 2975 3675 
L 2975 4125 
Q 3250 4100 3475 4100 
L 5325 4100 
Q 5625 4100 5925 4125 
L 5925 3675 
z
M 4125 5225 
Q 4450 4725 4625 4375 
Q 4325 4250 4150 4150 
Q 4000 4525 3700 5000 
Q 3950 5125 4125 5225 
z
M 1550 1675 
Q 1800 1250 2025 825 
Q 1850 725 1650 600 
Q 1425 1125 1225 1450 
Q 1400 1550 1550 1675 
z
M 2000 2800 
Q 1800 2725 1625 2625 
Q 1525 2925 1275 3425 
Q 1425 3500 1625 3625 
L 2000 2800 
z
" transform="scale(0.015625)"/>
        <path id="SimHei-7a7a" d="M 4025 1925 
Q 4700 1925 5225 1975 
L 5225 1450 
Q 4725 1500 4025 1500 
L 3475 1500 
L 3475 0 
L 5000 0 
Q 5725 0 6175 50 
L 6175 -475 
Q 5750 -425 5050 -425 
L 1750 -425 
Q 775 -425 350 -475 
L 350 50 
Q 825 0 1800 0 
L 2925 0 
L 2925 1500 
L 2300 1500 
Q 1625 1500 1125 1450 
L 1125 1975 
Q 1600 1925 2375 1925 
L 4025 1925 
z
M 5250 3250 
L 5250 3925 
L 1150 3925 
L 1150 3175 
L 600 3175 
Q 625 3425 625 3750 
Q 625 4100 600 4375 
L 3100 4375 
Q 2950 4725 2750 5075 
Q 3000 5200 3300 5300 
Q 3500 4850 3650 4525 
Q 3400 4450 3175 4375 
L 5825 4375 
Q 5800 4150 5800 3775 
Q 5800 3425 5825 3250 
L 5250 3250 
z
M 3975 3525 
Q 4275 3400 4762 3175 
Q 5250 2950 5925 2550 
Q 5675 2275 5575 2075 
Q 5100 2375 4650 2625 
Q 4200 2875 3675 3125 
Q 3800 3275 3975 3525 
z
M 2700 3225 
Q 2425 3100 1937 2737 
Q 1450 2375 825 2000 
Q 675 2225 450 2450 
Q 925 2650 1375 2962 
Q 1825 3275 2150 3650 
Q 2400 3425 2700 3225 
z
" transform="scale(0.015625)"/>
       </defs>
       <use xlink:href="#SimHei-822a"/>
       <use xlink:href="#SimHei-7a7a" x="100"/>
      </g>
     </g>
    </g>
    <g id="xtick_2">
     <g id="line2d_3">
      <path d="M 543.512187 391.525 
L 543.512187 26.8125 
" clip-path="url(#pffee93f7f1)" style="fill: none; stroke: #b0b0b0; stroke-opacity: 0.3; stroke-width: 0.8; stroke-linecap: square"/>
     </g>
     <g id="line2d_4">
      <g>
       <use xlink:href="#ma4720ab0b1" x="543.512187" y="391.525" style="stroke: #000000; stroke-width: 0.8"/>
      </g>
     </g>
     <g id="text_2">
      <!-- 酒店 -->
      <g transform="translate(533.512187 406.415625) scale(0.1 -0.1)">
       <defs>
        <path id="SimHei-9152" d="M 6025 4400 
Q 5600 4425 4750 4425 
L 4750 3650 
L 5825 3650 
Q 5800 2850 5800 1550 
Q 5800 250 5825 -600 
L 5350 -600 
L 5350 -200 
L 2625 -200 
L 2625 -600 
L 2150 -600 
Q 2175 250 2175 1550 
Q 2175 2875 2150 3650 
L 3275 3650 
L 3275 4425 
Q 2525 4425 1925 4400 
L 1925 4875 
Q 2525 4850 4050 4850 
Q 5575 4850 6025 4875 
L 6025 4400 
z
M 5350 1275 
L 5350 1825 
L 4825 1825 
Q 4300 1825 4300 2375 
L 4300 3250 
L 3725 3250 
Q 3700 2600 3562 2225 
Q 3425 1850 3200 1575 
Q 3025 1750 2750 1825 
Q 2975 2075 3125 2412 
Q 3275 2750 3275 3250 
L 2625 3250 
L 2625 1275 
L 5350 1275 
z
M 5350 225 
L 5350 825 
L 2625 825 
L 2625 225 
L 5350 225 
z
M 1775 1600 
Q 1675 1475 1425 975 
Q 1175 475 750 -475 
Q 550 -275 225 -75 
Q 450 200 725 712 
Q 1000 1225 1225 1975 
Q 1475 1800 1775 1600 
z
M 650 3700 
Q 1375 3250 1725 3050 
Q 1475 2800 1325 2525 
Q 1125 2750 300 3250 
Q 475 3450 650 3700 
z
M 4750 2625 
Q 4750 2325 4825 2275 
Q 4900 2225 5350 2225 
L 5350 3250 
L 4750 3250 
L 4750 2625 
z
M 950 5200 
Q 1650 4750 1875 4575 
Q 1675 4375 1500 4125 
Q 1300 4350 625 4750 
Q 850 4975 950 5200 
z
M 4300 3650 
L 4300 4425 
L 3725 4425 
L 3725 3650 
L 4300 3650 
z
" transform="scale(0.015625)"/>
        <path id="SimHei-5e97" d="M 3800 3900 
Q 3775 3500 3775 3125 
L 5100 3125 
Q 5500 3125 5800 3150 
L 5800 2675 
Q 5525 2700 5100 2700 
L 3775 2700 
L 3775 1850 
L 5425 1850 
Q 5400 1200 5400 650 
Q 5400 100 5425 -525 
L 4900 -525 
L 4900 -75 
L 2400 -75 
L 2400 -550 
L 1900 -550 
Q 1925 150 1925 700 
Q 1925 1275 1900 1850 
L 3275 1850 
L 3275 3100 
Q 3275 3525 3250 3900 
L 3800 3900 
z
M 3450 5250 
Q 3625 4825 3750 4450 
L 4625 4450 
Q 5275 4450 5750 4475 
L 5750 4025 
Q 5300 4050 4825 4050 
L 1475 4050 
Q 1475 2450 1450 1862 
Q 1425 1275 1300 662 
Q 1175 50 900 -525 
Q 675 -350 375 -225 
Q 750 350 862 1062 
Q 975 1775 987 2612 
Q 1000 3450 950 4450 
L 3150 4450 
Q 3100 4675 2925 5075 
Q 3175 5125 3450 5250 
z
M 4900 325 
L 4900 1425 
L 2400 1425 
L 2400 325 
L 4900 325 
z
" transform="scale(0.015625)"/>
       </defs>
       <use xlink:href="#SimHei-9152"/>
       <use xlink:href="#SimHei-5e97" x="100"/>
      </g>
     </g>
    </g>
    <g id="text_3">
     <!-- 市场 -->
     <g transform="translate(367.824375 419.790625) scale(0.1 -0.1)">
      <defs>
       <path id="SimHei-5e02" d="M 4750 4200 
Q 5350 4200 6050 4225 
L 6050 3725 
Q 5350 3750 4750 3750 
L 3450 3750 
L 3450 2900 
L 5375 2900 
Q 5350 2450 5350 1975 
L 5350 750 
Q 5350 325 5062 175 
Q 4775 25 4250 -25 
Q 4200 275 4025 575 
Q 4550 575 4687 600 
Q 4825 625 4825 850 
L 4825 2450 
L 3450 2450 
L 3450 475 
Q 3450 -150 3475 -600 
L 2900 -600 
Q 2925 -150 2925 475 
L 2925 2450 
L 1525 2450 
L 1525 0 
L 975 0 
Q 1000 400 1000 950 
L 1000 1875 
Q 1000 2450 975 2900 
L 2925 2900 
L 2925 3750 
L 1625 3750 
Q 975 3750 325 3725 
L 325 4225 
Q 975 4200 1625 4200 
L 4750 4200 
z
M 2950 5275 
Q 3250 4975 3575 4475 
Q 3300 4350 3125 4225 
Q 2900 4625 2550 5000 
Q 2750 5150 2950 5275 
z
" transform="scale(0.015625)"/>
       <path id="SimHei-573a" d="M 5625 5000 
L 5625 4600 
Q 5275 4525 4862 4150 
Q 4450 3775 3750 3100 
L 6000 3100 
Q 5975 2925 5950 2300 
L 5850 425 
Q 5825 -200 5587 -350 
Q 5350 -500 4750 -550 
Q 4700 -250 4525 50 
Q 5050 0 5200 75 
Q 5350 150 5375 400 
L 5475 2675 
L 5000 2675 
Q 4875 1925 4700 1425 
Q 4525 925 4287 562 
Q 4050 200 3750 -62 
Q 3450 -325 3000 -600 
Q 2875 -350 2650 -175 
Q 3075 50 3425 350 
Q 3775 650 4000 1050 
Q 4225 1450 4337 1900 
Q 4450 2350 4500 2675 
L 4000 2675 
Q 3950 2300 3787 1912 
Q 3625 1525 3325 1150 
Q 3025 775 2550 425 
Q 2450 600 2175 800 
Q 2775 1125 3112 1675 
Q 3450 2225 3500 2675 
Q 3225 2650 3125 2625 
Q 3025 2600 2800 2525 
Q 2725 2825 2650 3025 
Q 3075 3075 3637 3587 
Q 4200 4100 4650 4575 
L 3700 4575 
Q 3150 4575 2675 4550 
L 2675 5025 
Q 3125 5000 3675 5000 
L 5625 5000 
z
M 1200 4375 
Q 1200 4650 1175 5075 
L 1700 5075 
Q 1675 4625 1675 4375 
L 1675 3450 
Q 2050 3450 2450 3475 
L 2450 3025 
Q 2000 3050 1675 3050 
L 1675 1225 
Q 1950 1325 2500 1575 
Q 2500 1350 2525 1125 
Q 2100 925 1500 687 
Q 900 450 500 225 
Q 400 450 200 725 
Q 650 850 1200 1050 
L 1200 3050 
Q 650 3050 325 3025 
L 325 3475 
Q 750 3450 1200 3450 
L 1200 4375 
z
" transform="scale(0.015625)"/>
      </defs>
      <use xlink:href="#SimHei-5e02"/>
      <use xlink:href="#SimHei-573a" x="100"/>
     </g>
    </g>
   </g>
   <g id="matplotlib.axis_2">
    <g id="ytick_1">
     <g id="line2d_5">
      <path d="M 46.44875 391.525 
L 709.2 391.525 
" clip-path="url(#pffee93f7f1)" style="fill: none; stroke: #b0b0b0; stroke-opacity: 0.3; stroke-width: 0.8; stroke-linecap: square"/>
     </g>
     <g id="line2d_6">
      <defs>
       <path id="m7deb91b3e5" d="M 0 0 
L -3.5 0 
" style="stroke: #000000; stroke-width: 0.8"/>
      </defs>
      <g>
       <use xlink:href="#m7deb91b3e5" x="46.44875" y="391.525" style="stroke: #000000; stroke-width: 0.8"/>
      </g>
     </g>
     <g id="text_4">
      <!-- 0.0 -->
      <g transform="translate(24.44875 394.9625) scale(0.1 -0.1)">
       <defs>
        <path id="SimHei-30" d="M 225 2537 
Q 250 3200 412 3587 
Q 575 3975 875 4225 
Q 1175 4475 1612 4475 
Q 2050 4475 2375 4112 
Q 2700 3750 2800 3200 
Q 2900 2650 2862 1937 
Q 2825 1225 2612 775 
Q 2400 325 1975 150 
Q 1550 -25 1125 187 
Q 700 400 525 750 
Q 350 1100 275 1487 
Q 200 1875 225 2537 
z
M 750 2687 
Q 675 2000 800 1462 
Q 925 925 1212 700 
Q 1500 475 1800 612 
Q 2100 750 2237 1162 
Q 2375 1575 2375 2062 
Q 2375 2550 2337 2950 
Q 2300 3350 2112 3675 
Q 1925 4000 1612 4012 
Q 1300 4025 1062 3700 
Q 825 3375 750 2687 
z
" transform="scale(0.015625)"/>
        <path id="SimHei-2e" d="M 1075 125 
L 500 125 
L 500 675 
L 1075 675 
L 1075 125 
z
" transform="scale(0.015625)"/>
       </defs>
       <use xlink:href="#SimHei-30"/>
       <use xlink:href="#SimHei-2e" x="50"/>
       <use xlink:href="#SimHei-30" x="100"/>
      </g>
     </g>
    </g>
    <g id="ytick_2">
     <g id="line2d_7">
      <path d="M 46.44875 340.066446 
L 709.2 340.066446 
" clip-path="url(#pffee93f7f1)" style="fill: none; stroke: #b0b0b0; stroke-opacity: 0.3; stroke-width: 0.8; stroke-linecap: square"/>
     </g>
     <g id="line2d_8">
      <g>
       <use xlink:href="#m7deb91b3e5" x="46.44875" y="340.066446" style="stroke: #000000; stroke-width: 0.8"/>
      </g>
     </g>
     <g id="text_5">
      <!-- 0.2 -->
      <g transform="translate(24.44875 343.503946) scale(0.1 -0.1)">
       <defs>
        <path id="SimHei-32" d="M 300 250 
Q 325 625 650 925 
Q 975 1225 1475 1862 
Q 1975 2500 2125 2850 
Q 2275 3200 2237 3450 
Q 2200 3700 2000 3862 
Q 1800 4025 1537 4000 
Q 1275 3975 1037 3800 
Q 800 3625 675 3275 
L 200 3350 
Q 400 3925 712 4187 
Q 1025 4450 1450 4475 
Q 1700 4500 1900 4462 
Q 2100 4425 2312 4287 
Q 2525 4150 2662 3875 
Q 2800 3600 2762 3212 
Q 2725 2825 2375 2287 
Q 2025 1750 1025 600 
L 2825 600 
L 2825 150 
L 300 150 
L 300 250 
z
" transform="scale(0.015625)"/>
       </defs>
       <use xlink:href="#SimHei-30"/>
       <use xlink:href="#SimHei-2e" x="50"/>
       <use xlink:href="#SimHei-32" x="100"/>
      </g>
     </g>
    </g>
    <g id="ytick_3">
     <g id="line2d_9">
      <path d="M 46.44875 288.607892 
L 709.2 288.607892 
" clip-path="url(#pffee93f7f1)" style="fill: none; stroke: #b0b0b0; stroke-opacity: 0.3; stroke-width: 0.8; stroke-linecap: square"/>
     </g>
     <g id="line2d_10">
      <g>
       <use xlink:href="#m7deb91b3e5" x="46.44875" y="288.607892" style="stroke: #000000; stroke-width: 0.8"/>
      </g>
     </g>
     <g id="text_6">
      <!-- 0.4 -->
      <g transform="translate(24.44875 292.045392) scale(0.1 -0.1)">
       <defs>
        <path id="SimHei-34" d="M 2000 1100 
L 75 1100 
L 75 1525 
L 2100 4450 
L 2475 4450 
L 2475 1525 
L 3075 1525 
L 3075 1100 
L 2475 1100 
L 2475 150 
L 2000 150 
L 2000 1100 
z
M 2000 1525 
L 2000 3500 
L 600 1525 
L 2000 1525 
z
" transform="scale(0.015625)"/>
       </defs>
       <use xlink:href="#SimHei-30"/>
       <use xlink:href="#SimHei-2e" x="50"/>
       <use xlink:href="#SimHei-34" x="100"/>
      </g>
     </g>
    </g>
    <g id="ytick_4">
     <g id="line2d_11">
      <path d="M 46.44875 237.149339 
L 709.2 237.149339 
" clip-path="url(#pffee93f7f1)" style="fill: none; stroke: #b0b0b0; stroke-opacity: 0.3; stroke-width: 0.8; stroke-linecap: square"/>
     </g>
     <g id="line2d_12">
      <g>
       <use xlink:href="#m7deb91b3e5" x="46.44875" y="237.149339" style="stroke: #000000; stroke-width: 0.8"/>
      </g>
     </g>
     <g id="text_7">
      <!-- 0.6 -->
      <g transform="translate(24.44875 240.586839) scale(0.1 -0.1)">
       <defs>
        <path id="SimHei-36" d="M 250 1612 
Q 275 1975 387 2225 
Q 500 2475 725 2850 
L 1750 4450 
L 2325 4450 
L 1275 2800 
Q 1950 2975 2350 2750 
Q 2750 2525 2887 2237 
Q 3025 1950 3037 1612 
Q 3050 1275 2937 950 
Q 2825 625 2537 362 
Q 2250 100 1737 75 
Q 1225 50 862 262 
Q 500 475 362 862 
Q 225 1250 250 1612 
z
M 1025 787 
Q 1250 550 1625 525 
Q 2000 500 2250 775 
Q 2500 1050 2500 1575 
Q 2500 2100 2187 2300 
Q 1875 2500 1487 2450 
Q 1100 2400 925 2075 
Q 750 1750 775 1387 
Q 800 1025 1025 787 
z
" transform="scale(0.015625)"/>
       </defs>
       <use xlink:href="#SimHei-30"/>
       <use xlink:href="#SimHei-2e" x="50"/>
       <use xlink:href="#SimHei-36" x="100"/>
      </g>
     </g>
    </g>
    <g id="ytick_5">
     <g id="line2d_13">
      <path d="M 46.44875 185.690785 
L 709.2 185.690785 
" clip-path="url(#pffee93f7f1)" style="fill: none; stroke: #b0b0b0; stroke-opacity: 0.3; stroke-width: 0.8; stroke-linecap: square"/>
     </g>
     <g id="line2d_14">
      <g>
       <use xlink:href="#m7deb91b3e5" x="46.44875" y="185.690785" style="stroke: #000000; stroke-width: 0.8"/>
      </g>
     </g>
     <g id="text_8">
      <!-- 0.8 -->
      <g transform="translate(24.44875 189.128285) scale(0.1 -0.1)">
       <defs>
        <path id="SimHei-38" d="M 175 1375 
Q 175 1675 325 1962 
Q 475 2250 825 2425 
Q 525 2600 425 2812 
Q 325 3025 312 3300 
Q 300 3575 387 3775 
Q 475 3975 650 4150 
Q 825 4325 1037 4387 
Q 1250 4450 1500 4450 
Q 1750 4450 1950 4400 
Q 2150 4350 2375 4187 
Q 2600 4025 2700 3725 
Q 2800 3425 2687 3025 
Q 2575 2625 2100 2400 
Q 2525 2275 2700 2012 
Q 2875 1750 2875 1375 
Q 2875 1000 2762 775 
Q 2650 550 2512 400 
Q 2375 250 2137 162 
Q 1900 75 1537 75 
Q 1175 75 912 162 
Q 650 250 475 425 
Q 300 600 237 837 
Q 175 1075 175 1375 
z
M 687 1400 
Q 675 1100 787 875 
Q 900 650 1200 587 
Q 1500 525 1825 600 
Q 2150 675 2275 950 
Q 2400 1225 2362 1500 
Q 2325 1775 2050 1962 
Q 1775 2150 1450 2125 
Q 1125 2100 912 1900 
Q 700 1700 687 1400 
z
M 775 3350 
Q 775 3100 950 2875 
Q 1125 2650 1500 2650 
Q 1875 2650 2062 2875 
Q 2250 3100 2237 3412 
Q 2225 3725 2012 3875 
Q 1800 4025 1437 4000 
Q 1075 3975 925 3787 
Q 775 3600 775 3350 
z
" transform="scale(0.015625)"/>
       </defs>
       <use xlink:href="#SimHei-30"/>
       <use xlink:href="#SimHei-2e" x="50"/>
       <use xlink:href="#SimHei-38" x="100"/>
      </g>
     </g>
    </g>
    <g id="ytick_6">
     <g id="line2d_15">
      <path d="M 46.44875 134.232231 
L 709.2 134.232231 
" clip-path="url(#pffee93f7f1)" style="fill: none; stroke: #b0b0b0; stroke-opacity: 0.3; stroke-width: 0.8; stroke-linecap: square"/>
     </g>
     <g id="line2d_16">
      <g>
       <use xlink:href="#m7deb91b3e5" x="46.44875" y="134.232231" style="stroke: #000000; stroke-width: 0.8"/>
      </g>
     </g>
     <g id="text_9">
      <!-- 1.0 -->
      <g transform="translate(24.44875 137.669731) scale(0.1 -0.1)">
       <defs>
        <path id="SimHei-31" d="M 1400 3600 
Q 1075 3275 575 2975 
L 575 3450 
Q 1200 3875 1600 4450 
L 1900 4450 
L 1900 150 
L 1400 150 
L 1400 3600 
z
" transform="scale(0.015625)"/>
       </defs>
       <use xlink:href="#SimHei-31"/>
       <use xlink:href="#SimHei-2e" x="50"/>
       <use xlink:href="#SimHei-30" x="100"/>
      </g>
     </g>
    </g>
    <g id="ytick_7">
     <g id="line2d_17">
      <path d="M 46.44875 82.773677 
L 709.2 82.773677 
" clip-path="url(#pffee93f7f1)" style="fill: none; stroke: #b0b0b0; stroke-opacity: 0.3; stroke-width: 0.8; stroke-linecap: square"/>
     </g>
     <g id="line2d_18">
      <g>
       <use xlink:href="#m7deb91b3e5" x="46.44875" y="82.773677" style="stroke: #000000; stroke-width: 0.8"/>
      </g>
     </g>
     <g id="text_10">
      <!-- 1.2 -->
      <g transform="translate(24.44875 86.211177) scale(0.1 -0.1)">
       <use xlink:href="#SimHei-31"/>
       <use xlink:href="#SimHei-2e" x="50"/>
       <use xlink:href="#SimHei-32" x="100"/>
      </g>
     </g>
    </g>
    <g id="ytick_8">
     <g id="line2d_19">
      <path d="M 46.44875 31.315123 
L 709.2 31.315123 
" clip-path="url(#pffee93f7f1)" style="fill: none; stroke: #b0b0b0; stroke-opacity: 0.3; stroke-width: 0.8; stroke-linecap: square"/>
     </g>
     <g id="line2d_20">
      <g>
       <use xlink:href="#m7deb91b3e5" x="46.44875" y="31.315123" style="stroke: #000000; stroke-width: 0.8"/>
      </g>
     </g>
     <g id="text_11">
      <!-- 1.4 -->
      <g transform="translate(24.44875 34.752623) scale(0.1 -0.1)">
       <use xlink:href="#SimHei-31"/>
       <use xlink:href="#SimHei-2e" x="50"/>
       <use xlink:href="#SimHei-34" x="100"/>
      </g>
     </g>
    </g>
    <g id="text_12">
     <!-- 价格歧视指数 -->
     <g transform="translate(19.19875 239.16875) rotate(-90) scale(0.1 -0.1)">
      <defs>
       <path id="SimHei-4ef7" d="M 2200 4975 
Q 2050 4725 1650 3775 
L 1650 450 
Q 1650 -225 1675 -650 
L 1175 -650 
Q 1175 -225 1200 450 
L 1200 2975 
Q 900 2425 650 2100 
Q 525 2275 225 2450 
Q 750 3025 1125 3800 
Q 1500 4575 1625 5175 
Q 1950 5025 2200 4975 
z
M 4175 4700 
Q 4850 3525 6150 2950 
Q 5925 2750 5775 2500 
Q 4725 3100 3950 4300 
Q 3300 3125 2250 2350 
Q 2125 2525 1900 2725 
Q 2825 3325 3250 4050 
Q 3675 4775 3750 5150 
Q 4150 4950 4325 4900 
L 4175 4700 
z
M 3475 2650 
Q 3400 2075 3325 1087 
Q 3250 100 2325 -675 
Q 2175 -450 1925 -300 
Q 2850 350 2912 1262 
Q 2975 2175 2950 2700 
Q 3275 2650 3475 2650 
z
M 5075 2700 
Q 5050 2150 5050 1725 
L 5050 150 
Q 5050 -225 5075 -650 
L 4550 -650 
Q 4575 -225 4575 175 
L 4575 1875 
Q 4575 2150 4550 2700 
L 5075 2700 
z
" transform="scale(0.015625)"/>
       <path id="SimHei-683c" d="M 4075 4875 
Q 3975 4750 3750 4350 
L 5625 4350 
Q 5450 3850 5212 3437 
Q 4975 3025 4650 2650 
Q 4950 2450 5412 2287 
Q 5875 2125 6150 2100 
Q 5975 1900 5875 1600 
Q 5550 1725 5125 1912 
Q 4700 2100 4300 2400 
Q 3925 2125 3537 1937 
Q 3150 1750 2575 1550 
Q 2475 1775 2300 1925 
Q 2825 2050 3262 2250 
Q 3700 2450 3975 2675 
Q 3625 3050 3325 3575 
Q 3175 3350 2875 2950 
Q 2700 3100 2475 3200 
Q 2825 3550 3112 4075 
Q 3400 4600 3550 5100 
Q 3775 4950 4075 4875 
z
M 5575 1650 
Q 5550 1350 5550 575 
Q 5550 -200 5575 -575 
L 5050 -575 
L 5050 -175 
L 3500 -175 
L 3500 -600 
L 2975 -600 
Q 3000 -200 3000 550 
Q 3000 1325 2975 1650 
L 5575 1650 
z
M 1850 5100 
Q 1825 4775 1825 4475 
L 1825 3825 
Q 2300 3825 2525 3850 
L 2525 3400 
Q 2300 3425 1825 3425 
L 1825 2725 
Q 1950 2800 2125 2950 
Q 2350 2600 2550 2200 
Q 2350 2075 2175 1950 
Q 1975 2375 1825 2625 
L 1825 275 
Q 1825 -275 1850 -625 
L 1350 -625 
Q 1375 -275 1375 275 
L 1375 2425 
Q 1150 1850 625 850 
Q 475 1025 250 1150 
Q 650 1775 900 2375 
Q 1150 2975 1250 3425 
Q 900 3425 475 3400 
L 475 3850 
Q 925 3825 1375 3825 
L 1375 4475 
Q 1375 4750 1350 5100 
L 1850 5100 
z
M 5050 200 
L 5050 1275 
L 3500 1275 
L 3500 200 
L 5050 200 
z
M 4300 2925 
Q 4675 3300 4975 3975 
L 3550 3975 
Q 3850 3350 4300 2925 
z
" transform="scale(0.015625)"/>
       <path id="SimHei-6b67" d="M 2825 2475 
L 2825 2900 
Q 3225 2875 3575 2875 
L 4075 2875 
L 4075 3925 
L 3550 3925 
Q 3225 3925 2675 3900 
L 2675 4350 
Q 3200 4325 3550 4325 
L 4075 4325 
Q 4075 4850 4050 5250 
L 4550 5250 
Q 4525 4850 4525 4325 
L 5275 4325 
Q 5750 4325 6050 4350 
L 6050 3900 
Q 5750 3925 5300 3925 
L 4525 3925 
L 4525 2875 
L 5700 2875 
Q 5500 1975 5237 1475 
Q 4975 975 4650 625 
Q 5050 275 5400 125 
Q 5750 -25 6175 -125 
Q 5900 -350 5775 -600 
Q 5300 -375 4937 -150 
Q 4575 75 4325 300 
Q 3900 0 3525 -200 
Q 3150 -400 2500 -625 
Q 2375 -375 2150 -150 
Q 2675 -75 3225 162 
Q 3775 400 4025 625 
Q 3325 1450 3175 2475 
L 2825 2475 
z
M 2875 1000 
Q 2150 850 1537 637 
Q 925 425 600 275 
Q 450 600 325 800 
Q 500 825 700 850 
L 700 3200 
Q 700 3675 650 4000 
L 1150 4000 
Q 1100 3675 1100 3200 
L 1100 975 
Q 1350 1025 1650 1100 
L 1650 4250 
Q 1650 4650 1600 5025 
L 2100 5025 
Q 2075 4700 2075 4250 
L 2075 3375 
Q 2400 3375 2725 3400 
L 2725 2950 
Q 2400 2975 2075 2975 
L 2075 1225 
Q 2525 1375 2900 1475 
Q 2875 1250 2875 1000 
z
M 3600 2475 
Q 3775 1675 4350 950 
Q 4875 1525 5150 2475 
L 3600 2475 
z
" transform="scale(0.015625)"/>
       <path id="SimHei-89c6" d="M 4500 3875 
Q 4400 3700 4375 3187 
Q 4350 2675 4225 1750 
L 4675 1750 
Q 4650 1500 4650 1075 
L 4650 400 
Q 4650 25 4825 12 
Q 5000 0 5225 0 
Q 5475 0 5537 100 
Q 5600 200 5650 725 
Q 5925 550 6175 500 
Q 6000 -425 5600 -425 
L 4600 -425 
Q 4200 -400 4200 100 
L 4200 1600 
Q 3900 800 3525 325 
Q 3150 -150 2500 -650 
Q 2300 -425 2050 -325 
Q 2750 100 3150 625 
Q 3550 1150 3712 1725 
Q 3875 2300 3900 2875 
Q 3925 3450 3875 3975 
Q 4175 3925 4500 3875 
z
M 5525 4875 
Q 5500 4475 5500 3925 
L 5500 2550 
Q 5500 2100 5525 1625 
L 5050 1625 
L 5050 4475 
L 3275 4475 
L 3275 1600 
L 2800 1600 
Q 2825 2025 2825 2525 
L 2825 3900 
Q 2825 4425 2800 4875 
L 5525 4875 
z
M 2275 3900 
Q 2200 3650 2062 3287 
Q 1925 2925 1650 2475 
L 1650 475 
Q 1650 25 1675 -625 
L 1175 -625 
Q 1200 75 1200 500 
L 1200 1875 
Q 950 1525 500 1125 
Q 350 1375 200 1525 
Q 725 1925 1100 2475 
Q 1475 3025 1650 3500 
L 1025 3500 
Q 650 3500 350 3475 
L 350 3925 
Q 725 3900 1025 3900 
L 2275 3900 
z
M 1350 5225 
Q 1675 4750 1900 4400 
Q 1725 4275 1450 4100 
Q 1250 4550 950 4950 
Q 1175 5075 1350 5225 
z
M 2025 2500 
Q 2325 2075 2550 1675 
Q 2350 1575 2150 1375 
Q 1925 1825 1675 2225 
Q 1850 2350 2025 2500 
z
" transform="scale(0.015625)"/>
       <path id="SimHei-6307" d="M 5625 2225 
Q 5600 1925 5600 1350 
L 5600 300 
Q 5600 -225 5625 -525 
L 5125 -525 
L 5125 -125 
L 3300 -125 
L 3300 -625 
L 2800 -625 
Q 2825 -300 2825 300 
L 2825 1350 
Q 2825 1925 2800 2225 
L 5625 2225 
z
M 500 25 
Q 1075 -25 1175 37 
Q 1275 100 1275 275 
L 1275 1675 
Q 1050 1600 925 1537 
Q 800 1475 475 1275 
Q 400 1525 225 1800 
Q 625 1900 825 1975 
Q 1025 2050 1275 2125 
L 1275 3300 
L 1100 3300 
Q 775 3300 450 3275 
L 450 3725 
Q 750 3700 1100 3700 
L 1275 3700 
L 1275 4450 
Q 1275 4800 1250 5125 
L 1775 5125 
Q 1750 4850 1750 4450 
L 1750 3700 
Q 2075 3700 2425 3725 
L 2425 3275 
Q 2050 3300 1750 3300 
L 1750 2325 
Q 1850 2350 2025 2425 
L 2375 2575 
Q 2350 2300 2375 2100 
Q 2225 2050 2062 1987 
Q 1900 1925 1750 1850 
L 1750 100 
Q 1725 -200 1575 -337 
Q 1425 -475 675 -525 
Q 625 -250 500 25 
z
M 3325 5025 
Q 3300 4675 3300 4125 
Q 4125 4275 4512 4412 
Q 4900 4550 5225 4725 
Q 5325 4475 5575 4250 
Q 5450 4225 5237 4175 
Q 5025 4125 4725 4050 
Q 4425 3975 4037 3887 
Q 3650 3800 3300 3725 
L 3300 3175 
Q 3275 2925 3700 2925 
L 4925 2925 
Q 5300 2925 5387 3087 
Q 5475 3250 5550 3600 
Q 5750 3400 6050 3300 
Q 5825 2725 5700 2637 
Q 5575 2550 5275 2525 
L 3350 2525 
Q 3050 2525 2937 2687 
Q 2825 2850 2825 2975 
L 2825 4125 
Q 2825 4775 2800 5025 
L 3325 5025 
z
M 5125 275 
L 5125 875 
L 3300 875 
L 3300 275 
L 5125 275 
z
M 5125 1250 
L 5125 1825 
L 3300 1825 
L 3300 1250 
L 5125 1250 
z
" transform="scale(0.015625)"/>
       <path id="SimHei-6570" d="M 4525 4925 
Q 4475 4800 4400 4587 
Q 4325 4375 4175 3825 
L 5325 3825 
Q 5575 3825 5925 3850 
L 5925 3400 
Q 5650 3425 5500 3425 
Q 5500 3025 5362 2162 
Q 5225 1300 4875 675 
Q 5125 375 5437 137 
Q 5750 -100 6025 -200 
Q 5725 -425 5625 -625 
Q 5325 -450 5075 -225 
Q 4825 0 4575 325 
Q 4300 25 3987 -187 
Q 3675 -400 3200 -650 
Q 3075 -425 2850 -300 
Q 3225 -150 3650 125 
Q 4075 400 4300 675 
Q 4125 1025 3962 1425 
Q 3800 1825 3675 2475 
Q 3600 2275 3425 1950 
Q 3250 2050 3000 2150 
Q 3400 2850 3650 3675 
Q 3900 4500 3975 5100 
Q 4275 4975 4525 4925 
z
M 2100 2250 
Q 2000 2150 1875 1925 
L 3250 1925 
Q 3100 1300 2725 675 
Q 3125 525 3350 400 
Q 3225 225 3125 25 
Q 2900 175 2450 325 
Q 1950 -225 725 -650 
Q 600 -375 400 -275 
Q 1575 0 2000 475 
Q 1300 650 850 775 
Q 1000 1000 1250 1525 
Q 1000 1525 425 1500 
L 425 1950 
Q 900 1925 1400 1925 
Q 1500 2150 1550 2425 
Q 1825 2325 2100 2250 
z
M 1775 3950 
Q 1775 4550 1750 5100 
L 2250 5100 
Q 2225 4575 2225 3950 
Q 3075 3950 3425 3975 
L 3425 3525 
Q 3075 3550 2225 3550 
Q 2225 2825 2250 2425 
L 1750 2425 
Q 1775 2775 1775 3300 
Q 1650 3100 1300 2787 
Q 950 2475 650 2300 
Q 525 2525 275 2625 
Q 500 2700 875 2975 
Q 1250 3250 1450 3550 
Q 950 3550 500 3525 
L 500 3975 
Q 925 3950 1775 3950 
z
M 3975 3175 
Q 4200 1700 4600 1125 
Q 4850 1700 4937 2287 
Q 5025 2875 5050 3425 
L 4075 3425 
L 3975 3175 
z
M 1450 1000 
Q 1750 925 2275 800 
Q 2475 1050 2650 1525 
L 1725 1525 
Q 1600 1275 1450 1000 
z
M 3325 4825 
Q 3200 4625 3125 4450 
Q 3050 4275 2925 4025 
Q 2725 4125 2525 4175 
Q 2725 4500 2900 5000 
Q 3150 4875 3325 4825 
z
M 2575 3375 
Q 2900 3050 3200 2725 
Q 3050 2600 2875 2425 
Q 2525 2850 2300 3100 
Q 2450 3225 2575 3375 
z
M 925 5000 
Q 1275 4650 1500 4300 
L 1125 4075 
Q 950 4425 600 4725 
Q 825 4875 925 5000 
z
" transform="scale(0.015625)"/>
      </defs>
      <use xlink:href="#SimHei-4ef7"/>
      <use xlink:href="#SimHei-683c" x="100"/>
      <use xlink:href="#SimHei-6b67" x="200"/>
      <use xlink:href="#SimHei-89c6" x="300"/>
      <use xlink:href="#SimHei-6307" x="400"/>
      <use xlink:href="#SimHei-6570" x="500"/>
     </g>
    </g>
   </g>
   <g id="line2d_21">
    <path clip-path="url(#pffee93f7f1)" style="fill: none; stroke: #424242; stroke-width: 2.25; stroke-linecap: square"/>
   </g>
   <g id="line2d_22">
    <path clip-path="url(#pffee93f7f1)" style="fill: none; stroke: #424242; stroke-width: 2.25; stroke-linecap: square"/>
   </g>
   <g id="patch_5">
    <path d="M 46.44875 391.525 
L 46.44875 26.8125 
" style="fill: none; stroke: #000000; stroke-width: 0.8; stroke-linejoin: miter; stroke-linecap: square"/>
   </g>
   <g id="patch_6">
    <path d="M 709.2 391.525 
L 709.2 26.8125 
" style="fill: none; stroke: #000000; stroke-width: 0.8; stroke-linejoin: miter; stroke-linecap: square"/>
   </g>
   <g id="patch_7">
    <path d="M 46.44875 391.525 
L 709.2 391.525 
" style="fill: none; stroke: #000000; stroke-width: 0.8; stroke-linejoin: miter; stroke-linecap: square"/>
   </g>
   <g id="patch_8">
    <path d="M 46.44875 26.8125 
L 709.2 26.8125 
" style="fill: none; stroke: #000000; stroke-width: 0.8; stroke-linejoin: miter; stroke-linecap: square"/>
   </g>
   <g id="text_13">
    <!-- 最优: 价格区间 -->
    <g transform="translate(177.136563 221.27035) scale(0.1 -0.1)">
     <defs>
      <path id="SimHei-6700" d="M 475 275 
Q 675 300 1100 350 
L 1100 2450 
Q 775 2450 425 2425 
L 425 2850 
Q 775 2825 1125 2825 
L 5025 2825 
Q 5475 2825 5900 2850 
L 5900 2425 
Q 5475 2450 5025 2450 
L 3050 2450 
L 3050 675 
L 3400 775 
Q 3400 550 3425 400 
Q 3225 350 3050 325 
Q 3050 -125 3075 -550 
L 2600 -550 
Q 2625 -125 2625 250 
Q 2350 200 1812 87 
Q 1275 -25 650 -175 
Q 575 100 475 275 
z
M 5100 4925 
Q 5075 4600 5075 4325 
L 5075 3875 
Q 5075 3600 5100 3250 
L 1275 3250 
Q 1300 3600 1300 3875 
L 1300 4325 
Q 1300 4600 1275 4925 
L 5100 4925 
z
M 3300 2050 
Q 3750 2025 4125 2025 
L 5375 2025 
Q 5100 975 4725 400 
Q 5350 0 5925 -100 
Q 5700 -275 5650 -500 
Q 5025 -300 4475 150 
Q 4150 -200 3600 -575 
Q 3500 -425 3250 -275 
Q 3775 -100 4150 350 
Q 3725 775 3500 1675 
L 3300 1675 
L 3300 2050 
z
M 4600 4250 
L 4600 4600 
L 1750 4600 
L 1750 4250 
L 4600 4250 
z
M 4600 3575 
L 4600 3900 
L 1750 3900 
L 1750 3575 
L 4600 3575 
z
M 3900 1675 
Q 4000 1075 4400 625 
Q 4700 1050 4850 1675 
L 3900 1675 
z
M 2625 1250 
L 2625 1675 
L 1525 1675 
L 1525 1250 
L 2625 1250 
z
M 2625 575 
L 2625 925 
L 1525 925 
L 1525 425 
L 2625 575 
z
M 2625 2025 
L 2625 2450 
L 1525 2450 
L 1525 2025 
L 2625 2025 
z
" transform="scale(0.015625)"/>
      <path id="SimHei-4f18" d="M 4650 350 
Q 4625 100 4825 50 
Q 5025 0 5200 12 
Q 5375 25 5462 125 
Q 5550 225 5650 800 
Q 5825 625 6200 525 
Q 6050 -25 5912 -200 
Q 5775 -375 5475 -400 
L 4700 -400 
Q 4175 -400 4175 200 
L 4175 3050 
L 3850 3050 
Q 3725 600 2375 -550 
Q 2200 -325 1875 -225 
Q 3175 675 3350 3050 
L 2900 3050 
Q 2350 3050 1975 3025 
L 1975 3475 
Q 2350 3450 2900 3450 
L 3375 3450 
Q 3375 4700 3350 5150 
Q 3525 5100 3925 5075 
Q 3850 4700 3850 3450 
L 5200 3450 
Q 5475 3450 5925 3475 
L 5925 3025 
Q 5500 3050 5225 3050 
L 4650 3050 
L 4650 350 
z
M 200 2375 
Q 525 2700 1000 3612 
Q 1475 4525 1600 5200 
Q 1850 5050 2225 4925 
Q 2000 4700 1700 3825 
L 1700 600 
Q 1700 -150 1725 -525 
L 1200 -525 
Q 1225 -175 1225 575 
L 1225 2975 
Q 900 2425 550 1975 
Q 425 2200 200 2375 
z
M 4850 5025 
Q 5000 4800 5150 4587 
Q 5300 4375 5450 4200 
Q 5250 4075 5025 3875 
Q 4875 4175 4450 4725 
Q 4625 4850 4850 5025 
z
" transform="scale(0.015625)"/>
      <path id="SimHei-3a" d="M 1825 2425 
L 1250 2425 
L 1250 2975 
L 1825 2975 
L 1825 2425 
z
M 1825 125 
L 1250 125 
L 1250 675 
L 1825 675 
L 1825 125 
z
" transform="scale(0.015625)"/>
      <path id="SimHei-20" transform="scale(0.015625)"/>
      <path id="SimHei-533a" d="M 5850 4525 
Q 5475 4550 4850 4550 
L 1150 4550 
L 1150 -75 
L 5225 -75 
Q 5725 -75 6025 -50 
L 6025 -500 
Q 5700 -475 5175 -475 
L 625 -475 
Q 650 125 650 400 
L 650 4200 
Q 650 4625 625 4975 
L 5850 4975 
L 5850 4525 
z
M 2275 3875 
Q 3150 3275 3800 2700 
Q 4375 3375 4650 4050 
Q 4925 3875 5300 3700 
Q 5025 3525 4825 3225 
Q 4625 2925 4225 2375 
Q 5075 1675 5600 1000 
Q 5300 800 5175 575 
Q 4775 1175 3850 1950 
Q 3475 1525 3087 1175 
Q 2700 825 2125 400 
Q 1900 625 1625 775 
Q 2125 1000 2525 1312 
Q 2925 1625 3475 2300 
Q 2850 2875 1925 3450 
Q 2175 3650 2275 3875 
z
" transform="scale(0.015625)"/>
      <path id="SimHei-95f4" d="M 4450 3550 
Q 4425 3075 4425 2725 
L 4425 1400 
Q 4425 1075 4450 625 
L 1925 625 
Q 1950 1075 1950 1425 
L 1950 2725 
Q 1950 3075 1925 3550 
L 4450 3550 
z
M 5800 4875 
Q 5775 4400 5775 3925 
L 5775 250 
Q 5800 -325 5462 -450 
Q 5125 -575 4725 -625 
Q 4700 -325 4525 -25 
Q 5000 -50 5137 25 
Q 5275 100 5275 350 
L 5275 4450 
L 3775 4450 
Q 3175 4450 2650 4425 
L 2650 4900 
Q 3175 4875 3775 4875 
L 5800 4875 
z
M 550 -525 
Q 600 -25 600 525 
L 600 3150 
Q 600 3675 550 4025 
L 1125 4025 
Q 1100 3650 1100 3300 
L 1100 500 
Q 1100 0 1125 -525 
L 550 -525 
z
M 3950 1025 
L 3950 1950 
L 2425 1950 
L 2425 1025 
L 3950 1025 
z
M 3950 2350 
L 3950 3150 
L 2425 3150 
L 2425 2350 
L 3950 2350 
z
M 1525 5300 
Q 1750 5000 2225 4350 
Q 1950 4225 1700 4075 
Q 1450 4575 1075 5025 
Q 1350 5225 1525 5300 
z
" transform="scale(0.015625)"/>
     </defs>
     <use xlink:href="#SimHei-6700"/>
     <use xlink:href="#SimHei-4f18" x="100"/>
     <use xlink:href="#SimHei-3a" x="200"/>
     <use xlink:href="#SimHei-20" x="250"/>
     <use xlink:href="#SimHei-4ef7" x="300"/>
     <use xlink:href="#SimHei-683c" x="400"/>
     <use xlink:href="#SimHei-533a" x="500"/>
     <use xlink:href="#SimHei-95f4" x="600"/>
    </g>
   </g>
   <g id="text_14">
    <!-- 最优: 价格区间 -->
    <g transform="translate(508.512187 221.27035) scale(0.1 -0.1)">
     <use xlink:href="#SimHei-6700"/>
     <use xlink:href="#SimHei-4f18" x="100"/>
     <use xlink:href="#SimHei-3a" x="200"/>
     <use xlink:href="#SimHei-20" x="250"/>
     <use xlink:href="#SimHei-4ef7" x="300"/>
     <use xlink:href="#SimHei-683c" x="400"/>
     <use xlink:href="#SimHei-533a" x="500"/>
     <use xlink:href="#SimHei-95f4" x="600"/>
    </g>
   </g>
   <g id="text_15">
    <!-- 不同市场的价格歧视指数与最优监管策略 -->
    <g transform="translate(269.824375 20.8125) scale(0.12 -0.12)">
     <defs>
      <path id="SimHei-4e0d" d="M 5975 4450 
Q 5525 4475 5200 4475 
L 3725 4475 
Q 3550 4125 3300 3700 
L 3300 575 
Q 3300 75 3325 -550 
L 2775 -550 
Q 2800 50 2800 575 
L 2800 3025 
Q 2025 1950 700 1050 
Q 500 1350 325 1475 
Q 825 1700 1650 2437 
Q 2475 3175 3175 4475 
L 1525 4475 
Q 1050 4475 525 4450 
L 525 4950 
Q 1275 4925 1675 4925 
L 5175 4925 
Q 5500 4925 5975 4950 
L 5975 4450 
z
M 5450 1125 
Q 4975 1725 3750 2975 
Q 3950 3150 4075 3325 
Q 4675 2775 5100 2362 
Q 5525 1950 5900 1550 
Q 5650 1350 5450 1125 
z
" transform="scale(0.015625)"/>
      <path id="SimHei-540c" d="M 5825 4925 
Q 5775 4550 5775 3975 
L 5775 -50 
Q 5775 -400 5525 -487 
Q 5275 -575 4725 -625 
Q 4725 -400 4525 -50 
Q 4925 -50 5100 -12 
Q 5275 25 5275 200 
L 5275 4450 
L 1150 4450 
L 1150 -600 
L 575 -600 
Q 600 -250 625 200 
L 625 3975 
Q 625 4575 600 4925 
L 5825 4925 
z
M 4375 2550 
Q 4325 2275 4325 1700 
Q 4325 1150 4375 725 
L 2025 725 
Q 2050 1175 2050 1750 
Q 2050 2325 2025 2550 
L 4375 2550 
z
M 4100 3750 
Q 4600 3750 4825 3775 
L 4825 3275 
Q 4575 3300 4075 3300 
L 2450 3300 
Q 1850 3300 1600 3275 
L 1600 3775 
Q 1875 3750 2475 3750 
L 4100 3750 
z
M 3875 1150 
L 3875 2150 
L 2525 2150 
L 2525 1150 
L 3875 1150 
z
" transform="scale(0.015625)"/>
      <path id="SimHei-7684" d="M 2100 4975 
Q 1975 4750 1750 3950 
L 2875 3950 
Q 2850 3525 2850 2875 
L 2850 675 
Q 2850 300 2875 -400 
L 2375 -400 
L 2375 100 
L 1100 100 
L 1100 -450 
L 600 -450 
Q 625 350 625 550 
L 625 2850 
Q 625 3525 600 3950 
L 1325 3950 
Q 1450 4525 1525 5150 
Q 1875 5025 2100 4975 
z
M 5825 3075 
Q 5800 1550 5700 175 
Q 5650 -275 5225 -425 
Q 4800 -575 4275 -625 
Q 4250 -350 4050 -50 
Q 4550 -75 4837 -25 
Q 5125 25 5200 200 
Q 5275 375 5312 1225 
Q 5350 2075 5375 3600 
L 3925 3600 
Q 3725 3125 3350 2475 
Q 3175 2650 2925 2750 
Q 3150 3050 3350 3475 
Q 3550 3900 3700 4400 
Q 3850 4900 3875 5175 
Q 4225 5025 4475 4950 
Q 4350 4750 4262 4512 
Q 4175 4275 4075 4050 
L 5850 4050 
Q 5825 3525 5825 3075 
z
M 2375 525 
L 2375 1850 
L 1100 1850 
L 1100 525 
L 2375 525 
z
M 2375 2275 
L 2375 3525 
L 1100 3525 
L 1100 2275 
L 2375 2275 
z
M 4350 2050 
Q 4500 1750 4700 1275 
Q 4525 1200 4225 1025 
Q 4050 1500 3900 1837 
Q 3750 2175 3600 2400 
Q 3775 2500 4050 2650 
L 4350 2050 
z
" transform="scale(0.015625)"/>
      <path id="SimHei-4e0e" d="M 5350 100 
Q 5275 -300 4925 -425 
Q 4575 -550 3900 -600 
Q 3875 -375 3650 -25 
Q 4375 -50 4575 0 
Q 4775 50 4837 225 
Q 4900 400 5100 2350 
L 1125 2350 
Q 1450 4350 1475 5200 
Q 1800 5150 2075 5125 
Q 1975 4825 1900 4275 
L 4900 4275 
Q 5400 4275 5800 4300 
L 5800 3825 
Q 5400 3850 4950 3850 
L 1850 3850 
L 1700 2750 
L 5675 2750 
Q 5625 2450 5575 2050 
L 5350 100 
z
M 3675 1350 
Q 4125 1350 4500 1375 
L 4500 875 
Q 4125 900 3850 900 
L 1450 900 
Q 1000 900 500 875 
L 500 1375 
Q 1000 1350 1450 1350 
L 3675 1350 
z
" transform="scale(0.015625)"/>
      <path id="SimHei-76d1" d="M 5525 1775 
Q 5500 1350 5500 950 
L 5500 0 
Q 5850 0 6175 50 
L 6175 -475 
Q 5575 -425 4875 -425 
L 1425 -425 
Q 725 -425 225 -475 
L 225 50 
Q 600 0 925 0 
L 925 950 
Q 925 1350 900 1775 
L 5525 1775 
z
M 4600 5025 
Q 4425 4800 4337 4562 
Q 4250 4325 4175 4125 
L 5300 4125 
Q 5725 4125 6150 4150 
L 6150 3675 
Q 5750 3725 5275 3725 
L 4050 3725 
Q 3800 3125 3375 2425 
Q 3175 2575 2900 2675 
Q 3100 2925 3312 3362 
Q 3525 3800 3700 4325 
Q 3875 4850 3975 5250 
Q 4300 5125 4600 5025 
z
M 2750 5200 
Q 2700 4950 2700 4475 
L 2700 3050 
Q 2700 2600 2725 2075 
L 2200 2075 
Q 2225 2600 2225 3050 
L 2225 4425 
Q 2225 4775 2200 5200 
L 2750 5200 
z
M 1450 4900 
Q 1400 4575 1400 4125 
L 1400 3200 
Q 1400 2825 1425 2325 
L 900 2325 
Q 925 2825 925 3200 
L 925 4200 
Q 925 4550 900 4900 
L 1450 4900 
z
M 5025 -25 
L 5025 1325 
L 4125 1325 
L 4125 -25 
L 5025 -25 
z
M 2300 -25 
L 2300 1325 
L 1400 1325 
L 1400 -25 
L 2300 -25 
z
M 3650 -25 
L 3650 1325 
L 2775 1325 
L 2775 -25 
L 3650 -25 
z
M 4575 3500 
Q 4850 3300 5100 3037 
Q 5350 2775 5625 2475 
Q 5450 2325 5225 2125 
L 4725 2675 
Q 4475 2950 4250 3150 
Q 4400 3350 4575 3500 
z
" transform="scale(0.015625)"/>
      <path id="SimHei-7ba1" d="M 4975 2550 
Q 4950 2150 4950 1950 
Q 4950 1775 4975 1400 
L 1900 1400 
L 1900 975 
L 5225 975 
Q 5200 425 5200 150 
Q 5200 -100 5225 -550 
L 4725 -550 
L 4725 -300 
L 1900 -300 
L 1900 -625 
L 1375 -625 
Q 1400 25 1400 150 
L 1400 1725 
Q 1400 2150 1375 2550 
L 4975 2550 
z
M 3200 4050 
Q 3500 3475 3550 3350 
L 6000 3350 
Q 5975 3000 5975 2825 
Q 5975 2675 6000 2375 
L 5450 2375 
L 5450 2950 
L 925 2950 
L 925 2350 
L 375 2350 
Q 400 2575 400 2800 
Q 400 3025 375 3350 
L 2975 3350 
Q 2900 3550 2725 3850 
Q 2975 3900 3200 4050 
z
M 3250 4275 
Q 2850 4300 2325 4300 
L 2575 3800 
Q 2275 3725 2050 3625 
Q 1975 3975 1850 4300 
L 1525 4300 
Q 1300 4025 1137 3862 
Q 975 3700 750 3525 
Q 600 3725 300 3875 
Q 825 4225 1100 4575 
Q 1375 4925 1500 5300 
Q 1725 5200 2125 5100 
Q 1950 4925 1800 4700 
L 2625 4700 
Q 2925 4700 3250 4725 
L 3250 4275 
z
M 4925 3600 
Q 4850 3950 4700 4300 
L 4225 4300 
Q 4000 3950 3850 3725 
Q 3575 3875 3350 4000 
Q 3650 4275 3825 4587 
Q 4000 4900 4100 5275 
Q 4375 5175 4725 5100 
Q 4525 4925 4425 4700 
L 5400 4700 
Q 5625 4700 6125 4725 
L 6125 4275 
Q 5750 4300 5175 4300 
L 5425 3800 
L 4925 3600 
z
M 4725 75 
L 4725 575 
L 1900 575 
L 1900 75 
L 4725 75 
z
M 4475 1775 
L 4475 2175 
L 1900 2175 
L 1900 1775 
L 4475 1775 
z
" transform="scale(0.015625)"/>
      <path id="SimHei-7b56" d="M 4600 750 
Q 4525 1000 4325 1275 
Q 4625 1275 4787 1300 
Q 4950 1325 4950 1500 
L 4950 1950 
L 3425 1950 
L 3425 1575 
Q 3625 1250 3950 987 
Q 4275 725 4625 537 
Q 4975 350 5325 237 
Q 5675 125 6150 50 
Q 5850 -200 5725 -525 
Q 5375 -400 5050 -237 
Q 4725 -75 4437 100 
Q 4150 275 3887 487 
Q 3625 700 3425 950 
L 3425 275 
Q 3425 -75 3450 -675 
L 2950 -675 
Q 2975 -75 2975 275 
L 2975 1150 
Q 2700 750 2275 375 
Q 1850 0 1575 -175 
Q 1300 -350 825 -650 
Q 725 -475 350 -225 
Q 675 -100 975 50 
Q 1275 200 1650 462 
Q 2025 725 2387 1112 
Q 2750 1500 2950 1950 
L 1500 1950 
L 1500 825 
L 1000 825 
Q 1025 1325 1025 1675 
Q 1025 2025 1000 2325 
L 2975 2325 
L 2975 2825 
L 1425 2825 
Q 1000 2825 550 2800 
L 550 3250 
Q 1000 3225 1400 3225 
L 2975 3225 
Q 2975 3475 2950 3650 
L 3450 3650 
Q 3425 3450 3425 3225 
L 5175 3225 
Q 5500 3225 5925 3250 
L 5925 2800 
Q 5525 2825 5200 2825 
L 3425 2825 
L 3425 2325 
L 5425 2325 
Q 5400 2025 5400 1725 
Q 5400 1450 5375 1225 
Q 5350 1000 5137 900 
Q 4925 800 4600 750 
z
M 4525 5050 
Q 4300 4850 4200 4675 
L 5175 4675 
Q 5600 4675 6075 4700 
L 6075 4250 
Q 5600 4275 4875 4275 
Q 4950 4025 5050 3675 
Q 4775 3625 4550 3550 
Q 4500 3975 4400 4275 
L 3950 4275 
Q 3750 4000 3525 3700 
Q 3300 3850 3075 3925 
Q 3375 4225 3612 4612 
Q 3850 5000 3950 5300 
Q 4175 5150 4525 5050 
z
M 1950 5075 
Q 1700 4850 1550 4675 
L 2275 4675 
Q 2625 4675 3125 4700 
L 3125 4250 
Q 2625 4275 2200 4275 
Q 2275 4000 2375 3650 
Q 2150 3600 1925 3500 
Q 1850 3850 1750 4275 
L 1300 4275 
Q 1025 3950 650 3600 
Q 475 3750 225 3900 
Q 625 4175 925 4562 
Q 1225 4950 1425 5300 
Q 1675 5175 1950 5075 
z
" transform="scale(0.015625)"/>
      <path id="SimHei-7565" d="M 2650 4525 
Q 2625 3950 2625 3500 
L 2625 1250 
Q 2625 825 2650 225 
L 2200 225 
L 2200 550 
L 875 550 
L 875 75 
L 400 75 
Q 450 475 450 975 
L 450 3500 
Q 450 4075 400 4525 
L 2650 4525 
z
M 4250 5025 
Q 4100 4875 3950 4525 
L 5625 4525 
Q 5475 4050 5212 3575 
Q 4950 3100 4625 2750 
Q 4900 2500 5312 2362 
Q 5725 2225 6100 2175 
Q 5900 1900 5825 1675 
Q 5475 1750 5050 1937 
Q 4625 2125 4300 2425 
Q 4100 2275 3775 2050 
Q 3450 1825 2950 1600 
Q 2850 1850 2675 2050 
Q 3050 2175 3337 2312 
Q 3625 2450 4025 2775 
Q 3875 2975 3750 3200 
Q 3625 3425 3525 3625 
Q 3375 3350 3100 2950 
Q 3000 3100 2675 3250 
Q 3025 3625 3287 4187 
Q 3550 4750 3650 5250 
Q 3925 5125 4250 5025 
z
M 5500 1725 
Q 5475 1425 5475 1050 
L 5475 75 
Q 5475 -250 5500 -625 
L 5025 -625 
L 5025 -150 
L 3725 -150 
L 3725 -650 
L 3250 -650 
Q 3275 -225 3275 125 
L 3275 1025 
Q 3275 1400 3250 1725 
L 5500 1725 
z
M 5025 275 
L 5025 1325 
L 3725 1325 
L 3725 275 
L 5025 275 
z
M 4350 3075 
Q 4725 3500 5000 4150 
L 3775 4150 
Q 3975 3525 4350 3075 
z
M 1325 950 
L 1325 2375 
L 875 2375 
L 875 950 
L 1325 950 
z
M 2200 950 
L 2200 2375 
L 1750 2375 
L 1750 950 
L 2200 950 
z
M 1325 2775 
L 1325 4150 
L 875 4150 
L 875 2775 
L 1325 2775 
z
M 2200 2775 
L 2200 4150 
L 1750 4150 
L 1750 2775 
L 2200 2775 
z
" transform="scale(0.015625)"/>
     </defs>
     <use xlink:href="#SimHei-4e0d"/>
     <use xlink:href="#SimHei-540c" x="100"/>
     <use xlink:href="#SimHei-5e02" x="200"/>
     <use xlink:href="#SimHei-573a" x="300"/>
     <use xlink:href="#SimHei-7684" x="400"/>
     <use xlink:href="#SimHei-4ef7" x="500"/>
     <use xlink:href="#SimHei-683c" x="600"/>
     <use xlink:href="#SimHei-6b67" x="700"/>
     <use xlink:href="#SimHei-89c6" x="800"/>
     <use xlink:href="#SimHei-6307" x="900"/>
     <use xlink:href="#SimHei-6570" x="1000"/>
     <use xlink:href="#SimHei-4e0e" x="1100"/>
     <use xlink:href="#SimHei-6700" x="1200"/>
     <use xlink:href="#SimHei-4f18" x="1300"/>
     <use xlink:href="#SimHei-76d1" x="1400"/>
     <use xlink:href="#SimHei-7ba1" x="1500"/>
     <use xlink:href="#SimHei-7b56" x="1600"/>
     <use xlink:href="#SimHei-7565" x="1700"/>
    </g>
   </g>
  </g>
 </g>
 <defs>
  <clipPath id="pffee93f7f1">
   <rect x="46.44875" y="26.8125" width="662.75125" height="364.7125"/>
  </clipPath>
 </defs>
</svg>
