<?xml version="1.0" encoding="utf-8" standalone="no"?>
<!DOCTYPE svg PUBLIC "-//W3C//DTD SVG 1.1//EN"
  "http://www.w3.org/Graphics/SVG/1.1/DTD/svg11.dtd">
<svg xmlns:xlink="http://www.w3.org/1999/xlink" width="1080pt" height="432pt" viewBox="0 0 1080 432" xmlns="http://www.w3.org/2000/svg" version="1.1">
 <metadata>
  <rdf:RDF xmlns:dc="http://purl.org/dc/elements/1.1/" xmlns:cc="http://creativecommons.org/ns#" xmlns:rdf="http://www.w3.org/1999/02/22-rdf-syntax-ns#">
   <cc:Work>
    <dc:type rdf:resource="http://purl.org/dc/dcmitype/StillImage"/>
    <dc:date>2025-04-13T15:13:04.176367</dc:date>
    <dc:format>image/svg+xml</dc:format>
    <dc:creator>
     <cc:Agent>
      <dc:title>Matplotlib v3.9.2, https://matplotlib.org/</dc:title>
     </cc:Agent>
    </dc:creator>
   </cc:Work>
  </rdf:RDF>
 </metadata>
 <defs>
  <style type="text/css">*{stroke-linejoin: round; stroke-linecap: butt}</style>
 </defs>
 <g id="figure_1">
  <g id="patch_1">
   <path d="M 0 432 
L 1080 432 
L 1080 0 
L 0 0 
z
" style="fill: #ffffff"/>
  </g>
  <g id="axes_1">
   <g id="patch_2">
    <path d="M 56.045 391.525 
L 534.40875 391.525 
L 534.40875 26.84625 
L 56.045 26.84625 
z
" style="fill: #ffffff"/>
   </g>
   <g id="patch_3">
    <path d="M 79.963188 209.185625 
L 175.635938 209.185625 
L 175.635938 209.185625 
L 79.963188 209.185625 
z
" clip-path="url(#p271e450e04)" style="fill: #3274a1"/>
   </g>
   <g id="patch_4">
    <path d="M 319.145063 209.185625 
L 414.817813 209.185625 
L 414.817813 209.185625 
L 319.145063 209.185625 
z
" clip-path="url(#p271e450e04)" style="fill: #3274a1"/>
   </g>
   <g id="patch_5">
    <path d="M 175.635938 209.185625 
L 271.308688 209.185625 
L 271.308688 209.185625 
L 175.635938 209.185625 
z
" clip-path="url(#p271e450e04)" style="fill: #e1812c"/>
   </g>
   <g id="patch_6">
    <path d="M 414.817813 209.185625 
L 510.490563 209.185625 
L 510.490563 209.185625 
L 414.817813 209.185625 
z
" clip-path="url(#p271e450e04)" style="fill: #e1812c"/>
   </g>
   <g id="patch_7">
    <path d="M 175.635938 209.185625 
L 175.635938 209.185625 
L 175.635938 209.185625 
L 175.635938 209.185625 
z
" clip-path="url(#p271e450e04)" style="fill: #3274a1"/>
   </g>
   <g id="patch_8">
    <path d="M 175.635938 209.185625 
L 175.635938 209.185625 
L 175.635938 209.185625 
L 175.635938 209.185625 
z
" clip-path="url(#p271e450e04)" style="fill: #e1812c"/>
   </g>
   <g id="matplotlib.axis_1">
    <g id="xtick_1">
     <g id="line2d_1">
      <path d="M 175.635938 391.525 
L 175.635938 26.84625 
" clip-path="url(#p271e450e04)" style="fill: none; stroke: #b0b0b0; stroke-opacity: 0.3; stroke-width: 0.8; stroke-linecap: square"/>
     </g>
     <g id="line2d_2">
      <defs>
       <path id="m96f946ce47" d="M 0 0 
L 0 3.5 
" style="stroke: #000000; stroke-width: 0.8"/>
      </defs>
      <g>
       <use xlink:href="#m96f946ce47" x="175.635938" y="391.525" style="stroke: #000000; stroke-width: 0.8"/>
      </g>
     </g>
     <g id="text_1">
      <!-- 航空 -->
      <g transform="translate(165.635938 406.610937) scale(0.1 -0.1)">
       <defs>
        <path id="SimHei-822a" d="M 2000 5000 
Q 1850 4725 1650 4275 
L 2600 4275 
L 2600 150 
Q 2600 -250 2425 -350 
Q 2250 -450 1750 -525 
Q 1700 -250 1550 25 
Q 1950 0 2062 25 
Q 2175 50 2175 350 
L 2175 1975 
L 1125 1975 
Q 1125 1400 1087 962 
Q 1050 525 950 137 
Q 850 -250 650 -675 
Q 450 -500 200 -450 
Q 525 125 612 662 
Q 700 1200 700 1975 
Q 525 1975 275 1950 
L 275 2375 
Q 550 2350 700 2350 
L 700 3450 
Q 700 3825 675 4275 
L 1200 4275 
Q 1400 4750 1475 5175 
Q 1750 5075 2000 5000 
z
M 5200 2975 
Q 5175 2650 5175 2075 
L 5175 300 
Q 5175 0 5325 0 
L 5450 0 
Q 5575 0 5625 150 
Q 5675 300 5675 625 
Q 5900 475 6175 425 
Q 6075 -50 5975 -225 
Q 5875 -400 5550 -400 
L 5150 -400 
Q 4725 -400 4725 100 
L 4725 2575 
L 3825 2575 
Q 3825 1725 3800 1237 
Q 3775 750 3587 287 
Q 3400 -175 2950 -675 
Q 2800 -450 2550 -350 
Q 3075 125 3212 575 
Q 3350 1025 3362 1362 
Q 3375 1700 3375 2125 
Q 3375 2550 3350 2975 
L 5200 2975 
z
M 2175 2350 
L 2175 3900 
L 1125 3900 
L 1125 2350 
L 2175 2350 
z
M 5925 3675 
Q 5625 3700 5300 3700 
L 3500 3700 
Q 3225 3700 2975 3675 
L 2975 4125 
Q 3250 4100 3475 4100 
L 5325 4100 
Q 5625 4100 5925 4125 
L 5925 3675 
z
M 4125 5225 
Q 4450 4725 4625 4375 
Q 4325 4250 4150 4150 
Q 4000 4525 3700 5000 
Q 3950 5125 4125 5225 
z
M 1550 1675 
Q 1800 1250 2025 825 
Q 1850 725 1650 600 
Q 1425 1125 1225 1450 
Q 1400 1550 1550 1675 
z
M 2000 2800 
Q 1800 2725 1625 2625 
Q 1525 2925 1275 3425 
Q 1425 3500 1625 3625 
L 2000 2800 
z
" transform="scale(0.015625)"/>
        <path id="SimHei-7a7a" d="M 4025 1925 
Q 4700 1925 5225 1975 
L 5225 1450 
Q 4725 1500 4025 1500 
L 3475 1500 
L 3475 0 
L 5000 0 
Q 5725 0 6175 50 
L 6175 -475 
Q 5750 -425 5050 -425 
L 1750 -425 
Q 775 -425 350 -475 
L 350 50 
Q 825 0 1800 0 
L 2925 0 
L 2925 1500 
L 2300 1500 
Q 1625 1500 1125 1450 
L 1125 1975 
Q 1600 1925 2375 1925 
L 4025 1925 
z
M 5250 3250 
L 5250 3925 
L 1150 3925 
L 1150 3175 
L 600 3175 
Q 625 3425 625 3750 
Q 625 4100 600 4375 
L 3100 4375 
Q 2950 4725 2750 5075 
Q 3000 5200 3300 5300 
Q 3500 4850 3650 4525 
Q 3400 4450 3175 4375 
L 5825 4375 
Q 5800 4150 5800 3775 
Q 5800 3425 5825 3250 
L 5250 3250 
z
M 3975 3525 
Q 4275 3400 4762 3175 
Q 5250 2950 5925 2550 
Q 5675 2275 5575 2075 
Q 5100 2375 4650 2625 
Q 4200 2875 3675 3125 
Q 3800 3275 3975 3525 
z
M 2700 3225 
Q 2425 3100 1937 2737 
Q 1450 2375 825 2000 
Q 675 2225 450 2450 
Q 925 2650 1375 2962 
Q 1825 3275 2150 3650 
Q 2400 3425 2700 3225 
z
" transform="scale(0.015625)"/>
       </defs>
       <use xlink:href="#SimHei-822a"/>
       <use xlink:href="#SimHei-7a7a" x="100"/>
      </g>
     </g>
    </g>
    <g id="xtick_2">
     <g id="line2d_3">
      <path d="M 414.817813 391.525 
L 414.817813 26.84625 
" clip-path="url(#p271e450e04)" style="fill: none; stroke: #b0b0b0; stroke-opacity: 0.3; stroke-width: 0.8; stroke-linecap: square"/>
     </g>
     <g id="line2d_4">
      <g>
       <use xlink:href="#m96f946ce47" x="414.817813" y="391.525" style="stroke: #000000; stroke-width: 0.8"/>
      </g>
     </g>
     <g id="text_2">
      <!-- 酒店 -->
      <g transform="translate(404.817813 406.415625) scale(0.1 -0.1)">
       <defs>
        <path id="SimHei-9152" d="M 6025 4400 
Q 5600 4425 4750 4425 
L 4750 3650 
L 5825 3650 
Q 5800 2850 5800 1550 
Q 5800 250 5825 -600 
L 5350 -600 
L 5350 -200 
L 2625 -200 
L 2625 -600 
L 2150 -600 
Q 2175 250 2175 1550 
Q 2175 2875 2150 3650 
L 3275 3650 
L 3275 4425 
Q 2525 4425 1925 4400 
L 1925 4875 
Q 2525 4850 4050 4850 
Q 5575 4850 6025 4875 
L 6025 4400 
z
M 5350 1275 
L 5350 1825 
L 4825 1825 
Q 4300 1825 4300 2375 
L 4300 3250 
L 3725 3250 
Q 3700 2600 3562 2225 
Q 3425 1850 3200 1575 
Q 3025 1750 2750 1825 
Q 2975 2075 3125 2412 
Q 3275 2750 3275 3250 
L 2625 3250 
L 2625 1275 
L 5350 1275 
z
M 5350 225 
L 5350 825 
L 2625 825 
L 2625 225 
L 5350 225 
z
M 1775 1600 
Q 1675 1475 1425 975 
Q 1175 475 750 -475 
Q 550 -275 225 -75 
Q 450 200 725 712 
Q 1000 1225 1225 1975 
Q 1475 1800 1775 1600 
z
M 650 3700 
Q 1375 3250 1725 3050 
Q 1475 2800 1325 2525 
Q 1125 2750 300 3250 
Q 475 3450 650 3700 
z
M 4750 2625 
Q 4750 2325 4825 2275 
Q 4900 2225 5350 2225 
L 5350 3250 
L 4750 3250 
L 4750 2625 
z
M 950 5200 
Q 1650 4750 1875 4575 
Q 1675 4375 1500 4125 
Q 1300 4350 625 4750 
Q 850 4975 950 5200 
z
M 4300 3650 
L 4300 4425 
L 3725 4425 
L 3725 3650 
L 4300 3650 
z
" transform="scale(0.015625)"/>
        <path id="SimHei-5e97" d="M 3800 3900 
Q 3775 3500 3775 3125 
L 5100 3125 
Q 5500 3125 5800 3150 
L 5800 2675 
Q 5525 2700 5100 2700 
L 3775 2700 
L 3775 1850 
L 5425 1850 
Q 5400 1200 5400 650 
Q 5400 100 5425 -525 
L 4900 -525 
L 4900 -75 
L 2400 -75 
L 2400 -550 
L 1900 -550 
Q 1925 150 1925 700 
Q 1925 1275 1900 1850 
L 3275 1850 
L 3275 3100 
Q 3275 3525 3250 3900 
L 3800 3900 
z
M 3450 5250 
Q 3625 4825 3750 4450 
L 4625 4450 
Q 5275 4450 5750 4475 
L 5750 4025 
Q 5300 4050 4825 4050 
L 1475 4050 
Q 1475 2450 1450 1862 
Q 1425 1275 1300 662 
Q 1175 50 900 -525 
Q 675 -350 375 -225 
Q 750 350 862 1062 
Q 975 1775 987 2612 
Q 1000 3450 950 4450 
L 3150 4450 
Q 3100 4675 2925 5075 
Q 3175 5125 3450 5250 
z
M 4900 325 
L 4900 1425 
L 2400 1425 
L 2400 325 
L 4900 325 
z
" transform="scale(0.015625)"/>
       </defs>
       <use xlink:href="#SimHei-9152"/>
       <use xlink:href="#SimHei-5e97" x="100"/>
      </g>
     </g>
    </g>
    <g id="text_3">
     <!-- 市场 -->
     <g transform="translate(285.226875 419.790625) scale(0.1 -0.1)">
      <defs>
       <path id="SimHei-5e02" d="M 4750 4200 
Q 5350 4200 6050 4225 
L 6050 3725 
Q 5350 3750 4750 3750 
L 3450 3750 
L 3450 2900 
L 5375 2900 
Q 5350 2450 5350 1975 
L 5350 750 
Q 5350 325 5062 175 
Q 4775 25 4250 -25 
Q 4200 275 4025 575 
Q 4550 575 4687 600 
Q 4825 625 4825 850 
L 4825 2450 
L 3450 2450 
L 3450 475 
Q 3450 -150 3475 -600 
L 2900 -600 
Q 2925 -150 2925 475 
L 2925 2450 
L 1525 2450 
L 1525 0 
L 975 0 
Q 1000 400 1000 950 
L 1000 1875 
Q 1000 2450 975 2900 
L 2925 2900 
L 2925 3750 
L 1625 3750 
Q 975 3750 325 3725 
L 325 4225 
Q 975 4200 1625 4200 
L 4750 4200 
z
M 2950 5275 
Q 3250 4975 3575 4475 
Q 3300 4350 3125 4225 
Q 2900 4625 2550 5000 
Q 2750 5150 2950 5275 
z
" transform="scale(0.015625)"/>
       <path id="SimHei-573a" d="M 5625 5000 
L 5625 4600 
Q 5275 4525 4862 4150 
Q 4450 3775 3750 3100 
L 6000 3100 
Q 5975 2925 5950 2300 
L 5850 425 
Q 5825 -200 5587 -350 
Q 5350 -500 4750 -550 
Q 4700 -250 4525 50 
Q 5050 0 5200 75 
Q 5350 150 5375 400 
L 5475 2675 
L 5000 2675 
Q 4875 1925 4700 1425 
Q 4525 925 4287 562 
Q 4050 200 3750 -62 
Q 3450 -325 3000 -600 
Q 2875 -350 2650 -175 
Q 3075 50 3425 350 
Q 3775 650 4000 1050 
Q 4225 1450 4337 1900 
Q 4450 2350 4500 2675 
L 4000 2675 
Q 3950 2300 3787 1912 
Q 3625 1525 3325 1150 
Q 3025 775 2550 425 
Q 2450 600 2175 800 
Q 2775 1125 3112 1675 
Q 3450 2225 3500 2675 
Q 3225 2650 3125 2625 
Q 3025 2600 2800 2525 
Q 2725 2825 2650 3025 
Q 3075 3075 3637 3587 
Q 4200 4100 4650 4575 
L 3700 4575 
Q 3150 4575 2675 4550 
L 2675 5025 
Q 3125 5000 3675 5000 
L 5625 5000 
z
M 1200 4375 
Q 1200 4650 1175 5075 
L 1700 5075 
Q 1675 4625 1675 4375 
L 1675 3450 
Q 2050 3450 2450 3475 
L 2450 3025 
Q 2000 3050 1675 3050 
L 1675 1225 
Q 1950 1325 2500 1575 
Q 2500 1350 2525 1125 
Q 2100 925 1500 687 
Q 900 450 500 225 
Q 400 450 200 725 
Q 650 850 1200 1050 
L 1200 3050 
Q 650 3050 325 3025 
L 325 3475 
Q 750 3450 1200 3450 
L 1200 4375 
z
" transform="scale(0.015625)"/>
      </defs>
      <use xlink:href="#SimHei-5e02"/>
      <use xlink:href="#SimHei-573a" x="100"/>
     </g>
    </g>
   </g>
   <g id="matplotlib.axis_2">
    <g id="ytick_1">
     <g id="line2d_5">
      <path d="M 56.045 341.79608 
L 534.40875 341.79608 
" clip-path="url(#p271e450e04)" style="fill: none; stroke: #b0b0b0; stroke-opacity: 0.3; stroke-width: 0.8; stroke-linecap: square"/>
     </g>
     <g id="line2d_6">
      <defs>
       <path id="m430c09c18f" d="M 0 0 
L -3.5 0 
" style="stroke: #000000; stroke-width: 0.8"/>
      </defs>
      <g>
       <use xlink:href="#m430c09c18f" x="56.045" y="341.79608" style="stroke: #000000; stroke-width: 0.8"/>
      </g>
     </g>
     <g id="text_4">
      <!-- -0.04 -->
      <g transform="translate(24.045 345.23358) scale(0.1 -0.1)">
       <defs>
        <path id="SimHei-2d" d="M 2975 2125 
L 125 2125 
L 125 2525 
L 2975 2525 
L 2975 2125 
z
" transform="scale(0.015625)"/>
        <path id="SimHei-30" d="M 225 2537 
Q 250 3200 412 3587 
Q 575 3975 875 4225 
Q 1175 4475 1612 4475 
Q 2050 4475 2375 4112 
Q 2700 3750 2800 3200 
Q 2900 2650 2862 1937 
Q 2825 1225 2612 775 
Q 2400 325 1975 150 
Q 1550 -25 1125 187 
Q 700 400 525 750 
Q 350 1100 275 1487 
Q 200 1875 225 2537 
z
M 750 2687 
Q 675 2000 800 1462 
Q 925 925 1212 700 
Q 1500 475 1800 612 
Q 2100 750 2237 1162 
Q 2375 1575 2375 2062 
Q 2375 2550 2337 2950 
Q 2300 3350 2112 3675 
Q 1925 4000 1612 4012 
Q 1300 4025 1062 3700 
Q 825 3375 750 2687 
z
" transform="scale(0.015625)"/>
        <path id="SimHei-2e" d="M 1075 125 
L 500 125 
L 500 675 
L 1075 675 
L 1075 125 
z
" transform="scale(0.015625)"/>
        <path id="SimHei-34" d="M 2000 1100 
L 75 1100 
L 75 1525 
L 2100 4450 
L 2475 4450 
L 2475 1525 
L 3075 1525 
L 3075 1100 
L 2475 1100 
L 2475 150 
L 2000 150 
L 2000 1100 
z
M 2000 1525 
L 2000 3500 
L 600 1525 
L 2000 1525 
z
" transform="scale(0.015625)"/>
       </defs>
       <use xlink:href="#SimHei-2d"/>
       <use xlink:href="#SimHei-30" x="50"/>
       <use xlink:href="#SimHei-2e" x="100"/>
       <use xlink:href="#SimHei-30" x="150"/>
       <use xlink:href="#SimHei-34" x="200"/>
      </g>
     </g>
    </g>
    <g id="ytick_2">
     <g id="line2d_7">
      <path d="M 56.045 275.490852 
L 534.40875 275.490852 
" clip-path="url(#p271e450e04)" style="fill: none; stroke: #b0b0b0; stroke-opacity: 0.3; stroke-width: 0.8; stroke-linecap: square"/>
     </g>
     <g id="line2d_8">
      <g>
       <use xlink:href="#m430c09c18f" x="56.045" y="275.490852" style="stroke: #000000; stroke-width: 0.8"/>
      </g>
     </g>
     <g id="text_5">
      <!-- -0.02 -->
      <g transform="translate(24.045 278.928352) scale(0.1 -0.1)">
       <defs>
        <path id="SimHei-32" d="M 300 250 
Q 325 625 650 925 
Q 975 1225 1475 1862 
Q 1975 2500 2125 2850 
Q 2275 3200 2237 3450 
Q 2200 3700 2000 3862 
Q 1800 4025 1537 4000 
Q 1275 3975 1037 3800 
Q 800 3625 675 3275 
L 200 3350 
Q 400 3925 712 4187 
Q 1025 4450 1450 4475 
Q 1700 4500 1900 4462 
Q 2100 4425 2312 4287 
Q 2525 4150 2662 3875 
Q 2800 3600 2762 3212 
Q 2725 2825 2375 2287 
Q 2025 1750 1025 600 
L 2825 600 
L 2825 150 
L 300 150 
L 300 250 
z
" transform="scale(0.015625)"/>
       </defs>
       <use xlink:href="#SimHei-2d"/>
       <use xlink:href="#SimHei-30" x="50"/>
       <use xlink:href="#SimHei-2e" x="100"/>
       <use xlink:href="#SimHei-30" x="150"/>
       <use xlink:href="#SimHei-32" x="200"/>
      </g>
     </g>
    </g>
    <g id="ytick_3">
     <g id="line2d_9">
      <path d="M 56.045 209.185625 
L 534.40875 209.185625 
" clip-path="url(#p271e450e04)" style="fill: none; stroke: #b0b0b0; stroke-opacity: 0.3; stroke-width: 0.8; stroke-linecap: square"/>
     </g>
     <g id="line2d_10">
      <g>
       <use xlink:href="#m430c09c18f" x="56.045" y="209.185625" style="stroke: #000000; stroke-width: 0.8"/>
      </g>
     </g>
     <g id="text_6">
      <!-- 0.00 -->
      <g transform="translate(29.045 212.623125) scale(0.1 -0.1)">
       <use xlink:href="#SimHei-30"/>
       <use xlink:href="#SimHei-2e" x="50"/>
       <use xlink:href="#SimHei-30" x="100"/>
       <use xlink:href="#SimHei-30" x="150"/>
      </g>
     </g>
    </g>
    <g id="ytick_4">
     <g id="line2d_11">
      <path d="M 56.045 142.880398 
L 534.40875 142.880398 
" clip-path="url(#p271e450e04)" style="fill: none; stroke: #b0b0b0; stroke-opacity: 0.3; stroke-width: 0.8; stroke-linecap: square"/>
     </g>
     <g id="line2d_12">
      <g>
       <use xlink:href="#m430c09c18f" x="56.045" y="142.880398" style="stroke: #000000; stroke-width: 0.8"/>
      </g>
     </g>
     <g id="text_7">
      <!-- 0.02 -->
      <g transform="translate(29.045 146.317898) scale(0.1 -0.1)">
       <use xlink:href="#SimHei-30"/>
       <use xlink:href="#SimHei-2e" x="50"/>
       <use xlink:href="#SimHei-30" x="100"/>
       <use xlink:href="#SimHei-32" x="150"/>
      </g>
     </g>
    </g>
    <g id="ytick_5">
     <g id="line2d_13">
      <path d="M 56.045 76.57517 
L 534.40875 76.57517 
" clip-path="url(#p271e450e04)" style="fill: none; stroke: #b0b0b0; stroke-opacity: 0.3; stroke-width: 0.8; stroke-linecap: square"/>
     </g>
     <g id="line2d_14">
      <g>
       <use xlink:href="#m430c09c18f" x="56.045" y="76.57517" style="stroke: #000000; stroke-width: 0.8"/>
      </g>
     </g>
     <g id="text_8">
      <!-- 0.04 -->
      <g transform="translate(29.045 80.01267) scale(0.1 -0.1)">
       <use xlink:href="#SimHei-30"/>
       <use xlink:href="#SimHei-2e" x="50"/>
       <use xlink:href="#SimHei-30" x="100"/>
       <use xlink:href="#SimHei-34" x="150"/>
      </g>
     </g>
    </g>
    <g id="text_9">
     <!-- 被动中介/主动中介面积比 -->
     <g transform="translate(18.795 266.685625) rotate(-90) scale(0.1 -0.1)">
      <defs>
       <path id="SimHei-88ab" d="M 4100 4175 
Q 4100 4800 4075 5175 
L 4575 5175 
Q 4550 4825 4550 4175 
L 6025 4175 
Q 5900 3825 5725 3225 
Q 5550 3300 5225 3325 
Q 5375 3675 5400 3800 
L 4550 3800 
L 4550 2650 
L 5575 2650 
Q 5425 2075 5225 1575 
Q 5025 1075 4675 550 
Q 4925 325 5375 150 
Q 5825 -25 6125 -50 
Q 5850 -300 5775 -550 
Q 5325 -375 5000 -187 
Q 4675 0 4400 250 
Q 3975 -200 3225 -625 
Q 3050 -350 2850 -250 
Q 3575 0 4100 575 
Q 3675 1125 3400 2275 
L 3275 2275 
Q 3250 1575 3087 925 
Q 2925 275 2350 -550 
Q 2175 -400 1875 -300 
Q 2375 225 2600 825 
Q 2825 1425 2850 2150 
L 2850 3375 
Q 2850 3900 2825 4175 
L 4100 4175 
z
M 1825 2325 
Q 2075 2600 2300 2950 
Q 2500 2725 2650 2600 
Q 2425 2400 2075 2050 
L 2550 1575 
Q 2400 1450 2200 1225 
Q 1975 1575 1575 1975 
L 1575 525 
Q 1575 0 1600 -625 
L 1125 -625 
Q 1150 175 1150 700 
L 1150 2075 
Q 900 1800 525 1475 
Q 400 1675 200 1850 
Q 675 2175 1037 2600 
Q 1400 3025 1650 3525 
L 1150 3525 
Q 800 3525 400 3500 
L 400 3925 
Q 950 3900 1300 3900 
L 2350 3900 
Q 1950 3075 1550 2550 
Q 1650 2475 1825 2325 
z
M 4100 2650 
L 4100 3800 
L 3275 3800 
L 3275 2650 
L 4100 2650 
z
M 3825 2275 
Q 4050 1375 4400 900 
Q 4600 1200 4737 1512 
Q 4875 1825 5000 2275 
L 3825 2275 
z
M 1500 5250 
Q 1750 4800 1950 4375 
L 1500 4150 
Q 1325 4650 1075 5025 
Q 1300 5100 1500 5250 
z
" transform="scale(0.015625)"/>
       <path id="SimHei-52a8" d="M 4125 5150 
Q 4425 5075 4700 5075 
Q 4650 4825 4637 4512 
Q 4625 4200 4625 3750 
L 6025 3750 
Q 6000 3425 5975 3025 
L 5850 175 
Q 5775 -325 5437 -437 
Q 5100 -550 4675 -600 
Q 4600 -300 4425 -50 
Q 4975 -75 5175 12 
Q 5375 100 5375 350 
L 5525 3325 
L 4625 3325 
Q 4575 2225 4462 1650 
Q 4350 1075 4112 587 
Q 3875 100 3150 -675 
Q 2900 -425 2700 -350 
Q 3175 25 3475 437 
Q 3775 850 3900 1287 
Q 4025 1725 4075 2200 
Q 4125 2675 4150 3325 
L 3725 3325 
Q 3450 3325 3075 3300 
L 3075 3775 
Q 3450 3750 3775 3750 
L 4150 3750 
L 4150 4450 
Q 4150 4800 4125 5150 
z
M 275 3025 
Q 650 3000 1175 3000 
L 2125 3000 
Q 2575 3000 3150 3025 
L 3150 2575 
Q 2575 2600 2150 2600 
L 1875 2600 
Q 1725 2200 1537 1750 
Q 1350 1300 1100 850 
Q 2075 950 2575 1050 
Q 2450 1350 2175 1800 
Q 2450 1950 2575 2050 
Q 2825 1600 3000 1287 
Q 3175 975 3375 525 
Q 3175 400 2925 275 
Q 2825 500 2750 650 
Q 1950 525 1462 450 
Q 975 375 625 250 
Q 525 500 375 725 
Q 700 925 962 1525 
Q 1225 2125 1350 2600 
L 1175 2600 
Q 650 2600 275 2575 
L 275 3025 
z
M 2000 4425 
Q 2425 4425 2950 4450 
L 2950 3975 
Q 2425 4000 2000 4000 
L 1400 4000 
Q 1000 4000 625 3975 
L 625 4450 
Q 975 4425 1375 4425 
L 2000 4425 
z
" transform="scale(0.015625)"/>
       <path id="SimHei-4e2d" d="M 3475 5200 
Q 3450 4500 3450 3875 
L 5625 3875 
Q 5600 3375 5600 2500 
Q 5600 1650 5625 1225 
L 5075 1225 
L 5075 1600 
L 3450 1600 
L 3450 525 
Q 3450 225 3475 -600 
L 2875 -600 
Q 2925 -150 2925 450 
L 2925 1600 
L 1300 1600 
L 1300 1225 
L 750 1225 
Q 775 1600 775 2500 
Q 775 3425 750 3875 
L 2925 3875 
Q 2925 4550 2900 5200 
L 3475 5200 
z
M 5075 2000 
L 5075 3475 
L 3450 3475 
L 3450 2000 
L 5075 2000 
z
M 2925 2000 
L 2925 3475 
L 1300 3475 
L 1300 2000 
L 2925 2000 
z
" transform="scale(0.015625)"/>
       <path id="SimHei-4ecb" d="M 3475 4975 
Q 3375 4875 3325 4800 
Q 4575 3200 6100 2950 
Q 5800 2650 5725 2325 
Q 4325 2725 3100 4450 
Q 2050 2975 775 2100 
Q 600 2350 325 2575 
Q 1375 3125 2062 3987 
Q 2750 4850 2825 5200 
Q 3175 5075 3475 4975 
z
M 2475 2675 
Q 2450 1525 2212 762 
Q 1975 0 1150 -650 
Q 950 -375 625 -200 
Q 1425 225 1687 850 
Q 1950 1475 1900 2725 
Q 2250 2675 2475 2675 
z
M 4500 2750 
Q 4475 2500 4475 2125 
L 4475 100 
Q 4475 -200 4500 -600 
L 3925 -600 
Q 3950 -200 3950 100 
L 3950 2100 
Q 3950 2450 3925 2750 
L 4500 2750 
z
" transform="scale(0.015625)"/>
       <path id="SimHei-2f" d="M 3000 4550 
L 350 -175 
L 100 -25 
L 2750 4700 
L 3000 4550 
z
" transform="scale(0.015625)"/>
       <path id="SimHei-4e3b" d="M 4750 3850 
Q 5150 3850 5750 3875 
L 5750 3400 
Q 5150 3425 4750 3425 
L 3425 3425 
L 3425 2175 
L 4425 2175 
Q 4825 2175 5375 2200 
L 5375 1725 
Q 4825 1750 4425 1750 
L 3425 1750 
L 3425 150 
L 5000 150 
Q 5450 150 6050 175 
L 6050 -300 
Q 5450 -275 5000 -275 
L 350 -275 
L 350 200 
Q 950 150 1425 150 
L 2900 150 
L 2900 1750 
L 1925 1750 
Q 1525 1750 975 1725 
L 975 2200 
Q 1575 2175 1925 2175 
L 2900 2175 
L 2900 3425 
L 1650 3425 
Q 1125 3425 625 3400 
L 625 3875 
Q 1175 3850 1675 3850 
L 4750 3850 
z
M 3175 3900 
Q 2875 4350 2400 4875 
Q 2650 5050 2800 5200 
Q 3325 4600 3625 4175 
Q 3475 4100 3175 3900 
z
" transform="scale(0.015625)"/>
       <path id="SimHei-9762" d="M 5275 4850 
Q 5650 4850 5950 4875 
L 5950 4400 
Q 5600 4425 5275 4425 
L 3275 4425 
Q 3175 4200 2950 3575 
L 5525 3575 
Q 5500 3100 5500 2600 
L 5500 450 
Q 5500 -100 5525 -525 
L 5025 -525 
L 5025 -175 
L 1350 -175 
L 1350 -525 
L 850 -525 
Q 875 -200 875 425 
L 875 2650 
Q 875 3125 850 3575 
L 2475 3575 
Q 2700 4150 2750 4425 
L 1175 4425 
Q 800 4425 425 4400 
L 425 4875 
Q 825 4850 1175 4850 
L 5275 4850 
z
M 2200 225 
L 2200 3175 
L 1350 3175 
L 1350 225 
L 2200 225 
z
M 5025 225 
L 5025 3175 
L 4175 3175 
L 4175 225 
L 5025 225 
z
M 3750 225 
L 3750 1050 
L 2625 1050 
L 2625 225 
L 3750 225 
z
M 3750 2475 
L 3750 3175 
L 2625 3175 
L 2625 2475 
L 3750 2475 
z
M 3750 1425 
L 3750 2100 
L 2625 2100 
L 2625 1425 
L 3750 1425 
z
" transform="scale(0.015625)"/>
       <path id="SimHei-79ef" d="M 5675 4700 
Q 5650 4275 5650 3575 
L 5650 2750 
Q 5650 2225 5675 1750 
L 3100 1750 
Q 3125 2225 3125 2750 
L 3125 3600 
Q 3125 4275 3100 4700 
L 5675 4700 
z
M 2850 4625 
Q 2600 4575 2400 4525 
Q 2200 4475 1925 4425 
L 1925 3275 
Q 2525 3275 2875 3300 
L 2875 2825 
Q 2525 2850 1925 2850 
L 1925 2075 
Q 2125 2225 2250 2350 
Q 2650 1775 2875 1450 
Q 2750 1375 2450 1150 
Q 2250 1575 1925 2000 
L 1925 300 
Q 1925 -75 1950 -675 
L 1425 -675 
Q 1475 -75 1475 300 
L 1475 1925 
Q 1275 1475 1125 1225 
Q 975 975 650 525 
Q 450 700 200 825 
Q 575 1200 900 1750 
Q 1225 2300 1375 2850 
Q 1025 2850 300 2825 
L 300 3300 
Q 1025 3275 1475 3275 
L 1475 4325 
Q 975 4250 525 4175 
Q 450 4400 350 4625 
Q 675 4600 1462 4750 
Q 2250 4900 2550 5075 
Q 2725 4775 2850 4625 
z
M 5175 2175 
L 5175 4300 
L 3575 4300 
L 3575 2175 
L 5175 2175 
z
M 4025 1075 
Q 3875 850 3512 350 
Q 3150 -150 2700 -650 
Q 2525 -475 2300 -300 
Q 2625 -50 2950 375 
Q 3275 800 3575 1400 
Q 3825 1200 4025 1075 
z
M 5050 1325 
Q 5275 1025 5587 625 
Q 5900 225 6200 -225 
Q 5900 -400 5725 -550 
Q 5550 -225 5200 287 
Q 4850 800 4650 1025 
Q 4850 1150 5050 1325 
z
" transform="scale(0.015625)"/>
       <path id="SimHei-6bd4" d="M 3775 5100 
Q 3750 4575 3750 4100 
L 3750 3050 
Q 4925 3600 5475 4175 
Q 5675 3900 5900 3675 
Q 5600 3500 5037 3187 
Q 4475 2875 3750 2550 
L 3750 450 
Q 3750 100 4050 100 
L 5000 100 
Q 5175 100 5262 250 
Q 5350 400 5450 900 
Q 5650 775 6025 675 
Q 5850 0 5650 -175 
Q 5450 -350 5225 -350 
L 3900 -350 
Q 3250 -350 3250 275 
L 3250 4000 
Q 3250 4550 3225 5100 
L 3775 5100 
z
M 1275 4975 
Q 1250 4575 1250 4000 
L 1250 3150 
L 1850 3150 
Q 2325 3150 2875 3175 
L 2875 2650 
Q 2325 2675 1850 2675 
L 1250 2675 
L 1250 475 
Q 1650 650 1962 812 
Q 2275 975 2850 1275 
Q 2900 950 2950 750 
Q 2375 475 1762 175 
Q 1150 -125 925 -325 
Q 750 -100 575 200 
Q 700 300 750 600 
L 750 3950 
Q 750 4550 725 4975 
L 1275 4975 
z
" transform="scale(0.015625)"/>
      </defs>
      <use xlink:href="#SimHei-88ab"/>
      <use xlink:href="#SimHei-52a8" x="100"/>
      <use xlink:href="#SimHei-4e2d" x="200"/>
      <use xlink:href="#SimHei-4ecb" x="300"/>
      <use xlink:href="#SimHei-2f" x="400"/>
      <use xlink:href="#SimHei-4e3b" x="450"/>
      <use xlink:href="#SimHei-52a8" x="550"/>
      <use xlink:href="#SimHei-4e2d" x="650"/>
      <use xlink:href="#SimHei-4ecb" x="750"/>
      <use xlink:href="#SimHei-9762" x="850"/>
      <use xlink:href="#SimHei-79ef" x="950"/>
      <use xlink:href="#SimHei-6bd4" x="1050"/>
     </g>
    </g>
   </g>
   <g id="line2d_15">
    <path clip-path="url(#p271e450e04)" style="fill: none; stroke: #424242; stroke-width: 2.25; stroke-linecap: square"/>
   </g>
   <g id="line2d_16">
    <path clip-path="url(#p271e450e04)" style="fill: none; stroke: #424242; stroke-width: 2.25; stroke-linecap: square"/>
   </g>
   <g id="line2d_17">
    <path clip-path="url(#p271e450e04)" style="fill: none; stroke: #424242; stroke-width: 2.25; stroke-linecap: square"/>
   </g>
   <g id="line2d_18">
    <path clip-path="url(#p271e450e04)" style="fill: none; stroke: #424242; stroke-width: 2.25; stroke-linecap: square"/>
   </g>
   <g id="patch_9">
    <path d="M 56.045 391.525 
L 56.045 26.84625 
" style="fill: none; stroke: #000000; stroke-width: 0.8; stroke-linejoin: miter; stroke-linecap: square"/>
   </g>
   <g id="patch_10">
    <path d="M 534.40875 391.525 
L 534.40875 26.84625 
" style="fill: none; stroke: #000000; stroke-width: 0.8; stroke-linejoin: miter; stroke-linecap: square"/>
   </g>
   <g id="patch_11">
    <path d="M 56.045 391.525 
L 534.40875 391.525 
" style="fill: none; stroke: #000000; stroke-width: 0.8; stroke-linejoin: miter; stroke-linecap: square"/>
   </g>
   <g id="patch_12">
    <path d="M 56.045 26.84625 
L 534.40875 26.84625 
" style="fill: none; stroke: #000000; stroke-width: 0.8; stroke-linejoin: miter; stroke-linecap: square"/>
   </g>
   <g id="text_10">
    <!-- 不同市场三角形模型的被动/主动比率 -->
    <g transform="translate(196.226875 20.84625) scale(0.12 -0.12)">
     <defs>
      <path id="SimHei-4e0d" d="M 5975 4450 
Q 5525 4475 5200 4475 
L 3725 4475 
Q 3550 4125 3300 3700 
L 3300 575 
Q 3300 75 3325 -550 
L 2775 -550 
Q 2800 50 2800 575 
L 2800 3025 
Q 2025 1950 700 1050 
Q 500 1350 325 1475 
Q 825 1700 1650 2437 
Q 2475 3175 3175 4475 
L 1525 4475 
Q 1050 4475 525 4450 
L 525 4950 
Q 1275 4925 1675 4925 
L 5175 4925 
Q 5500 4925 5975 4950 
L 5975 4450 
z
M 5450 1125 
Q 4975 1725 3750 2975 
Q 3950 3150 4075 3325 
Q 4675 2775 5100 2362 
Q 5525 1950 5900 1550 
Q 5650 1350 5450 1125 
z
" transform="scale(0.015625)"/>
      <path id="SimHei-540c" d="M 5825 4925 
Q 5775 4550 5775 3975 
L 5775 -50 
Q 5775 -400 5525 -487 
Q 5275 -575 4725 -625 
Q 4725 -400 4525 -50 
Q 4925 -50 5100 -12 
Q 5275 25 5275 200 
L 5275 4450 
L 1150 4450 
L 1150 -600 
L 575 -600 
Q 600 -250 625 200 
L 625 3975 
Q 625 4575 600 4925 
L 5825 4925 
z
M 4375 2550 
Q 4325 2275 4325 1700 
Q 4325 1150 4375 725 
L 2025 725 
Q 2050 1175 2050 1750 
Q 2050 2325 2025 2550 
L 4375 2550 
z
M 4100 3750 
Q 4600 3750 4825 3775 
L 4825 3275 
Q 4575 3300 4075 3300 
L 2450 3300 
Q 1850 3300 1600 3275 
L 1600 3775 
Q 1875 3750 2475 3750 
L 4100 3750 
z
M 3875 1150 
L 3875 2150 
L 2525 2150 
L 2525 1150 
L 3875 1150 
z
" transform="scale(0.015625)"/>
      <path id="SimHei-4e09" d="M 6000 -200 
Q 5550 -175 5200 -175 
L 1300 -175 
Q 900 -175 375 -200 
L 375 350 
Q 850 325 1300 325 
L 5200 325 
Q 5575 325 6000 375 
L 6000 -200 
z
M 900 4600 
Q 1400 4575 1825 4575 
L 4600 4575 
Q 5075 4575 5475 4600 
L 5475 4075 
Q 5100 4100 4600 4100 
L 1800 4100 
Q 1375 4100 900 4075 
L 900 4600 
z
M 2075 2100 
Q 1700 2100 1275 2075 
L 1275 2625 
Q 1675 2600 2075 2600 
L 4225 2600 
Q 4600 2600 5050 2625 
L 5050 2075 
Q 4550 2100 4225 2100 
L 2075 2100 
z
" transform="scale(0.015625)"/>
      <path id="SimHei-89d2" d="M 3125 900 
L 1625 900 
Q 1475 125 875 -625 
Q 650 -400 400 -300 
Q 775 50 975 475 
Q 1175 900 1250 1575 
Q 1325 2250 1300 3325 
Q 1100 3125 825 2925 
Q 700 3125 425 3325 
Q 650 3425 1075 3737 
Q 1500 4050 1850 4512 
Q 2200 4975 2350 5275 
Q 2550 5125 2825 5000 
Q 2700 4875 2425 4525 
L 4825 4525 
Q 4700 4375 4050 3475 
L 5600 3475 
Q 5575 2925 5575 2500 
L 5575 25 
Q 5575 -350 5325 -450 
Q 5075 -550 4575 -600 
Q 4500 -325 4325 -50 
Q 4825 -50 4975 0 
Q 5125 50 5100 325 
L 5100 900 
L 3600 900 
L 3600 400 
Q 3600 25 3625 -500 
L 3075 -500 
Q 3125 0 3125 500 
L 3125 900 
z
M 3525 3475 
L 3975 4125 
L 2150 4125 
Q 1825 3775 1475 3475 
L 3525 3475 
z
M 5100 1300 
L 5100 2000 
L 3600 2000 
L 3600 1300 
L 5100 1300 
z
M 5100 2400 
L 5100 3050 
L 3600 3050 
L 3600 2400 
L 5100 2400 
z
M 3125 1300 
L 3125 2000 
L 1750 2000 
Q 1750 1625 1700 1300 
L 3125 1300 
z
M 3125 2400 
L 3125 3050 
L 1775 3050 
L 1775 2400 
L 3125 2400 
z
" transform="scale(0.015625)"/>
      <path id="SimHei-5f62" d="M 2750 4850 
Q 3350 4850 3675 4875 
L 3675 4425 
Q 3400 4450 2950 4450 
L 2950 2700 
Q 3475 2700 3725 2725 
L 3725 2250 
Q 3500 2275 2950 2275 
L 2950 500 
Q 2950 -50 2975 -350 
L 2475 -350 
Q 2500 0 2500 475 
L 2500 2275 
L 1650 2275 
Q 1600 1075 1325 437 
Q 1050 -200 825 -500 
Q 550 -300 300 -250 
Q 700 150 937 762 
Q 1175 1375 1200 2275 
Q 775 2275 425 2250 
L 425 2725 
Q 775 2700 1225 2700 
L 1225 4450 
Q 800 4450 600 4425 
L 600 4875 
Q 800 4850 1375 4850 
L 2750 4850 
z
M 6100 1275 
Q 5850 1050 5150 462 
Q 4450 -125 3800 -525 
Q 3650 -300 3400 -100 
Q 4050 175 4725 750 
Q 5400 1325 5625 1650 
Q 5800 1450 6100 1275 
z
M 2500 2700 
L 2500 4450 
L 1675 4450 
L 1675 2700 
L 2500 2700 
z
M 5875 2975 
Q 5650 2825 5187 2300 
Q 4725 1775 3900 1175 
Q 3750 1375 3475 1550 
Q 4175 1950 4625 2412 
Q 5075 2875 5375 3325 
Q 5700 3050 5875 2975 
z
M 5675 4800 
Q 5425 4575 5062 4087 
Q 4700 3600 4075 2975 
Q 3850 3150 3625 3275 
Q 4175 3750 4475 4125 
Q 4775 4500 5125 5100 
Q 5250 5025 5675 4800 
z
" transform="scale(0.015625)"/>
      <path id="SimHei-6a21" d="M 5700 3675 
Q 5675 3400 5675 2725 
Q 5675 2050 5700 1725 
L 4375 1725 
Q 4350 1450 4325 1200 
L 5225 1200 
Q 5750 1200 6025 1225 
L 6025 825 
Q 5725 850 5225 850 
L 4700 850 
Q 5075 375 5437 137 
Q 5800 -100 6200 -200 
Q 5975 -375 5850 -625 
Q 5275 -400 4862 25 
Q 4450 450 4300 775 
L 4225 775 
Q 4000 275 3537 -62 
Q 3075 -400 2475 -625 
Q 2350 -375 2125 -200 
Q 2775 -75 3200 200 
Q 3625 475 3775 850 
L 3325 850 
Q 2800 850 2400 825 
L 2400 1225 
Q 2800 1200 3350 1200 
L 3875 1200 
Q 3925 1475 3925 1725 
L 2750 1725 
Q 2775 2075 2775 2700 
Q 2775 3350 2750 3675 
L 5700 3675 
z
M 2175 1650 
Q 2025 1975 1675 2525 
L 1675 300 
Q 1675 -300 1700 -550 
L 1175 -550 
Q 1200 -275 1200 250 
L 1200 2225 
Q 1125 2000 962 1712 
Q 800 1425 600 1050 
Q 450 1275 200 1425 
Q 600 1825 850 2425 
Q 1100 3025 1175 3425 
L 950 3425 
Q 700 3425 400 3400 
L 400 3825 
Q 675 3800 825 3800 
L 1200 3800 
L 1200 4350 
Q 1200 4775 1175 5150 
L 1700 5150 
Q 1675 4825 1675 4425 
L 1675 3800 
Q 2075 3800 2375 3825 
L 2375 3400 
Q 2050 3425 1675 3425 
L 1675 2575 
Q 1850 2675 2000 2775 
Q 2150 2525 2287 2325 
Q 2425 2125 2550 1925 
Q 2325 1775 2175 1650 
z
M 3375 4300 
L 3175 4300 
Q 2700 4300 2425 4275 
L 2425 4675 
Q 2700 4650 3150 4650 
L 3375 4650 
Q 3375 5000 3350 5225 
L 3825 5225 
Q 3800 5000 3800 4650 
L 4550 4650 
Q 4550 4975 4525 5200 
L 5025 5200 
Q 5000 4925 5000 4650 
L 5375 4650 
Q 5650 4650 5950 4675 
L 5950 4275 
Q 5650 4300 5375 4300 
L 5000 4300 
L 5000 3850 
L 4550 3850 
L 4550 4300 
L 3800 4300 
L 3800 3875 
L 3375 3875 
L 3375 4300 
z
M 5275 2075 
L 5275 2525 
L 3200 2525 
L 3200 2075 
L 5275 2075 
z
M 5275 2875 
L 5275 3325 
L 3200 3325 
L 3200 2875 
L 5275 2875 
z
" transform="scale(0.015625)"/>
      <path id="SimHei-578b" d="M 2625 1775 
Q 2650 2325 2650 2700 
L 2650 3000 
L 1825 3000 
Q 1725 2375 1425 2000 
Q 1125 1625 775 1425 
Q 650 1650 375 1900 
Q 850 2075 1062 2362 
Q 1275 2650 1350 3000 
Q 900 3000 375 2975 
L 375 3450 
Q 925 3425 1400 3425 
Q 1425 3950 1425 4475 
Q 1075 4475 700 4450 
L 700 4900 
Q 1050 4875 1525 4875 
L 3000 4875 
Q 3275 4875 3650 4900 
L 3650 4450 
Q 3325 4475 3125 4475 
L 3125 3425 
Q 3450 3425 3825 3450 
L 3825 2975 
Q 3450 3000 3125 3000 
L 3125 2675 
Q 3125 2225 3150 1775 
L 2625 1775 
z
M 3000 1175 
Q 3000 1375 2975 1725 
L 3500 1725 
Q 3475 1375 3475 1175 
L 4550 1175 
Q 5050 1175 5450 1200 
L 5450 725 
Q 4975 750 4550 750 
L 3475 750 
L 3475 -50 
L 5275 -50 
Q 5700 -50 6100 -25 
L 6100 -500 
Q 5725 -475 5300 -475 
L 1250 -475 
Q 775 -475 400 -500 
L 400 -25 
Q 775 -50 1250 -50 
L 3000 -50 
L 3000 750 
L 2025 750 
Q 1500 750 975 725 
L 1050 1200 
Q 1500 1175 2025 1175 
L 3000 1175 
z
M 5775 5200 
Q 5750 4775 5750 4325 
L 5750 2400 
Q 5775 1950 5612 1775 
Q 5450 1600 4900 1525 
Q 4825 1775 4675 2100 
Q 5175 2075 5237 2150 
Q 5300 2225 5300 2525 
L 5300 4325 
Q 5300 4775 5275 5200 
L 5775 5200 
z
M 4600 4750 
Q 4575 4450 4575 3975 
L 4575 3200 
Q 4575 2825 4600 2425 
L 4100 2425 
Q 4125 2825 4125 3200 
L 4125 3975 
Q 4125 4450 4100 4750 
L 4600 4750 
z
M 2650 3425 
L 2650 4475 
L 1875 4475 
Q 1850 3750 1850 3425 
L 2650 3425 
z
" transform="scale(0.015625)"/>
      <path id="SimHei-7684" d="M 2100 4975 
Q 1975 4750 1750 3950 
L 2875 3950 
Q 2850 3525 2850 2875 
L 2850 675 
Q 2850 300 2875 -400 
L 2375 -400 
L 2375 100 
L 1100 100 
L 1100 -450 
L 600 -450 
Q 625 350 625 550 
L 625 2850 
Q 625 3525 600 3950 
L 1325 3950 
Q 1450 4525 1525 5150 
Q 1875 5025 2100 4975 
z
M 5825 3075 
Q 5800 1550 5700 175 
Q 5650 -275 5225 -425 
Q 4800 -575 4275 -625 
Q 4250 -350 4050 -50 
Q 4550 -75 4837 -25 
Q 5125 25 5200 200 
Q 5275 375 5312 1225 
Q 5350 2075 5375 3600 
L 3925 3600 
Q 3725 3125 3350 2475 
Q 3175 2650 2925 2750 
Q 3150 3050 3350 3475 
Q 3550 3900 3700 4400 
Q 3850 4900 3875 5175 
Q 4225 5025 4475 4950 
Q 4350 4750 4262 4512 
Q 4175 4275 4075 4050 
L 5850 4050 
Q 5825 3525 5825 3075 
z
M 2375 525 
L 2375 1850 
L 1100 1850 
L 1100 525 
L 2375 525 
z
M 2375 2275 
L 2375 3525 
L 1100 3525 
L 1100 2275 
L 2375 2275 
z
M 4350 2050 
Q 4500 1750 4700 1275 
Q 4525 1200 4225 1025 
Q 4050 1500 3900 1837 
Q 3750 2175 3600 2400 
Q 3775 2500 4050 2650 
L 4350 2050 
z
" transform="scale(0.015625)"/>
      <path id="SimHei-7387" d="M 3325 5150 
Q 3425 4900 3550 4525 
L 4800 4525 
Q 5250 4525 5800 4550 
L 5800 4125 
Q 5250 4175 4775 4175 
L 2800 4175 
Q 2975 4050 3300 3900 
Q 3075 3750 2875 3537 
Q 2675 3325 2475 3125 
L 3275 3125 
Q 3575 3425 3775 3775 
Q 4000 3600 4275 3425 
Q 3950 3250 3600 2875 
Q 3250 2500 2625 2000 
L 3850 2100 
Q 3725 2250 3600 2425 
Q 3750 2475 4000 2650 
Q 4250 2350 4700 1700 
Q 4475 1625 4225 1450 
Q 4175 1600 4025 1775 
Q 3700 1750 3425 1750 
L 3425 1050 
L 5150 1050 
Q 5675 1050 6100 1075 
L 6100 650 
Q 5700 675 5125 675 
L 3425 675 
L 3425 175 
Q 3425 -300 3450 -625 
L 2900 -625 
Q 2925 -300 2925 175 
L 2925 675 
L 1325 675 
Q 825 675 325 650 
L 325 1075 
Q 825 1050 1350 1050 
L 2925 1050 
L 2925 1700 
Q 2700 1675 2475 1637 
Q 2250 1600 2025 1525 
Q 1950 1775 1850 2000 
Q 2075 2025 2325 2200 
Q 2575 2375 2975 2800 
Q 2300 2725 2025 2625 
Q 1975 2875 1850 3175 
Q 2075 3175 2325 3487 
Q 2575 3800 2750 4175 
L 1700 4175 
Q 1150 4175 650 4125 
L 650 4550 
Q 1150 4525 1550 4525 
L 2975 4525 
Q 2900 4825 2800 5025 
Q 3025 5075 3325 5150 
z
M 1625 2575 
Q 1725 2400 1825 2200 
Q 1575 2050 1325 1862 
Q 1075 1675 800 1425 
Q 625 1675 475 1875 
Q 800 2025 1100 2212 
Q 1400 2400 1625 2575 
z
M 4850 2650 
Q 5125 2475 5337 2337 
Q 5550 2200 5875 1950 
Q 5675 1800 5500 1600 
Q 5300 1775 5062 1975 
Q 4825 2175 4575 2325 
Q 4725 2475 4850 2650 
z
M 5725 3525 
Q 5550 3450 5300 3262 
Q 5050 3075 4800 2825 
Q 4625 3050 4475 3175 
Q 4700 3325 4875 3487 
Q 5050 3650 5300 3925 
Q 5525 3700 5725 3525 
z
M 1050 3850 
Q 1425 3600 1775 3275 
Q 1575 3100 1425 2925 
Q 1075 3300 675 3525 
Q 875 3700 1050 3850 
z
" transform="scale(0.015625)"/>
     </defs>
     <use xlink:href="#SimHei-4e0d"/>
     <use xlink:href="#SimHei-540c" x="100"/>
     <use xlink:href="#SimHei-5e02" x="200"/>
     <use xlink:href="#SimHei-573a" x="300"/>
     <use xlink:href="#SimHei-4e09" x="400"/>
     <use xlink:href="#SimHei-89d2" x="500"/>
     <use xlink:href="#SimHei-5f62" x="600"/>
     <use xlink:href="#SimHei-6a21" x="700"/>
     <use xlink:href="#SimHei-578b" x="800"/>
     <use xlink:href="#SimHei-7684" x="900"/>
     <use xlink:href="#SimHei-88ab" x="1000"/>
     <use xlink:href="#SimHei-52a8" x="1100"/>
     <use xlink:href="#SimHei-2f" x="1200"/>
     <use xlink:href="#SimHei-4e3b" x="1250"/>
     <use xlink:href="#SimHei-52a8" x="1350"/>
     <use xlink:href="#SimHei-6bd4" x="1450"/>
     <use xlink:href="#SimHei-7387" x="1550"/>
    </g>
   </g>
   <g id="legend_1">
    <g id="patch_13">
     <path d="M 455.40875 77.697812 
L 527.40875 77.697812 
Q 529.40875 77.697812 529.40875 75.697812 
L 529.40875 33.84625 
Q 529.40875 31.84625 527.40875 31.84625 
L 455.40875 31.84625 
Q 453.40875 31.84625 453.40875 33.84625 
L 453.40875 75.697812 
Q 453.40875 77.697812 455.40875 77.697812 
z
" style="fill: #ffffff; opacity: 0.8; stroke: #cccccc; stroke-linejoin: miter"/>
    </g>
    <g id="text_11">
     <!-- 监管类型 -->
     <g transform="translate(471.40875 43.97125) scale(0.1 -0.1)">
      <defs>
       <path id="SimHei-76d1" d="M 5525 1775 
Q 5500 1350 5500 950 
L 5500 0 
Q 5850 0 6175 50 
L 6175 -475 
Q 5575 -425 4875 -425 
L 1425 -425 
Q 725 -425 225 -475 
L 225 50 
Q 600 0 925 0 
L 925 950 
Q 925 1350 900 1775 
L 5525 1775 
z
M 4600 5025 
Q 4425 4800 4337 4562 
Q 4250 4325 4175 4125 
L 5300 4125 
Q 5725 4125 6150 4150 
L 6150 3675 
Q 5750 3725 5275 3725 
L 4050 3725 
Q 3800 3125 3375 2425 
Q 3175 2575 2900 2675 
Q 3100 2925 3312 3362 
Q 3525 3800 3700 4325 
Q 3875 4850 3975 5250 
Q 4300 5125 4600 5025 
z
M 2750 5200 
Q 2700 4950 2700 4475 
L 2700 3050 
Q 2700 2600 2725 2075 
L 2200 2075 
Q 2225 2600 2225 3050 
L 2225 4425 
Q 2225 4775 2200 5200 
L 2750 5200 
z
M 1450 4900 
Q 1400 4575 1400 4125 
L 1400 3200 
Q 1400 2825 1425 2325 
L 900 2325 
Q 925 2825 925 3200 
L 925 4200 
Q 925 4550 900 4900 
L 1450 4900 
z
M 5025 -25 
L 5025 1325 
L 4125 1325 
L 4125 -25 
L 5025 -25 
z
M 2300 -25 
L 2300 1325 
L 1400 1325 
L 1400 -25 
L 2300 -25 
z
M 3650 -25 
L 3650 1325 
L 2775 1325 
L 2775 -25 
L 3650 -25 
z
M 4575 3500 
Q 4850 3300 5100 3037 
Q 5350 2775 5625 2475 
Q 5450 2325 5225 2125 
L 4725 2675 
Q 4475 2950 4250 3150 
Q 4400 3350 4575 3500 
z
" transform="scale(0.015625)"/>
       <path id="SimHei-7ba1" d="M 4975 2550 
Q 4950 2150 4950 1950 
Q 4950 1775 4975 1400 
L 1900 1400 
L 1900 975 
L 5225 975 
Q 5200 425 5200 150 
Q 5200 -100 5225 -550 
L 4725 -550 
L 4725 -300 
L 1900 -300 
L 1900 -625 
L 1375 -625 
Q 1400 25 1400 150 
L 1400 1725 
Q 1400 2150 1375 2550 
L 4975 2550 
z
M 3200 4050 
Q 3500 3475 3550 3350 
L 6000 3350 
Q 5975 3000 5975 2825 
Q 5975 2675 6000 2375 
L 5450 2375 
L 5450 2950 
L 925 2950 
L 925 2350 
L 375 2350 
Q 400 2575 400 2800 
Q 400 3025 375 3350 
L 2975 3350 
Q 2900 3550 2725 3850 
Q 2975 3900 3200 4050 
z
M 3250 4275 
Q 2850 4300 2325 4300 
L 2575 3800 
Q 2275 3725 2050 3625 
Q 1975 3975 1850 4300 
L 1525 4300 
Q 1300 4025 1137 3862 
Q 975 3700 750 3525 
Q 600 3725 300 3875 
Q 825 4225 1100 4575 
Q 1375 4925 1500 5300 
Q 1725 5200 2125 5100 
Q 1950 4925 1800 4700 
L 2625 4700 
Q 2925 4700 3250 4725 
L 3250 4275 
z
M 4925 3600 
Q 4850 3950 4700 4300 
L 4225 4300 
Q 4000 3950 3850 3725 
Q 3575 3875 3350 4000 
Q 3650 4275 3825 4587 
Q 4000 4900 4100 5275 
Q 4375 5175 4725 5100 
Q 4525 4925 4425 4700 
L 5400 4700 
Q 5625 4700 6125 4725 
L 6125 4275 
Q 5750 4300 5175 4300 
L 5425 3800 
L 4925 3600 
z
M 4725 75 
L 4725 575 
L 1900 575 
L 1900 75 
L 4725 75 
z
M 4475 1775 
L 4475 2175 
L 1900 2175 
L 1900 1775 
L 4475 1775 
z
" transform="scale(0.015625)"/>
       <path id="SimHei-7c7b" d="M 2125 3875 
Q 1750 4375 1325 4725 
Q 1525 4875 1675 5050 
L 2525 4225 
Q 2400 4125 2200 3875 
L 3025 3875 
L 3025 4550 
Q 3025 4900 3000 5125 
L 3525 5125 
Q 3500 4850 3500 4550 
L 3500 3875 
L 4325 3875 
Q 4125 4050 4000 4150 
Q 4450 4575 4800 5175 
Q 5000 5000 5275 4825 
Q 5100 4675 4912 4475 
Q 4725 4275 4400 3875 
L 5025 3875 
Q 5425 3875 5900 3900 
L 5900 3450 
Q 5425 3475 5025 3475 
L 3500 3475 
L 3500 3050 
Q 3500 2650 3525 2175 
L 3175 2175 
Q 3475 2075 3675 2000 
Q 3575 1875 3525 1575 
L 5025 1575 
Q 5525 1575 6025 1600 
L 6025 1150 
Q 5550 1175 5050 1175 
L 3675 1175 
Q 4050 600 4712 275 
Q 5375 -50 6050 -175 
Q 5850 -350 5725 -675 
Q 4975 -450 4350 -37 
Q 3725 375 3300 950 
Q 3050 350 2425 -50 
Q 1800 -450 775 -700 
Q 650 -425 475 -225 
Q 1375 -100 2012 225 
Q 2650 550 2900 1175 
L 1625 1175 
Q 1025 1175 525 1150 
L 525 1600 
Q 950 1575 1600 1575 
L 3025 1575 
Q 3075 1825 3100 2175 
L 3000 2175 
Q 3025 2675 3025 3050 
L 3025 3325 
Q 2725 2900 2237 2550 
Q 1750 2200 925 1825 
Q 850 2025 625 2275 
Q 1175 2400 1725 2737 
Q 2275 3075 2600 3475 
L 1550 3475 
Q 1050 3475 600 3425 
L 600 3900 
Q 1075 3875 1550 3875 
L 2125 3875 
z
M 4100 3450 
Q 4850 3000 5800 2350 
Q 5575 2125 5425 1925 
Q 4700 2550 3825 3075 
Q 3975 3250 4100 3450 
z
" transform="scale(0.015625)"/>
      </defs>
      <use xlink:href="#SimHei-76d1"/>
      <use xlink:href="#SimHei-7ba1" x="100"/>
      <use xlink:href="#SimHei-7c7b" x="200"/>
      <use xlink:href="#SimHei-578b" x="300"/>
     </g>
    </g>
    <g id="patch_14">
     <path d="M 457.40875 58.111875 
L 477.40875 58.111875 
L 477.40875 51.111875 
L 457.40875 51.111875 
z
" style="fill: #3274a1"/>
    </g>
    <g id="text_12">
     <!-- 价格上限 -->
     <g transform="translate(485.40875 58.111875) scale(0.1 -0.1)">
      <defs>
       <path id="SimHei-4ef7" d="M 2200 4975 
Q 2050 4725 1650 3775 
L 1650 450 
Q 1650 -225 1675 -650 
L 1175 -650 
Q 1175 -225 1200 450 
L 1200 2975 
Q 900 2425 650 2100 
Q 525 2275 225 2450 
Q 750 3025 1125 3800 
Q 1500 4575 1625 5175 
Q 1950 5025 2200 4975 
z
M 4175 4700 
Q 4850 3525 6150 2950 
Q 5925 2750 5775 2500 
Q 4725 3100 3950 4300 
Q 3300 3125 2250 2350 
Q 2125 2525 1900 2725 
Q 2825 3325 3250 4050 
Q 3675 4775 3750 5150 
Q 4150 4950 4325 4900 
L 4175 4700 
z
M 3475 2650 
Q 3400 2075 3325 1087 
Q 3250 100 2325 -675 
Q 2175 -450 1925 -300 
Q 2850 350 2912 1262 
Q 2975 2175 2950 2700 
Q 3275 2650 3475 2650 
z
M 5075 2700 
Q 5050 2150 5050 1725 
L 5050 150 
Q 5050 -225 5075 -650 
L 4550 -650 
Q 4575 -225 4575 175 
L 4575 1875 
Q 4575 2150 4550 2700 
L 5075 2700 
z
" transform="scale(0.015625)"/>
       <path id="SimHei-683c" d="M 4075 4875 
Q 3975 4750 3750 4350 
L 5625 4350 
Q 5450 3850 5212 3437 
Q 4975 3025 4650 2650 
Q 4950 2450 5412 2287 
Q 5875 2125 6150 2100 
Q 5975 1900 5875 1600 
Q 5550 1725 5125 1912 
Q 4700 2100 4300 2400 
Q 3925 2125 3537 1937 
Q 3150 1750 2575 1550 
Q 2475 1775 2300 1925 
Q 2825 2050 3262 2250 
Q 3700 2450 3975 2675 
Q 3625 3050 3325 3575 
Q 3175 3350 2875 2950 
Q 2700 3100 2475 3200 
Q 2825 3550 3112 4075 
Q 3400 4600 3550 5100 
Q 3775 4950 4075 4875 
z
M 5575 1650 
Q 5550 1350 5550 575 
Q 5550 -200 5575 -575 
L 5050 -575 
L 5050 -175 
L 3500 -175 
L 3500 -600 
L 2975 -600 
Q 3000 -200 3000 550 
Q 3000 1325 2975 1650 
L 5575 1650 
z
M 1850 5100 
Q 1825 4775 1825 4475 
L 1825 3825 
Q 2300 3825 2525 3850 
L 2525 3400 
Q 2300 3425 1825 3425 
L 1825 2725 
Q 1950 2800 2125 2950 
Q 2350 2600 2550 2200 
Q 2350 2075 2175 1950 
Q 1975 2375 1825 2625 
L 1825 275 
Q 1825 -275 1850 -625 
L 1350 -625 
Q 1375 -275 1375 275 
L 1375 2425 
Q 1150 1850 625 850 
Q 475 1025 250 1150 
Q 650 1775 900 2375 
Q 1150 2975 1250 3425 
Q 900 3425 475 3400 
L 475 3850 
Q 925 3825 1375 3825 
L 1375 4475 
Q 1375 4750 1350 5100 
L 1850 5100 
z
M 5050 200 
L 5050 1275 
L 3500 1275 
L 3500 200 
L 5050 200 
z
M 4300 2925 
Q 4675 3300 4975 3975 
L 3550 3975 
Q 3850 3350 4300 2925 
z
" transform="scale(0.015625)"/>
       <path id="SimHei-4e0a" d="M 3250 5075 
Q 3225 4650 3225 4275 
L 3225 3225 
L 4650 3225 
Q 5150 3225 5600 3250 
L 5600 2700 
Q 5100 2725 4600 2725 
L 3225 2725 
L 3225 200 
L 5200 200 
Q 5575 200 6075 225 
L 6075 -300 
Q 5600 -275 5200 -275 
L 1250 -275 
Q 850 -275 350 -300 
L 350 225 
Q 825 200 1250 200 
L 2700 200 
L 2700 4250 
Q 2700 4625 2675 5075 
L 3250 5075 
z
" transform="scale(0.015625)"/>
       <path id="SimHei-9650" d="M 5550 4950 
Q 5525 4500 5525 3700 
Q 5525 2925 5550 2475 
L 4375 2475 
Q 4375 2000 4625 1475 
Q 5275 1900 5475 2250 
Q 5675 1950 5850 1800 
Q 5400 1575 4750 1150 
Q 5025 775 5325 500 
Q 5625 225 6200 25 
Q 5900 -125 5750 -450 
Q 5150 -75 4812 312 
Q 4475 700 4262 1212 
Q 4050 1725 3975 2475 
L 3400 2475 
L 3400 200 
Q 3800 400 4125 675 
Q 4150 450 4225 150 
Q 4000 25 3637 -175 
Q 3275 -375 3025 -575 
Q 2925 -375 2750 -125 
Q 2900 25 2950 325 
L 2950 3850 
Q 2950 4350 2925 4950 
L 5550 4950 
z
M 2500 4950 
Q 2050 3475 1875 2950 
Q 2375 2350 2450 1850 
Q 2525 1350 2237 1025 
Q 1950 700 1525 575 
Q 1500 900 1300 1150 
Q 1750 1150 1875 1325 
Q 2000 1500 1975 1887 
Q 1950 2275 1375 2925 
Q 1775 4050 1875 4550 
L 1125 4550 
L 1125 -500 
L 650 -500 
Q 675 200 675 875 
L 675 3800 
Q 675 4250 650 4950 
L 2500 4950 
z
M 5075 2875 
L 5075 3550 
L 3400 3550 
L 3400 2875 
L 5075 2875 
z
M 5075 3925 
L 5075 4550 
L 3400 4550 
L 3400 3925 
L 5075 3925 
z
" transform="scale(0.015625)"/>
      </defs>
      <use xlink:href="#SimHei-4ef7"/>
      <use xlink:href="#SimHei-683c" x="100"/>
      <use xlink:href="#SimHei-4e0a" x="200"/>
      <use xlink:href="#SimHei-9650" x="300"/>
     </g>
    </g>
    <g id="patch_15">
     <path d="M 457.40875 72.447812 
L 477.40875 72.447812 
L 477.40875 65.447812 
L 457.40875 65.447812 
z
" style="fill: #e1812c"/>
    </g>
    <g id="text_13">
     <!-- 价格区间 -->
     <g transform="translate(485.40875 72.447812) scale(0.1 -0.1)">
      <defs>
       <path id="SimHei-533a" d="M 5850 4525 
Q 5475 4550 4850 4550 
L 1150 4550 
L 1150 -75 
L 5225 -75 
Q 5725 -75 6025 -50 
L 6025 -500 
Q 5700 -475 5175 -475 
L 625 -475 
Q 650 125 650 400 
L 650 4200 
Q 650 4625 625 4975 
L 5850 4975 
L 5850 4525 
z
M 2275 3875 
Q 3150 3275 3800 2700 
Q 4375 3375 4650 4050 
Q 4925 3875 5300 3700 
Q 5025 3525 4825 3225 
Q 4625 2925 4225 2375 
Q 5075 1675 5600 1000 
Q 5300 800 5175 575 
Q 4775 1175 3850 1950 
Q 3475 1525 3087 1175 
Q 2700 825 2125 400 
Q 1900 625 1625 775 
Q 2125 1000 2525 1312 
Q 2925 1625 3475 2300 
Q 2850 2875 1925 3450 
Q 2175 3650 2275 3875 
z
" transform="scale(0.015625)"/>
       <path id="SimHei-95f4" d="M 4450 3550 
Q 4425 3075 4425 2725 
L 4425 1400 
Q 4425 1075 4450 625 
L 1925 625 
Q 1950 1075 1950 1425 
L 1950 2725 
Q 1950 3075 1925 3550 
L 4450 3550 
z
M 5800 4875 
Q 5775 4400 5775 3925 
L 5775 250 
Q 5800 -325 5462 -450 
Q 5125 -575 4725 -625 
Q 4700 -325 4525 -25 
Q 5000 -50 5137 25 
Q 5275 100 5275 350 
L 5275 4450 
L 3775 4450 
Q 3175 4450 2650 4425 
L 2650 4900 
Q 3175 4875 3775 4875 
L 5800 4875 
z
M 550 -525 
Q 600 -25 600 525 
L 600 3150 
Q 600 3675 550 4025 
L 1125 4025 
Q 1100 3650 1100 3300 
L 1100 500 
Q 1100 0 1125 -525 
L 550 -525 
z
M 3950 1025 
L 3950 1950 
L 2425 1950 
L 2425 1025 
L 3950 1025 
z
M 3950 2350 
L 3950 3150 
L 2425 3150 
L 2425 2350 
L 3950 2350 
z
M 1525 5300 
Q 1750 5000 2225 4350 
Q 1950 4225 1700 4075 
Q 1450 4575 1075 5025 
Q 1350 5225 1525 5300 
z
" transform="scale(0.015625)"/>
      </defs>
      <use xlink:href="#SimHei-4ef7"/>
      <use xlink:href="#SimHei-683c" x="100"/>
      <use xlink:href="#SimHei-533a" x="200"/>
      <use xlink:href="#SimHei-95f4" x="300"/>
     </g>
    </g>
   </g>
  </g>
  <g id="axes_2">
   <g id="patch_16">
    <path d="M 590.83625 391.525 
L 1069.2 391.525 
L 1069.2 26.84625 
L 590.83625 26.84625 
z
" style="fill: #ffffff"/>
   </g>
   <g id="patch_17">
    <path d="M 614.754437 209.185625 
L 806.099937 209.185625 
L 806.099937 209.185625 
L 614.754437 209.185625 
z
" clip-path="url(#pb5fce4e946)" style="fill: #3274a1"/>
   </g>
   <g id="patch_18">
    <path d="M 853.936312 209.185625 
L 1045.281812 209.185625 
L 1045.281812 209.185625 
L 853.936312 209.185625 
z
" clip-path="url(#pb5fce4e946)" style="fill: #3274a1"/>
   </g>
   <g id="matplotlib.axis_3">
    <g id="xtick_3">
     <g id="line2d_19">
      <path d="M 710.427187 391.525 
L 710.427187 26.84625 
" clip-path="url(#pb5fce4e946)" style="fill: none; stroke: #b0b0b0; stroke-opacity: 0.3; stroke-width: 0.8; stroke-linecap: square"/>
     </g>
     <g id="line2d_20">
      <g>
       <use xlink:href="#m96f946ce47" x="710.427187" y="391.525" style="stroke: #000000; stroke-width: 0.8"/>
      </g>
     </g>
     <g id="text_14">
      <!-- 航空 -->
      <g transform="translate(700.427187 406.610937) scale(0.1 -0.1)">
       <use xlink:href="#SimHei-822a"/>
       <use xlink:href="#SimHei-7a7a" x="100"/>
      </g>
     </g>
    </g>
    <g id="xtick_4">
     <g id="line2d_21">
      <path d="M 949.609062 391.525 
L 949.609062 26.84625 
" clip-path="url(#pb5fce4e946)" style="fill: none; stroke: #b0b0b0; stroke-opacity: 0.3; stroke-width: 0.8; stroke-linecap: square"/>
     </g>
     <g id="line2d_22">
      <g>
       <use xlink:href="#m96f946ce47" x="949.609062" y="391.525" style="stroke: #000000; stroke-width: 0.8"/>
      </g>
     </g>
     <g id="text_15">
      <!-- 酒店 -->
      <g transform="translate(939.609062 406.415625) scale(0.1 -0.1)">
       <use xlink:href="#SimHei-9152"/>
       <use xlink:href="#SimHei-5e97" x="100"/>
      </g>
     </g>
    </g>
    <g id="text_16">
     <!-- 市场 -->
     <g transform="translate(820.018125 419.790625) scale(0.1 -0.1)">
      <use xlink:href="#SimHei-5e02"/>
      <use xlink:href="#SimHei-573a" x="100"/>
     </g>
    </g>
   </g>
   <g id="matplotlib.axis_4">
    <g id="ytick_6">
     <g id="line2d_23">
      <path d="M 590.83625 341.79608 
L 1069.2 341.79608 
" clip-path="url(#pb5fce4e946)" style="fill: none; stroke: #b0b0b0; stroke-opacity: 0.3; stroke-width: 0.8; stroke-linecap: square"/>
     </g>
     <g id="line2d_24">
      <g>
       <use xlink:href="#m430c09c18f" x="590.83625" y="341.79608" style="stroke: #000000; stroke-width: 0.8"/>
      </g>
     </g>
     <g id="text_17">
      <!-- -0.04 -->
      <g transform="translate(558.83625 345.23358) scale(0.1 -0.1)">
       <use xlink:href="#SimHei-2d"/>
       <use xlink:href="#SimHei-30" x="50"/>
       <use xlink:href="#SimHei-2e" x="100"/>
       <use xlink:href="#SimHei-30" x="150"/>
       <use xlink:href="#SimHei-34" x="200"/>
      </g>
     </g>
    </g>
    <g id="ytick_7">
     <g id="line2d_25">
      <path d="M 590.83625 275.490852 
L 1069.2 275.490852 
" clip-path="url(#pb5fce4e946)" style="fill: none; stroke: #b0b0b0; stroke-opacity: 0.3; stroke-width: 0.8; stroke-linecap: square"/>
     </g>
     <g id="line2d_26">
      <g>
       <use xlink:href="#m430c09c18f" x="590.83625" y="275.490852" style="stroke: #000000; stroke-width: 0.8"/>
      </g>
     </g>
     <g id="text_18">
      <!-- -0.02 -->
      <g transform="translate(558.83625 278.928352) scale(0.1 -0.1)">
       <use xlink:href="#SimHei-2d"/>
       <use xlink:href="#SimHei-30" x="50"/>
       <use xlink:href="#SimHei-2e" x="100"/>
       <use xlink:href="#SimHei-30" x="150"/>
       <use xlink:href="#SimHei-32" x="200"/>
      </g>
     </g>
    </g>
    <g id="ytick_8">
     <g id="line2d_27">
      <path d="M 590.83625 209.185625 
L 1069.2 209.185625 
" clip-path="url(#pb5fce4e946)" style="fill: none; stroke: #b0b0b0; stroke-opacity: 0.3; stroke-width: 0.8; stroke-linecap: square"/>
     </g>
     <g id="line2d_28">
      <g>
       <use xlink:href="#m430c09c18f" x="590.83625" y="209.185625" style="stroke: #000000; stroke-width: 0.8"/>
      </g>
     </g>
     <g id="text_19">
      <!-- 0.00 -->
      <g transform="translate(563.83625 212.623125) scale(0.1 -0.1)">
       <use xlink:href="#SimHei-30"/>
       <use xlink:href="#SimHei-2e" x="50"/>
       <use xlink:href="#SimHei-30" x="100"/>
       <use xlink:href="#SimHei-30" x="150"/>
      </g>
     </g>
    </g>
    <g id="ytick_9">
     <g id="line2d_29">
      <path d="M 590.83625 142.880398 
L 1069.2 142.880398 
" clip-path="url(#pb5fce4e946)" style="fill: none; stroke: #b0b0b0; stroke-opacity: 0.3; stroke-width: 0.8; stroke-linecap: square"/>
     </g>
     <g id="line2d_30">
      <g>
       <use xlink:href="#m430c09c18f" x="590.83625" y="142.880398" style="stroke: #000000; stroke-width: 0.8"/>
      </g>
     </g>
     <g id="text_20">
      <!-- 0.02 -->
      <g transform="translate(563.83625 146.317898) scale(0.1 -0.1)">
       <use xlink:href="#SimHei-30"/>
       <use xlink:href="#SimHei-2e" x="50"/>
       <use xlink:href="#SimHei-30" x="100"/>
       <use xlink:href="#SimHei-32" x="150"/>
      </g>
     </g>
    </g>
    <g id="ytick_10">
     <g id="line2d_31">
      <path d="M 590.83625 76.57517 
L 1069.2 76.57517 
" clip-path="url(#pb5fce4e946)" style="fill: none; stroke: #b0b0b0; stroke-opacity: 0.3; stroke-width: 0.8; stroke-linecap: square"/>
     </g>
     <g id="line2d_32">
      <g>
       <use xlink:href="#m430c09c18f" x="590.83625" y="76.57517" style="stroke: #000000; stroke-width: 0.8"/>
      </g>
     </g>
     <g id="text_21">
      <!-- 0.04 -->
      <g transform="translate(563.83625 80.01267) scale(0.1 -0.1)">
       <use xlink:href="#SimHei-30"/>
       <use xlink:href="#SimHei-2e" x="50"/>
       <use xlink:href="#SimHei-30" x="100"/>
       <use xlink:href="#SimHei-34" x="150"/>
      </g>
     </g>
    </g>
    <g id="text_22">
     <!-- 可行F值比率 -->
     <g transform="translate(553.58625 236.685625) rotate(-90) scale(0.1 -0.1)">
      <defs>
       <path id="SimHei-53ef" d="M 3600 3500 
Q 3575 3175 3575 2775 
L 3575 1550 
Q 3575 1125 3600 825 
L 3075 825 
L 3075 1275 
L 1650 1275 
L 1650 600 
L 1150 600 
Q 1175 775 1175 1175 
L 1175 2775 
Q 1175 3175 1150 3500 
L 3600 3500 
z
M 5200 4675 
Q 5600 4675 6050 4700 
L 6050 4225 
Q 5650 4250 5225 4250 
L 5075 4250 
L 5075 125 
Q 5075 -325 4812 -462 
Q 4550 -600 3750 -675 
Q 3700 -350 3550 -75 
Q 4075 -100 4300 -50 
Q 4525 0 4525 225 
L 4525 4250 
L 1525 4250 
Q 875 4250 350 4225 
L 350 4700 
Q 875 4675 1500 4675 
L 5200 4675 
z
M 3075 1700 
L 3075 3075 
L 1650 3075 
L 1650 1700 
L 3075 1700 
z
" transform="scale(0.015625)"/>
       <path id="SimHei-884c" d="M 5300 3100 
Q 5775 3100 6175 3125 
L 6175 2625 
Q 5775 2650 5325 2650 
L 4975 2650 
L 4975 -75 
Q 5000 -375 4787 -487 
Q 4575 -600 3950 -675 
Q 3900 -375 3675 -75 
Q 4100 -125 4275 -112 
Q 4450 -100 4475 150 
L 4475 2650 
L 3475 2650 
Q 3000 2650 2575 2625 
L 2575 3125 
Q 3025 3100 3475 3100 
L 5300 3100 
z
M 2300 3400 
Q 2075 3275 1962 3075 
Q 1850 2875 1650 2575 
L 1650 325 
Q 1650 0 1675 -675 
L 1150 -675 
Q 1175 75 1175 450 
L 1175 2050 
Q 950 1675 575 1300 
Q 400 1550 250 1725 
Q 825 2275 1150 2775 
Q 1475 3275 1725 3725 
Q 1975 3575 2300 3400 
z
M 4875 4800 
Q 5300 4800 5750 4825 
L 5750 4350 
Q 5300 4375 4825 4375 
L 3900 4375 
Q 3350 4375 2950 4350 
L 2950 4825 
Q 3350 4800 3900 4800 
L 4875 4800 
z
M 2075 4925 
Q 1875 4900 1550 4387 
Q 1225 3875 650 3250 
Q 500 3450 325 3625 
Q 725 4025 1050 4487 
Q 1375 4950 1525 5300 
Q 1775 5150 2075 4925 
z
" transform="scale(0.015625)"/>
       <path id="SimHei-46" d="M 2925 3925 
L 875 3925 
L 875 2525 
L 2425 2525 
L 2425 2050 
L 875 2050 
L 875 125 
L 300 125 
L 300 4400 
L 2925 4400 
L 2925 3925 
z
" transform="scale(0.015625)"/>
       <path id="SimHei-503c" d="M 3675 4450 
L 3675 5100 
Q 3975 5075 4350 5050 
Q 4225 4875 4200 4450 
L 5125 4450 
Q 5550 4450 5875 4475 
L 5875 4025 
Q 5525 4050 5125 4050 
L 4175 4050 
L 4125 3500 
L 5400 3500 
Q 5375 3200 5375 2700 
L 5375 150 
Q 5875 150 6100 175 
L 6100 -275 
Q 5775 -250 5200 -250 
L 2850 -250 
Q 2275 -250 1900 -275 
L 1900 175 
Q 2125 150 2600 150 
L 2600 2700 
Q 2600 3175 2575 3500 
L 3600 3500 
L 3650 4050 
L 3200 4050 
Q 2575 4050 2225 4025 
L 2225 4475 
Q 2550 4450 3200 4450 
L 3675 4450 
z
M 2225 4900 
Q 2025 4675 1650 3750 
L 1650 450 
Q 1650 -75 1675 -550 
L 1150 -550 
Q 1175 -125 1175 375 
L 1175 2950 
Q 875 2450 625 2150 
Q 425 2425 250 2575 
Q 500 2825 937 3537 
Q 1375 4250 1625 5150 
Q 1975 4975 2225 4900 
z
M 4925 2650 
L 4925 3150 
L 3075 3150 
L 3075 2650 
L 4925 2650 
z
M 4925 150 
L 4925 625 
L 3075 625 
L 3075 150 
L 4925 150 
z
M 4925 1000 
L 4925 1450 
L 3075 1450 
L 3075 1000 
L 4925 1000 
z
M 4925 1825 
L 4925 2275 
L 3075 2275 
L 3075 1825 
L 4925 1825 
z
" transform="scale(0.015625)"/>
      </defs>
      <use xlink:href="#SimHei-53ef"/>
      <use xlink:href="#SimHei-884c" x="100"/>
      <use xlink:href="#SimHei-46" x="200"/>
      <use xlink:href="#SimHei-503c" x="250"/>
      <use xlink:href="#SimHei-6bd4" x="350"/>
      <use xlink:href="#SimHei-7387" x="450"/>
     </g>
    </g>
   </g>
   <g id="line2d_33">
    <path clip-path="url(#pb5fce4e946)" style="fill: none; stroke: #424242; stroke-width: 2.25; stroke-linecap: square"/>
   </g>
   <g id="line2d_34">
    <path clip-path="url(#pb5fce4e946)" style="fill: none; stroke: #424242; stroke-width: 2.25; stroke-linecap: square"/>
   </g>
   <g id="patch_19">
    <path d="M 590.83625 391.525 
L 590.83625 26.84625 
" style="fill: none; stroke: #000000; stroke-width: 0.8; stroke-linejoin: miter; stroke-linecap: square"/>
   </g>
   <g id="patch_20">
    <path d="M 1069.2 391.525 
L 1069.2 26.84625 
" style="fill: none; stroke: #000000; stroke-width: 0.8; stroke-linejoin: miter; stroke-linecap: square"/>
   </g>
   <g id="patch_21">
    <path d="M 590.83625 391.525 
L 1069.2 391.525 
" style="fill: none; stroke: #000000; stroke-width: 0.8; stroke-linejoin: miter; stroke-linecap: square"/>
   </g>
   <g id="patch_22">
    <path d="M 590.83625 26.84625 
L 1069.2 26.84625 
" style="fill: none; stroke: #000000; stroke-width: 0.8; stroke-linejoin: miter; stroke-linecap: square"/>
   </g>
   <g id="text_23">
    <!-- 不同市场F值可行性比率 -->
    <g transform="translate(767.018125 20.84625) scale(0.12 -0.12)">
     <defs>
      <path id="SimHei-6027" d="M 3450 4525 
Q 3325 4075 3275 3750 
L 4050 3750 
L 4050 4275 
Q 4050 4700 4025 5100 
L 4550 5100 
Q 4525 4700 4525 4275 
L 4525 3750 
L 5025 3750 
Q 5350 3750 5800 3775 
L 5800 3300 
Q 5350 3325 5025 3325 
L 4525 3325 
L 4525 2000 
L 4975 2000 
Q 5350 2000 5725 2025 
L 5725 1550 
Q 5350 1575 4975 1575 
L 4525 1575 
L 4525 25 
L 5200 25 
Q 5625 25 6025 50 
L 6025 -400 
Q 5625 -375 5200 -375 
L 3275 -375 
Q 2825 -375 2400 -400 
L 2400 50 
Q 2825 25 3250 25 
L 4050 25 
L 4050 1575 
L 3625 1575 
Q 3300 1575 2875 1550 
L 2875 2025 
Q 3200 2000 3625 2000 
L 4050 2000 
L 4050 3325 
L 3175 3325 
Q 3100 2950 2775 2225 
Q 2500 2375 2325 2400 
Q 2675 3125 2775 3650 
Q 2875 4175 2950 4650 
Q 3200 4575 3450 4525 
z
M 1700 5150 
Q 1675 4650 1675 4175 
L 1675 425 
Q 1675 -100 1700 -625 
L 1175 -625 
Q 1200 -100 1200 425 
L 1200 4175 
Q 1200 4700 1175 5150 
L 1700 5150 
z
M 975 3725 
Q 825 2675 700 2150 
Q 450 2200 250 2250 
Q 425 2900 525 3800 
Q 725 3775 975 3725 
z
M 2125 4025 
Q 2325 3625 2525 3000 
Q 2300 2925 2125 2825 
Q 1950 3375 1750 3850 
Q 1950 3950 2125 4025 
z
" transform="scale(0.015625)"/>
     </defs>
     <use xlink:href="#SimHei-4e0d"/>
     <use xlink:href="#SimHei-540c" x="100"/>
     <use xlink:href="#SimHei-5e02" x="200"/>
     <use xlink:href="#SimHei-573a" x="300"/>
     <use xlink:href="#SimHei-46" x="400"/>
     <use xlink:href="#SimHei-503c" x="450"/>
     <use xlink:href="#SimHei-53ef" x="550"/>
     <use xlink:href="#SimHei-884c" x="650"/>
     <use xlink:href="#SimHei-6027" x="750"/>
     <use xlink:href="#SimHei-6bd4" x="850"/>
     <use xlink:href="#SimHei-7387" x="950"/>
    </g>
   </g>
  </g>
 </g>
 <defs>
  <clipPath id="p271e450e04">
   <rect x="56.045" y="26.84625" width="478.36375" height="364.67875"/>
  </clipPath>
  <clipPath id="pb5fce4e946">
   <rect x="590.83625" y="26.84625" width="478.36375" height="364.67875"/>
  </clipPath>
 </defs>
</svg>
