<?xml version="1.0" encoding="utf-8" standalone="no"?>
<!DOCTYPE svg PUBLIC "-//W3C//DTD SVG 1.1//EN"
  "http://www.w3.org/Graphics/SVG/1.1/DTD/svg11.dtd">
<svg xmlns:xlink="http://www.w3.org/1999/xlink" width="1008pt" height="576pt" viewBox="0 0 1008 576" xmlns="http://www.w3.org/2000/svg" version="1.1">
 <metadata>
  <rdf:RDF xmlns:dc="http://purl.org/dc/elements/1.1/" xmlns:cc="http://creativecommons.org/ns#" xmlns:rdf="http://www.w3.org/1999/02/22-rdf-syntax-ns#">
   <cc:Work>
    <dc:type rdf:resource="http://purl.org/dc/dcmitype/StillImage"/>
    <dc:date>2025-04-13T14:49:16.956254</dc:date>
    <dc:format>image/svg+xml</dc:format>
    <dc:creator>
     <cc:Agent>
      <dc:title>Matplotlib v3.9.2, https://matplotlib.org/</dc:title>
     </cc:Agent>
    </dc:creator>
   </cc:Work>
  </rdf:RDF>
 </metadata>
 <defs>
  <style type="text/css">*{stroke-linejoin: round; stroke-linecap: butt}</style>
 </defs>
 <g id="figure_1">
  <g id="patch_1">
   <path d="M 0 576 
L 1008 576 
L 1008 0 
L 0 0 
z
" style="fill: #ffffff"/>
  </g>
  <g id="axes_1">
   <g id="patch_2">
    <path d="M 56.03375 536.38 
L 989.64 536.38 
L 989.64 26.745 
L 56.03375 26.745 
z
" style="fill: #ffffff"/>
   </g>
   <g id="patch_3">
    <path d="M 56.842875 536.38 
L 392.924943 536.38 
L 392.924943 438.988655 
L 56.842875 438.988655 
z
" clip-path="url(#pf60ada2837)" style="fill: #0000ff; opacity: 0.3"/>
   </g>
   <g id="patch_4">
    <path d="M 392.924943 536.38 
L 729.00701 536.38 
L 729.00701 481.010063 
L 392.924943 481.010063 
z
" clip-path="url(#pf60ada2837)" style="fill: #0000ff; opacity: 0.3"/>
   </g>
   <g id="patch_5">
    <path d="M 729.00701 536.38 
L 1065.089078 536.38 
L 1065.089078 532.007737 
L 729.00701 532.007737 
z
" clip-path="url(#pf60ada2837)" style="fill: #0000ff; opacity: 0.3"/>
   </g>
   <g id="patch_6">
    <path d="M 1065.089078 536.38 
L 1401.171145 536.38 
L 1401.171145 536.219255 
L 1065.089078 536.219255 
z
" clip-path="url(#pf60ada2837)" style="fill: #0000ff; opacity: 0.3"/>
   </g>
   <g id="patch_7">
    <path d="M 1401.171145 536.38 
L 1737.253213 536.38 
L 1737.253213 536.373302 
L 1401.171145 536.373302 
z
" clip-path="url(#pf60ada2837)" style="fill: #0000ff; opacity: 0.3"/>
   </g>
   <g id="patch_8">
    <path d="M 1737.253213 536.38 
L 2073.33528 536.38 
L 2073.33528 536.38 
L 1737.253213 536.38 
z
" clip-path="url(#pf60ada2837)" style="fill: #0000ff; opacity: 0.3"/>
   </g>
   <g id="patch_9">
    <path d="M 2073.33528 536.38 
L 2409.417348 536.38 
L 2409.417348 536.38 
L 2073.33528 536.38 
z
" clip-path="url(#pf60ada2837)" style="fill: #0000ff; opacity: 0.3"/>
   </g>
   <g id="patch_10">
    <path d="M 2409.417348 536.38 
L 2745.499415 536.38 
L 2745.499415 536.38 
L 2409.417348 536.38 
z
" clip-path="url(#pf60ada2837)" style="fill: #0000ff; opacity: 0.3"/>
   </g>
   <g id="patch_11">
    <path d="M 2745.499415 536.38 
L 3081.581483 536.38 
L 3081.581483 536.38 
L 2745.499415 536.38 
z
" clip-path="url(#pf60ada2837)" style="fill: #0000ff; opacity: 0.3"/>
   </g>
   <g id="patch_12">
    <path d="M 3081.581483 536.38 
L 3417.66355 536.38 
L 3417.66355 536.38 
L 3081.581483 536.38 
z
" clip-path="url(#pf60ada2837)" style="fill: #0000ff; opacity: 0.3"/>
   </g>
   <g id="patch_13">
    <path d="M 3417.66355 536.38 
L 3753.745618 536.38 
L 3753.745618 536.38 
L 3417.66355 536.38 
z
" clip-path="url(#pf60ada2837)" style="fill: #0000ff; opacity: 0.3"/>
   </g>
   <g id="patch_14">
    <path d="M 3753.745618 536.38 
L 4089.827685 536.38 
L 4089.827685 536.38 
L 3753.745618 536.38 
z
" clip-path="url(#pf60ada2837)" style="fill: #0000ff; opacity: 0.3"/>
   </g>
   <g id="patch_15">
    <path d="M 4089.827685 536.38 
L 4425.909753 536.38 
L 4425.909753 536.38 
L 4089.827685 536.38 
z
" clip-path="url(#pf60ada2837)" style="fill: #0000ff; opacity: 0.3"/>
   </g>
   <g id="patch_16">
    <path d="M 4425.909753 536.38 
L 4761.99182 536.38 
L 4761.99182 536.38 
L 4425.909753 536.38 
z
" clip-path="url(#pf60ada2837)" style="fill: #0000ff; opacity: 0.3"/>
   </g>
   <g id="patch_17">
    <path d="M 4761.99182 536.38 
L 5098.073888 536.38 
L 5098.073888 536.38 
L 4761.99182 536.38 
z
" clip-path="url(#pf60ada2837)" style="fill: #0000ff; opacity: 0.3"/>
   </g>
   <g id="patch_18">
    <path d="M 5098.073888 536.38 
L 5434.155955 536.38 
L 5434.155955 536.38 
L 5098.073888 536.38 
z
" clip-path="url(#pf60ada2837)" style="fill: #0000ff; opacity: 0.3"/>
   </g>
   <g id="patch_19">
    <path d="M 5434.155955 536.38 
L 5770.238023 536.38 
L 5770.238023 536.38 
L 5434.155955 536.38 
z
" clip-path="url(#pf60ada2837)" style="fill: #0000ff; opacity: 0.3"/>
   </g>
   <g id="patch_20">
    <path d="M 5770.238023 536.38 
L 6106.32009 536.38 
L 6106.32009 536.38 
L 5770.238023 536.38 
z
" clip-path="url(#pf60ada2837)" style="fill: #0000ff; opacity: 0.3"/>
   </g>
   <g id="patch_21">
    <path d="M 6106.32009 536.38 
L 6442.402158 536.38 
L 6442.402158 536.38 
L 6106.32009 536.38 
z
" clip-path="url(#pf60ada2837)" style="fill: #0000ff; opacity: 0.3"/>
   </g>
   <g id="patch_22">
    <path d="M 6442.402158 536.38 
L 6778.484225 536.38 
L 6778.484225 536.38 
L 6442.402158 536.38 
z
" clip-path="url(#pf60ada2837)" style="fill: #0000ff; opacity: 0.3"/>
   </g>
   <g id="patch_23">
    <path d="M 6778.484225 536.38 
L 7114.566293 536.38 
L 7114.566293 536.38 
L 6778.484225 536.38 
z
" clip-path="url(#pf60ada2837)" style="fill: #0000ff; opacity: 0.3"/>
   </g>
   <g id="patch_24">
    <path d="M 7114.566293 536.38 
L 7450.64836 536.38 
L 7450.64836 536.38 
L 7114.566293 536.38 
z
" clip-path="url(#pf60ada2837)" style="fill: #0000ff; opacity: 0.3"/>
   </g>
   <g id="patch_25">
    <path d="M 7450.64836 536.38 
L 7786.730428 536.38 
L 7786.730428 536.38 
L 7450.64836 536.38 
z
" clip-path="url(#pf60ada2837)" style="fill: #0000ff; opacity: 0.3"/>
   </g>
   <g id="patch_26">
    <path d="M 7786.730428 536.38 
L 8122.812495 536.38 
L 8122.812495 536.38 
L 7786.730428 536.38 
z
" clip-path="url(#pf60ada2837)" style="fill: #0000ff; opacity: 0.3"/>
   </g>
   <g id="patch_27">
    <path d="M 8122.812495 536.38 
L 8458.894563 536.38 
L 8458.894563 536.38 
L 8122.812495 536.38 
z
" clip-path="url(#pf60ada2837)" style="fill: #0000ff; opacity: 0.3"/>
   </g>
   <g id="patch_28">
    <path d="M 8458.894563 536.38 
L 8794.97663 536.38 
L 8794.97663 536.38 
L 8458.894563 536.38 
z
" clip-path="url(#pf60ada2837)" style="fill: #0000ff; opacity: 0.3"/>
   </g>
   <g id="patch_29">
    <path d="M 8794.97663 536.38 
L 9131.058698 536.38 
L 9131.058698 536.38 
L 8794.97663 536.38 
z
" clip-path="url(#pf60ada2837)" style="fill: #0000ff; opacity: 0.3"/>
   </g>
   <g id="patch_30">
    <path d="M 9131.058698 536.38 
L 9467.140765 536.38 
L 9467.140765 536.38 
L 9131.058698 536.38 
z
" clip-path="url(#pf60ada2837)" style="fill: #0000ff; opacity: 0.3"/>
   </g>
   <g id="patch_31">
    <path d="M 9467.140765 536.38 
L 9803.222833 536.38 
L 9803.222833 536.38 
L 9467.140765 536.38 
z
" clip-path="url(#pf60ada2837)" style="fill: #0000ff; opacity: 0.3"/>
   </g>
   <g id="patch_32">
    <path d="M 9803.222833 536.38 
L 10139.3049 536.38 
L 10139.3049 536.38 
L 9803.222833 536.38 
z
" clip-path="url(#pf60ada2837)" style="fill: #0000ff; opacity: 0.3"/>
   </g>
   <g id="patch_33">
    <path d="M 10139.3049 536.38 
L 10475.386968 536.38 
L 10475.386968 536.38 
L 10139.3049 536.38 
z
" clip-path="url(#pf60ada2837)" style="fill: #0000ff; opacity: 0.3"/>
   </g>
   <g id="patch_34">
    <path d="M 10475.386968 536.38 
L 10811.469035 536.38 
L 10811.469035 536.38 
L 10475.386968 536.38 
z
" clip-path="url(#pf60ada2837)" style="fill: #0000ff; opacity: 0.3"/>
   </g>
   <g id="patch_35">
    <path d="M 10811.469035 536.38 
L 11147.551103 536.38 
L 11147.551103 536.38 
L 10811.469035 536.38 
z
" clip-path="url(#pf60ada2837)" style="fill: #0000ff; opacity: 0.3"/>
   </g>
   <g id="patch_36">
    <path d="M 11147.551103 536.38 
L 11483.63317 536.38 
L 11483.63317 536.38 
L 11147.551103 536.38 
z
" clip-path="url(#pf60ada2837)" style="fill: #0000ff; opacity: 0.3"/>
   </g>
   <g id="patch_37">
    <path d="M 11483.63317 536.38 
L 11819.715238 536.38 
L 11819.715238 536.38 
L 11483.63317 536.38 
z
" clip-path="url(#pf60ada2837)" style="fill: #0000ff; opacity: 0.3"/>
   </g>
   <g id="patch_38">
    <path d="M 11819.715238 536.38 
L 12155.797305 536.38 
L 12155.797305 536.38 
L 11819.715238 536.38 
z
" clip-path="url(#pf60ada2837)" style="fill: #0000ff; opacity: 0.3"/>
   </g>
   <g id="patch_39">
    <path d="M 12155.797305 536.38 
L 12491.879373 536.38 
L 12491.879373 536.38 
L 12155.797305 536.38 
z
" clip-path="url(#pf60ada2837)" style="fill: #0000ff; opacity: 0.3"/>
   </g>
   <g id="patch_40">
    <path d="M 12491.879373 536.38 
L 12827.96144 536.38 
L 12827.96144 536.38 
L 12491.879373 536.38 
z
" clip-path="url(#pf60ada2837)" style="fill: #0000ff; opacity: 0.3"/>
   </g>
   <g id="patch_41">
    <path d="M 12827.96144 536.38 
L 13164.043508 536.38 
L 13164.043508 536.38 
L 12827.96144 536.38 
z
" clip-path="url(#pf60ada2837)" style="fill: #0000ff; opacity: 0.3"/>
   </g>
   <g id="patch_42">
    <path d="M 13164.043508 536.38 
L 13500.125575 536.38 
L 13500.125575 536.38 
L 13164.043508 536.38 
z
" clip-path="url(#pf60ada2837)" style="fill: #0000ff; opacity: 0.3"/>
   </g>
   <g id="patch_43">
    <path d="M 13500.125575 536.38 
L 13836.207643 536.38 
L 13836.207643 536.38 
L 13500.125575 536.38 
z
" clip-path="url(#pf60ada2837)" style="fill: #0000ff; opacity: 0.3"/>
   </g>
   <g id="patch_44">
    <path d="M 13836.207643 536.38 
L 14172.28971 536.38 
L 14172.28971 536.38 
L 13836.207643 536.38 
z
" clip-path="url(#pf60ada2837)" style="fill: #0000ff; opacity: 0.3"/>
   </g>
   <g id="patch_45">
    <path d="M 14172.28971 536.38 
L 14508.371778 536.38 
L 14508.371778 536.38 
L 14172.28971 536.38 
z
" clip-path="url(#pf60ada2837)" style="fill: #0000ff; opacity: 0.3"/>
   </g>
   <g id="patch_46">
    <path d="M 14508.371778 536.38 
L 14844.453845 536.38 
L 14844.453845 536.38 
L 14508.371778 536.38 
z
" clip-path="url(#pf60ada2837)" style="fill: #0000ff; opacity: 0.3"/>
   </g>
   <g id="patch_47">
    <path d="M 14844.453845 536.38 
L 15180.535913 536.38 
L 15180.535913 536.38 
L 14844.453845 536.38 
z
" clip-path="url(#pf60ada2837)" style="fill: #0000ff; opacity: 0.3"/>
   </g>
   <g id="patch_48">
    <path d="M 15180.535913 536.38 
L 15516.61798 536.38 
L 15516.61798 536.38 
L 15180.535913 536.38 
z
" clip-path="url(#pf60ada2837)" style="fill: #0000ff; opacity: 0.3"/>
   </g>
   <g id="patch_49">
    <path d="M 15516.61798 536.38 
L 15852.700048 536.38 
L 15852.700048 536.38 
L 15516.61798 536.38 
z
" clip-path="url(#pf60ada2837)" style="fill: #0000ff; opacity: 0.3"/>
   </g>
   <g id="patch_50">
    <path d="M 15852.700048 536.38 
L 16188.782115 536.38 
L 16188.782115 536.38 
L 15852.700048 536.38 
z
" clip-path="url(#pf60ada2837)" style="fill: #0000ff; opacity: 0.3"/>
   </g>
   <g id="patch_51">
    <path d="M 16188.782115 536.38 
L 16524.864183 536.38 
L 16524.864183 536.38 
L 16188.782115 536.38 
z
" clip-path="url(#pf60ada2837)" style="fill: #0000ff; opacity: 0.3"/>
   </g>
   <g id="patch_52">
    <path d="M 16524.864183 536.38 
L 16860.94625 536.38 
L 16860.94625 536.37866 
L 16524.864183 536.37866 
z
" clip-path="url(#pf60ada2837)" style="fill: #0000ff; opacity: 0.3"/>
   </g>
   <g id="patch_53">
    <path d="M 232.827654 536.38 
L 237.002118 536.38 
L 237.002118 -973.128599 
L 232.827654 -973.128599 
z
" clip-path="url(#pf60ada2837)" style="fill: #ffa500; opacity: 0.3"/>
   </g>
   <g id="patch_54">
    <path d="M 237.002118 536.38 
L 241.176583 536.38 
L 241.176583 473.074896 
L 237.002118 473.074896 
z
" clip-path="url(#pf60ada2837)" style="fill: #ffa500; opacity: 0.3"/>
   </g>
   <g id="patch_55">
    <path d="M 241.176583 536.38 
L 245.351048 536.38 
L 245.351048 366.63173 
L 241.176583 366.63173 
z
" clip-path="url(#pf60ada2837)" style="fill: #ffa500; opacity: 0.3"/>
   </g>
   <g id="patch_56">
    <path d="M 245.351048 536.38 
L 249.525513 536.38 
L 249.525513 87.20494 
L 245.351048 87.20494 
z
" clip-path="url(#pf60ada2837)" style="fill: #ffa500; opacity: 0.3"/>
   </g>
   <g id="patch_57">
    <path d="M 249.525513 536.38 
L 253.699977 536.38 
L 253.699977 420.015081 
L 249.525513 420.015081 
z
" clip-path="url(#pf60ada2837)" style="fill: #ffa500; opacity: 0.3"/>
   </g>
   <g id="patch_58">
    <path d="M 253.699977 536.38 
L 257.874442 536.38 
L 257.874442 450.535259 
L 253.699977 450.535259 
z
" clip-path="url(#pf60ada2837)" style="fill: #ffa500; opacity: 0.3"/>
   </g>
   <g id="patch_59">
    <path d="M 257.874442 536.38 
L 262.048907 536.38 
L 262.048907 182.108674 
L 257.874442 182.108674 
z
" clip-path="url(#pf60ada2837)" style="fill: #ffa500; opacity: 0.3"/>
   </g>
   <g id="patch_60">
    <path d="M 262.048907 536.38 
L 266.223372 536.38 
L 266.223372 425.407338 
L 262.048907 425.407338 
z
" clip-path="url(#pf60ada2837)" style="fill: #ffa500; opacity: 0.3"/>
   </g>
   <g id="patch_61">
    <path d="M 266.223372 536.38 
L 270.397836 536.38 
L 270.397836 410.524707 
L 266.223372 410.524707 
z
" clip-path="url(#pf60ada2837)" style="fill: #ffa500; opacity: 0.3"/>
   </g>
   <g id="patch_62">
    <path d="M 270.397836 536.38 
L 274.572301 536.38 
L 274.572301 368.357253 
L 270.397836 368.357253 
z
" clip-path="url(#pf60ada2837)" style="fill: #ffa500; opacity: 0.3"/>
   </g>
   <g id="patch_63">
    <path d="M 274.572301 536.38 
L 278.746766 536.38 
L 278.746766 456.143207 
L 274.572301 456.143207 
z
" clip-path="url(#pf60ada2837)" style="fill: #ffa500; opacity: 0.3"/>
   </g>
   <g id="patch_64">
    <path d="M 278.746766 536.38 
L 282.92123 536.38 
L 282.92123 397.367599 
L 278.746766 397.367599 
z
" clip-path="url(#pf60ada2837)" style="fill: #ffa500; opacity: 0.3"/>
   </g>
   <g id="patch_65">
    <path d="M 282.92123 536.38 
L 287.095695 536.38 
L 287.095695 436.299699 
L 282.92123 436.299699 
z
" clip-path="url(#pf60ada2837)" style="fill: #ffa500; opacity: 0.3"/>
   </g>
   <g id="patch_66">
    <path d="M 287.095695 536.38 
L 291.27016 536.38 
L 291.27016 158.814121 
L 287.095695 158.814121 
z
" clip-path="url(#pf60ada2837)" style="fill: #ffa500; opacity: 0.3"/>
   </g>
   <g id="patch_67">
    <path d="M 291.27016 536.38 
L 295.444625 536.38 
L 295.444625 414.299287 
L 291.27016 414.299287 
z
" clip-path="url(#pf60ada2837)" style="fill: #ffa500; opacity: 0.3"/>
   </g>
   <g id="patch_68">
    <path d="M 295.444625 536.38 
L 299.619089 536.38 
L 299.619089 430.368215 
L 295.444625 430.368215 
z
" clip-path="url(#pf60ada2837)" style="fill: #ffa500; opacity: 0.3"/>
   </g>
   <g id="patch_69">
    <path d="M 299.619089 536.38 
L 303.793554 536.38 
L 303.793554 360.161021 
L 299.619089 360.161021 
z
" clip-path="url(#pf60ada2837)" style="fill: #ffa500; opacity: 0.3"/>
   </g>
   <g id="patch_70">
    <path d="M 303.793554 536.38 
L 307.968019 536.38 
L 307.968019 216.079897 
L 303.793554 216.079897 
z
" clip-path="url(#pf60ada2837)" style="fill: #ffa500; opacity: 0.3"/>
   </g>
   <g id="patch_71">
    <path d="M 307.968019 536.38 
L 312.142484 536.38 
L 312.142484 420.877842 
L 307.968019 420.877842 
z
" clip-path="url(#pf60ada2837)" style="fill: #ffa500; opacity: 0.3"/>
   </g>
   <g id="patch_72">
    <path d="M 312.142484 536.38 
L 316.316948 536.38 
L 316.316948 470.378767 
L 312.142484 470.378767 
z
" clip-path="url(#pf60ada2837)" style="fill: #ffa500; opacity: 0.3"/>
   </g>
   <g id="patch_73">
    <path d="M 316.316948 536.38 
L 320.491413 536.38 
L 320.491413 451.290175 
L 316.316948 451.290175 
z
" clip-path="url(#pf60ada2837)" style="fill: #ffa500; opacity: 0.3"/>
   </g>
   <g id="patch_74">
    <path d="M 320.491413 536.38 
L 324.665878 536.38 
L 324.665878 239.482295 
L 320.491413 239.482295 
z
" clip-path="url(#pf60ada2837)" style="fill: #ffa500; opacity: 0.3"/>
   </g>
   <g id="patch_75">
    <path d="M 324.665878 536.38 
L 328.840343 536.38 
L 328.840343 442.339027 
L 324.665878 442.339027 
z
" clip-path="url(#pf60ada2837)" style="fill: #ffa500; opacity: 0.3"/>
   </g>
   <g id="patch_76">
    <path d="M 328.840343 536.38 
L 333.014807 536.38 
L 333.014807 319.072018 
L 328.840343 319.072018 
z
" clip-path="url(#pf60ada2837)" style="fill: #ffa500; opacity: 0.3"/>
   </g>
   <g id="patch_77">
    <path d="M 333.014807 536.38 
L 337.189272 536.38 
L 337.189272 128.725324 
L 333.014807 128.725324 
z
" clip-path="url(#pf60ada2837)" style="fill: #ffa500; opacity: 0.3"/>
   </g>
   <g id="patch_78">
    <path d="M 337.189272 536.38 
L 341.363737 536.38 
L 341.363737 413.975752 
L 337.189272 413.975752 
z
" clip-path="url(#pf60ada2837)" style="fill: #ffa500; opacity: 0.3"/>
   </g>
   <g id="patch_79">
    <path d="M 341.363737 536.38 
L 345.538202 536.38 
L 345.538202 432.417273 
L 341.363737 432.417273 
z
" clip-path="url(#pf60ada2837)" style="fill: #ffa500; opacity: 0.3"/>
   </g>
   <g id="patch_80">
    <path d="M 345.538202 536.38 
L 349.712666 536.38 
L 349.712666 450.643104 
L 345.538202 450.643104 
z
" clip-path="url(#pf60ada2837)" style="fill: #ffa500; opacity: 0.3"/>
   </g>
   <g id="patch_81">
    <path d="M 349.712666 536.38 
L 353.887131 536.38 
L 353.887131 243.688256 
L 349.712666 243.688256 
z
" clip-path="url(#pf60ada2837)" style="fill: #ffa500; opacity: 0.3"/>
   </g>
   <g id="patch_82">
    <path d="M 353.887131 536.38 
L 358.061596 536.38 
L 358.061596 379.680994 
L 353.887131 379.680994 
z
" clip-path="url(#pf60ada2837)" style="fill: #ffa500; opacity: 0.3"/>
   </g>
   <g id="patch_83">
    <path d="M 358.061596 536.38 
L 362.236061 536.38 
L 362.236061 413.436526 
L 358.061596 413.436526 
z
" clip-path="url(#pf60ada2837)" style="fill: #ffa500; opacity: 0.3"/>
   </g>
   <g id="patch_84">
    <path d="M 362.236061 536.38 
L 366.410525 536.38 
L 366.410525 379.465303 
L 362.236061 379.465303 
z
" clip-path="url(#pf60ada2837)" style="fill: #ffa500; opacity: 0.3"/>
   </g>
   <g id="patch_85">
    <path d="M 366.410525 536.38 
L 370.58499 536.38 
L 370.58499 272.914293 
L 366.410525 272.914293 
z
" clip-path="url(#pf60ada2837)" style="fill: #ffa500; opacity: 0.3"/>
   </g>
   <g id="patch_86">
    <path d="M 370.58499 536.38 
L 374.759455 536.38 
L 374.759455 428.750538 
L 370.58499 428.750538 
z
" clip-path="url(#pf60ada2837)" style="fill: #ffa500; opacity: 0.3"/>
   </g>
   <g id="patch_87">
    <path d="M 374.759455 536.38 
L 378.93392 536.38 
L 378.93392 451.39802 
L 374.759455 451.39802 
z
" clip-path="url(#pf60ada2837)" style="fill: #ffa500; opacity: 0.3"/>
   </g>
   <g id="patch_88">
    <path d="M 378.93392 536.38 
L 383.108384 536.38 
L 383.108384 372.886749 
L 378.93392 372.886749 
z
" clip-path="url(#pf60ada2837)" style="fill: #ffa500; opacity: 0.3"/>
   </g>
   <g id="patch_89">
    <path d="M 383.108384 536.38 
L 387.282849 536.38 
L 387.282849 421.093532 
L 383.108384 421.093532 
z
" clip-path="url(#pf60ada2837)" style="fill: #ffa500; opacity: 0.3"/>
   </g>
   <g id="patch_90">
    <path d="M 387.282849 536.38 
L 391.457314 536.38 
L 391.457314 427.564241 
L 387.282849 427.564241 
z
" clip-path="url(#pf60ada2837)" style="fill: #ffa500; opacity: 0.3"/>
   </g>
   <g id="patch_91">
    <path d="M 391.457314 536.38 
L 395.631779 536.38 
L 395.631779 341.395964 
L 391.457314 341.395964 
z
" clip-path="url(#pf60ada2837)" style="fill: #ffa500; opacity: 0.3"/>
   </g>
   <g id="patch_92">
    <path d="M 395.631779 536.38 
L 399.806243 536.38 
L 399.806243 310.336561 
L 395.631779 310.336561 
z
" clip-path="url(#pf60ada2837)" style="fill: #ffa500; opacity: 0.3"/>
   </g>
   <g id="patch_93">
    <path d="M 399.806243 536.38 
L 403.980708 536.38 
L 403.980708 466.927722 
L 399.806243 466.927722 
z
" clip-path="url(#pf60ada2837)" style="fill: #ffa500; opacity: 0.3"/>
   </g>
   <g id="patch_94">
    <path d="M 403.980708 536.38 
L 408.155173 536.38 
L 408.155173 413.220836 
L 403.980708 413.220836 
z
" clip-path="url(#pf60ada2837)" style="fill: #ffa500; opacity: 0.3"/>
   </g>
   <g id="patch_95">
    <path d="M 408.155173 536.38 
L 412.329638 536.38 
L 412.329638 450.103878 
L 408.155173 450.103878 
z
" clip-path="url(#pf60ada2837)" style="fill: #ffa500; opacity: 0.3"/>
   </g>
   <g id="patch_96">
    <path d="M 412.329638 536.38 
L 416.504102 536.38 
L 416.504102 373.102439 
L 412.329638 373.102439 
z
" clip-path="url(#pf60ada2837)" style="fill: #ffa500; opacity: 0.3"/>
   </g>
   <g id="patch_97">
    <path d="M 416.504102 536.38 
L 420.678567 536.38 
L 420.678567 401.142179 
L 416.504102 401.142179 
z
" clip-path="url(#pf60ada2837)" style="fill: #ffa500; opacity: 0.3"/>
   </g>
   <g id="patch_98">
    <path d="M 420.678567 536.38 
L 424.853032 536.38 
L 424.853032 464.339438 
L 420.678567 464.339438 
z
" clip-path="url(#pf60ada2837)" style="fill: #ffa500; opacity: 0.3"/>
   </g>
   <g id="patch_99">
    <path d="M 424.853032 536.38 
L 429.027497 536.38 
L 429.027497 440.505659 
L 424.853032 440.505659 
z
" clip-path="url(#pf60ada2837)" style="fill: #ffa500; opacity: 0.3"/>
   </g>
   <g id="patch_100">
    <path d="M 429.027497 536.38 
L 433.201961 536.38 
L 433.201961 312.169928 
L 429.027497 312.169928 
z
" clip-path="url(#pf60ada2837)" style="fill: #ffa500; opacity: 0.3"/>
   </g>
   <g id="patch_101">
    <path d="M 433.201961 536.38 
L 437.376426 536.38 
L 437.376426 447.084214 
L 433.201961 447.084214 
z
" clip-path="url(#pf60ada2837)" style="fill: #ffa500; opacity: 0.3"/>
   </g>
   <g id="patch_102">
    <path d="M 437.376426 536.38 
L 441.550891 536.38 
L 441.550891 -2905.92942 
L 437.376426 -2905.92942 
z
" clip-path="url(#pf60ada2837)" style="fill: #ffa500; opacity: 0.3"/>
   </g>
   <g id="matplotlib.axis_1">
    <g id="xtick_1">
     <g id="line2d_1">
      <path d="M 56.03375 536.38 
L 56.03375 26.745 
" clip-path="url(#pf60ada2837)" style="fill: none; stroke: #b0b0b0; stroke-opacity: 0.3; stroke-width: 0.8; stroke-linecap: square"/>
     </g>
     <g id="line2d_2">
      <defs>
       <path id="md7fab63d0d" d="M 0 0 
L 0 3.5 
" style="stroke: #000000; stroke-width: 0.8"/>
      </defs>
      <g>
       <use xlink:href="#md7fab63d0d" x="56.03375" y="536.38" style="stroke: #000000; stroke-width: 0.8"/>
      </g>
     </g>
     <g id="text_1">
      <!-- 0 -->
      <g transform="translate(53.53375 550.255) scale(0.1 -0.1)">
       <defs>
        <path id="SimHei-30" d="M 225 2537 
Q 250 3200 412 3587 
Q 575 3975 875 4225 
Q 1175 4475 1612 4475 
Q 2050 4475 2375 4112 
Q 2700 3750 2800 3200 
Q 2900 2650 2862 1937 
Q 2825 1225 2612 775 
Q 2400 325 1975 150 
Q 1550 -25 1125 187 
Q 700 400 525 750 
Q 350 1100 275 1487 
Q 200 1875 225 2537 
z
M 750 2687 
Q 675 2000 800 1462 
Q 925 925 1212 700 
Q 1500 475 1800 612 
Q 2100 750 2237 1162 
Q 2375 1575 2375 2062 
Q 2375 2550 2337 2950 
Q 2300 3350 2112 3675 
Q 1925 4000 1612 4012 
Q 1300 4025 1062 3700 
Q 825 3375 750 2687 
z
" transform="scale(0.015625)"/>
       </defs>
       <use xlink:href="#SimHei-30"/>
      </g>
     </g>
    </g>
    <g id="xtick_2">
     <g id="line2d_3">
      <path d="M 211.634792 536.38 
L 211.634792 26.745 
" clip-path="url(#pf60ada2837)" style="fill: none; stroke: #b0b0b0; stroke-opacity: 0.3; stroke-width: 0.8; stroke-linecap: square"/>
     </g>
     <g id="line2d_4">
      <g>
       <use xlink:href="#md7fab63d0d" x="211.634792" y="536.38" style="stroke: #000000; stroke-width: 0.8"/>
      </g>
     </g>
     <g id="text_2">
      <!-- 50 -->
      <g transform="translate(206.634792 550.255) scale(0.1 -0.1)">
       <defs>
        <path id="SimHei-35" d="M 550 1325 
Q 725 650 1150 575 
Q 1575 500 1837 662 
Q 2100 825 2212 1087 
Q 2325 1350 2312 1675 
Q 2300 2000 2137 2225 
Q 1975 2450 1725 2525 
Q 1475 2600 1162 2525 
Q 850 2450 650 2175 
L 225 2225 
Q 275 2375 700 4375 
L 2675 4375 
L 2675 3925 
L 1075 3925 
Q 950 3250 825 2850 
Q 1200 3025 1525 3012 
Q 1850 3000 2150 2862 
Q 2450 2725 2587 2487 
Q 2725 2250 2787 2012 
Q 2850 1775 2837 1500 
Q 2825 1225 2725 937 
Q 2625 650 2425 462 
Q 2225 275 1937 162 
Q 1650 50 1275 75 
Q 900 100 562 350 
Q 225 600 100 1200 
L 550 1325 
z
" transform="scale(0.015625)"/>
       </defs>
       <use xlink:href="#SimHei-35"/>
       <use xlink:href="#SimHei-30" x="50"/>
      </g>
     </g>
    </g>
    <g id="xtick_3">
     <g id="line2d_5">
      <path d="M 367.235833 536.38 
L 367.235833 26.745 
" clip-path="url(#pf60ada2837)" style="fill: none; stroke: #b0b0b0; stroke-opacity: 0.3; stroke-width: 0.8; stroke-linecap: square"/>
     </g>
     <g id="line2d_6">
      <g>
       <use xlink:href="#md7fab63d0d" x="367.235833" y="536.38" style="stroke: #000000; stroke-width: 0.8"/>
      </g>
     </g>
     <g id="text_3">
      <!-- 100 -->
      <g transform="translate(359.735833 550.255) scale(0.1 -0.1)">
       <defs>
        <path id="SimHei-31" d="M 1400 3600 
Q 1075 3275 575 2975 
L 575 3450 
Q 1200 3875 1600 4450 
L 1900 4450 
L 1900 150 
L 1400 150 
L 1400 3600 
z
" transform="scale(0.015625)"/>
       </defs>
       <use xlink:href="#SimHei-31"/>
       <use xlink:href="#SimHei-30" x="50"/>
       <use xlink:href="#SimHei-30" x="100"/>
      </g>
     </g>
    </g>
    <g id="xtick_4">
     <g id="line2d_7">
      <path d="M 522.836875 536.38 
L 522.836875 26.745 
" clip-path="url(#pf60ada2837)" style="fill: none; stroke: #b0b0b0; stroke-opacity: 0.3; stroke-width: 0.8; stroke-linecap: square"/>
     </g>
     <g id="line2d_8">
      <g>
       <use xlink:href="#md7fab63d0d" x="522.836875" y="536.38" style="stroke: #000000; stroke-width: 0.8"/>
      </g>
     </g>
     <g id="text_4">
      <!-- 150 -->
      <g transform="translate(515.336875 550.255) scale(0.1 -0.1)">
       <use xlink:href="#SimHei-31"/>
       <use xlink:href="#SimHei-35" x="50"/>
       <use xlink:href="#SimHei-30" x="100"/>
      </g>
     </g>
    </g>
    <g id="xtick_5">
     <g id="line2d_9">
      <path d="M 678.437917 536.38 
L 678.437917 26.745 
" clip-path="url(#pf60ada2837)" style="fill: none; stroke: #b0b0b0; stroke-opacity: 0.3; stroke-width: 0.8; stroke-linecap: square"/>
     </g>
     <g id="line2d_10">
      <g>
       <use xlink:href="#md7fab63d0d" x="678.437917" y="536.38" style="stroke: #000000; stroke-width: 0.8"/>
      </g>
     </g>
     <g id="text_5">
      <!-- 200 -->
      <g transform="translate(670.937917 550.255) scale(0.1 -0.1)">
       <defs>
        <path id="SimHei-32" d="M 300 250 
Q 325 625 650 925 
Q 975 1225 1475 1862 
Q 1975 2500 2125 2850 
Q 2275 3200 2237 3450 
Q 2200 3700 2000 3862 
Q 1800 4025 1537 4000 
Q 1275 3975 1037 3800 
Q 800 3625 675 3275 
L 200 3350 
Q 400 3925 712 4187 
Q 1025 4450 1450 4475 
Q 1700 4500 1900 4462 
Q 2100 4425 2312 4287 
Q 2525 4150 2662 3875 
Q 2800 3600 2762 3212 
Q 2725 2825 2375 2287 
Q 2025 1750 1025 600 
L 2825 600 
L 2825 150 
L 300 150 
L 300 250 
z
" transform="scale(0.015625)"/>
       </defs>
       <use xlink:href="#SimHei-32"/>
       <use xlink:href="#SimHei-30" x="50"/>
       <use xlink:href="#SimHei-30" x="100"/>
      </g>
     </g>
    </g>
    <g id="xtick_6">
     <g id="line2d_11">
      <path d="M 834.038958 536.38 
L 834.038958 26.745 
" clip-path="url(#pf60ada2837)" style="fill: none; stroke: #b0b0b0; stroke-opacity: 0.3; stroke-width: 0.8; stroke-linecap: square"/>
     </g>
     <g id="line2d_12">
      <g>
       <use xlink:href="#md7fab63d0d" x="834.038958" y="536.38" style="stroke: #000000; stroke-width: 0.8"/>
      </g>
     </g>
     <g id="text_6">
      <!-- 250 -->
      <g transform="translate(826.538958 550.255) scale(0.1 -0.1)">
       <use xlink:href="#SimHei-32"/>
       <use xlink:href="#SimHei-35" x="50"/>
       <use xlink:href="#SimHei-30" x="100"/>
      </g>
     </g>
    </g>
    <g id="xtick_7">
     <g id="line2d_13">
      <path d="M 989.64 536.38 
L 989.64 26.745 
" clip-path="url(#pf60ada2837)" style="fill: none; stroke: #b0b0b0; stroke-opacity: 0.3; stroke-width: 0.8; stroke-linecap: square"/>
     </g>
     <g id="line2d_14">
      <g>
       <use xlink:href="#md7fab63d0d" x="989.64" y="536.38" style="stroke: #000000; stroke-width: 0.8"/>
      </g>
     </g>
     <g id="text_7">
      <!-- 300 -->
      <g transform="translate(982.14 550.255) scale(0.1 -0.1)">
       <defs>
        <path id="SimHei-33" d="M 250 1225 
L 700 1300 
Q 800 975 1025 762 
Q 1250 550 1587 562 
Q 1925 575 2125 837 
Q 2325 1100 2300 1437 
Q 2275 1775 2037 1962 
Q 1800 2150 1275 2225 
L 1275 2550 
Q 1800 2600 2037 2825 
Q 2275 3050 2250 3412 
Q 2225 3775 1925 3937 
Q 1625 4100 1287 3975 
Q 950 3850 750 3275 
L 300 3350 
Q 450 3800 712 4100 
Q 975 4400 1425 4450 
Q 1875 4500 2212 4337 
Q 2550 4175 2687 3837 
Q 2825 3500 2725 3100 
Q 2625 2700 2150 2400 
Q 2500 2250 2687 1950 
Q 2875 1650 2812 1162 
Q 2750 675 2375 375 
Q 2000 75 1525 87 
Q 1050 100 700 387 
Q 350 675 250 1225 
z
" transform="scale(0.015625)"/>
       </defs>
       <use xlink:href="#SimHei-33"/>
       <use xlink:href="#SimHei-30" x="50"/>
       <use xlink:href="#SimHei-30" x="100"/>
      </g>
     </g>
    </g>
    <g id="text_8">
     <!-- 价格 -->
     <g transform="translate(512.836875 563.395625) scale(0.1 -0.1)">
      <defs>
       <path id="SimHei-4ef7" d="M 2200 4975 
Q 2050 4725 1650 3775 
L 1650 450 
Q 1650 -225 1675 -650 
L 1175 -650 
Q 1175 -225 1200 450 
L 1200 2975 
Q 900 2425 650 2100 
Q 525 2275 225 2450 
Q 750 3025 1125 3800 
Q 1500 4575 1625 5175 
Q 1950 5025 2200 4975 
z
M 4175 4700 
Q 4850 3525 6150 2950 
Q 5925 2750 5775 2500 
Q 4725 3100 3950 4300 
Q 3300 3125 2250 2350 
Q 2125 2525 1900 2725 
Q 2825 3325 3250 4050 
Q 3675 4775 3750 5150 
Q 4150 4950 4325 4900 
L 4175 4700 
z
M 3475 2650 
Q 3400 2075 3325 1087 
Q 3250 100 2325 -675 
Q 2175 -450 1925 -300 
Q 2850 350 2912 1262 
Q 2975 2175 2950 2700 
Q 3275 2650 3475 2650 
z
M 5075 2700 
Q 5050 2150 5050 1725 
L 5050 150 
Q 5050 -225 5075 -650 
L 4550 -650 
Q 4575 -225 4575 175 
L 4575 1875 
Q 4575 2150 4550 2700 
L 5075 2700 
z
" transform="scale(0.015625)"/>
       <path id="SimHei-683c" d="M 4075 4875 
Q 3975 4750 3750 4350 
L 5625 4350 
Q 5450 3850 5212 3437 
Q 4975 3025 4650 2650 
Q 4950 2450 5412 2287 
Q 5875 2125 6150 2100 
Q 5975 1900 5875 1600 
Q 5550 1725 5125 1912 
Q 4700 2100 4300 2400 
Q 3925 2125 3537 1937 
Q 3150 1750 2575 1550 
Q 2475 1775 2300 1925 
Q 2825 2050 3262 2250 
Q 3700 2450 3975 2675 
Q 3625 3050 3325 3575 
Q 3175 3350 2875 2950 
Q 2700 3100 2475 3200 
Q 2825 3550 3112 4075 
Q 3400 4600 3550 5100 
Q 3775 4950 4075 4875 
z
M 5575 1650 
Q 5550 1350 5550 575 
Q 5550 -200 5575 -575 
L 5050 -575 
L 5050 -175 
L 3500 -175 
L 3500 -600 
L 2975 -600 
Q 3000 -200 3000 550 
Q 3000 1325 2975 1650 
L 5575 1650 
z
M 1850 5100 
Q 1825 4775 1825 4475 
L 1825 3825 
Q 2300 3825 2525 3850 
L 2525 3400 
Q 2300 3425 1825 3425 
L 1825 2725 
Q 1950 2800 2125 2950 
Q 2350 2600 2550 2200 
Q 2350 2075 2175 1950 
Q 1975 2375 1825 2625 
L 1825 275 
Q 1825 -275 1850 -625 
L 1350 -625 
Q 1375 -275 1375 275 
L 1375 2425 
Q 1150 1850 625 850 
Q 475 1025 250 1150 
Q 650 1775 900 2375 
Q 1150 2975 1250 3425 
Q 900 3425 475 3400 
L 475 3850 
Q 925 3825 1375 3825 
L 1375 4475 
Q 1375 4750 1350 5100 
L 1850 5100 
z
M 5050 200 
L 5050 1275 
L 3500 1275 
L 3500 200 
L 5050 200 
z
M 4300 2925 
Q 4675 3300 4975 3975 
L 3550 3975 
Q 3850 3350 4300 2925 
z
" transform="scale(0.015625)"/>
      </defs>
      <use xlink:href="#SimHei-4ef7"/>
      <use xlink:href="#SimHei-683c" x="100"/>
     </g>
    </g>
   </g>
   <g id="matplotlib.axis_2">
    <g id="ytick_1">
     <g id="line2d_15">
      <path d="M 56.03375 536.38 
L 989.64 536.38 
" clip-path="url(#pf60ada2837)" style="fill: none; stroke: #b0b0b0; stroke-opacity: 0.3; stroke-width: 0.8; stroke-linecap: square"/>
     </g>
     <g id="line2d_16">
      <defs>
       <path id="m9b85b3cdbf" d="M 0 0 
L -3.5 0 
" style="stroke: #000000; stroke-width: 0.8"/>
      </defs>
      <g>
       <use xlink:href="#m9b85b3cdbf" x="56.03375" y="536.38" style="stroke: #000000; stroke-width: 0.8"/>
      </g>
     </g>
     <g id="text_9">
      <!-- 0.000 -->
      <g transform="translate(24.03375 539.8175) scale(0.1 -0.1)">
       <defs>
        <path id="SimHei-2e" d="M 1075 125 
L 500 125 
L 500 675 
L 1075 675 
L 1075 125 
z
" transform="scale(0.015625)"/>
       </defs>
       <use xlink:href="#SimHei-30"/>
       <use xlink:href="#SimHei-2e" x="50"/>
       <use xlink:href="#SimHei-30" x="100"/>
       <use xlink:href="#SimHei-30" x="150"/>
       <use xlink:href="#SimHei-30" x="200"/>
      </g>
     </g>
    </g>
    <g id="ytick_2">
     <g id="line2d_17">
      <path d="M 56.03375 451.440833 
L 989.64 451.440833 
" clip-path="url(#pf60ada2837)" style="fill: none; stroke: #b0b0b0; stroke-opacity: 0.3; stroke-width: 0.8; stroke-linecap: square"/>
     </g>
     <g id="line2d_18">
      <g>
       <use xlink:href="#m9b85b3cdbf" x="56.03375" y="451.440833" style="stroke: #000000; stroke-width: 0.8"/>
      </g>
     </g>
     <g id="text_10">
      <!-- 0.005 -->
      <g transform="translate(24.03375 454.878333) scale(0.1 -0.1)">
       <use xlink:href="#SimHei-30"/>
       <use xlink:href="#SimHei-2e" x="50"/>
       <use xlink:href="#SimHei-30" x="100"/>
       <use xlink:href="#SimHei-30" x="150"/>
       <use xlink:href="#SimHei-35" x="200"/>
      </g>
     </g>
    </g>
    <g id="ytick_3">
     <g id="line2d_19">
      <path d="M 56.03375 366.501667 
L 989.64 366.501667 
" clip-path="url(#pf60ada2837)" style="fill: none; stroke: #b0b0b0; stroke-opacity: 0.3; stroke-width: 0.8; stroke-linecap: square"/>
     </g>
     <g id="line2d_20">
      <g>
       <use xlink:href="#m9b85b3cdbf" x="56.03375" y="366.501667" style="stroke: #000000; stroke-width: 0.8"/>
      </g>
     </g>
     <g id="text_11">
      <!-- 0.010 -->
      <g transform="translate(24.03375 369.939167) scale(0.1 -0.1)">
       <use xlink:href="#SimHei-30"/>
       <use xlink:href="#SimHei-2e" x="50"/>
       <use xlink:href="#SimHei-30" x="100"/>
       <use xlink:href="#SimHei-31" x="150"/>
       <use xlink:href="#SimHei-30" x="200"/>
      </g>
     </g>
    </g>
    <g id="ytick_4">
     <g id="line2d_21">
      <path d="M 56.03375 281.5625 
L 989.64 281.5625 
" clip-path="url(#pf60ada2837)" style="fill: none; stroke: #b0b0b0; stroke-opacity: 0.3; stroke-width: 0.8; stroke-linecap: square"/>
     </g>
     <g id="line2d_22">
      <g>
       <use xlink:href="#m9b85b3cdbf" x="56.03375" y="281.5625" style="stroke: #000000; stroke-width: 0.8"/>
      </g>
     </g>
     <g id="text_12">
      <!-- 0.015 -->
      <g transform="translate(24.03375 285) scale(0.1 -0.1)">
       <use xlink:href="#SimHei-30"/>
       <use xlink:href="#SimHei-2e" x="50"/>
       <use xlink:href="#SimHei-30" x="100"/>
       <use xlink:href="#SimHei-31" x="150"/>
       <use xlink:href="#SimHei-35" x="200"/>
      </g>
     </g>
    </g>
    <g id="ytick_5">
     <g id="line2d_23">
      <path d="M 56.03375 196.623333 
L 989.64 196.623333 
" clip-path="url(#pf60ada2837)" style="fill: none; stroke: #b0b0b0; stroke-opacity: 0.3; stroke-width: 0.8; stroke-linecap: square"/>
     </g>
     <g id="line2d_24">
      <g>
       <use xlink:href="#m9b85b3cdbf" x="56.03375" y="196.623333" style="stroke: #000000; stroke-width: 0.8"/>
      </g>
     </g>
     <g id="text_13">
      <!-- 0.020 -->
      <g transform="translate(24.03375 200.060833) scale(0.1 -0.1)">
       <use xlink:href="#SimHei-30"/>
       <use xlink:href="#SimHei-2e" x="50"/>
       <use xlink:href="#SimHei-30" x="100"/>
       <use xlink:href="#SimHei-32" x="150"/>
       <use xlink:href="#SimHei-30" x="200"/>
      </g>
     </g>
    </g>
    <g id="ytick_6">
     <g id="line2d_25">
      <path d="M 56.03375 111.684167 
L 989.64 111.684167 
" clip-path="url(#pf60ada2837)" style="fill: none; stroke: #b0b0b0; stroke-opacity: 0.3; stroke-width: 0.8; stroke-linecap: square"/>
     </g>
     <g id="line2d_26">
      <g>
       <use xlink:href="#m9b85b3cdbf" x="56.03375" y="111.684167" style="stroke: #000000; stroke-width: 0.8"/>
      </g>
     </g>
     <g id="text_14">
      <!-- 0.025 -->
      <g transform="translate(24.03375 115.121667) scale(0.1 -0.1)">
       <use xlink:href="#SimHei-30"/>
       <use xlink:href="#SimHei-2e" x="50"/>
       <use xlink:href="#SimHei-30" x="100"/>
       <use xlink:href="#SimHei-32" x="150"/>
       <use xlink:href="#SimHei-35" x="200"/>
      </g>
     </g>
    </g>
    <g id="ytick_7">
     <g id="line2d_27">
      <path d="M 56.03375 26.745 
L 989.64 26.745 
" clip-path="url(#pf60ada2837)" style="fill: none; stroke: #b0b0b0; stroke-opacity: 0.3; stroke-width: 0.8; stroke-linecap: square"/>
     </g>
     <g id="line2d_28">
      <g>
       <use xlink:href="#m9b85b3cdbf" x="56.03375" y="26.745" style="stroke: #000000; stroke-width: 0.8"/>
      </g>
     </g>
     <g id="text_15">
      <!-- 0.030 -->
      <g transform="translate(24.03375 30.1825) scale(0.1 -0.1)">
       <use xlink:href="#SimHei-30"/>
       <use xlink:href="#SimHei-2e" x="50"/>
       <use xlink:href="#SimHei-30" x="100"/>
       <use xlink:href="#SimHei-33" x="150"/>
       <use xlink:href="#SimHei-30" x="200"/>
      </g>
     </g>
    </g>
    <g id="text_16">
     <!-- 密度 -->
     <g transform="translate(18.78375 291.5625) rotate(-90) scale(0.1 -0.1)">
      <defs>
       <path id="SimHei-5bc6" d="M 4825 3350 
Q 4475 3125 3962 2750 
Q 3450 2375 2775 2025 
L 4025 2025 
Q 4550 2025 4550 2600 
Q 4800 2450 5150 2325 
Q 4900 1775 4712 1687 
Q 4525 1600 4200 1600 
L 2875 1600 
Q 2225 1575 2175 1675 
Q 1125 1325 575 1175 
Q 475 1425 250 1675 
Q 850 1725 1262 1850 
Q 1675 1975 2000 2100 
L 2000 2750 
Q 2000 3000 1975 3400 
L 2550 3400 
Q 2525 3025 2525 2775 
L 2525 2350 
Q 2900 2525 3425 2887 
Q 3950 3250 4325 3775 
Q 4475 3625 4825 3350 
z
M 1225 550 
Q 1225 825 1200 1125 
L 1750 1125 
Q 1725 775 1725 525 
L 1725 0 
L 3075 0 
L 3075 700 
Q 3075 950 3025 1375 
L 3600 1375 
Q 3575 1100 3575 675 
L 3575 0 
L 4975 0 
L 4975 625 
Q 4975 875 4950 1200 
L 5500 1200 
Q 5475 900 5475 600 
L 5475 -225 
Q 5475 -425 5500 -700 
L 4975 -700 
L 4975 -400 
L 1200 -400 
Q 1225 -150 1225 75 
L 1225 550 
z
M 5375 3575 
L 5375 4150 
L 1150 4150 
L 1150 3550 
L 600 3550 
Q 625 3700 625 4000 
Q 625 4300 600 4575 
L 2975 4575 
Q 2900 4800 2775 5050 
Q 3000 5125 3325 5225 
Q 3425 5075 3575 4575 
L 5925 4575 
Q 5900 4250 5900 4025 
Q 5900 3825 5925 3575 
L 5375 3575 
z
M 1650 3275 
Q 1500 2850 1225 2250 
Q 900 2350 675 2400 
Q 950 2800 1100 3400 
Q 1350 3325 1650 3275 
z
M 5450 3325 
Q 5775 2925 6100 2450 
Q 5825 2350 5625 2200 
Q 5350 2675 5000 3050 
Q 5200 3175 5450 3325 
z
M 3225 3150 
Q 2875 3600 2575 3825 
Q 2775 3950 2975 4125 
Q 3175 3975 3650 3475 
Q 3450 3300 3225 3150 
z
" transform="scale(0.015625)"/>
       <path id="SimHei-5ea6" d="M 1750 1675 
Q 2450 1650 2875 1650 
L 5200 1650 
Q 4975 1250 4650 850 
Q 4325 450 4025 200 
Q 4350 50 4950 -50 
Q 5550 -150 6100 -150 
Q 5950 -300 5825 -650 
Q 5100 -550 4550 -412 
Q 4000 -275 3625 -100 
Q 3100 -325 2587 -462 
Q 2075 -600 1525 -675 
Q 1450 -475 1225 -250 
Q 1675 -250 2250 -125 
Q 2825 0 3250 200 
Q 2825 550 2400 1275 
L 1750 1250 
L 1750 1675 
z
M 2975 5075 
Q 3250 5150 3475 5250 
Q 3625 4975 3775 4525 
L 4700 4525 
Q 4975 4525 5700 4550 
L 5700 4100 
Q 5000 4125 4650 4125 
L 1375 4125 
Q 1375 3000 1350 2312 
Q 1325 1625 1212 950 
Q 1100 275 725 -525 
Q 500 -375 250 -300 
Q 650 400 762 1075 
Q 875 1750 887 2800 
Q 900 3850 875 4525 
L 3200 4525 
Q 3100 4850 2975 5075 
z
M 2475 3300 
Q 2475 3700 2450 3925 
L 2975 3925 
Q 2950 3725 2950 3300 
L 4300 3300 
Q 4300 3700 4275 3950 
L 4800 3950 
Q 4775 3650 4775 3300 
Q 5325 3300 5725 3325 
L 5725 2900 
Q 5350 2925 4775 2925 
Q 4775 2250 4800 1950 
L 2450 1950 
Q 2475 2350 2475 2925 
Q 2175 2925 1600 2900 
L 1600 3325 
Q 2175 3300 2475 3300 
z
M 4300 2350 
L 4300 2925 
L 2950 2925 
L 2950 2350 
L 4300 2350 
z
M 2875 1275 
Q 3200 775 3650 425 
Q 4025 700 4425 1275 
L 2900 1275 
L 2875 1275 
z
" transform="scale(0.015625)"/>
      </defs>
      <use xlink:href="#SimHei-5bc6"/>
      <use xlink:href="#SimHei-5ea6" x="100"/>
     </g>
    </g>
   </g>
   <g id="line2d_29">
    <path d="M 12.363185 536.377131 
L 97.252948 533.272511 
L 182.142711 473.443897 
L 267.032473 368.23537 
L 351.922236 363.179325 
L 436.811998 424.435617 
L 521.701761 482.317322 
L 606.591524 507.163205 
L 691.481286 520.333342 
L 776.371049 526.312714 
L 861.260811 532.029058 
L 946.150574 534.641067 
L 1009 535.239201 
L 1009 535.239201 
" clip-path="url(#pf60ada2837)" style="fill: none; stroke: #0000ff; stroke-width: 1.5; stroke-linecap: square"/>
   </g>
   <g id="line2d_30">
    <path d="M 210.230531 532.811919 
L 211.506498 530.523135 
L 212.782465 527.036269 
L 214.058433 521.891795 
L 215.3344 514.544386 
L 216.610367 504.391469 
L 217.886334 490.825864 
L 219.162302 473.313456 
L 220.438269 451.491381 
L 221.714236 425.275511 
L 222.990203 394.959531 
L 225.542138 325.450744 
L 228.094072 254.049341 
L 229.37004 222.364259 
L 230.646007 195.865547 
L 231.921974 176.025255 
L 233.197941 163.745575 
L 234.473909 159.240504 
L 235.749876 162.018181 
L 237.025843 170.968236 
L 238.30181 184.537474 
L 240.853745 218.499402 
L 243.405679 251.328849 
L 244.681647 264.855834 
L 245.957614 276.02911 
L 247.233581 285.006531 
L 248.509548 292.200764 
L 249.785516 298.154511 
L 254.889385 319.481557 
L 257.441319 332.44489 
L 261.269221 354.571293 
L 263.821155 369.068939 
L 265.097123 375.659898 
L 266.37309 381.591521 
L 267.649057 386.735585 
L 268.925024 390.996954 
L 270.200992 394.311493 
L 271.476959 396.640861 
L 272.752926 397.966093 
L 274.028893 398.282429 
L 275.304861 397.59776 
L 276.580828 395.93615 
L 277.856795 393.346334 
L 279.132762 389.913248 
L 280.40873 385.769008 
L 282.960664 376.138093 
L 285.512599 366.435427 
L 286.788566 362.227908 
L 288.064533 358.72943 
L 289.3405 356.046429 
L 290.616468 354.182551 
L 291.892435 353.043551 
L 293.168402 352.462194 
L 294.444369 352.239002 
L 296.996304 352.193149 
L 299.548238 352.322228 
L 300.824206 352.664073 
L 302.100173 353.433783 
L 303.37614 354.817844 
L 304.652107 356.943334 
L 305.928075 359.836138 
L 307.204042 363.399514 
L 311.031944 375.545558 
L 312.307911 378.955325 
L 313.583878 381.520829 
L 314.859845 383.037678 
L 316.135813 383.404137 
L 317.41178 382.615513 
L 318.687747 380.743001 
L 319.963714 377.905064 
L 321.239682 374.240579 
L 322.515649 369.891497 
L 325.067583 359.713627 
L 328.895485 343.478411 
L 330.171452 338.829534 
L 331.44742 335.090998 
L 332.723387 332.566557 
L 333.999354 331.486985 
L 335.275321 331.964917 
L 336.551289 333.96407 
L 337.827256 337.291366 
L 339.103223 341.615648 
L 342.931125 356.197468 
L 344.207092 360.212719 
L 345.483059 363.343069 
L 346.759027 365.511909 
L 348.034994 366.773128 
L 349.310961 367.279196 
L 350.586928 367.236971 
L 351.862896 366.862011 
L 355.690797 365.360059 
L 356.966765 365.027855 
L 358.242732 364.843111 
L 359.518699 364.840003 
L 360.794666 365.07786 
L 362.070634 365.646938 
L 363.346601 366.659855 
L 364.622568 368.230695 
L 365.898535 370.447147 
L 367.174503 373.342976 
L 368.45047 376.878013 
L 371.002404 385.307265 
L 373.554339 394.022523 
L 374.830306 397.838014 
L 376.106273 400.993458 
L 377.382241 403.339109 
L 378.658208 404.798923 
L 379.934175 405.369186 
L 381.210142 405.108138 
L 382.486109 404.120521 
L 383.762077 402.541338 
L 385.038044 400.522297 
L 390.141913 391.275139 
L 391.41788 389.487172 
L 392.693847 388.22009 
L 393.969815 387.599154 
L 395.245782 387.71098 
L 396.521749 388.589216 
L 397.797716 390.204368 
L 399.073684 392.46112 
L 400.349651 395.205099 
L 404.177553 404.318592 
L 405.45352 406.978412 
L 406.729487 409.200627 
L 408.005454 410.919193 
L 409.281422 412.123811 
L 410.557389 412.844618 
L 411.833356 413.127486 
L 413.109323 413.003396 
L 414.385291 412.45554 
L 415.661258 411.387166 
L 416.937225 409.592068 
L 418.213192 406.728596 
L 419.48916 402.297954 
L 420.765127 395.628706 
L 422.041094 385.872089 
L 423.317061 372.016191 
L 424.593029 352.930066 
L 425.868996 327.449628 
L 427.144963 294.513761 
L 428.42093 253.350481 
L 429.696898 203.699474 
L 430.972865 146.041184 
L 433.790449 -1 
M 447.935841 -1 
L 451.388341 210.711899 
L 452.664308 279.606311 
L 453.940275 339.594541 
L 455.216243 389.798528 
L 456.49221 430.26175 
L 457.768177 461.716018 
L 459.044144 485.325926 
L 460.320112 502.453562 
L 461.596079 514.470777 
L 462.872046 522.630396 
L 464.148013 527.99462 
L 464.148013 527.99462 
" clip-path="url(#pf60ada2837)" style="fill: none; stroke: #ffa500; stroke-width: 1.5; stroke-linecap: square"/>
   </g>
   <g id="line2d_31">
    <path d="M 378.223813 536.38 
L 378.223813 26.745 
" clip-path="url(#pf60ada2837)" style="fill: none; stroke-dasharray: 5.55,2.4; stroke-dashoffset: 0; stroke: #0000ff; stroke-width: 1.5"/>
   </g>
   <g id="line2d_32">
    <path d="M 349.316879 536.38 
L 349.316879 26.745 
" clip-path="url(#pf60ada2837)" style="fill: none; stroke-dasharray: 5.55,2.4; stroke-dashoffset: 0; stroke: #ffa500; stroke-width: 1.5"/>
   </g>
   <g id="line2d_33">
    <path d="M 441.550891 536.38 
L 441.550891 26.745 
" clip-path="url(#pf60ada2837)" style="fill: none; stroke: #ff0000; stroke-width: 1.5; stroke-linecap: square"/>
   </g>
   <g id="line2d_34">
    <path d="M 232.827654 536.38 
L 232.827654 26.745 
" clip-path="url(#pf60ada2837)" style="fill: none; stroke: #008000; stroke-width: 1.5; stroke-linecap: square"/>
   </g>
   <g id="patch_103">
    <path d="M 56.03375 536.38 
L 56.03375 26.745 
" style="fill: none; stroke: #000000; stroke-width: 0.8; stroke-linejoin: miter; stroke-linecap: square"/>
   </g>
   <g id="patch_104">
    <path d="M 989.64 536.38 
L 989.64 26.745 
" style="fill: none; stroke: #000000; stroke-width: 0.8; stroke-linejoin: miter; stroke-linecap: square"/>
   </g>
   <g id="patch_105">
    <path d="M 56.03375 536.38 
L 989.64 536.38 
" style="fill: none; stroke: #000000; stroke-width: 0.8; stroke-linejoin: miter; stroke-linecap: square"/>
   </g>
   <g id="patch_106">
    <path d="M 56.03375 26.745 
L 989.64 26.745 
" style="fill: none; stroke: #000000; stroke-width: 0.8; stroke-linejoin: miter; stroke-linecap: square"/>
   </g>
   <g id="text_17">
    <!-- Price_Range监管前后的价格分布 -->
    <g transform="translate(435.836875 20.745) scale(0.12 -0.12)">
     <defs>
      <path id="SimHei-50" d="M 2950 3100 
Q 2950 2500 2600 2150 
Q 2250 1800 1625 1800 
L 900 1800 
L 900 125 
L 325 125 
L 325 4400 
L 1625 4400 
Q 2250 4400 2600 4050 
Q 2950 3700 2950 3100 
z
M 2375 3100 
Q 2375 3575 2150 3750 
Q 1925 3925 1475 3925 
L 900 3925 
L 900 2275 
L 1475 2275 
Q 1925 2275 2150 2450 
Q 2375 2625 2375 3100 
z
" transform="scale(0.015625)"/>
      <path id="SimHei-72" d="M 2500 2425 
Q 2025 2500 1700 2287 
Q 1375 2075 1150 1550 
L 1150 125 
L 650 125 
L 650 2925 
L 1150 2925 
L 1150 2200 
Q 1375 2600 1712 2787 
Q 2050 2975 2500 2975 
L 2500 2425 
z
" transform="scale(0.015625)"/>
      <path id="SimHei-69" d="M 1800 3725 
L 1300 3725 
L 1300 4375 
L 1800 4375 
L 1800 3725 
z
M 1800 125 
L 1300 125 
L 1300 2925 
L 1800 2925 
L 1800 125 
z
" transform="scale(0.015625)"/>
      <path id="SimHei-63" d="M 2850 1250 
Q 2850 725 2487 400 
Q 2125 75 1575 75 
Q 1025 75 625 462 
Q 225 850 225 1525 
Q 225 2200 625 2587 
Q 1025 2975 1575 2975 
Q 2125 2975 2450 2687 
Q 2775 2400 2775 2000 
L 2225 2000 
Q 2200 2300 2012 2412 
Q 1825 2525 1575 2525 
Q 1275 2525 1025 2287 
Q 775 2050 775 1525 
Q 775 1000 1025 762 
Q 1275 525 1575 525 
Q 1900 525 2100 700 
Q 2300 875 2300 1250 
L 2850 1250 
z
" transform="scale(0.015625)"/>
      <path id="SimHei-65" d="M 2850 1075 
Q 2800 625 2450 350 
Q 2100 75 1625 75 
Q 1025 75 637 462 
Q 250 850 250 1525 
Q 250 2200 637 2587 
Q 1025 2975 1625 2975 
Q 2150 2975 2487 2637 
Q 2825 2300 2825 1525 
L 800 1525 
Q 800 975 1037 750 
Q 1275 525 1625 525 
Q 1900 525 2075 662 
Q 2250 800 2300 1075 
L 2850 1075 
z
M 2250 1925 
Q 2200 2275 2025 2412 
Q 1850 2550 1575 2550 
Q 1325 2550 1125 2412 
Q 925 2275 825 1925 
L 2250 1925 
z
" transform="scale(0.015625)"/>
      <path id="SimHei-5f" d="M 3150 -850 
L 0 -850 
L 0 -550 
L 3150 -550 
L 3150 -850 
z
" transform="scale(0.015625)"/>
      <path id="SimHei-52" d="M 3000 125 
L 2400 125 
L 1500 1975 
L 850 1975 
L 850 125 
L 275 125 
L 275 4400 
L 1525 4400 
Q 2125 4400 2500 4112 
Q 2875 3825 2875 3175 
Q 2875 2675 2625 2400 
Q 2375 2125 2050 2050 
L 3000 125 
z
M 2300 3175 
Q 2300 3525 2087 3725 
Q 1875 3925 1400 3925 
L 850 3925 
L 850 2450 
L 1550 2450 
Q 1850 2450 2075 2612 
Q 2300 2775 2300 3175 
z
" transform="scale(0.015625)"/>
      <path id="SimHei-61" d="M 2875 125 
L 2275 125 
Q 2225 175 2200 262 
Q 2175 350 2175 475 
Q 2000 275 1750 175 
Q 1500 75 1225 75 
Q 825 75 550 275 
Q 275 475 275 850 
Q 275 1225 525 1450 
Q 775 1675 1300 1750 
Q 1650 1800 1912 1875 
Q 2175 1950 2175 2075 
Q 2175 2225 2062 2375 
Q 1950 2525 1575 2525 
Q 1275 2525 1137 2412 
Q 1000 2300 950 2100 
L 400 2100 
Q 450 2500 762 2737 
Q 1075 2975 1575 2975 
Q 2125 2975 2400 2725 
Q 2675 2475 2675 2025 
L 2675 650 
Q 2675 500 2725 375 
Q 2775 250 2875 125 
z
M 2175 1050 
L 2175 1550 
Q 2025 1500 1887 1462 
Q 1750 1425 1425 1375 
Q 1050 1325 937 1200 
Q 825 1075 825 900 
Q 825 750 937 637 
Q 1050 525 1275 525 
Q 1500 525 1762 650 
Q 2025 775 2175 1050 
z
" transform="scale(0.015625)"/>
      <path id="SimHei-6e" d="M 2800 125 
L 2300 125 
L 2300 1925 
Q 2300 2225 2150 2400 
Q 2000 2575 1750 2575 
Q 1425 2575 1137 2237 
Q 850 1900 850 1400 
L 850 125 
L 350 125 
L 350 2925 
L 850 2925 
L 850 2400 
Q 1050 2675 1287 2825 
Q 1525 2975 1900 2975 
Q 2350 2975 2575 2725 
Q 2800 2475 2800 2100 
L 2800 125 
z
" transform="scale(0.015625)"/>
      <path id="SimHei-67" d="M 2975 2500 
Q 2800 2550 2637 2562 
Q 2475 2575 2300 2525 
Q 2375 2450 2425 2337 
Q 2475 2225 2475 2000 
Q 2475 1575 2187 1300 
Q 1900 1025 1475 1025 
Q 1375 1025 1212 1062 
Q 1050 1100 950 1150 
Q 875 1100 850 1050 
Q 825 1000 825 925 
Q 825 800 1000 737 
Q 1175 675 1625 675 
Q 2350 675 2612 475 
Q 2875 275 2875 -25 
Q 2875 -425 2487 -612 
Q 2100 -800 1575 -800 
Q 900 -800 575 -625 
Q 250 -450 250 -150 
Q 250 0 375 150 
Q 500 300 700 400 
Q 550 475 462 587 
Q 375 700 375 875 
Q 375 1025 487 1137 
Q 600 1250 750 1325 
Q 625 1450 550 1625 
Q 475 1800 475 2000 
Q 475 2425 762 2700 
Q 1050 2975 1475 2975 
Q 1700 2975 1862 2912 
Q 2025 2850 2150 2725 
Q 2350 2875 2550 2937 
Q 2750 3000 2975 2975 
L 2975 2500 
z
M 1975 2000 
Q 1975 2250 1850 2400 
Q 1725 2550 1475 2550 
Q 1225 2550 1100 2400 
Q 975 2250 975 2000 
Q 975 1750 1100 1600 
Q 1225 1450 1475 1450 
Q 1725 1450 1850 1600 
Q 1975 1750 1975 2000 
z
M 2400 -75 
Q 2400 25 2287 125 
Q 2175 225 1725 225 
Q 1625 225 1450 237 
Q 1275 250 1050 275 
Q 850 200 775 100 
Q 700 0 700 -100 
Q 700 -250 900 -350 
Q 1100 -450 1600 -450 
Q 2025 -450 2212 -337 
Q 2400 -225 2400 -75 
z
" transform="scale(0.015625)"/>
      <path id="SimHei-76d1" d="M 5525 1775 
Q 5500 1350 5500 950 
L 5500 0 
Q 5850 0 6175 50 
L 6175 -475 
Q 5575 -425 4875 -425 
L 1425 -425 
Q 725 -425 225 -475 
L 225 50 
Q 600 0 925 0 
L 925 950 
Q 925 1350 900 1775 
L 5525 1775 
z
M 4600 5025 
Q 4425 4800 4337 4562 
Q 4250 4325 4175 4125 
L 5300 4125 
Q 5725 4125 6150 4150 
L 6150 3675 
Q 5750 3725 5275 3725 
L 4050 3725 
Q 3800 3125 3375 2425 
Q 3175 2575 2900 2675 
Q 3100 2925 3312 3362 
Q 3525 3800 3700 4325 
Q 3875 4850 3975 5250 
Q 4300 5125 4600 5025 
z
M 2750 5200 
Q 2700 4950 2700 4475 
L 2700 3050 
Q 2700 2600 2725 2075 
L 2200 2075 
Q 2225 2600 2225 3050 
L 2225 4425 
Q 2225 4775 2200 5200 
L 2750 5200 
z
M 1450 4900 
Q 1400 4575 1400 4125 
L 1400 3200 
Q 1400 2825 1425 2325 
L 900 2325 
Q 925 2825 925 3200 
L 925 4200 
Q 925 4550 900 4900 
L 1450 4900 
z
M 5025 -25 
L 5025 1325 
L 4125 1325 
L 4125 -25 
L 5025 -25 
z
M 2300 -25 
L 2300 1325 
L 1400 1325 
L 1400 -25 
L 2300 -25 
z
M 3650 -25 
L 3650 1325 
L 2775 1325 
L 2775 -25 
L 3650 -25 
z
M 4575 3500 
Q 4850 3300 5100 3037 
Q 5350 2775 5625 2475 
Q 5450 2325 5225 2125 
L 4725 2675 
Q 4475 2950 4250 3150 
Q 4400 3350 4575 3500 
z
" transform="scale(0.015625)"/>
      <path id="SimHei-7ba1" d="M 4975 2550 
Q 4950 2150 4950 1950 
Q 4950 1775 4975 1400 
L 1900 1400 
L 1900 975 
L 5225 975 
Q 5200 425 5200 150 
Q 5200 -100 5225 -550 
L 4725 -550 
L 4725 -300 
L 1900 -300 
L 1900 -625 
L 1375 -625 
Q 1400 25 1400 150 
L 1400 1725 
Q 1400 2150 1375 2550 
L 4975 2550 
z
M 3200 4050 
Q 3500 3475 3550 3350 
L 6000 3350 
Q 5975 3000 5975 2825 
Q 5975 2675 6000 2375 
L 5450 2375 
L 5450 2950 
L 925 2950 
L 925 2350 
L 375 2350 
Q 400 2575 400 2800 
Q 400 3025 375 3350 
L 2975 3350 
Q 2900 3550 2725 3850 
Q 2975 3900 3200 4050 
z
M 3250 4275 
Q 2850 4300 2325 4300 
L 2575 3800 
Q 2275 3725 2050 3625 
Q 1975 3975 1850 4300 
L 1525 4300 
Q 1300 4025 1137 3862 
Q 975 3700 750 3525 
Q 600 3725 300 3875 
Q 825 4225 1100 4575 
Q 1375 4925 1500 5300 
Q 1725 5200 2125 5100 
Q 1950 4925 1800 4700 
L 2625 4700 
Q 2925 4700 3250 4725 
L 3250 4275 
z
M 4925 3600 
Q 4850 3950 4700 4300 
L 4225 4300 
Q 4000 3950 3850 3725 
Q 3575 3875 3350 4000 
Q 3650 4275 3825 4587 
Q 4000 4900 4100 5275 
Q 4375 5175 4725 5100 
Q 4525 4925 4425 4700 
L 5400 4700 
Q 5625 4700 6125 4725 
L 6125 4275 
Q 5750 4300 5175 4300 
L 5425 3800 
L 4925 3600 
z
M 4725 75 
L 4725 575 
L 1900 575 
L 1900 75 
L 4725 75 
z
M 4475 1775 
L 4475 2175 
L 1900 2175 
L 1900 1775 
L 4475 1775 
z
" transform="scale(0.015625)"/>
      <path id="SimHei-524d" d="M 2075 -100 
Q 2400 -100 2537 -87 
Q 2675 -75 2675 100 
L 2675 875 
L 1325 875 
L 1325 -650 
L 800 -650 
Q 850 -200 850 350 
L 850 2350 
Q 850 2850 825 3300 
L 3175 3300 
Q 3150 2875 3150 2375 
L 3150 -150 
Q 3150 -400 2950 -475 
Q 2750 -550 2275 -625 
Q 2200 -350 2075 -100 
z
M 4950 5075 
Q 4825 4975 4687 4750 
Q 4550 4525 4375 4225 
L 5400 4225 
Q 5750 4225 6175 4250 
L 6175 3775 
Q 5775 3825 5300 3825 
L 1350 3825 
Q 700 3825 250 3775 
L 250 4250 
Q 775 4225 1350 4225 
L 3875 4225 
Q 4300 5025 4350 5300 
Q 4625 5150 4950 5075 
z
M 4375 -75 
Q 4825 -100 4937 -75 
Q 5050 -50 5050 150 
L 5050 2750 
Q 5050 3050 5025 3400 
L 5550 3400 
Q 5525 3075 5525 2750 
L 5525 -25 
Q 5525 -350 5362 -450 
Q 5200 -550 4600 -600 
Q 4550 -275 4375 -75 
z
M 3775 575 
Q 3800 950 3800 1225 
L 3800 2375 
Q 3800 2775 3775 3075 
L 4300 3075 
Q 4275 2775 4275 2375 
L 4275 1250 
Q 4275 875 4300 575 
L 3775 575 
z
M 2675 2250 
L 2675 2925 
L 1325 2925 
L 1325 2250 
L 2675 2250 
z
M 2675 1250 
L 2675 1875 
L 1325 1875 
L 1325 1250 
L 2675 1250 
z
M 2225 4300 
Q 2125 4575 1750 5050 
Q 2025 5175 2200 5300 
Q 2550 4850 2725 4550 
Q 2500 4450 2225 4300 
z
" transform="scale(0.015625)"/>
      <path id="SimHei-540e" d="M 5475 2150 
Q 5450 1750 5450 775 
Q 5450 -175 5500 -550 
L 4975 -550 
L 4975 -25 
L 2525 -25 
L 2525 -600 
L 2025 -600 
Q 2050 -175 2050 775 
Q 2050 1750 2025 2150 
L 5475 2150 
z
M 5175 5075 
Q 5300 4800 5525 4525 
Q 4950 4475 3750 4337 
Q 2550 4200 1575 4175 
L 1575 3375 
L 5200 3375 
Q 5550 3375 5975 3400 
L 5975 2900 
Q 5575 2925 5200 2925 
L 1575 2925 
Q 1550 2425 1487 1875 
Q 1425 1325 1250 712 
Q 1075 100 800 -325 
Q 650 -200 225 -50 
Q 625 325 825 1062 
Q 1025 1800 1050 2825 
Q 1075 3850 1075 4575 
Q 2300 4600 3625 4775 
Q 4950 4950 5175 5075 
z
M 4975 375 
L 4975 1725 
L 2525 1725 
L 2525 375 
L 4975 375 
z
" transform="scale(0.015625)"/>
      <path id="SimHei-7684" d="M 2100 4975 
Q 1975 4750 1750 3950 
L 2875 3950 
Q 2850 3525 2850 2875 
L 2850 675 
Q 2850 300 2875 -400 
L 2375 -400 
L 2375 100 
L 1100 100 
L 1100 -450 
L 600 -450 
Q 625 350 625 550 
L 625 2850 
Q 625 3525 600 3950 
L 1325 3950 
Q 1450 4525 1525 5150 
Q 1875 5025 2100 4975 
z
M 5825 3075 
Q 5800 1550 5700 175 
Q 5650 -275 5225 -425 
Q 4800 -575 4275 -625 
Q 4250 -350 4050 -50 
Q 4550 -75 4837 -25 
Q 5125 25 5200 200 
Q 5275 375 5312 1225 
Q 5350 2075 5375 3600 
L 3925 3600 
Q 3725 3125 3350 2475 
Q 3175 2650 2925 2750 
Q 3150 3050 3350 3475 
Q 3550 3900 3700 4400 
Q 3850 4900 3875 5175 
Q 4225 5025 4475 4950 
Q 4350 4750 4262 4512 
Q 4175 4275 4075 4050 
L 5850 4050 
Q 5825 3525 5825 3075 
z
M 2375 525 
L 2375 1850 
L 1100 1850 
L 1100 525 
L 2375 525 
z
M 2375 2275 
L 2375 3525 
L 1100 3525 
L 1100 2275 
L 2375 2275 
z
M 4350 2050 
Q 4500 1750 4700 1275 
Q 4525 1200 4225 1025 
Q 4050 1500 3900 1837 
Q 3750 2175 3600 2400 
Q 3775 2500 4050 2650 
L 4350 2050 
z
" transform="scale(0.015625)"/>
      <path id="SimHei-5206" d="M 1000 -650 
Q 825 -375 575 -225 
Q 975 -75 1300 137 
Q 1625 350 1875 662 
Q 2125 975 2250 1350 
Q 2375 1725 2425 2275 
Q 1850 2275 1500 2250 
L 1500 2775 
Q 1900 2750 2525 2750 
L 5025 2750 
Q 4975 2375 4950 2100 
L 4750 250 
Q 4700 -200 4350 -350 
Q 4000 -500 3575 -525 
Q 3550 -275 3325 50 
Q 3850 25 4037 87 
Q 4225 150 4275 525 
L 4450 2275 
L 2950 2275 
Q 2875 1625 2737 1187 
Q 2600 750 2350 425 
Q 2100 100 1750 -175 
Q 1400 -450 1000 -650 
z
M 3950 5175 
Q 4125 4650 4662 3975 
Q 5200 3300 6175 2800 
Q 5975 2625 5775 2275 
Q 5325 2600 4987 2887 
Q 4650 3175 4425 3425 
Q 4200 3675 3925 4137 
Q 3650 4600 3475 5000 
Q 3750 5075 3950 5175 
z
M 2700 4825 
Q 2475 4425 2325 4125 
Q 2175 3825 2025 3587 
Q 1875 3350 1575 2950 
Q 1275 2550 850 2125 
Q 625 2350 400 2475 
Q 900 2925 1187 3300 
Q 1475 3675 1737 4112 
Q 2000 4550 2200 5075 
Q 2400 4925 2700 4825 
z
" transform="scale(0.015625)"/>
      <path id="SimHei-5e03" d="M 2375 4225 
Q 2650 4775 2775 5300 
Q 3125 5175 3400 5075 
Q 3275 4975 2950 4225 
L 4800 4225 
Q 5550 4225 6025 4250 
L 6025 3800 
L 2725 3800 
Q 2325 3100 1975 2675 
L 3275 2675 
Q 3275 3225 3250 3575 
L 3775 3575 
Q 3750 3225 3750 2675 
L 5500 2675 
Q 5475 2225 5475 1775 
L 5475 750 
Q 5475 275 5212 150 
Q 4950 25 4450 -25 
Q 4400 325 4225 550 
Q 4800 550 4912 625 
Q 5025 700 5000 1025 
L 5000 2250 
L 3750 2250 
L 3750 550 
Q 3750 25 3775 -600 
L 3250 -600 
Q 3275 25 3275 550 
L 3275 2250 
L 2100 2250 
L 2100 0 
L 1600 0 
Q 1625 525 1625 1025 
L 1625 2225 
Q 1300 1850 650 1275 
Q 475 1475 200 1650 
Q 750 2025 1262 2562 
Q 1775 3100 2150 3800 
L 1550 3800 
Q 925 3800 400 3775 
L 400 4250 
Q 925 4225 1550 4225 
L 2375 4225 
z
" transform="scale(0.015625)"/>
     </defs>
     <use xlink:href="#SimHei-50"/>
     <use xlink:href="#SimHei-72" x="50"/>
     <use xlink:href="#SimHei-69" x="100"/>
     <use xlink:href="#SimHei-63" x="150"/>
     <use xlink:href="#SimHei-65" x="200"/>
     <use xlink:href="#SimHei-5f" x="250"/>
     <use xlink:href="#SimHei-52" x="300"/>
     <use xlink:href="#SimHei-61" x="350"/>
     <use xlink:href="#SimHei-6e" x="400"/>
     <use xlink:href="#SimHei-67" x="450"/>
     <use xlink:href="#SimHei-65" x="500"/>
     <use xlink:href="#SimHei-76d1" x="550"/>
     <use xlink:href="#SimHei-7ba1" x="650"/>
     <use xlink:href="#SimHei-524d" x="750"/>
     <use xlink:href="#SimHei-540e" x="850"/>
     <use xlink:href="#SimHei-7684" x="950"/>
     <use xlink:href="#SimHei-4ef7" x="1050"/>
     <use xlink:href="#SimHei-683c" x="1150"/>
     <use xlink:href="#SimHei-5206" x="1250"/>
     <use xlink:href="#SimHei-5e03" x="1350"/>
    </g>
   </g>
   <g id="legend_1">
    <g id="patch_107">
     <path d="M 845.64 120.252813 
L 982.64 120.252813 
Q 984.64 120.252813 984.64 118.252813 
L 984.64 33.745 
Q 984.64 31.745 982.64 31.745 
L 845.64 31.745 
Q 843.64 31.745 843.64 33.745 
L 843.64 118.252813 
Q 843.64 120.252813 845.64 120.252813 
z
" style="fill: #ffffff; opacity: 0.8; stroke: #cccccc; stroke-linejoin: miter"/>
    </g>
    <g id="patch_108">
     <path d="M 847.64 43.830938 
L 867.64 43.830938 
L 867.64 36.830938 
L 847.64 36.830938 
z
" style="fill: #0000ff; opacity: 0.3"/>
    </g>
    <g id="text_18">
     <!-- 原始价格分布 -->
     <g transform="translate(875.64 43.830938) scale(0.1 -0.1)">
      <defs>
       <path id="SimHei-539f" d="M 3850 4275 
Q 3675 4025 3600 3700 
L 5450 3700 
Q 5425 3475 5425 3000 
L 5425 2225 
Q 5425 1825 5450 1475 
L 4050 1475 
L 4050 -50 
Q 4050 -400 3825 -487 
Q 3600 -575 3100 -625 
Q 3050 -325 2925 -50 
Q 3400 -75 3475 -37 
Q 3550 0 3550 175 
L 3550 1475 
L 2125 1475 
Q 2150 1775 2150 2200 
L 2150 3025 
Q 2150 3425 2125 3700 
L 3150 3700 
Q 3300 4250 3300 4425 
L 3850 4275 
z
M 275 -325 
Q 725 275 875 1037 
Q 1025 1800 1025 2300 
L 1025 4125 
Q 1025 4650 1000 4900 
L 5025 4900 
Q 5575 4900 5800 4925 
L 5800 4475 
Q 5600 4500 5025 4500 
L 1525 4500 
L 1525 2375 
Q 1500 1650 1412 1112 
Q 1325 575 1137 125 
Q 950 -325 800 -575 
Q 550 -400 275 -325 
z
M 4925 2775 
L 4925 3325 
L 2625 3325 
L 2625 2775 
L 4925 2775 
z
M 4925 1875 
L 4925 2400 
L 2625 2400 
L 2625 1875 
L 4925 1875 
z
M 1475 -50 
Q 1800 150 2087 450 
Q 2375 750 2575 1100 
Q 2800 875 2975 750 
Q 2300 -50 1825 -400 
Q 1675 -225 1475 -50 
z
M 4825 1075 
Q 5700 300 5925 25 
Q 5750 -125 5575 -325 
Q 5250 75 4500 725 
Q 4675 925 4825 1075 
z
" transform="scale(0.015625)"/>
       <path id="SimHei-59cb" d="M 1750 5075 
Q 1650 4900 1587 4587 
Q 1525 4275 1475 3875 
L 2550 3875 
Q 2400 2150 1950 1100 
Q 2275 850 2725 425 
Q 2550 275 2375 50 
Q 2000 500 1750 675 
Q 1525 275 1250 -62 
Q 975 -400 700 -675 
Q 600 -525 250 -350 
Q 575 -125 862 200 
Q 1150 525 1375 975 
Q 800 1400 500 1550 
Q 875 2925 950 3425 
Q 650 3425 325 3400 
L 325 3900 
Q 675 3875 1025 3875 
Q 1175 4825 1175 5225 
Q 1550 5125 1750 5075 
z
M 5725 2050 
Q 5700 1650 5700 650 
Q 5700 -325 5725 -650 
L 5200 -650 
L 5200 -100 
L 3450 -100 
L 3450 -675 
L 2950 -675 
Q 2975 -300 2975 675 
Q 2975 1650 2950 2050 
L 5725 2050 
z
M 4400 4950 
Q 3750 3875 3250 3150 
Q 3875 3150 4250 3175 
Q 4625 3200 5200 3225 
Q 4875 3675 4625 3900 
Q 4825 4000 5025 4225 
Q 5750 3300 6125 2850 
Q 6000 2775 5725 2550 
Q 5575 2775 5450 2875 
Q 4575 2825 3937 2762 
Q 3300 2700 2825 2575 
Q 2775 2800 2600 3100 
Q 2875 3225 3237 3850 
Q 3600 4475 3825 5200 
Q 4025 5050 4400 4950 
z
M 5200 325 
L 5200 1600 
L 3450 1600 
L 3450 325 
L 5200 325 
z
M 1025 1775 
Q 1300 1550 1575 1400 
Q 1725 1725 1875 2337 
Q 2025 2950 2050 3425 
L 1400 3425 
Q 1300 2950 1025 1775 
z
" transform="scale(0.015625)"/>
      </defs>
      <use xlink:href="#SimHei-539f"/>
      <use xlink:href="#SimHei-59cb" x="100"/>
      <use xlink:href="#SimHei-4ef7" x="200"/>
      <use xlink:href="#SimHei-683c" x="300"/>
      <use xlink:href="#SimHei-5206" x="400"/>
      <use xlink:href="#SimHei-5e03" x="500"/>
     </g>
    </g>
    <g id="patch_109">
     <path d="M 847.64 58.166875 
L 867.64 58.166875 
L 867.64 51.166875 
L 847.64 51.166875 
z
" style="fill: #ffa500; opacity: 0.3"/>
    </g>
    <g id="text_19">
     <!-- 监管后价格分布 -->
     <g transform="translate(875.64 58.166875) scale(0.1 -0.1)">
      <use xlink:href="#SimHei-76d1"/>
      <use xlink:href="#SimHei-7ba1" x="100"/>
      <use xlink:href="#SimHei-540e" x="200"/>
      <use xlink:href="#SimHei-4ef7" x="300"/>
      <use xlink:href="#SimHei-683c" x="400"/>
      <use xlink:href="#SimHei-5206" x="500"/>
      <use xlink:href="#SimHei-5e03" x="600"/>
     </g>
    </g>
    <g id="line2d_35">
     <path d="M 847.64 68.885625 
L 857.64 68.885625 
L 867.64 68.885625 
" style="fill: none; stroke-dasharray: 5.55,2.4; stroke-dashoffset: 0; stroke: #0000ff; stroke-width: 1.5"/>
    </g>
    <g id="text_20">
     <!-- 原始平均价格: 103.53 -->
     <g transform="translate(875.64 72.385625) scale(0.1 -0.1)">
      <defs>
       <path id="SimHei-5e73" d="M 4525 4825 
Q 4900 4825 5450 4850 
L 5450 4375 
Q 4925 4400 4525 4400 
L 3475 4400 
L 3475 2025 
L 5000 2025 
Q 5550 2025 6025 2050 
L 6025 1575 
Q 5550 1600 5000 1600 
L 3475 1600 
L 3475 450 
Q 3475 -100 3500 -600 
L 2925 -600 
Q 2950 -100 2950 450 
L 2950 1600 
L 1125 1600 
Q 775 1600 375 1575 
L 375 2050 
Q 775 2025 1175 2025 
L 2950 2025 
L 2950 4400 
L 1775 4400 
Q 1400 4400 875 4375 
L 875 4850 
Q 1400 4825 1750 4825 
L 4525 4825 
z
M 3925 2600 
Q 4500 3300 4900 4125 
Q 5150 3950 5400 3825 
Q 4775 2850 4350 2300 
Q 4150 2475 3925 2600 
z
M 1975 2350 
Q 1600 3100 1050 3725 
Q 1250 3875 1450 4050 
Q 2075 3300 2450 2725 
Q 2150 2500 1975 2350 
z
" transform="scale(0.015625)"/>
       <path id="SimHei-5747" d="M 5775 275 
Q 5775 -325 5362 -450 
Q 4950 -575 4425 -600 
Q 4375 -275 4250 25 
Q 4950 -25 5125 62 
Q 5300 150 5300 500 
L 5375 3700 
L 3550 3700 
Q 3425 3375 3262 3037 
Q 3100 2700 2925 2400 
Q 2675 2550 2475 2625 
Q 3150 3625 3500 5200 
Q 3800 5100 4075 5025 
Q 3975 4875 3875 4650 
Q 3775 4425 3675 4125 
L 5900 4125 
L 5775 275 
z
M 1250 3625 
L 1250 4375 
Q 1250 4775 1225 5100 
L 1775 5100 
Q 1750 4725 1750 4375 
L 1750 3625 
L 1900 3625 
Q 2200 3625 2525 3650 
L 2525 3150 
Q 2200 3175 1900 3175 
L 1750 3175 
L 1750 1100 
L 2500 1375 
Q 2475 1125 2525 900 
Q 1225 475 962 362 
Q 700 250 475 150 
Q 375 475 250 750 
Q 575 800 800 850 
Q 1025 900 1250 975 
L 1250 3175 
L 1125 3175 
Q 850 3175 400 3150 
L 400 3650 
Q 850 3625 1100 3625 
L 1250 3625 
z
M 4950 1625 
Q 4675 1425 4137 1050 
Q 3600 675 3175 300 
Q 3000 575 2850 775 
Q 3350 1050 3762 1325 
Q 4175 1600 4775 2075 
Q 4825 1850 4950 1625 
z
M 3775 3150 
Q 4125 2800 4475 2300 
Q 4250 2125 4100 1975 
Q 3900 2325 3450 2825 
Q 3600 3000 3775 3150 
z
" transform="scale(0.015625)"/>
       <path id="SimHei-3a" d="M 1825 2425 
L 1250 2425 
L 1250 2975 
L 1825 2975 
L 1825 2425 
z
M 1825 125 
L 1250 125 
L 1250 675 
L 1825 675 
L 1825 125 
z
" transform="scale(0.015625)"/>
       <path id="SimHei-20" transform="scale(0.015625)"/>
      </defs>
      <use xlink:href="#SimHei-539f"/>
      <use xlink:href="#SimHei-59cb" x="100"/>
      <use xlink:href="#SimHei-5e73" x="200"/>
      <use xlink:href="#SimHei-5747" x="300"/>
      <use xlink:href="#SimHei-4ef7" x="400"/>
      <use xlink:href="#SimHei-683c" x="500"/>
      <use xlink:href="#SimHei-3a" x="600"/>
      <use xlink:href="#SimHei-20" x="650"/>
      <use xlink:href="#SimHei-31" x="700"/>
      <use xlink:href="#SimHei-30" x="750"/>
      <use xlink:href="#SimHei-33" x="800"/>
      <use xlink:href="#SimHei-2e" x="850"/>
      <use xlink:href="#SimHei-35" x="900"/>
      <use xlink:href="#SimHei-33" x="950"/>
     </g>
    </g>
    <g id="line2d_36">
     <path d="M 847.64 83.221563 
L 857.64 83.221563 
L 867.64 83.221563 
" style="fill: none; stroke-dasharray: 5.55,2.4; stroke-dashoffset: 0; stroke: #ffa500; stroke-width: 1.5"/>
    </g>
    <g id="text_21">
     <!-- 监管后平均价格: 94.24 -->
     <g transform="translate(875.64 86.721563) scale(0.1 -0.1)">
      <defs>
       <path id="SimHei-39" d="M 800 75 
Q 1350 1000 1700 1750 
Q 1075 1650 662 1912 
Q 250 2175 162 2625 
Q 75 3075 175 3437 
Q 275 3800 487 4037 
Q 700 4275 1000 4375 
Q 1300 4475 1537 4475 
Q 1775 4475 2025 4375 
Q 2275 4275 2475 4075 
Q 2675 3875 2750 3662 
Q 2825 3450 2825 3112 
Q 2825 2775 2575 2250 
Q 2325 1725 1350 75 
L 800 75 
z
M 662 2875 
Q 700 2550 937 2337 
Q 1175 2125 1450 2150 
Q 1725 2175 1887 2300 
Q 2050 2425 2200 2725 
Q 2300 3100 2250 3362 
Q 2200 3625 1987 3800 
Q 1775 3975 1525 3975 
Q 1375 4000 1137 3900 
Q 900 3800 762 3500 
Q 625 3200 662 2875 
z
" transform="scale(0.015625)"/>
       <path id="SimHei-34" d="M 2000 1100 
L 75 1100 
L 75 1525 
L 2100 4450 
L 2475 4450 
L 2475 1525 
L 3075 1525 
L 3075 1100 
L 2475 1100 
L 2475 150 
L 2000 150 
L 2000 1100 
z
M 2000 1525 
L 2000 3500 
L 600 1525 
L 2000 1525 
z
" transform="scale(0.015625)"/>
      </defs>
      <use xlink:href="#SimHei-76d1"/>
      <use xlink:href="#SimHei-7ba1" x="100"/>
      <use xlink:href="#SimHei-540e" x="200"/>
      <use xlink:href="#SimHei-5e73" x="300"/>
      <use xlink:href="#SimHei-5747" x="400"/>
      <use xlink:href="#SimHei-4ef7" x="500"/>
      <use xlink:href="#SimHei-683c" x="600"/>
      <use xlink:href="#SimHei-3a" x="700"/>
      <use xlink:href="#SimHei-20" x="750"/>
      <use xlink:href="#SimHei-39" x="800"/>
      <use xlink:href="#SimHei-34" x="850"/>
      <use xlink:href="#SimHei-2e" x="900"/>
      <use xlink:href="#SimHei-32" x="950"/>
      <use xlink:href="#SimHei-34" x="1000"/>
     </g>
    </g>
    <g id="line2d_37">
     <path d="M 847.64 97.362188 
L 857.64 97.362188 
L 867.64 97.362188 
" style="fill: none; stroke: #ff0000; stroke-width: 1.5; stroke-linecap: square"/>
    </g>
    <g id="text_22">
     <!-- 价格上限: 123.88 -->
     <g transform="translate(875.64 100.862188) scale(0.1 -0.1)">
      <defs>
       <path id="SimHei-4e0a" d="M 3250 5075 
Q 3225 4650 3225 4275 
L 3225 3225 
L 4650 3225 
Q 5150 3225 5600 3250 
L 5600 2700 
Q 5100 2725 4600 2725 
L 3225 2725 
L 3225 200 
L 5200 200 
Q 5575 200 6075 225 
L 6075 -300 
Q 5600 -275 5200 -275 
L 1250 -275 
Q 850 -275 350 -300 
L 350 225 
Q 825 200 1250 200 
L 2700 200 
L 2700 4250 
Q 2700 4625 2675 5075 
L 3250 5075 
z
" transform="scale(0.015625)"/>
       <path id="SimHei-9650" d="M 5550 4950 
Q 5525 4500 5525 3700 
Q 5525 2925 5550 2475 
L 4375 2475 
Q 4375 2000 4625 1475 
Q 5275 1900 5475 2250 
Q 5675 1950 5850 1800 
Q 5400 1575 4750 1150 
Q 5025 775 5325 500 
Q 5625 225 6200 25 
Q 5900 -125 5750 -450 
Q 5150 -75 4812 312 
Q 4475 700 4262 1212 
Q 4050 1725 3975 2475 
L 3400 2475 
L 3400 200 
Q 3800 400 4125 675 
Q 4150 450 4225 150 
Q 4000 25 3637 -175 
Q 3275 -375 3025 -575 
Q 2925 -375 2750 -125 
Q 2900 25 2950 325 
L 2950 3850 
Q 2950 4350 2925 4950 
L 5550 4950 
z
M 2500 4950 
Q 2050 3475 1875 2950 
Q 2375 2350 2450 1850 
Q 2525 1350 2237 1025 
Q 1950 700 1525 575 
Q 1500 900 1300 1150 
Q 1750 1150 1875 1325 
Q 2000 1500 1975 1887 
Q 1950 2275 1375 2925 
Q 1775 4050 1875 4550 
L 1125 4550 
L 1125 -500 
L 650 -500 
Q 675 200 675 875 
L 675 3800 
Q 675 4250 650 4950 
L 2500 4950 
z
M 5075 2875 
L 5075 3550 
L 3400 3550 
L 3400 2875 
L 5075 2875 
z
M 5075 3925 
L 5075 4550 
L 3400 4550 
L 3400 3925 
L 5075 3925 
z
" transform="scale(0.015625)"/>
       <path id="SimHei-38" d="M 175 1375 
Q 175 1675 325 1962 
Q 475 2250 825 2425 
Q 525 2600 425 2812 
Q 325 3025 312 3300 
Q 300 3575 387 3775 
Q 475 3975 650 4150 
Q 825 4325 1037 4387 
Q 1250 4450 1500 4450 
Q 1750 4450 1950 4400 
Q 2150 4350 2375 4187 
Q 2600 4025 2700 3725 
Q 2800 3425 2687 3025 
Q 2575 2625 2100 2400 
Q 2525 2275 2700 2012 
Q 2875 1750 2875 1375 
Q 2875 1000 2762 775 
Q 2650 550 2512 400 
Q 2375 250 2137 162 
Q 1900 75 1537 75 
Q 1175 75 912 162 
Q 650 250 475 425 
Q 300 600 237 837 
Q 175 1075 175 1375 
z
M 687 1400 
Q 675 1100 787 875 
Q 900 650 1200 587 
Q 1500 525 1825 600 
Q 2150 675 2275 950 
Q 2400 1225 2362 1500 
Q 2325 1775 2050 1962 
Q 1775 2150 1450 2125 
Q 1125 2100 912 1900 
Q 700 1700 687 1400 
z
M 775 3350 
Q 775 3100 950 2875 
Q 1125 2650 1500 2650 
Q 1875 2650 2062 2875 
Q 2250 3100 2237 3412 
Q 2225 3725 2012 3875 
Q 1800 4025 1437 4000 
Q 1075 3975 925 3787 
Q 775 3600 775 3350 
z
" transform="scale(0.015625)"/>
      </defs>
      <use xlink:href="#SimHei-4ef7"/>
      <use xlink:href="#SimHei-683c" x="100"/>
      <use xlink:href="#SimHei-4e0a" x="200"/>
      <use xlink:href="#SimHei-9650" x="300"/>
      <use xlink:href="#SimHei-3a" x="400"/>
      <use xlink:href="#SimHei-20" x="450"/>
      <use xlink:href="#SimHei-31" x="500"/>
      <use xlink:href="#SimHei-32" x="550"/>
      <use xlink:href="#SimHei-33" x="600"/>
      <use xlink:href="#SimHei-2e" x="650"/>
      <use xlink:href="#SimHei-38" x="700"/>
      <use xlink:href="#SimHei-38" x="750"/>
     </g>
    </g>
    <g id="line2d_38">
     <path d="M 847.64 111.502813 
L 857.64 111.502813 
L 867.64 111.502813 
" style="fill: none; stroke: #008000; stroke-width: 1.5; stroke-linecap: square"/>
    </g>
    <g id="text_23">
     <!-- 价格下限: 56.81 -->
     <g transform="translate(875.64 115.002813) scale(0.1 -0.1)">
      <defs>
       <path id="SimHei-4e0b" d="M 5000 4700 
Q 5475 4700 5975 4725 
L 5975 4200 
Q 5425 4225 5000 4225 
L 3275 4225 
L 3275 375 
Q 3275 50 3300 -450 
L 2725 -450 
Q 2750 0 2750 375 
L 2750 4225 
L 1375 4225 
Q 875 4225 400 4200 
L 400 4725 
Q 875 4700 1375 4700 
L 5000 4700 
z
M 5650 1400 
Q 5400 1225 5200 1000 
Q 4800 1525 3650 2575 
L 4025 2950 
Q 4700 2400 5650 1400 
z
" transform="scale(0.015625)"/>
       <path id="SimHei-36" d="M 250 1612 
Q 275 1975 387 2225 
Q 500 2475 725 2850 
L 1750 4450 
L 2325 4450 
L 1275 2800 
Q 1950 2975 2350 2750 
Q 2750 2525 2887 2237 
Q 3025 1950 3037 1612 
Q 3050 1275 2937 950 
Q 2825 625 2537 362 
Q 2250 100 1737 75 
Q 1225 50 862 262 
Q 500 475 362 862 
Q 225 1250 250 1612 
z
M 1025 787 
Q 1250 550 1625 525 
Q 2000 500 2250 775 
Q 2500 1050 2500 1575 
Q 2500 2100 2187 2300 
Q 1875 2500 1487 2450 
Q 1100 2400 925 2075 
Q 750 1750 775 1387 
Q 800 1025 1025 787 
z
" transform="scale(0.015625)"/>
      </defs>
      <use xlink:href="#SimHei-4ef7"/>
      <use xlink:href="#SimHei-683c" x="100"/>
      <use xlink:href="#SimHei-4e0b" x="200"/>
      <use xlink:href="#SimHei-9650" x="300"/>
      <use xlink:href="#SimHei-3a" x="400"/>
      <use xlink:href="#SimHei-20" x="450"/>
      <use xlink:href="#SimHei-35" x="500"/>
      <use xlink:href="#SimHei-36" x="550"/>
      <use xlink:href="#SimHei-2e" x="600"/>
      <use xlink:href="#SimHei-38" x="650"/>
      <use xlink:href="#SimHei-31" x="700"/>
     </g>
    </g>
   </g>
  </g>
 </g>
 <defs>
  <clipPath id="pf60ada2837">
   <rect x="56.03375" y="26.745" width="933.60625" height="509.635"/>
  </clipPath>
 </defs>
</svg>
