<?xml version="1.0" encoding="utf-8" standalone="no"?>
<!DOCTYPE svg PUBLIC "-//W3C//DTD SVG 1.1//EN"
  "http://www.w3.org/Graphics/SVG/1.1/DTD/svg11.dtd">
<svg xmlns:xlink="http://www.w3.org/1999/xlink" width="864pt" height="432pt" viewBox="0 0 864 432" xmlns="http://www.w3.org/2000/svg" version="1.1">
 <metadata>
  <rdf:RDF xmlns:dc="http://purl.org/dc/elements/1.1/" xmlns:cc="http://creativecommons.org/ns#" xmlns:rdf="http://www.w3.org/1999/02/22-rdf-syntax-ns#">
   <cc:Work>
    <dc:type rdf:resource="http://purl.org/dc/dcmitype/StillImage"/>
    <dc:date>2025-04-13T14:49:17.110229</dc:date>
    <dc:format>image/svg+xml</dc:format>
    <dc:creator>
     <cc:Agent>
      <dc:title>Matplotlib v3.9.2, https://matplotlib.org/</dc:title>
     </cc:Agent>
    </dc:creator>
   </cc:Work>
  </rdf:RDF>
 </metadata>
 <defs>
  <style type="text/css">*{stroke-linejoin: round; stroke-linecap: butt}</style>
 </defs>
 <g id="figure_1">
  <g id="patch_1">
   <path d="M 0 432 
L 864 432 
L 864 0 
L 0 0 
z
" style="fill: #ffffff"/>
  </g>
  <g id="axes_1">
   <g id="patch_2">
    <path d="M 51.59 391.78375 
L 853.2 391.78375 
L 853.2 26.93625 
L 51.59 26.93625 
z
" style="fill: #ffffff"/>
   </g>
   <g id="patch_3">
    <path d="M 71.63025 391.78375 
L 231.95225 391.78375 
L 231.95225 310.023807 
L 71.63025 310.023807 
z
" clip-path="url(#paa42fdc4f7)" style="fill: #3274a1"/>
   </g>
   <g id="patch_4">
    <path d="M 272.03275 391.78375 
L 432.35475 391.78375 
L 432.35475 192.961073 
L 272.03275 192.961073 
z
" clip-path="url(#paa42fdc4f7)" style="fill: #3274a1"/>
   </g>
   <g id="patch_5">
    <path d="M 472.43525 391.78375 
L 632.75725 391.78375 
L 632.75725 44.30994 
L 472.43525 44.30994 
z
" clip-path="url(#paa42fdc4f7)" style="fill: #3274a1"/>
   </g>
   <g id="patch_6">
    <path d="M 672.83775 391.78375 
L 833.15975 391.78375 
L 833.15975 240.381597 
L 672.83775 240.381597 
z
" clip-path="url(#paa42fdc4f7)" style="fill: #3274a1"/>
   </g>
   <g id="matplotlib.axis_1">
    <g id="xtick_1">
     <g id="line2d_1">
      <path d="M 151.79125 391.78375 
L 151.79125 26.93625 
" clip-path="url(#paa42fdc4f7)" style="fill: none; stroke: #b0b0b0; stroke-opacity: 0.3; stroke-width: 0.8; stroke-linecap: square"/>
     </g>
     <g id="line2d_2">
      <defs>
       <path id="m3e6e598ee5" d="M 0 0 
L 0 3.5 
" style="stroke: #000000; stroke-width: 0.8"/>
      </defs>
      <g>
       <use xlink:href="#m3e6e598ee5" x="151.79125" y="391.78375" style="stroke: #000000; stroke-width: 0.8"/>
      </g>
     </g>
     <g id="text_1">
      <!-- 0 -->
      <g transform="translate(149.29125 405.65875) scale(0.1 -0.1)">
       <defs>
        <path id="SimHei-30" d="M 225 2537 
Q 250 3200 412 3587 
Q 575 3975 875 4225 
Q 1175 4475 1612 4475 
Q 2050 4475 2375 4112 
Q 2700 3750 2800 3200 
Q 2900 2650 2862 1937 
Q 2825 1225 2612 775 
Q 2400 325 1975 150 
Q 1550 -25 1125 187 
Q 700 400 525 750 
Q 350 1100 275 1487 
Q 200 1875 225 2537 
z
M 750 2687 
Q 675 2000 800 1462 
Q 925 925 1212 700 
Q 1500 475 1800 612 
Q 2100 750 2237 1162 
Q 2375 1575 2375 2062 
Q 2375 2550 2337 2950 
Q 2300 3350 2112 3675 
Q 1925 4000 1612 4012 
Q 1300 4025 1062 3700 
Q 825 3375 750 2687 
z
" transform="scale(0.015625)"/>
       </defs>
       <use xlink:href="#SimHei-30"/>
      </g>
     </g>
    </g>
    <g id="xtick_2">
     <g id="line2d_3">
      <path d="M 352.19375 391.78375 
L 352.19375 26.93625 
" clip-path="url(#paa42fdc4f7)" style="fill: none; stroke: #b0b0b0; stroke-opacity: 0.3; stroke-width: 0.8; stroke-linecap: square"/>
     </g>
     <g id="line2d_4">
      <g>
       <use xlink:href="#m3e6e598ee5" x="352.19375" y="391.78375" style="stroke: #000000; stroke-width: 0.8"/>
      </g>
     </g>
     <g id="text_2">
      <!-- 1 -->
      <g transform="translate(349.69375 405.65875) scale(0.1 -0.1)">
       <defs>
        <path id="SimHei-31" d="M 1400 3600 
Q 1075 3275 575 2975 
L 575 3450 
Q 1200 3875 1600 4450 
L 1900 4450 
L 1900 150 
L 1400 150 
L 1400 3600 
z
" transform="scale(0.015625)"/>
       </defs>
       <use xlink:href="#SimHei-31"/>
      </g>
     </g>
    </g>
    <g id="xtick_3">
     <g id="line2d_5">
      <path d="M 552.59625 391.78375 
L 552.59625 26.93625 
" clip-path="url(#paa42fdc4f7)" style="fill: none; stroke: #b0b0b0; stroke-opacity: 0.3; stroke-width: 0.8; stroke-linecap: square"/>
     </g>
     <g id="line2d_6">
      <g>
       <use xlink:href="#m3e6e598ee5" x="552.59625" y="391.78375" style="stroke: #000000; stroke-width: 0.8"/>
      </g>
     </g>
     <g id="text_3">
      <!-- 2 -->
      <g transform="translate(550.09625 405.65875) scale(0.1 -0.1)">
       <defs>
        <path id="SimHei-32" d="M 300 250 
Q 325 625 650 925 
Q 975 1225 1475 1862 
Q 1975 2500 2125 2850 
Q 2275 3200 2237 3450 
Q 2200 3700 2000 3862 
Q 1800 4025 1537 4000 
Q 1275 3975 1037 3800 
Q 800 3625 675 3275 
L 200 3350 
Q 400 3925 712 4187 
Q 1025 4450 1450 4475 
Q 1700 4500 1900 4462 
Q 2100 4425 2312 4287 
Q 2525 4150 2662 3875 
Q 2800 3600 2762 3212 
Q 2725 2825 2375 2287 
Q 2025 1750 1025 600 
L 2825 600 
L 2825 150 
L 300 150 
L 300 250 
z
" transform="scale(0.015625)"/>
       </defs>
       <use xlink:href="#SimHei-32"/>
      </g>
     </g>
    </g>
    <g id="xtick_4">
     <g id="line2d_7">
      <path d="M 752.99875 391.78375 
L 752.99875 26.93625 
" clip-path="url(#paa42fdc4f7)" style="fill: none; stroke: #b0b0b0; stroke-opacity: 0.3; stroke-width: 0.8; stroke-linecap: square"/>
     </g>
     <g id="line2d_8">
      <g>
       <use xlink:href="#m3e6e598ee5" x="752.99875" y="391.78375" style="stroke: #000000; stroke-width: 0.8"/>
      </g>
     </g>
     <g id="text_4">
      <!-- 3 -->
      <g transform="translate(750.49875 405.65875) scale(0.1 -0.1)">
       <defs>
        <path id="SimHei-33" d="M 250 1225 
L 700 1300 
Q 800 975 1025 762 
Q 1250 550 1587 562 
Q 1925 575 2125 837 
Q 2325 1100 2300 1437 
Q 2275 1775 2037 1962 
Q 1800 2150 1275 2225 
L 1275 2550 
Q 1800 2600 2037 2825 
Q 2275 3050 2250 3412 
Q 2225 3775 1925 3937 
Q 1625 4100 1287 3975 
Q 950 3850 750 3275 
L 300 3350 
Q 450 3800 712 4100 
Q 975 4400 1425 4450 
Q 1875 4500 2212 4337 
Q 2550 4175 2687 3837 
Q 2825 3500 2725 3100 
Q 2625 2700 2150 2400 
Q 2500 2250 2687 1950 
Q 2875 1650 2812 1162 
Q 2750 675 2375 375 
Q 2000 75 1525 87 
Q 1050 100 700 387 
Q 350 675 250 1225 
z
" transform="scale(0.015625)"/>
       </defs>
       <use xlink:href="#SimHei-33"/>
      </g>
     </g>
    </g>
    <g id="text_5">
     <!-- 客户类型 -->
     <g transform="translate(432.395 419.03375) scale(0.1 -0.1)">
      <defs>
       <path id="SimHei-5ba2" d="M 5125 275 
Q 5125 -100 5175 -625 
L 4650 -625 
L 4650 -250 
L 2075 -250 
L 2075 -650 
L 1550 -650 
Q 1575 -125 1575 225 
L 1575 800 
Q 1575 950 1550 1250 
Q 1375 1175 475 900 
Q 400 1200 225 1475 
Q 1125 1600 1725 1750 
Q 2325 1900 2850 2175 
Q 2550 2325 1950 2825 
Q 1650 2525 1275 2225 
Q 1100 2475 850 2600 
Q 1375 2925 1762 3337 
Q 2150 3750 2325 4175 
Q 2650 4025 2975 3925 
Q 2825 3825 2625 3600 
L 5025 3600 
Q 4750 3175 4500 2887 
Q 4250 2600 3725 2175 
Q 4075 2025 4662 1875 
Q 5250 1725 6175 1675 
Q 6000 1375 5950 1050 
Q 5475 1175 5175 1250 
Q 5125 1000 5125 725 
L 5125 275 
z
M 5950 4700 
Q 5925 4275 5925 4075 
Q 5925 3900 5950 3525 
L 5425 3525 
L 5425 4250 
L 1050 4250 
L 1050 3500 
L 500 3500 
Q 525 3750 525 3975 
Q 525 4200 500 4700 
L 3025 4700 
Q 2950 4950 2825 5175 
Q 3200 5250 3425 5300 
Q 3600 4800 3625 4700 
L 5950 4700 
z
M 4650 125 
L 4650 850 
L 2075 850 
L 2075 125 
L 4650 125 
z
M 2425 1500 
Q 2025 1350 1600 1250 
L 5125 1250 
Q 4350 1425 3962 1575 
Q 3575 1725 3250 1850 
Q 2825 1650 2425 1500 
z
M 2300 3200 
Q 2275 3175 2250 3125 
Q 2875 2600 3325 2425 
Q 3800 2775 4150 3200 
L 2300 3200 
z
" transform="scale(0.015625)"/>
       <path id="SimHei-6237" d="M 5775 4050 
Q 5750 3450 5750 2675 
Q 5750 1925 5775 1500 
L 5225 1500 
L 5225 1875 
L 1750 1875 
Q 1650 1075 1500 675 
Q 1350 275 1175 -37 
Q 1000 -350 800 -625 
Q 550 -425 250 -325 
Q 750 200 937 662 
Q 1125 1125 1187 1537 
Q 1250 1950 1250 2425 
Q 1250 2900 1225 4050 
L 5775 4050 
z
M 5200 2325 
L 5200 3600 
L 1725 3600 
L 1725 2325 
L 5200 2325 
z
M 3400 5275 
Q 3700 4675 3825 4325 
Q 3500 4250 3325 4150 
Q 3150 4675 2925 5075 
Q 3175 5150 3400 5275 
z
" transform="scale(0.015625)"/>
       <path id="SimHei-7c7b" d="M 2125 3875 
Q 1750 4375 1325 4725 
Q 1525 4875 1675 5050 
L 2525 4225 
Q 2400 4125 2200 3875 
L 3025 3875 
L 3025 4550 
Q 3025 4900 3000 5125 
L 3525 5125 
Q 3500 4850 3500 4550 
L 3500 3875 
L 4325 3875 
Q 4125 4050 4000 4150 
Q 4450 4575 4800 5175 
Q 5000 5000 5275 4825 
Q 5100 4675 4912 4475 
Q 4725 4275 4400 3875 
L 5025 3875 
Q 5425 3875 5900 3900 
L 5900 3450 
Q 5425 3475 5025 3475 
L 3500 3475 
L 3500 3050 
Q 3500 2650 3525 2175 
L 3175 2175 
Q 3475 2075 3675 2000 
Q 3575 1875 3525 1575 
L 5025 1575 
Q 5525 1575 6025 1600 
L 6025 1150 
Q 5550 1175 5050 1175 
L 3675 1175 
Q 4050 600 4712 275 
Q 5375 -50 6050 -175 
Q 5850 -350 5725 -675 
Q 4975 -450 4350 -37 
Q 3725 375 3300 950 
Q 3050 350 2425 -50 
Q 1800 -450 775 -700 
Q 650 -425 475 -225 
Q 1375 -100 2012 225 
Q 2650 550 2900 1175 
L 1625 1175 
Q 1025 1175 525 1150 
L 525 1600 
Q 950 1575 1600 1575 
L 3025 1575 
Q 3075 1825 3100 2175 
L 3000 2175 
Q 3025 2675 3025 3050 
L 3025 3325 
Q 2725 2900 2237 2550 
Q 1750 2200 925 1825 
Q 850 2025 625 2275 
Q 1175 2400 1725 2737 
Q 2275 3075 2600 3475 
L 1550 3475 
Q 1050 3475 600 3425 
L 600 3900 
Q 1075 3875 1550 3875 
L 2125 3875 
z
M 4100 3450 
Q 4850 3000 5800 2350 
Q 5575 2125 5425 1925 
Q 4700 2550 3825 3075 
Q 3975 3250 4100 3450 
z
" transform="scale(0.015625)"/>
       <path id="SimHei-578b" d="M 2625 1775 
Q 2650 2325 2650 2700 
L 2650 3000 
L 1825 3000 
Q 1725 2375 1425 2000 
Q 1125 1625 775 1425 
Q 650 1650 375 1900 
Q 850 2075 1062 2362 
Q 1275 2650 1350 3000 
Q 900 3000 375 2975 
L 375 3450 
Q 925 3425 1400 3425 
Q 1425 3950 1425 4475 
Q 1075 4475 700 4450 
L 700 4900 
Q 1050 4875 1525 4875 
L 3000 4875 
Q 3275 4875 3650 4900 
L 3650 4450 
Q 3325 4475 3125 4475 
L 3125 3425 
Q 3450 3425 3825 3450 
L 3825 2975 
Q 3450 3000 3125 3000 
L 3125 2675 
Q 3125 2225 3150 1775 
L 2625 1775 
z
M 3000 1175 
Q 3000 1375 2975 1725 
L 3500 1725 
Q 3475 1375 3475 1175 
L 4550 1175 
Q 5050 1175 5450 1200 
L 5450 725 
Q 4975 750 4550 750 
L 3475 750 
L 3475 -50 
L 5275 -50 
Q 5700 -50 6100 -25 
L 6100 -500 
Q 5725 -475 5300 -475 
L 1250 -475 
Q 775 -475 400 -500 
L 400 -25 
Q 775 -50 1250 -50 
L 3000 -50 
L 3000 750 
L 2025 750 
Q 1500 750 975 725 
L 1050 1200 
Q 1500 1175 2025 1175 
L 3000 1175 
z
M 5775 5200 
Q 5750 4775 5750 4325 
L 5750 2400 
Q 5775 1950 5612 1775 
Q 5450 1600 4900 1525 
Q 4825 1775 4675 2100 
Q 5175 2075 5237 2150 
Q 5300 2225 5300 2525 
L 5300 4325 
Q 5300 4775 5275 5200 
L 5775 5200 
z
M 4600 4750 
Q 4575 4450 4575 3975 
L 4575 3200 
Q 4575 2825 4600 2425 
L 4100 2425 
Q 4125 2825 4125 3200 
L 4125 3975 
Q 4125 4450 4100 4750 
L 4600 4750 
z
M 2650 3425 
L 2650 4475 
L 1875 4475 
Q 1850 3750 1850 3425 
L 2650 3425 
z
" transform="scale(0.015625)"/>
      </defs>
      <use xlink:href="#SimHei-5ba2"/>
      <use xlink:href="#SimHei-6237" x="100"/>
      <use xlink:href="#SimHei-7c7b" x="200"/>
      <use xlink:href="#SimHei-578b" x="300"/>
     </g>
    </g>
   </g>
   <g id="matplotlib.axis_2">
    <g id="ytick_1">
     <g id="line2d_9">
      <path d="M 51.59 391.78375 
L 853.2 391.78375 
" clip-path="url(#paa42fdc4f7)" style="fill: none; stroke: #b0b0b0; stroke-opacity: 0.3; stroke-width: 0.8; stroke-linecap: square"/>
     </g>
     <g id="line2d_10">
      <defs>
       <path id="mfb3b5fef83" d="M 0 0 
L -3.5 0 
" style="stroke: #000000; stroke-width: 0.8"/>
      </defs>
      <g>
       <use xlink:href="#mfb3b5fef83" x="51.59" y="391.78375" style="stroke: #000000; stroke-width: 0.8"/>
      </g>
     </g>
     <g id="text_6">
      <!-- 0.0 -->
      <g transform="translate(29.59 395.22125) scale(0.1 -0.1)">
       <defs>
        <path id="SimHei-2e" d="M 1075 125 
L 500 125 
L 500 675 
L 1075 675 
L 1075 125 
z
" transform="scale(0.015625)"/>
       </defs>
       <use xlink:href="#SimHei-30"/>
       <use xlink:href="#SimHei-2e" x="50"/>
       <use xlink:href="#SimHei-30" x="100"/>
      </g>
     </g>
    </g>
    <g id="ytick_2">
     <g id="line2d_11">
      <path d="M 51.59 344.579995 
L 853.2 344.579995 
" clip-path="url(#paa42fdc4f7)" style="fill: none; stroke: #b0b0b0; stroke-opacity: 0.3; stroke-width: 0.8; stroke-linecap: square"/>
     </g>
     <g id="line2d_12">
      <g>
       <use xlink:href="#mfb3b5fef83" x="51.59" y="344.579995" style="stroke: #000000; stroke-width: 0.8"/>
      </g>
     </g>
     <g id="text_7">
      <!-- 2.5 -->
      <g transform="translate(29.59 348.017495) scale(0.1 -0.1)">
       <defs>
        <path id="SimHei-35" d="M 550 1325 
Q 725 650 1150 575 
Q 1575 500 1837 662 
Q 2100 825 2212 1087 
Q 2325 1350 2312 1675 
Q 2300 2000 2137 2225 
Q 1975 2450 1725 2525 
Q 1475 2600 1162 2525 
Q 850 2450 650 2175 
L 225 2225 
Q 275 2375 700 4375 
L 2675 4375 
L 2675 3925 
L 1075 3925 
Q 950 3250 825 2850 
Q 1200 3025 1525 3012 
Q 1850 3000 2150 2862 
Q 2450 2725 2587 2487 
Q 2725 2250 2787 2012 
Q 2850 1775 2837 1500 
Q 2825 1225 2725 937 
Q 2625 650 2425 462 
Q 2225 275 1937 162 
Q 1650 50 1275 75 
Q 900 100 562 350 
Q 225 600 100 1200 
L 550 1325 
z
" transform="scale(0.015625)"/>
       </defs>
       <use xlink:href="#SimHei-32"/>
       <use xlink:href="#SimHei-2e" x="50"/>
       <use xlink:href="#SimHei-35" x="100"/>
      </g>
     </g>
    </g>
    <g id="ytick_3">
     <g id="line2d_13">
      <path d="M 51.59 297.37624 
L 853.2 297.37624 
" clip-path="url(#paa42fdc4f7)" style="fill: none; stroke: #b0b0b0; stroke-opacity: 0.3; stroke-width: 0.8; stroke-linecap: square"/>
     </g>
     <g id="line2d_14">
      <g>
       <use xlink:href="#mfb3b5fef83" x="51.59" y="297.37624" style="stroke: #000000; stroke-width: 0.8"/>
      </g>
     </g>
     <g id="text_8">
      <!-- 5.0 -->
      <g transform="translate(29.59 300.81374) scale(0.1 -0.1)">
       <use xlink:href="#SimHei-35"/>
       <use xlink:href="#SimHei-2e" x="50"/>
       <use xlink:href="#SimHei-30" x="100"/>
      </g>
     </g>
    </g>
    <g id="ytick_4">
     <g id="line2d_15">
      <path d="M 51.59 250.172485 
L 853.2 250.172485 
" clip-path="url(#paa42fdc4f7)" style="fill: none; stroke: #b0b0b0; stroke-opacity: 0.3; stroke-width: 0.8; stroke-linecap: square"/>
     </g>
     <g id="line2d_16">
      <g>
       <use xlink:href="#mfb3b5fef83" x="51.59" y="250.172485" style="stroke: #000000; stroke-width: 0.8"/>
      </g>
     </g>
     <g id="text_9">
      <!-- 7.5 -->
      <g transform="translate(29.59 253.609985) scale(0.1 -0.1)">
       <defs>
        <path id="SimHei-37" d="M 850 150 
Q 1300 2050 2425 3925 
L 275 3925 
L 275 4375 
L 2950 4375 
L 2950 3950 
Q 1775 2050 1400 150 
L 850 150 
z
" transform="scale(0.015625)"/>
       </defs>
       <use xlink:href="#SimHei-37"/>
       <use xlink:href="#SimHei-2e" x="50"/>
       <use xlink:href="#SimHei-35" x="100"/>
      </g>
     </g>
    </g>
    <g id="ytick_5">
     <g id="line2d_17">
      <path d="M 51.59 202.96873 
L 853.2 202.96873 
" clip-path="url(#paa42fdc4f7)" style="fill: none; stroke: #b0b0b0; stroke-opacity: 0.3; stroke-width: 0.8; stroke-linecap: square"/>
     </g>
     <g id="line2d_18">
      <g>
       <use xlink:href="#mfb3b5fef83" x="51.59" y="202.96873" style="stroke: #000000; stroke-width: 0.8"/>
      </g>
     </g>
     <g id="text_10">
      <!-- 10.0 -->
      <g transform="translate(24.59 206.40623) scale(0.1 -0.1)">
       <use xlink:href="#SimHei-31"/>
       <use xlink:href="#SimHei-30" x="50"/>
       <use xlink:href="#SimHei-2e" x="100"/>
       <use xlink:href="#SimHei-30" x="150"/>
      </g>
     </g>
    </g>
    <g id="ytick_6">
     <g id="line2d_19">
      <path d="M 51.59 155.764975 
L 853.2 155.764975 
" clip-path="url(#paa42fdc4f7)" style="fill: none; stroke: #b0b0b0; stroke-opacity: 0.3; stroke-width: 0.8; stroke-linecap: square"/>
     </g>
     <g id="line2d_20">
      <g>
       <use xlink:href="#mfb3b5fef83" x="51.59" y="155.764975" style="stroke: #000000; stroke-width: 0.8"/>
      </g>
     </g>
     <g id="text_11">
      <!-- 12.5 -->
      <g transform="translate(24.59 159.202475) scale(0.1 -0.1)">
       <use xlink:href="#SimHei-31"/>
       <use xlink:href="#SimHei-32" x="50"/>
       <use xlink:href="#SimHei-2e" x="100"/>
       <use xlink:href="#SimHei-35" x="150"/>
      </g>
     </g>
    </g>
    <g id="ytick_7">
     <g id="line2d_21">
      <path d="M 51.59 108.56122 
L 853.2 108.56122 
" clip-path="url(#paa42fdc4f7)" style="fill: none; stroke: #b0b0b0; stroke-opacity: 0.3; stroke-width: 0.8; stroke-linecap: square"/>
     </g>
     <g id="line2d_22">
      <g>
       <use xlink:href="#mfb3b5fef83" x="51.59" y="108.56122" style="stroke: #000000; stroke-width: 0.8"/>
      </g>
     </g>
     <g id="text_12">
      <!-- 15.0 -->
      <g transform="translate(24.59 111.99872) scale(0.1 -0.1)">
       <use xlink:href="#SimHei-31"/>
       <use xlink:href="#SimHei-35" x="50"/>
       <use xlink:href="#SimHei-2e" x="100"/>
       <use xlink:href="#SimHei-30" x="150"/>
      </g>
     </g>
    </g>
    <g id="ytick_8">
     <g id="line2d_23">
      <path d="M 51.59 61.357465 
L 853.2 61.357465 
" clip-path="url(#paa42fdc4f7)" style="fill: none; stroke: #b0b0b0; stroke-opacity: 0.3; stroke-width: 0.8; stroke-linecap: square"/>
     </g>
     <g id="line2d_24">
      <g>
       <use xlink:href="#mfb3b5fef83" x="51.59" y="61.357465" style="stroke: #000000; stroke-width: 0.8"/>
      </g>
     </g>
     <g id="text_13">
      <!-- 17.5 -->
      <g transform="translate(24.59 64.794965) scale(0.1 -0.1)">
       <use xlink:href="#SimHei-31"/>
       <use xlink:href="#SimHei-37" x="50"/>
       <use xlink:href="#SimHei-2e" x="100"/>
       <use xlink:href="#SimHei-35" x="150"/>
      </g>
     </g>
    </g>
    <g id="text_14">
     <!-- 平均消费者剩余变化 -->
     <g transform="translate(19.34 254.36) rotate(-90) scale(0.1 -0.1)">
      <defs>
       <path id="SimHei-5e73" d="M 4525 4825 
Q 4900 4825 5450 4850 
L 5450 4375 
Q 4925 4400 4525 4400 
L 3475 4400 
L 3475 2025 
L 5000 2025 
Q 5550 2025 6025 2050 
L 6025 1575 
Q 5550 1600 5000 1600 
L 3475 1600 
L 3475 450 
Q 3475 -100 3500 -600 
L 2925 -600 
Q 2950 -100 2950 450 
L 2950 1600 
L 1125 1600 
Q 775 1600 375 1575 
L 375 2050 
Q 775 2025 1175 2025 
L 2950 2025 
L 2950 4400 
L 1775 4400 
Q 1400 4400 875 4375 
L 875 4850 
Q 1400 4825 1750 4825 
L 4525 4825 
z
M 3925 2600 
Q 4500 3300 4900 4125 
Q 5150 3950 5400 3825 
Q 4775 2850 4350 2300 
Q 4150 2475 3925 2600 
z
M 1975 2350 
Q 1600 3100 1050 3725 
Q 1250 3875 1450 4050 
Q 2075 3300 2450 2725 
Q 2150 2500 1975 2350 
z
" transform="scale(0.015625)"/>
       <path id="SimHei-5747" d="M 5775 275 
Q 5775 -325 5362 -450 
Q 4950 -575 4425 -600 
Q 4375 -275 4250 25 
Q 4950 -25 5125 62 
Q 5300 150 5300 500 
L 5375 3700 
L 3550 3700 
Q 3425 3375 3262 3037 
Q 3100 2700 2925 2400 
Q 2675 2550 2475 2625 
Q 3150 3625 3500 5200 
Q 3800 5100 4075 5025 
Q 3975 4875 3875 4650 
Q 3775 4425 3675 4125 
L 5900 4125 
L 5775 275 
z
M 1250 3625 
L 1250 4375 
Q 1250 4775 1225 5100 
L 1775 5100 
Q 1750 4725 1750 4375 
L 1750 3625 
L 1900 3625 
Q 2200 3625 2525 3650 
L 2525 3150 
Q 2200 3175 1900 3175 
L 1750 3175 
L 1750 1100 
L 2500 1375 
Q 2475 1125 2525 900 
Q 1225 475 962 362 
Q 700 250 475 150 
Q 375 475 250 750 
Q 575 800 800 850 
Q 1025 900 1250 975 
L 1250 3175 
L 1125 3175 
Q 850 3175 400 3150 
L 400 3650 
Q 850 3625 1100 3625 
L 1250 3625 
z
M 4950 1625 
Q 4675 1425 4137 1050 
Q 3600 675 3175 300 
Q 3000 575 2850 775 
Q 3350 1050 3762 1325 
Q 4175 1600 4775 2075 
Q 4825 1850 4950 1625 
z
M 3775 3150 
Q 4125 2800 4475 2300 
Q 4250 2125 4100 1975 
Q 3900 2325 3450 2825 
Q 3600 3000 3775 3150 
z
" transform="scale(0.015625)"/>
       <path id="SimHei-6d88" d="M 3850 3350 
Q 3850 4825 3825 5225 
L 4425 5225 
Q 4400 4825 4400 3350 
L 5875 3350 
Q 5850 2700 5850 2325 
L 5850 -100 
Q 5850 -275 5687 -412 
Q 5525 -550 4975 -650 
Q 4950 -400 4675 -75 
Q 5050 -100 5187 -75 
Q 5325 -50 5325 125 
L 5325 700 
L 2950 700 
L 2950 -600 
L 2425 -600 
Q 2450 100 2450 625 
L 2450 2350 
Q 2450 2950 2425 3350 
L 3850 3350 
z
M 5325 2250 
L 5325 2925 
L 2950 2925 
L 2950 2250 
L 5325 2250 
z
M 5325 1125 
L 5325 1800 
L 2950 1800 
L 2950 1125 
L 5325 1125 
z
M 1750 1500 
Q 1600 1275 1387 662 
Q 1175 50 1000 -600 
Q 700 -350 300 -250 
Q 550 25 800 550 
Q 1050 1075 1250 1875 
Q 1500 1650 1750 1500 
z
M 950 5025 
Q 1400 4700 1900 4200 
Q 1625 4000 1475 3800 
Q 1050 4300 550 4700 
Q 725 4775 950 5025 
z
M 525 3400 
Q 1125 3100 1650 2750 
Q 1475 2550 1300 2300 
Q 825 2675 250 3000 
Q 375 3150 525 3400 
z
M 6175 4675 
Q 6025 4575 5775 4262 
Q 5525 3950 5350 3650 
L 4900 3900 
Q 5250 4300 5600 5000 
Q 5900 4800 6175 4675 
z
M 2625 4975 
Q 2950 4575 3300 3950 
Q 3025 3825 2825 3675 
Q 2575 4200 2150 4700 
Q 2375 4800 2625 4975 
z
" transform="scale(0.015625)"/>
       <path id="SimHei-8d39" d="M 2250 5225 
Q 2525 5175 2825 5150 
Q 2775 5025 2750 4675 
L 3625 4675 
Q 3625 4925 3600 5200 
L 4075 5200 
Q 4050 4925 4050 4675 
L 5675 4675 
Q 5650 4375 5650 4050 
Q 5650 3725 5675 3450 
L 4050 3450 
L 4050 3000 
L 6025 3000 
Q 6000 2575 5987 2300 
Q 5975 2025 5837 1925 
Q 5700 1825 5225 1725 
Q 5175 1975 5000 2225 
Q 5325 2225 5425 2262 
Q 5525 2300 5525 2625 
L 4050 2625 
L 4050 2050 
L 5100 2050 
L 5100 1175 
Q 5100 900 5125 525 
L 4600 525 
L 4600 1675 
L 1900 1675 
L 1900 350 
L 1400 350 
Q 1425 775 1425 1100 
L 1425 1725 
Q 1175 1575 600 1350 
Q 475 1600 300 1850 
Q 625 1875 1162 2087 
Q 1700 2300 2000 2625 
L 875 2625 
Q 975 3350 975 3825 
L 2300 3825 
L 2300 4300 
Q 1200 4300 850 4275 
L 850 4700 
Q 1225 4675 2300 4675 
Q 2300 4900 2250 5225 
z
M 3650 1300 
Q 3525 1025 3362 650 
Q 3200 275 2925 50 
Q 2650 -175 2150 -362 
Q 1650 -550 850 -625 
Q 775 -375 600 -100 
Q 1125 -100 1600 -12 
Q 2075 75 2487 375 
Q 2900 675 3050 1450 
Q 3300 1350 3650 1300 
z
M 3900 700 
Q 4400 500 4862 300 
Q 5325 100 5750 -100 
Q 5525 -375 5400 -575 
Q 4925 -325 4600 -162 
Q 4275 0 3625 250 
Q 3725 400 3900 700 
z
M 3600 2050 
L 3600 2625 
L 2625 2625 
Q 2325 2200 2050 2050 
L 3600 2050 
z
M 5150 3825 
L 5150 4300 
L 4050 4300 
L 4050 3825 
L 5150 3825 
z
M 3600 3825 
L 3600 4300 
L 2750 4300 
L 2750 3825 
L 3600 3825 
z
M 3600 3000 
L 3600 3450 
L 2750 3450 
Q 2725 3175 2700 3000 
L 3600 3000 
z
M 2200 3000 
Q 2275 3275 2275 3450 
L 1450 3450 
L 1425 3000 
L 2200 3000 
z
" transform="scale(0.015625)"/>
       <path id="SimHei-8005" d="M 5650 4325 
Q 5450 4150 5187 3875 
Q 4925 3600 4450 3125 
L 5150 3125 
Q 5575 3125 6025 3150 
L 6025 2700 
Q 5575 2725 5125 2725 
L 3950 2725 
Q 3550 2425 3050 2075 
L 5175 2075 
Q 5150 1625 5150 1250 
L 5150 375 
Q 5150 -75 5175 -600 
L 4675 -600 
L 4675 -225 
L 2275 -225 
L 2275 -600 
L 1750 -600 
Q 1775 -200 1775 150 
L 1775 1300 
Q 1275 1025 650 750 
Q 400 1100 300 1175 
Q 475 1225 962 1412 
Q 1450 1600 1775 1825 
L 1775 2075 
L 2250 2075 
Q 2800 2375 3225 2725 
L 1450 2725 
Q 925 2725 475 2700 
L 475 3150 
Q 975 3125 1450 3125 
L 2775 3125 
L 2775 3900 
L 2025 3900 
Q 1600 3900 1250 3875 
L 1250 4325 
Q 1600 4300 2025 4300 
L 2775 4300 
Q 2775 4675 2750 5150 
L 3300 5150 
Q 3275 4800 3275 4300 
L 3650 4300 
Q 3975 4300 4400 4325 
L 4400 3875 
Q 3975 3900 3650 3900 
L 3275 3900 
L 3275 3125 
L 3775 3125 
Q 4125 3400 4475 3775 
Q 4825 4150 5200 4725 
Q 5475 4450 5650 4325 
z
M 4675 175 
L 4675 750 
L 2275 750 
L 2275 175 
L 4675 175 
z
M 4675 1150 
L 4675 1675 
L 2275 1675 
L 2275 1150 
L 4675 1150 
z
" transform="scale(0.015625)"/>
       <path id="SimHei-5269" d="M 3725 4600 
Q 3400 4600 2475 4475 
L 2475 3900 
L 3075 3900 
Q 3575 3900 3975 3925 
L 3975 3500 
Q 3600 3525 3100 3525 
L 2475 3525 
L 2475 1750 
Q 2900 1375 3237 1062 
Q 3575 750 3950 400 
Q 3700 200 3550 25 
Q 3250 425 2475 1150 
Q 2475 -125 2500 -525 
L 2025 -525 
Q 2050 -125 2050 1000 
Q 1800 675 1475 375 
Q 1150 75 750 -250 
Q 625 -75 350 100 
Q 850 400 1287 825 
Q 1725 1250 2050 1725 
L 2050 3525 
L 1375 3525 
Q 925 3525 475 3500 
L 475 3925 
Q 925 3900 1375 3900 
L 2050 3900 
L 2050 4425 
Q 1750 4400 1512 4387 
Q 1275 4375 900 4350 
Q 825 4575 675 4775 
Q 1025 4750 1887 4825 
Q 2750 4900 3400 5075 
Q 3525 4825 3725 4600 
z
M 5875 5175 
Q 5825 4950 5825 4425 
L 5825 50 
Q 5825 -250 5587 -362 
Q 5350 -475 4975 -550 
Q 4900 -250 4700 0 
Q 5200 25 5300 87 
Q 5400 150 5400 275 
L 5400 4425 
Q 5400 4875 5375 5175 
L 5875 5175 
z
M 1650 3225 
Q 1625 2950 1625 2675 
L 1625 2025 
Q 1625 1725 1650 1450 
L 1150 1450 
L 1150 1675 
Q 650 1475 400 1325 
Q 350 1525 200 1775 
Q 525 1850 1150 2100 
L 1150 2425 
Q 700 2425 450 2400 
L 450 2800 
Q 750 2775 1175 2775 
Q 1175 2950 1150 3225 
L 1650 3225 
z
M 4925 4300 
Q 4900 3875 4900 3500 
L 4900 1850 
Q 4900 1475 4925 1100 
L 4425 1100 
Q 4450 1500 4450 1850 
L 4450 3475 
Q 4450 3850 4425 4300 
L 4925 4300 
z
M 3850 3050 
Q 3950 2875 4125 2675 
Q 3975 2625 3300 2300 
Q 3275 1875 3387 1850 
Q 3500 1825 3612 1850 
Q 3725 1875 3750 2175 
Q 3950 2050 4200 2025 
Q 4100 1625 3975 1550 
Q 3850 1475 3600 1475 
Q 3375 1475 3137 1500 
Q 2900 1525 2875 1825 
L 2875 2575 
Q 2875 2850 2850 3250 
L 3325 3250 
Q 3300 2925 3300 2700 
Q 3700 2900 3850 3050 
z
" transform="scale(0.015625)"/>
       <path id="SimHei-4f59" d="M 3850 3050 
Q 4150 3050 4525 3075 
L 4525 2600 
Q 4225 2625 3850 2625 
L 3450 2625 
L 3450 1825 
L 4475 1825 
Q 5050 1825 5375 1850 
L 5375 1350 
Q 5025 1375 4500 1375 
L 3450 1375 
L 3450 -75 
Q 3450 -450 3187 -525 
Q 2925 -600 2550 -650 
Q 2525 -425 2350 -50 
Q 2825 -75 2887 -25 
Q 2950 25 2950 175 
L 2950 1375 
L 1800 1375 
Q 1225 1375 900 1350 
L 900 1850 
Q 1200 1825 1800 1825 
L 2950 1825 
L 2950 2625 
L 2550 2625 
Q 2325 2625 1825 2600 
L 1825 3075 
Q 2225 3050 2525 3050 
L 3850 3050 
z
M 3400 4850 
Q 4450 3575 6150 3300 
Q 5925 3150 5750 2700 
Q 4150 3250 3100 4550 
Q 2375 3350 800 2400 
Q 450 2725 325 2800 
Q 1475 3325 2112 4100 
Q 2750 4875 2900 5275 
Q 3150 5175 3550 5050 
L 3400 4850 
z
M 2325 700 
Q 2075 500 1625 112 
Q 1175 -275 925 -450 
Q 725 -225 525 -50 
Q 1600 675 1900 1075 
Q 2100 875 2325 700 
z
M 4400 1175 
Q 4750 850 5025 550 
L 5600 0 
Q 5375 -175 5125 -400 
Q 4875 25 4050 850 
Q 4200 950 4400 1175 
z
" transform="scale(0.015625)"/>
       <path id="SimHei-53d8" d="M 5200 1975 
Q 4950 1600 4537 1137 
Q 4125 675 3675 375 
Q 3925 225 4600 87 
Q 5275 -50 6000 -75 
Q 5700 -400 5650 -625 
Q 4850 -525 4212 -312 
Q 3575 -100 3225 125 
Q 2800 -125 2150 -325 
Q 1500 -525 700 -675 
Q 600 -425 400 -175 
Q 950 -150 1687 12 
Q 2425 175 2825 375 
Q 2275 775 1675 1575 
Q 1350 1575 1000 1550 
L 1000 2000 
Q 1450 1975 2075 1975 
L 5200 1975 
z
M 3225 5275 
Q 3400 4900 3550 4475 
L 4675 4475 
Q 5400 4475 5975 4500 
L 5975 4025 
Q 5375 4050 4725 4050 
L 4125 4050 
L 4125 2950 
Q 4125 2550 4150 2150 
L 3600 2150 
Q 3625 2550 3625 2950 
L 3625 4050 
L 2750 4050 
L 2750 2950 
Q 2750 2675 2775 2150 
L 2225 2150 
Q 2250 2675 2250 2950 
L 2250 4050 
L 1700 4050 
Q 975 4050 425 4025 
L 425 4500 
Q 950 4475 1700 4475 
L 2975 4475 
Q 2925 4675 2700 5125 
Q 2950 5150 3225 5275 
z
M 2200 1575 
Q 2650 975 3250 600 
Q 3850 1000 4275 1575 
L 2200 1575 
z
M 4850 3750 
Q 5375 3275 5950 2675 
Q 5750 2525 5500 2300 
Q 5075 2800 4450 3400 
Q 4675 3575 4850 3750 
z
M 1825 3500 
Q 1700 3375 1425 3025 
Q 1150 2675 825 2300 
Q 575 2475 375 2600 
Q 975 3150 1300 3825 
Q 1525 3650 1825 3500 
z
" transform="scale(0.015625)"/>
       <path id="SimHei-5316" d="M 3925 5025 
Q 3900 4900 3900 4400 
L 3900 2625 
Q 4375 3025 4775 3450 
Q 5175 3875 5400 4300 
Q 5600 4100 5900 3925 
Q 5700 3700 5225 3212 
Q 4750 2725 4487 2512 
Q 4225 2300 3900 2025 
L 3900 450 
Q 3900 50 4225 50 
L 5200 50 
Q 5400 75 5462 262 
Q 5525 450 5575 850 
Q 5800 650 6150 600 
Q 6000 -100 5825 -250 
Q 5650 -400 5350 -400 
L 3950 -400 
Q 3425 -400 3400 200 
L 3400 1675 
Q 3225 1525 2962 1350 
Q 2700 1175 2375 975 
Q 2225 1225 2025 1400 
Q 2350 1550 2737 1787 
Q 3125 2025 3400 2250 
L 3400 4500 
Q 3400 4800 3375 5025 
L 3925 5025 
z
M 2400 4850 
Q 2175 4550 2075 4337 
Q 1975 4125 1825 3775 
L 1825 675 
Q 1825 -75 1850 -550 
L 1325 -550 
Q 1350 -125 1350 650 
L 1350 3050 
Q 1125 2725 962 2525 
Q 800 2325 675 2175 
Q 500 2375 275 2525 
Q 625 2850 875 3212 
Q 1125 3575 1312 3912 
Q 1500 4250 1625 4575 
Q 1750 4900 1825 5100 
Q 1975 4975 2400 4850 
z
" transform="scale(0.015625)"/>
      </defs>
      <use xlink:href="#SimHei-5e73"/>
      <use xlink:href="#SimHei-5747" x="100"/>
      <use xlink:href="#SimHei-6d88" x="200"/>
      <use xlink:href="#SimHei-8d39" x="300"/>
      <use xlink:href="#SimHei-8005" x="400"/>
      <use xlink:href="#SimHei-5269" x="500"/>
      <use xlink:href="#SimHei-4f59" x="600"/>
      <use xlink:href="#SimHei-53d8" x="700"/>
      <use xlink:href="#SimHei-5316" x="800"/>
     </g>
    </g>
   </g>
   <g id="line2d_25">
    <path clip-path="url(#paa42fdc4f7)" style="fill: none; stroke: #424242; stroke-width: 2.25; stroke-linecap: square"/>
   </g>
   <g id="line2d_26">
    <path clip-path="url(#paa42fdc4f7)" style="fill: none; stroke: #424242; stroke-width: 2.25; stroke-linecap: square"/>
   </g>
   <g id="line2d_27">
    <path clip-path="url(#paa42fdc4f7)" style="fill: none; stroke: #424242; stroke-width: 2.25; stroke-linecap: square"/>
   </g>
   <g id="line2d_28">
    <path clip-path="url(#paa42fdc4f7)" style="fill: none; stroke: #424242; stroke-width: 2.25; stroke-linecap: square"/>
   </g>
   <g id="patch_7">
    <path d="M 51.59 391.78375 
L 51.59 26.93625 
" style="fill: none; stroke: #000000; stroke-width: 0.8; stroke-linejoin: miter; stroke-linecap: square"/>
   </g>
   <g id="patch_8">
    <path d="M 853.2 391.78375 
L 853.2 26.93625 
" style="fill: none; stroke: #000000; stroke-width: 0.8; stroke-linejoin: miter; stroke-linecap: square"/>
   </g>
   <g id="patch_9">
    <path d="M 51.59 391.78375 
L 853.2 391.78375 
" style="fill: none; stroke: #000000; stroke-width: 0.8; stroke-linejoin: miter; stroke-linecap: square"/>
   </g>
   <g id="patch_10">
    <path d="M 51.59 26.93625 
L 853.2 26.93625 
" style="fill: none; stroke: #000000; stroke-width: 0.8; stroke-linejoin: miter; stroke-linecap: square"/>
   </g>
   <g id="text_15">
    <!-- Price_Range监管下不同客户类型的消费者剩余变化 -->
    <g transform="translate(317.395 20.93625) scale(0.12 -0.12)">
     <defs>
      <path id="SimHei-50" d="M 2950 3100 
Q 2950 2500 2600 2150 
Q 2250 1800 1625 1800 
L 900 1800 
L 900 125 
L 325 125 
L 325 4400 
L 1625 4400 
Q 2250 4400 2600 4050 
Q 2950 3700 2950 3100 
z
M 2375 3100 
Q 2375 3575 2150 3750 
Q 1925 3925 1475 3925 
L 900 3925 
L 900 2275 
L 1475 2275 
Q 1925 2275 2150 2450 
Q 2375 2625 2375 3100 
z
" transform="scale(0.015625)"/>
      <path id="SimHei-72" d="M 2500 2425 
Q 2025 2500 1700 2287 
Q 1375 2075 1150 1550 
L 1150 125 
L 650 125 
L 650 2925 
L 1150 2925 
L 1150 2200 
Q 1375 2600 1712 2787 
Q 2050 2975 2500 2975 
L 2500 2425 
z
" transform="scale(0.015625)"/>
      <path id="SimHei-69" d="M 1800 3725 
L 1300 3725 
L 1300 4375 
L 1800 4375 
L 1800 3725 
z
M 1800 125 
L 1300 125 
L 1300 2925 
L 1800 2925 
L 1800 125 
z
" transform="scale(0.015625)"/>
      <path id="SimHei-63" d="M 2850 1250 
Q 2850 725 2487 400 
Q 2125 75 1575 75 
Q 1025 75 625 462 
Q 225 850 225 1525 
Q 225 2200 625 2587 
Q 1025 2975 1575 2975 
Q 2125 2975 2450 2687 
Q 2775 2400 2775 2000 
L 2225 2000 
Q 2200 2300 2012 2412 
Q 1825 2525 1575 2525 
Q 1275 2525 1025 2287 
Q 775 2050 775 1525 
Q 775 1000 1025 762 
Q 1275 525 1575 525 
Q 1900 525 2100 700 
Q 2300 875 2300 1250 
L 2850 1250 
z
" transform="scale(0.015625)"/>
      <path id="SimHei-65" d="M 2850 1075 
Q 2800 625 2450 350 
Q 2100 75 1625 75 
Q 1025 75 637 462 
Q 250 850 250 1525 
Q 250 2200 637 2587 
Q 1025 2975 1625 2975 
Q 2150 2975 2487 2637 
Q 2825 2300 2825 1525 
L 800 1525 
Q 800 975 1037 750 
Q 1275 525 1625 525 
Q 1900 525 2075 662 
Q 2250 800 2300 1075 
L 2850 1075 
z
M 2250 1925 
Q 2200 2275 2025 2412 
Q 1850 2550 1575 2550 
Q 1325 2550 1125 2412 
Q 925 2275 825 1925 
L 2250 1925 
z
" transform="scale(0.015625)"/>
      <path id="SimHei-5f" d="M 3150 -850 
L 0 -850 
L 0 -550 
L 3150 -550 
L 3150 -850 
z
" transform="scale(0.015625)"/>
      <path id="SimHei-52" d="M 3000 125 
L 2400 125 
L 1500 1975 
L 850 1975 
L 850 125 
L 275 125 
L 275 4400 
L 1525 4400 
Q 2125 4400 2500 4112 
Q 2875 3825 2875 3175 
Q 2875 2675 2625 2400 
Q 2375 2125 2050 2050 
L 3000 125 
z
M 2300 3175 
Q 2300 3525 2087 3725 
Q 1875 3925 1400 3925 
L 850 3925 
L 850 2450 
L 1550 2450 
Q 1850 2450 2075 2612 
Q 2300 2775 2300 3175 
z
" transform="scale(0.015625)"/>
      <path id="SimHei-61" d="M 2875 125 
L 2275 125 
Q 2225 175 2200 262 
Q 2175 350 2175 475 
Q 2000 275 1750 175 
Q 1500 75 1225 75 
Q 825 75 550 275 
Q 275 475 275 850 
Q 275 1225 525 1450 
Q 775 1675 1300 1750 
Q 1650 1800 1912 1875 
Q 2175 1950 2175 2075 
Q 2175 2225 2062 2375 
Q 1950 2525 1575 2525 
Q 1275 2525 1137 2412 
Q 1000 2300 950 2100 
L 400 2100 
Q 450 2500 762 2737 
Q 1075 2975 1575 2975 
Q 2125 2975 2400 2725 
Q 2675 2475 2675 2025 
L 2675 650 
Q 2675 500 2725 375 
Q 2775 250 2875 125 
z
M 2175 1050 
L 2175 1550 
Q 2025 1500 1887 1462 
Q 1750 1425 1425 1375 
Q 1050 1325 937 1200 
Q 825 1075 825 900 
Q 825 750 937 637 
Q 1050 525 1275 525 
Q 1500 525 1762 650 
Q 2025 775 2175 1050 
z
" transform="scale(0.015625)"/>
      <path id="SimHei-6e" d="M 2800 125 
L 2300 125 
L 2300 1925 
Q 2300 2225 2150 2400 
Q 2000 2575 1750 2575 
Q 1425 2575 1137 2237 
Q 850 1900 850 1400 
L 850 125 
L 350 125 
L 350 2925 
L 850 2925 
L 850 2400 
Q 1050 2675 1287 2825 
Q 1525 2975 1900 2975 
Q 2350 2975 2575 2725 
Q 2800 2475 2800 2100 
L 2800 125 
z
" transform="scale(0.015625)"/>
      <path id="SimHei-67" d="M 2975 2500 
Q 2800 2550 2637 2562 
Q 2475 2575 2300 2525 
Q 2375 2450 2425 2337 
Q 2475 2225 2475 2000 
Q 2475 1575 2187 1300 
Q 1900 1025 1475 1025 
Q 1375 1025 1212 1062 
Q 1050 1100 950 1150 
Q 875 1100 850 1050 
Q 825 1000 825 925 
Q 825 800 1000 737 
Q 1175 675 1625 675 
Q 2350 675 2612 475 
Q 2875 275 2875 -25 
Q 2875 -425 2487 -612 
Q 2100 -800 1575 -800 
Q 900 -800 575 -625 
Q 250 -450 250 -150 
Q 250 0 375 150 
Q 500 300 700 400 
Q 550 475 462 587 
Q 375 700 375 875 
Q 375 1025 487 1137 
Q 600 1250 750 1325 
Q 625 1450 550 1625 
Q 475 1800 475 2000 
Q 475 2425 762 2700 
Q 1050 2975 1475 2975 
Q 1700 2975 1862 2912 
Q 2025 2850 2150 2725 
Q 2350 2875 2550 2937 
Q 2750 3000 2975 2975 
L 2975 2500 
z
M 1975 2000 
Q 1975 2250 1850 2400 
Q 1725 2550 1475 2550 
Q 1225 2550 1100 2400 
Q 975 2250 975 2000 
Q 975 1750 1100 1600 
Q 1225 1450 1475 1450 
Q 1725 1450 1850 1600 
Q 1975 1750 1975 2000 
z
M 2400 -75 
Q 2400 25 2287 125 
Q 2175 225 1725 225 
Q 1625 225 1450 237 
Q 1275 250 1050 275 
Q 850 200 775 100 
Q 700 0 700 -100 
Q 700 -250 900 -350 
Q 1100 -450 1600 -450 
Q 2025 -450 2212 -337 
Q 2400 -225 2400 -75 
z
" transform="scale(0.015625)"/>
      <path id="SimHei-76d1" d="M 5525 1775 
Q 5500 1350 5500 950 
L 5500 0 
Q 5850 0 6175 50 
L 6175 -475 
Q 5575 -425 4875 -425 
L 1425 -425 
Q 725 -425 225 -475 
L 225 50 
Q 600 0 925 0 
L 925 950 
Q 925 1350 900 1775 
L 5525 1775 
z
M 4600 5025 
Q 4425 4800 4337 4562 
Q 4250 4325 4175 4125 
L 5300 4125 
Q 5725 4125 6150 4150 
L 6150 3675 
Q 5750 3725 5275 3725 
L 4050 3725 
Q 3800 3125 3375 2425 
Q 3175 2575 2900 2675 
Q 3100 2925 3312 3362 
Q 3525 3800 3700 4325 
Q 3875 4850 3975 5250 
Q 4300 5125 4600 5025 
z
M 2750 5200 
Q 2700 4950 2700 4475 
L 2700 3050 
Q 2700 2600 2725 2075 
L 2200 2075 
Q 2225 2600 2225 3050 
L 2225 4425 
Q 2225 4775 2200 5200 
L 2750 5200 
z
M 1450 4900 
Q 1400 4575 1400 4125 
L 1400 3200 
Q 1400 2825 1425 2325 
L 900 2325 
Q 925 2825 925 3200 
L 925 4200 
Q 925 4550 900 4900 
L 1450 4900 
z
M 5025 -25 
L 5025 1325 
L 4125 1325 
L 4125 -25 
L 5025 -25 
z
M 2300 -25 
L 2300 1325 
L 1400 1325 
L 1400 -25 
L 2300 -25 
z
M 3650 -25 
L 3650 1325 
L 2775 1325 
L 2775 -25 
L 3650 -25 
z
M 4575 3500 
Q 4850 3300 5100 3037 
Q 5350 2775 5625 2475 
Q 5450 2325 5225 2125 
L 4725 2675 
Q 4475 2950 4250 3150 
Q 4400 3350 4575 3500 
z
" transform="scale(0.015625)"/>
      <path id="SimHei-7ba1" d="M 4975 2550 
Q 4950 2150 4950 1950 
Q 4950 1775 4975 1400 
L 1900 1400 
L 1900 975 
L 5225 975 
Q 5200 425 5200 150 
Q 5200 -100 5225 -550 
L 4725 -550 
L 4725 -300 
L 1900 -300 
L 1900 -625 
L 1375 -625 
Q 1400 25 1400 150 
L 1400 1725 
Q 1400 2150 1375 2550 
L 4975 2550 
z
M 3200 4050 
Q 3500 3475 3550 3350 
L 6000 3350 
Q 5975 3000 5975 2825 
Q 5975 2675 6000 2375 
L 5450 2375 
L 5450 2950 
L 925 2950 
L 925 2350 
L 375 2350 
Q 400 2575 400 2800 
Q 400 3025 375 3350 
L 2975 3350 
Q 2900 3550 2725 3850 
Q 2975 3900 3200 4050 
z
M 3250 4275 
Q 2850 4300 2325 4300 
L 2575 3800 
Q 2275 3725 2050 3625 
Q 1975 3975 1850 4300 
L 1525 4300 
Q 1300 4025 1137 3862 
Q 975 3700 750 3525 
Q 600 3725 300 3875 
Q 825 4225 1100 4575 
Q 1375 4925 1500 5300 
Q 1725 5200 2125 5100 
Q 1950 4925 1800 4700 
L 2625 4700 
Q 2925 4700 3250 4725 
L 3250 4275 
z
M 4925 3600 
Q 4850 3950 4700 4300 
L 4225 4300 
Q 4000 3950 3850 3725 
Q 3575 3875 3350 4000 
Q 3650 4275 3825 4587 
Q 4000 4900 4100 5275 
Q 4375 5175 4725 5100 
Q 4525 4925 4425 4700 
L 5400 4700 
Q 5625 4700 6125 4725 
L 6125 4275 
Q 5750 4300 5175 4300 
L 5425 3800 
L 4925 3600 
z
M 4725 75 
L 4725 575 
L 1900 575 
L 1900 75 
L 4725 75 
z
M 4475 1775 
L 4475 2175 
L 1900 2175 
L 1900 1775 
L 4475 1775 
z
" transform="scale(0.015625)"/>
      <path id="SimHei-4e0b" d="M 5000 4700 
Q 5475 4700 5975 4725 
L 5975 4200 
Q 5425 4225 5000 4225 
L 3275 4225 
L 3275 375 
Q 3275 50 3300 -450 
L 2725 -450 
Q 2750 0 2750 375 
L 2750 4225 
L 1375 4225 
Q 875 4225 400 4200 
L 400 4725 
Q 875 4700 1375 4700 
L 5000 4700 
z
M 5650 1400 
Q 5400 1225 5200 1000 
Q 4800 1525 3650 2575 
L 4025 2950 
Q 4700 2400 5650 1400 
z
" transform="scale(0.015625)"/>
      <path id="SimHei-4e0d" d="M 5975 4450 
Q 5525 4475 5200 4475 
L 3725 4475 
Q 3550 4125 3300 3700 
L 3300 575 
Q 3300 75 3325 -550 
L 2775 -550 
Q 2800 50 2800 575 
L 2800 3025 
Q 2025 1950 700 1050 
Q 500 1350 325 1475 
Q 825 1700 1650 2437 
Q 2475 3175 3175 4475 
L 1525 4475 
Q 1050 4475 525 4450 
L 525 4950 
Q 1275 4925 1675 4925 
L 5175 4925 
Q 5500 4925 5975 4950 
L 5975 4450 
z
M 5450 1125 
Q 4975 1725 3750 2975 
Q 3950 3150 4075 3325 
Q 4675 2775 5100 2362 
Q 5525 1950 5900 1550 
Q 5650 1350 5450 1125 
z
" transform="scale(0.015625)"/>
      <path id="SimHei-540c" d="M 5825 4925 
Q 5775 4550 5775 3975 
L 5775 -50 
Q 5775 -400 5525 -487 
Q 5275 -575 4725 -625 
Q 4725 -400 4525 -50 
Q 4925 -50 5100 -12 
Q 5275 25 5275 200 
L 5275 4450 
L 1150 4450 
L 1150 -600 
L 575 -600 
Q 600 -250 625 200 
L 625 3975 
Q 625 4575 600 4925 
L 5825 4925 
z
M 4375 2550 
Q 4325 2275 4325 1700 
Q 4325 1150 4375 725 
L 2025 725 
Q 2050 1175 2050 1750 
Q 2050 2325 2025 2550 
L 4375 2550 
z
M 4100 3750 
Q 4600 3750 4825 3775 
L 4825 3275 
Q 4575 3300 4075 3300 
L 2450 3300 
Q 1850 3300 1600 3275 
L 1600 3775 
Q 1875 3750 2475 3750 
L 4100 3750 
z
M 3875 1150 
L 3875 2150 
L 2525 2150 
L 2525 1150 
L 3875 1150 
z
" transform="scale(0.015625)"/>
      <path id="SimHei-7684" d="M 2100 4975 
Q 1975 4750 1750 3950 
L 2875 3950 
Q 2850 3525 2850 2875 
L 2850 675 
Q 2850 300 2875 -400 
L 2375 -400 
L 2375 100 
L 1100 100 
L 1100 -450 
L 600 -450 
Q 625 350 625 550 
L 625 2850 
Q 625 3525 600 3950 
L 1325 3950 
Q 1450 4525 1525 5150 
Q 1875 5025 2100 4975 
z
M 5825 3075 
Q 5800 1550 5700 175 
Q 5650 -275 5225 -425 
Q 4800 -575 4275 -625 
Q 4250 -350 4050 -50 
Q 4550 -75 4837 -25 
Q 5125 25 5200 200 
Q 5275 375 5312 1225 
Q 5350 2075 5375 3600 
L 3925 3600 
Q 3725 3125 3350 2475 
Q 3175 2650 2925 2750 
Q 3150 3050 3350 3475 
Q 3550 3900 3700 4400 
Q 3850 4900 3875 5175 
Q 4225 5025 4475 4950 
Q 4350 4750 4262 4512 
Q 4175 4275 4075 4050 
L 5850 4050 
Q 5825 3525 5825 3075 
z
M 2375 525 
L 2375 1850 
L 1100 1850 
L 1100 525 
L 2375 525 
z
M 2375 2275 
L 2375 3525 
L 1100 3525 
L 1100 2275 
L 2375 2275 
z
M 4350 2050 
Q 4500 1750 4700 1275 
Q 4525 1200 4225 1025 
Q 4050 1500 3900 1837 
Q 3750 2175 3600 2400 
Q 3775 2500 4050 2650 
L 4350 2050 
z
" transform="scale(0.015625)"/>
     </defs>
     <use xlink:href="#SimHei-50"/>
     <use xlink:href="#SimHei-72" x="50"/>
     <use xlink:href="#SimHei-69" x="100"/>
     <use xlink:href="#SimHei-63" x="150"/>
     <use xlink:href="#SimHei-65" x="200"/>
     <use xlink:href="#SimHei-5f" x="250"/>
     <use xlink:href="#SimHei-52" x="300"/>
     <use xlink:href="#SimHei-61" x="350"/>
     <use xlink:href="#SimHei-6e" x="400"/>
     <use xlink:href="#SimHei-67" x="450"/>
     <use xlink:href="#SimHei-65" x="500"/>
     <use xlink:href="#SimHei-76d1" x="550"/>
     <use xlink:href="#SimHei-7ba1" x="650"/>
     <use xlink:href="#SimHei-4e0b" x="750"/>
     <use xlink:href="#SimHei-4e0d" x="850"/>
     <use xlink:href="#SimHei-540c" x="950"/>
     <use xlink:href="#SimHei-5ba2" x="1050"/>
     <use xlink:href="#SimHei-6237" x="1150"/>
     <use xlink:href="#SimHei-7c7b" x="1250"/>
     <use xlink:href="#SimHei-578b" x="1350"/>
     <use xlink:href="#SimHei-7684" x="1450"/>
     <use xlink:href="#SimHei-6d88" x="1550"/>
     <use xlink:href="#SimHei-8d39" x="1650"/>
     <use xlink:href="#SimHei-8005" x="1750"/>
     <use xlink:href="#SimHei-5269" x="1850"/>
     <use xlink:href="#SimHei-4f59" x="1950"/>
     <use xlink:href="#SimHei-53d8" x="2050"/>
     <use xlink:href="#SimHei-5316" x="2150"/>
    </g>
   </g>
  </g>
 </g>
 <defs>
  <clipPath id="paa42fdc4f7">
   <rect x="51.59" y="26.93625" width="801.61" height="364.8475"/>
  </clipPath>
 </defs>
</svg>
