<?xml version="1.0" encoding="utf-8" standalone="no"?>
<!DOCTYPE svg PUBLIC "-//W3C//DTD SVG 1.1//EN"
  "http://www.w3.org/Graphics/SVG/1.1/DTD/svg11.dtd">
<svg xmlns:xlink="http://www.w3.org/1999/xlink" width="864pt" height="432pt" viewBox="0 0 864 432" xmlns="http://www.w3.org/2000/svg" version="1.1">
 <metadata>
  <rdf:RDF xmlns:dc="http://purl.org/dc/elements/1.1/" xmlns:cc="http://creativecommons.org/ns#" xmlns:rdf="http://www.w3.org/1999/02/22-rdf-syntax-ns#">
   <cc:Work>
    <dc:type rdf:resource="http://purl.org/dc/dcmitype/StillImage"/>
    <dc:date>2025-04-12T21:55:01.139258</dc:date>
    <dc:format>image/svg+xml</dc:format>
    <dc:creator>
     <cc:Agent>
      <dc:title>Matplotlib v3.9.2, https://matplotlib.org/</dc:title>
     </cc:Agent>
    </dc:creator>
   </cc:Work>
  </rdf:RDF>
 </metadata>
 <defs>
  <style type="text/css">*{stroke-linejoin: round; stroke-linecap: butt}</style>
 </defs>
 <g id="figure_1">
  <g id="patch_1">
   <path d="M 0 432 
L 864 432 
L 864 0 
L 0 0 
z
" style="fill: #ffffff"/>
  </g>
  <g id="axes_1">
   <g id="patch_2">
    <path d="M 108 384.48 
L 777.6 384.48 
L 777.6 51.84 
L 108 51.84 
z
" style="fill: #ffffff"/>
   </g>
   <g id="PathCollection_1">
    <defs>
     <path id="m1510cfbe0f" d="M 0 5 
C 1.326016 5 2.597899 4.473168 3.535534 3.535534 
C 4.473168 2.597899 5 1.326016 5 0 
C 5 -1.326016 4.473168 -2.597899 3.535534 -3.535534 
C 2.597899 -4.473168 1.326016 -5 0 -5 
C -1.326016 -5 -2.597899 -4.473168 -3.535534 -3.535534 
C -4.473168 -2.597899 -5 -1.326016 -5 0 
C -5 1.326016 -4.473168 2.597899 -3.535534 3.535534 
C -2.597899 4.473168 -1.326016 5 0 5 
z
" style="stroke: #008000"/>
    </defs>
    <g clip-path="url(#p4d9df57513)">
     <use xlink:href="#m1510cfbe0f" x="138.436364" y="66.96" style="fill: #008000; stroke: #008000"/>
     <use xlink:href="#m1510cfbe0f" x="168.872727" y="66.96" style="fill: #008000; stroke: #008000"/>
     <use xlink:href="#m1510cfbe0f" x="199.309091" y="66.96" style="fill: #008000; stroke: #008000"/>
     <use xlink:href="#m1510cfbe0f" x="229.745455" y="66.96" style="fill: #008000; stroke: #008000"/>
     <use xlink:href="#m1510cfbe0f" x="260.181818" y="66.96" style="fill: #008000; stroke: #008000"/>
     <use xlink:href="#m1510cfbe0f" x="290.618182" y="66.96" style="fill: #008000; stroke: #008000"/>
     <use xlink:href="#m1510cfbe0f" x="321.054545" y="66.96" style="fill: #008000; stroke: #008000"/>
     <use xlink:href="#m1510cfbe0f" x="351.490909" y="66.96" style="fill: #008000; stroke: #008000"/>
     <use xlink:href="#m1510cfbe0f" x="381.927273" y="66.96" style="fill: #008000; stroke: #008000"/>
     <use xlink:href="#m1510cfbe0f" x="412.363636" y="66.96" style="fill: #008000; stroke: #008000"/>
     <use xlink:href="#m1510cfbe0f" x="747.163636" y="66.96" style="fill: #008000; stroke: #008000"/>
     <use xlink:href="#m1510cfbe0f" x="144.523636" y="66.96" style="fill: #008000; stroke: #008000"/>
     <use xlink:href="#m1510cfbe0f" x="175.921148" y="66.96" style="fill: #008000; stroke: #008000"/>
     <use xlink:href="#m1510cfbe0f" x="207.31866" y="66.96" style="fill: #008000; stroke: #008000"/>
     <use xlink:href="#m1510cfbe0f" x="238.716172" y="66.96" style="fill: #008000; stroke: #008000"/>
     <use xlink:href="#m1510cfbe0f" x="270.113684" y="66.96" style="fill: #008000; stroke: #008000"/>
     <use xlink:href="#m1510cfbe0f" x="301.511196" y="66.96" style="fill: #008000; stroke: #008000"/>
     <use xlink:href="#m1510cfbe0f" x="332.908708" y="66.96" style="fill: #008000; stroke: #008000"/>
     <use xlink:href="#m1510cfbe0f" x="364.30622" y="66.96" style="fill: #008000; stroke: #008000"/>
     <use xlink:href="#m1510cfbe0f" x="395.703732" y="66.96" style="fill: #008000; stroke: #008000"/>
     <use xlink:href="#m1510cfbe0f" x="427.101244" y="66.96" style="fill: #008000; stroke: #008000"/>
     <use xlink:href="#m1510cfbe0f" x="747.163636" y="66.96" style="fill: #008000; stroke: #008000"/>
    </g>
   </g>
   <g id="PathCollection_2">
    <defs>
     <path id="m4a56e70d17" d="M -5 5 
L 5 -5 
M -5 -5 
L 5 5 
" style="stroke: #ff0000; stroke-width: 1.5"/>
    </defs>
    <g clip-path="url(#p4d9df57513)">
     <use xlink:href="#m4a56e70d17" x="442.8" y="369.36" style="fill: #ff0000; stroke: #ff0000; stroke-width: 1.5"/>
     <use xlink:href="#m4a56e70d17" x="473.236364" y="369.36" style="fill: #ff0000; stroke: #ff0000; stroke-width: 1.5"/>
     <use xlink:href="#m4a56e70d17" x="503.672727" y="369.36" style="fill: #ff0000; stroke: #ff0000; stroke-width: 1.5"/>
     <use xlink:href="#m4a56e70d17" x="534.109091" y="369.36" style="fill: #ff0000; stroke: #ff0000; stroke-width: 1.5"/>
     <use xlink:href="#m4a56e70d17" x="564.545455" y="369.36" style="fill: #ff0000; stroke: #ff0000; stroke-width: 1.5"/>
     <use xlink:href="#m4a56e70d17" x="594.981818" y="369.36" style="fill: #ff0000; stroke: #ff0000; stroke-width: 1.5"/>
     <use xlink:href="#m4a56e70d17" x="625.418182" y="369.36" style="fill: #ff0000; stroke: #ff0000; stroke-width: 1.5"/>
     <use xlink:href="#m4a56e70d17" x="655.854545" y="369.36" style="fill: #ff0000; stroke: #ff0000; stroke-width: 1.5"/>
     <use xlink:href="#m4a56e70d17" x="686.290909" y="369.36" style="fill: #ff0000; stroke: #ff0000; stroke-width: 1.5"/>
     <use xlink:href="#m4a56e70d17" x="716.727273" y="369.36" style="fill: #ff0000; stroke: #ff0000; stroke-width: 1.5"/>
     <use xlink:href="#m4a56e70d17" x="458.498756" y="369.36" style="fill: #ff0000; stroke: #ff0000; stroke-width: 1.5"/>
     <use xlink:href="#m4a56e70d17" x="489.896268" y="369.36" style="fill: #ff0000; stroke: #ff0000; stroke-width: 1.5"/>
     <use xlink:href="#m4a56e70d17" x="521.29378" y="369.36" style="fill: #ff0000; stroke: #ff0000; stroke-width: 1.5"/>
     <use xlink:href="#m4a56e70d17" x="552.691292" y="369.36" style="fill: #ff0000; stroke: #ff0000; stroke-width: 1.5"/>
     <use xlink:href="#m4a56e70d17" x="584.088804" y="369.36" style="fill: #ff0000; stroke: #ff0000; stroke-width: 1.5"/>
     <use xlink:href="#m4a56e70d17" x="615.486316" y="369.36" style="fill: #ff0000; stroke: #ff0000; stroke-width: 1.5"/>
     <use xlink:href="#m4a56e70d17" x="646.883828" y="369.36" style="fill: #ff0000; stroke: #ff0000; stroke-width: 1.5"/>
     <use xlink:href="#m4a56e70d17" x="678.28134" y="369.36" style="fill: #ff0000; stroke: #ff0000; stroke-width: 1.5"/>
     <use xlink:href="#m4a56e70d17" x="709.678852" y="369.36" style="fill: #ff0000; stroke: #ff0000; stroke-width: 1.5"/>
     <use xlink:href="#m4a56e70d17" x="741.076364" y="369.36" style="fill: #ff0000; stroke: #ff0000; stroke-width: 1.5"/>
    </g>
   </g>
   <g id="matplotlib.axis_1">
    <g id="xtick_1">
     <g id="line2d_1">
      <path d="M 138.436364 384.48 
L 138.436364 51.84 
" clip-path="url(#p4d9df57513)" style="fill: none; stroke: #b0b0b0; stroke-opacity: 0.3; stroke-width: 0.8; stroke-linecap: square"/>
     </g>
     <g id="line2d_2">
      <defs>
       <path id="macd534d898" d="M 0 0 
L 0 3.5 
" style="stroke: #000000; stroke-width: 0.8"/>
      </defs>
      <g>
       <use xlink:href="#macd534d898" x="138.436364" y="384.48" style="stroke: #000000; stroke-width: 0.8"/>
      </g>
     </g>
     <g id="text_1">
      <!-- 0 -->
      <g transform="translate(135.936364 398.355) scale(0.1 -0.1)">
       <defs>
        <path id="SimHei-30" d="M 225 2537 
Q 250 3200 412 3587 
Q 575 3975 875 4225 
Q 1175 4475 1612 4475 
Q 2050 4475 2375 4112 
Q 2700 3750 2800 3200 
Q 2900 2650 2862 1937 
Q 2825 1225 2612 775 
Q 2400 325 1975 150 
Q 1550 -25 1125 187 
Q 700 400 525 750 
Q 350 1100 275 1487 
Q 200 1875 225 2537 
z
M 750 2687 
Q 675 2000 800 1462 
Q 925 925 1212 700 
Q 1500 475 1800 612 
Q 2100 750 2237 1162 
Q 2375 1575 2375 2062 
Q 2375 2550 2337 2950 
Q 2300 3350 2112 3675 
Q 1925 4000 1612 4012 
Q 1300 4025 1062 3700 
Q 825 3375 750 2687 
z
" transform="scale(0.015625)"/>
       </defs>
       <use xlink:href="#SimHei-30"/>
      </g>
     </g>
    </g>
    <g id="xtick_2">
     <g id="line2d_3">
      <path d="M 273.709091 384.48 
L 273.709091 51.84 
" clip-path="url(#p4d9df57513)" style="fill: none; stroke: #b0b0b0; stroke-opacity: 0.3; stroke-width: 0.8; stroke-linecap: square"/>
     </g>
     <g id="line2d_4">
      <g>
       <use xlink:href="#macd534d898" x="273.709091" y="384.48" style="stroke: #000000; stroke-width: 0.8"/>
      </g>
     </g>
     <g id="text_2">
      <!-- 2 -->
      <g transform="translate(271.209091 398.355) scale(0.1 -0.1)">
       <defs>
        <path id="SimHei-32" d="M 300 250 
Q 325 625 650 925 
Q 975 1225 1475 1862 
Q 1975 2500 2125 2850 
Q 2275 3200 2237 3450 
Q 2200 3700 2000 3862 
Q 1800 4025 1537 4000 
Q 1275 3975 1037 3800 
Q 800 3625 675 3275 
L 200 3350 
Q 400 3925 712 4187 
Q 1025 4450 1450 4475 
Q 1700 4500 1900 4462 
Q 2100 4425 2312 4287 
Q 2525 4150 2662 3875 
Q 2800 3600 2762 3212 
Q 2725 2825 2375 2287 
Q 2025 1750 1025 600 
L 2825 600 
L 2825 150 
L 300 150 
L 300 250 
z
" transform="scale(0.015625)"/>
       </defs>
       <use xlink:href="#SimHei-32"/>
      </g>
     </g>
    </g>
    <g id="xtick_3">
     <g id="line2d_5">
      <path d="M 408.981818 384.48 
L 408.981818 51.84 
" clip-path="url(#p4d9df57513)" style="fill: none; stroke: #b0b0b0; stroke-opacity: 0.3; stroke-width: 0.8; stroke-linecap: square"/>
     </g>
     <g id="line2d_6">
      <g>
       <use xlink:href="#macd534d898" x="408.981818" y="384.48" style="stroke: #000000; stroke-width: 0.8"/>
      </g>
     </g>
     <g id="text_3">
      <!-- 4 -->
      <g transform="translate(406.481818 398.355) scale(0.1 -0.1)">
       <defs>
        <path id="SimHei-34" d="M 2000 1100 
L 75 1100 
L 75 1525 
L 2100 4450 
L 2475 4450 
L 2475 1525 
L 3075 1525 
L 3075 1100 
L 2475 1100 
L 2475 150 
L 2000 150 
L 2000 1100 
z
M 2000 1525 
L 2000 3500 
L 600 1525 
L 2000 1525 
z
" transform="scale(0.015625)"/>
       </defs>
       <use xlink:href="#SimHei-34"/>
      </g>
     </g>
    </g>
    <g id="xtick_4">
     <g id="line2d_7">
      <path d="M 544.254545 384.48 
L 544.254545 51.84 
" clip-path="url(#p4d9df57513)" style="fill: none; stroke: #b0b0b0; stroke-opacity: 0.3; stroke-width: 0.8; stroke-linecap: square"/>
     </g>
     <g id="line2d_8">
      <g>
       <use xlink:href="#macd534d898" x="544.254545" y="384.48" style="stroke: #000000; stroke-width: 0.8"/>
      </g>
     </g>
     <g id="text_4">
      <!-- 6 -->
      <g transform="translate(541.754545 398.355) scale(0.1 -0.1)">
       <defs>
        <path id="SimHei-36" d="M 250 1612 
Q 275 1975 387 2225 
Q 500 2475 725 2850 
L 1750 4450 
L 2325 4450 
L 1275 2800 
Q 1950 2975 2350 2750 
Q 2750 2525 2887 2237 
Q 3025 1950 3037 1612 
Q 3050 1275 2937 950 
Q 2825 625 2537 362 
Q 2250 100 1737 75 
Q 1225 50 862 262 
Q 500 475 362 862 
Q 225 1250 250 1612 
z
M 1025 787 
Q 1250 550 1625 525 
Q 2000 500 2250 775 
Q 2500 1050 2500 1575 
Q 2500 2100 2187 2300 
Q 1875 2500 1487 2450 
Q 1100 2400 925 2075 
Q 750 1750 775 1387 
Q 800 1025 1025 787 
z
" transform="scale(0.015625)"/>
       </defs>
       <use xlink:href="#SimHei-36"/>
      </g>
     </g>
    </g>
    <g id="xtick_5">
     <g id="line2d_9">
      <path d="M 679.527273 384.48 
L 679.527273 51.84 
" clip-path="url(#p4d9df57513)" style="fill: none; stroke: #b0b0b0; stroke-opacity: 0.3; stroke-width: 0.8; stroke-linecap: square"/>
     </g>
     <g id="line2d_10">
      <g>
       <use xlink:href="#macd534d898" x="679.527273" y="384.48" style="stroke: #000000; stroke-width: 0.8"/>
      </g>
     </g>
     <g id="text_5">
      <!-- 8 -->
      <g transform="translate(677.027273 398.355) scale(0.1 -0.1)">
       <defs>
        <path id="SimHei-38" d="M 175 1375 
Q 175 1675 325 1962 
Q 475 2250 825 2425 
Q 525 2600 425 2812 
Q 325 3025 312 3300 
Q 300 3575 387 3775 
Q 475 3975 650 4150 
Q 825 4325 1037 4387 
Q 1250 4450 1500 4450 
Q 1750 4450 1950 4400 
Q 2150 4350 2375 4187 
Q 2600 4025 2700 3725 
Q 2800 3425 2687 3025 
Q 2575 2625 2100 2400 
Q 2525 2275 2700 2012 
Q 2875 1750 2875 1375 
Q 2875 1000 2762 775 
Q 2650 550 2512 400 
Q 2375 250 2137 162 
Q 1900 75 1537 75 
Q 1175 75 912 162 
Q 650 250 475 425 
Q 300 600 237 837 
Q 175 1075 175 1375 
z
M 687 1400 
Q 675 1100 787 875 
Q 900 650 1200 587 
Q 1500 525 1825 600 
Q 2150 675 2275 950 
Q 2400 1225 2362 1500 
Q 2325 1775 2050 1962 
Q 1775 2150 1450 2125 
Q 1125 2100 912 1900 
Q 700 1700 687 1400 
z
M 775 3350 
Q 775 3100 950 2875 
Q 1125 2650 1500 2650 
Q 1875 2650 2062 2875 
Q 2250 3100 2237 3412 
Q 2225 3725 2012 3875 
Q 1800 4025 1437 4000 
Q 1075 3975 925 3787 
Q 775 3600 775 3350 
z
" transform="scale(0.015625)"/>
       </defs>
       <use xlink:href="#SimHei-38"/>
      </g>
     </g>
    </g>
    <g id="text_6">
     <!-- F宽度 -->
     <g transform="translate(430.3 411.73) scale(0.1 -0.1)">
      <defs>
       <path id="SimHei-46" d="M 2925 3925 
L 875 3925 
L 875 2525 
L 2425 2525 
L 2425 2050 
L 875 2050 
L 875 125 
L 300 125 
L 300 4400 
L 2925 4400 
L 2925 3925 
z
" transform="scale(0.015625)"/>
       <path id="SimHei-5bbd" d="M 2225 3525 
Q 2225 3700 2200 3925 
L 2700 3925 
Q 2675 3700 2675 3525 
L 3650 3525 
Q 3650 3675 3625 3950 
L 4125 3950 
Q 4100 3675 4100 3525 
Q 4625 3525 5100 3550 
L 5100 3075 
Q 4575 3125 4100 3125 
L 4100 2475 
L 5025 2475 
Q 5000 2175 5000 1875 
L 5000 1475 
Q 5000 1225 5025 825 
L 4525 825 
L 4525 2100 
L 1800 2100 
L 1800 750 
L 1300 750 
Q 1325 1200 1325 1450 
L 1325 1850 
Q 1325 2175 1300 2475 
L 2225 2475 
L 2225 3125 
L 1875 3125 
Q 1700 3125 1225 3050 
L 1225 3550 
Q 1700 3525 1875 3525 
L 2225 3525 
z
M 5375 3500 
L 5375 4175 
L 950 4175 
L 950 3400 
L 425 3400 
Q 450 3725 450 3950 
Q 450 4200 425 4575 
L 3025 4575 
Q 2975 4700 2725 5125 
Q 3050 5200 3300 5300 
Q 3500 4900 3625 4575 
L 5900 4575 
Q 5875 4250 5875 3975 
Q 5875 3700 5900 3500 
L 5375 3500 
z
M 3325 1825 
Q 3100 900 2850 462 
Q 2600 25 2112 -237 
Q 1625 -500 650 -700 
Q 550 -350 400 -100 
Q 1025 -75 1450 37 
Q 1875 150 2150 387 
Q 2425 625 2550 987 
Q 2675 1350 2725 1950 
Q 3100 1850 3325 1825 
z
M 3975 1250 
Q 3950 925 3950 675 
L 3950 150 
Q 3950 -75 4200 -100 
L 4950 -100 
Q 5250 -100 5400 0 
Q 5550 100 5650 550 
Q 5875 400 6125 300 
Q 5925 -500 5175 -525 
L 4025 -525 
Q 3500 -500 3450 -25 
L 3450 725 
Q 3450 925 3425 1250 
L 3975 1250 
z
M 3650 2475 
L 3650 3125 
L 2675 3125 
L 2675 2475 
L 3650 2475 
z
" transform="scale(0.015625)"/>
       <path id="SimHei-5ea6" d="M 1750 1675 
Q 2450 1650 2875 1650 
L 5200 1650 
Q 4975 1250 4650 850 
Q 4325 450 4025 200 
Q 4350 50 4950 -50 
Q 5550 -150 6100 -150 
Q 5950 -300 5825 -650 
Q 5100 -550 4550 -412 
Q 4000 -275 3625 -100 
Q 3100 -325 2587 -462 
Q 2075 -600 1525 -675 
Q 1450 -475 1225 -250 
Q 1675 -250 2250 -125 
Q 2825 0 3250 200 
Q 2825 550 2400 1275 
L 1750 1250 
L 1750 1675 
z
M 2975 5075 
Q 3250 5150 3475 5250 
Q 3625 4975 3775 4525 
L 4700 4525 
Q 4975 4525 5700 4550 
L 5700 4100 
Q 5000 4125 4650 4125 
L 1375 4125 
Q 1375 3000 1350 2312 
Q 1325 1625 1212 950 
Q 1100 275 725 -525 
Q 500 -375 250 -300 
Q 650 400 762 1075 
Q 875 1750 887 2800 
Q 900 3850 875 4525 
L 3200 4525 
Q 3100 4850 2975 5075 
z
M 2475 3300 
Q 2475 3700 2450 3925 
L 2975 3925 
Q 2950 3725 2950 3300 
L 4300 3300 
Q 4300 3700 4275 3950 
L 4800 3950 
Q 4775 3650 4775 3300 
Q 5325 3300 5725 3325 
L 5725 2900 
Q 5350 2925 4775 2925 
Q 4775 2250 4800 1950 
L 2450 1950 
Q 2475 2350 2475 2925 
Q 2175 2925 1600 2900 
L 1600 3325 
Q 2175 3300 2475 3300 
z
M 4300 2350 
L 4300 2925 
L 2950 2925 
L 2950 2350 
L 4300 2350 
z
M 2875 1275 
Q 3200 775 3650 425 
Q 4025 700 4425 1275 
L 2900 1275 
L 2875 1275 
z
" transform="scale(0.015625)"/>
      </defs>
      <use xlink:href="#SimHei-46"/>
      <use xlink:href="#SimHei-5bbd" x="50"/>
      <use xlink:href="#SimHei-5ea6" x="150"/>
     </g>
    </g>
   </g>
   <g id="matplotlib.axis_2">
    <g id="ytick_1">
     <g id="line2d_11">
      <path d="M 108 369.36 
L 777.6 369.36 
" clip-path="url(#p4d9df57513)" style="fill: none; stroke: #b0b0b0; stroke-opacity: 0.3; stroke-width: 0.8; stroke-linecap: square"/>
     </g>
     <g id="line2d_12">
      <defs>
       <path id="mccb5685579" d="M 0 0 
L -3.5 0 
" style="stroke: #000000; stroke-width: 0.8"/>
      </defs>
      <g>
       <use xlink:href="#mccb5685579" x="108" y="369.36" style="stroke: #000000; stroke-width: 0.8"/>
      </g>
     </g>
     <g id="text_7">
      <!-- 不可行 -->
      <g transform="translate(71 373.402969) scale(0.1 -0.1)">
       <defs>
        <path id="SimHei-4e0d" d="M 5975 4450 
Q 5525 4475 5200 4475 
L 3725 4475 
Q 3550 4125 3300 3700 
L 3300 575 
Q 3300 75 3325 -550 
L 2775 -550 
Q 2800 50 2800 575 
L 2800 3025 
Q 2025 1950 700 1050 
Q 500 1350 325 1475 
Q 825 1700 1650 2437 
Q 2475 3175 3175 4475 
L 1525 4475 
Q 1050 4475 525 4450 
L 525 4950 
Q 1275 4925 1675 4925 
L 5175 4925 
Q 5500 4925 5975 4950 
L 5975 4450 
z
M 5450 1125 
Q 4975 1725 3750 2975 
Q 3950 3150 4075 3325 
Q 4675 2775 5100 2362 
Q 5525 1950 5900 1550 
Q 5650 1350 5450 1125 
z
" transform="scale(0.015625)"/>
        <path id="SimHei-53ef" d="M 3600 3500 
Q 3575 3175 3575 2775 
L 3575 1550 
Q 3575 1125 3600 825 
L 3075 825 
L 3075 1275 
L 1650 1275 
L 1650 600 
L 1150 600 
Q 1175 775 1175 1175 
L 1175 2775 
Q 1175 3175 1150 3500 
L 3600 3500 
z
M 5200 4675 
Q 5600 4675 6050 4700 
L 6050 4225 
Q 5650 4250 5225 4250 
L 5075 4250 
L 5075 125 
Q 5075 -325 4812 -462 
Q 4550 -600 3750 -675 
Q 3700 -350 3550 -75 
Q 4075 -100 4300 -50 
Q 4525 0 4525 225 
L 4525 4250 
L 1525 4250 
Q 875 4250 350 4225 
L 350 4700 
Q 875 4675 1500 4675 
L 5200 4675 
z
M 3075 1700 
L 3075 3075 
L 1650 3075 
L 1650 1700 
L 3075 1700 
z
" transform="scale(0.015625)"/>
        <path id="SimHei-884c" d="M 5300 3100 
Q 5775 3100 6175 3125 
L 6175 2625 
Q 5775 2650 5325 2650 
L 4975 2650 
L 4975 -75 
Q 5000 -375 4787 -487 
Q 4575 -600 3950 -675 
Q 3900 -375 3675 -75 
Q 4100 -125 4275 -112 
Q 4450 -100 4475 150 
L 4475 2650 
L 3475 2650 
Q 3000 2650 2575 2625 
L 2575 3125 
Q 3025 3100 3475 3100 
L 5300 3100 
z
M 2300 3400 
Q 2075 3275 1962 3075 
Q 1850 2875 1650 2575 
L 1650 325 
Q 1650 0 1675 -675 
L 1150 -675 
Q 1175 75 1175 450 
L 1175 2050 
Q 950 1675 575 1300 
Q 400 1550 250 1725 
Q 825 2275 1150 2775 
Q 1475 3275 1725 3725 
Q 1975 3575 2300 3400 
z
M 4875 4800 
Q 5300 4800 5750 4825 
L 5750 4350 
Q 5300 4375 4825 4375 
L 3900 4375 
Q 3350 4375 2950 4350 
L 2950 4825 
Q 3350 4800 3900 4800 
L 4875 4800 
z
M 2075 4925 
Q 1875 4900 1550 4387 
Q 1225 3875 650 3250 
Q 500 3450 325 3625 
Q 725 4025 1050 4487 
Q 1375 4950 1525 5300 
Q 1775 5150 2075 4925 
z
" transform="scale(0.015625)"/>
       </defs>
       <use xlink:href="#SimHei-4e0d"/>
       <use xlink:href="#SimHei-53ef" x="100"/>
       <use xlink:href="#SimHei-884c" x="200"/>
      </g>
     </g>
    </g>
    <g id="ytick_2">
     <g id="line2d_13">
      <path d="M 108 66.96 
L 777.6 66.96 
" clip-path="url(#p4d9df57513)" style="fill: none; stroke: #b0b0b0; stroke-opacity: 0.3; stroke-width: 0.8; stroke-linecap: square"/>
     </g>
     <g id="line2d_14">
      <g>
       <use xlink:href="#mccb5685579" x="108" y="66.96" style="stroke: #000000; stroke-width: 0.8"/>
      </g>
     </g>
     <g id="text_8">
      <!-- 可行 -->
      <g transform="translate(81 71.002969) scale(0.1 -0.1)">
       <use xlink:href="#SimHei-53ef"/>
       <use xlink:href="#SimHei-884c" x="100"/>
      </g>
     </g>
    </g>
    <g id="text_9">
     <!-- 可行性 -->
     <g transform="translate(65.75 233.16) rotate(-90) scale(0.1 -0.1)">
      <defs>
       <path id="SimHei-6027" d="M 3450 4525 
Q 3325 4075 3275 3750 
L 4050 3750 
L 4050 4275 
Q 4050 4700 4025 5100 
L 4550 5100 
Q 4525 4700 4525 4275 
L 4525 3750 
L 5025 3750 
Q 5350 3750 5800 3775 
L 5800 3300 
Q 5350 3325 5025 3325 
L 4525 3325 
L 4525 2000 
L 4975 2000 
Q 5350 2000 5725 2025 
L 5725 1550 
Q 5350 1575 4975 1575 
L 4525 1575 
L 4525 25 
L 5200 25 
Q 5625 25 6025 50 
L 6025 -400 
Q 5625 -375 5200 -375 
L 3275 -375 
Q 2825 -375 2400 -400 
L 2400 50 
Q 2825 25 3250 25 
L 4050 25 
L 4050 1575 
L 3625 1575 
Q 3300 1575 2875 1550 
L 2875 2025 
Q 3200 2000 3625 2000 
L 4050 2000 
L 4050 3325 
L 3175 3325 
Q 3100 2950 2775 2225 
Q 2500 2375 2325 2400 
Q 2675 3125 2775 3650 
Q 2875 4175 2950 4650 
Q 3200 4575 3450 4525 
z
M 1700 5150 
Q 1675 4650 1675 4175 
L 1675 425 
Q 1675 -100 1700 -625 
L 1175 -625 
Q 1200 -100 1200 425 
L 1200 4175 
Q 1200 4700 1175 5150 
L 1700 5150 
z
M 975 3725 
Q 825 2675 700 2150 
Q 450 2200 250 2250 
Q 425 2900 525 3800 
Q 725 3775 975 3725 
z
M 2125 4025 
Q 2325 3625 2525 3000 
Q 2300 2925 2125 2825 
Q 1950 3375 1750 3850 
Q 1950 3950 2125 4025 
z
" transform="scale(0.015625)"/>
      </defs>
      <use xlink:href="#SimHei-53ef"/>
      <use xlink:href="#SimHei-884c" x="100"/>
      <use xlink:href="#SimHei-6027" x="200"/>
     </g>
    </g>
   </g>
   <g id="line2d_15">
    <path d="M 108 218.16 
L 777.6 218.16 
" clip-path="url(#p4d9df57513)" style="fill: none; stroke-dasharray: 5.55,2.4; stroke-dashoffset: 0; stroke: #808080; stroke-opacity: 0.3; stroke-width: 1.5"/>
   </g>
   <g id="patch_3">
    <path d="M 108 384.48 
L 108 51.84 
" style="fill: none; stroke: #000000; stroke-width: 0.8; stroke-linejoin: miter; stroke-linecap: square"/>
   </g>
   <g id="patch_4">
    <path d="M 777.6 384.48 
L 777.6 51.84 
" style="fill: none; stroke: #000000; stroke-width: 0.8; stroke-linejoin: miter; stroke-linecap: square"/>
   </g>
   <g id="patch_5">
    <path d="M 108 384.48 
L 777.6 384.48 
" style="fill: none; stroke: #000000; stroke-width: 0.8; stroke-linejoin: miter; stroke-linecap: square"/>
   </g>
   <g id="patch_6">
    <path d="M 108 51.84 
L 777.6 51.84 
" style="fill: none; stroke: #000000; stroke-width: 0.8; stroke-linejoin: miter; stroke-linecap: square"/>
   </g>
   <g id="text_10">
    <!-- truncated_normal - F宽度与可行性关系 -->
    <g transform="translate(334.8 45.84) scale(0.12 -0.12)">
     <defs>
      <path id="SimHei-74" d="M 2750 200 
Q 2625 150 2462 112 
Q 2300 75 2025 75 
Q 1575 75 1300 325 
Q 1025 575 1025 1025 
L 1025 2525 
L 175 2525 
L 175 2925 
L 1025 2925 
L 1025 3900 
L 1525 3900 
L 1525 2925 
L 2550 2925 
L 2550 2525 
L 1525 2525 
L 1525 1000 
Q 1525 800 1625 662 
Q 1725 525 2000 525 
Q 2275 525 2450 575 
Q 2625 625 2750 700 
L 2750 200 
z
" transform="scale(0.015625)"/>
      <path id="SimHei-72" d="M 2500 2425 
Q 2025 2500 1700 2287 
Q 1375 2075 1150 1550 
L 1150 125 
L 650 125 
L 650 2925 
L 1150 2925 
L 1150 2200 
Q 1375 2600 1712 2787 
Q 2050 2975 2500 2975 
L 2500 2425 
z
" transform="scale(0.015625)"/>
      <path id="SimHei-75" d="M 2800 125 
L 2300 125 
L 2300 650 
Q 2100 375 1862 225 
Q 1625 75 1250 75 
Q 800 75 575 325 
Q 350 575 350 950 
L 350 2925 
L 850 2925 
L 850 1125 
Q 850 825 1000 650 
Q 1150 475 1400 475 
Q 1725 475 2012 812 
Q 2300 1150 2300 1650 
L 2300 2925 
L 2800 2925 
L 2800 125 
z
" transform="scale(0.015625)"/>
      <path id="SimHei-6e" d="M 2800 125 
L 2300 125 
L 2300 1925 
Q 2300 2225 2150 2400 
Q 2000 2575 1750 2575 
Q 1425 2575 1137 2237 
Q 850 1900 850 1400 
L 850 125 
L 350 125 
L 350 2925 
L 850 2925 
L 850 2400 
Q 1050 2675 1287 2825 
Q 1525 2975 1900 2975 
Q 2350 2975 2575 2725 
Q 2800 2475 2800 2100 
L 2800 125 
z
" transform="scale(0.015625)"/>
      <path id="SimHei-63" d="M 2850 1250 
Q 2850 725 2487 400 
Q 2125 75 1575 75 
Q 1025 75 625 462 
Q 225 850 225 1525 
Q 225 2200 625 2587 
Q 1025 2975 1575 2975 
Q 2125 2975 2450 2687 
Q 2775 2400 2775 2000 
L 2225 2000 
Q 2200 2300 2012 2412 
Q 1825 2525 1575 2525 
Q 1275 2525 1025 2287 
Q 775 2050 775 1525 
Q 775 1000 1025 762 
Q 1275 525 1575 525 
Q 1900 525 2100 700 
Q 2300 875 2300 1250 
L 2850 1250 
z
" transform="scale(0.015625)"/>
      <path id="SimHei-61" d="M 2875 125 
L 2275 125 
Q 2225 175 2200 262 
Q 2175 350 2175 475 
Q 2000 275 1750 175 
Q 1500 75 1225 75 
Q 825 75 550 275 
Q 275 475 275 850 
Q 275 1225 525 1450 
Q 775 1675 1300 1750 
Q 1650 1800 1912 1875 
Q 2175 1950 2175 2075 
Q 2175 2225 2062 2375 
Q 1950 2525 1575 2525 
Q 1275 2525 1137 2412 
Q 1000 2300 950 2100 
L 400 2100 
Q 450 2500 762 2737 
Q 1075 2975 1575 2975 
Q 2125 2975 2400 2725 
Q 2675 2475 2675 2025 
L 2675 650 
Q 2675 500 2725 375 
Q 2775 250 2875 125 
z
M 2175 1050 
L 2175 1550 
Q 2025 1500 1887 1462 
Q 1750 1425 1425 1375 
Q 1050 1325 937 1200 
Q 825 1075 825 900 
Q 825 750 937 637 
Q 1050 525 1275 525 
Q 1500 525 1762 650 
Q 2025 775 2175 1050 
z
" transform="scale(0.015625)"/>
      <path id="SimHei-65" d="M 2850 1075 
Q 2800 625 2450 350 
Q 2100 75 1625 75 
Q 1025 75 637 462 
Q 250 850 250 1525 
Q 250 2200 637 2587 
Q 1025 2975 1625 2975 
Q 2150 2975 2487 2637 
Q 2825 2300 2825 1525 
L 800 1525 
Q 800 975 1037 750 
Q 1275 525 1625 525 
Q 1900 525 2075 662 
Q 2250 800 2300 1075 
L 2850 1075 
z
M 2250 1925 
Q 2200 2275 2025 2412 
Q 1850 2550 1575 2550 
Q 1325 2550 1125 2412 
Q 925 2275 825 1925 
L 2250 1925 
z
" transform="scale(0.015625)"/>
      <path id="SimHei-64" d="M 2750 125 
L 2250 125 
L 2250 500 
Q 2100 275 1900 175 
Q 1700 75 1425 75 
Q 925 75 575 437 
Q 225 800 225 1525 
Q 225 2250 575 2625 
Q 925 3000 1425 3000 
Q 1700 3000 1900 2887 
Q 2100 2775 2250 2550 
L 2250 4400 
L 2750 4400 
L 2750 125 
z
M 2250 1525 
Q 2250 2000 2037 2275 
Q 1825 2550 1525 2550 
Q 1150 2550 962 2275 
Q 775 2000 775 1525 
Q 775 1050 962 787 
Q 1150 525 1525 525 
Q 1825 525 2037 787 
Q 2250 1050 2250 1525 
z
" transform="scale(0.015625)"/>
      <path id="SimHei-5f" d="M 3150 -850 
L 0 -850 
L 0 -550 
L 3150 -550 
L 3150 -850 
z
" transform="scale(0.015625)"/>
      <path id="SimHei-6f" d="M 2925 1525 
Q 2925 875 2525 475 
Q 2125 75 1575 75 
Q 1025 75 625 475 
Q 225 875 225 1525 
Q 225 2175 625 2575 
Q 1025 2975 1575 2975 
Q 2125 2975 2525 2575 
Q 2925 2175 2925 1525 
z
M 2375 1525 
Q 2375 2025 2125 2275 
Q 1875 2525 1575 2525 
Q 1275 2525 1025 2275 
Q 775 2025 775 1525 
Q 775 1025 1025 775 
Q 1275 525 1575 525 
Q 1875 525 2125 775 
Q 2375 1025 2375 1525 
z
" transform="scale(0.015625)"/>
      <path id="SimHei-6d" d="M 3050 125 
L 2550 125 
L 2550 2150 
Q 2550 2300 2500 2400 
Q 2450 2500 2300 2500 
Q 2125 2500 1975 2312 
Q 1825 2125 1825 1825 
L 1825 125 
L 1325 125 
L 1325 2150 
Q 1325 2300 1275 2400 
Q 1225 2500 1075 2500 
Q 900 2500 750 2312 
Q 600 2125 600 1825 
L 600 125 
L 100 125 
L 100 2925 
L 600 2925 
L 600 2550 
Q 725 2750 900 2862 
Q 1075 2975 1275 2975 
Q 1475 2975 1612 2862 
Q 1750 2750 1800 2550 
Q 1925 2750 2087 2862 
Q 2250 2975 2450 2975 
Q 2750 2975 2900 2812 
Q 3050 2650 3050 2350 
L 3050 125 
z
" transform="scale(0.015625)"/>
      <path id="SimHei-6c" d="M 1825 125 
L 1325 125 
L 1325 4400 
L 1825 4400 
L 1825 125 
z
" transform="scale(0.015625)"/>
      <path id="SimHei-20" transform="scale(0.015625)"/>
      <path id="SimHei-2d" d="M 2975 2125 
L 125 2125 
L 125 2525 
L 2975 2525 
L 2975 2125 
z
" transform="scale(0.015625)"/>
      <path id="SimHei-4e0e" d="M 5350 100 
Q 5275 -300 4925 -425 
Q 4575 -550 3900 -600 
Q 3875 -375 3650 -25 
Q 4375 -50 4575 0 
Q 4775 50 4837 225 
Q 4900 400 5100 2350 
L 1125 2350 
Q 1450 4350 1475 5200 
Q 1800 5150 2075 5125 
Q 1975 4825 1900 4275 
L 4900 4275 
Q 5400 4275 5800 4300 
L 5800 3825 
Q 5400 3850 4950 3850 
L 1850 3850 
L 1700 2750 
L 5675 2750 
Q 5625 2450 5575 2050 
L 5350 100 
z
M 3675 1350 
Q 4125 1350 4500 1375 
L 4500 875 
Q 4125 900 3850 900 
L 1450 900 
Q 1000 900 500 875 
L 500 1375 
Q 1000 1350 1450 1350 
L 3675 1350 
z
" transform="scale(0.015625)"/>
      <path id="SimHei-5173" d="M 4675 4850 
Q 4525 4675 4362 4375 
Q 4200 4075 4075 3825 
L 4625 3825 
Q 5150 3825 5550 3850 
L 5550 3375 
Q 5225 3400 4700 3400 
L 3400 3400 
L 3400 2150 
L 4975 2150 
Q 5475 2150 5875 2175 
L 5875 1700 
Q 5475 1725 5025 1725 
L 3500 1725 
Q 4250 450 6000 75 
Q 5775 -175 5600 -525 
Q 4025 0 3225 1300 
Q 2800 200 875 -600 
Q 775 -350 500 -150 
Q 2425 375 2875 1725 
L 1550 1725 
Q 975 1725 600 1700 
L 600 2150 
Q 875 2125 1450 2125 
L 2925 2125 
L 2925 3400 
L 1750 3400 
Q 1275 3400 900 3375 
L 900 3850 
Q 1275 3825 1775 3825 
L 3575 3825 
Q 3925 4625 4075 5150 
Q 4325 5000 4675 4850 
z
M 2125 5125 
Q 2450 4725 2800 4175 
Q 2500 4025 2325 3875 
Q 2025 4450 1725 4825 
Q 1950 4975 2125 5125 
z
" transform="scale(0.015625)"/>
      <path id="SimHei-7cfb" d="M 5300 5200 
Q 5450 4950 5725 4675 
Q 4975 4650 4437 4587 
Q 3900 4525 3125 4450 
Q 3250 4325 3475 4225 
Q 3150 4025 2837 3762 
Q 2525 3500 2225 3275 
L 3475 3275 
Q 4100 3700 4525 4050 
Q 4775 3850 5125 3700 
Q 4775 3550 4450 3375 
Q 4125 3200 3387 2737 
Q 2650 2275 2125 1975 
Q 3600 2050 4875 2100 
Q 4750 2225 4225 2625 
Q 4475 2725 4650 2875 
Q 4950 2650 5337 2312 
Q 5725 1975 6075 1650 
Q 5775 1475 5600 1325 
Q 5400 1575 5225 1725 
Q 4550 1700 3625 1650 
L 3625 150 
Q 3625 -325 3387 -412 
Q 3150 -500 2525 -600 
Q 2475 -300 2300 -25 
Q 2875 -25 3012 12 
Q 3150 50 3150 300 
L 3150 1650 
Q 1625 1625 1075 1525 
Q 1000 1775 900 2050 
Q 1450 2100 1875 2300 
Q 2300 2500 2900 2900 
Q 2325 2900 2037 2875 
Q 1750 2850 1400 2800 
Q 1325 3075 1250 3325 
Q 1675 3325 2100 3662 
Q 2525 4000 2750 4400 
Q 1350 4350 925 4300 
Q 850 4550 750 4750 
Q 2150 4750 3250 4850 
Q 4350 4950 5300 5200 
z
M 4625 1250 
Q 4925 1025 5325 737 
Q 5725 450 6000 175 
Q 5800 0 5600 -225 
Q 5275 125 4925 400 
Q 4575 675 4275 875 
Q 4500 1050 4625 1250 
z
M 2200 875 
Q 1900 725 1537 375 
Q 1175 25 800 -300 
Q 575 -75 375 25 
Q 1075 450 1675 1225 
Q 1900 1050 2200 875 
z
" transform="scale(0.015625)"/>
     </defs>
     <use xlink:href="#SimHei-74"/>
     <use xlink:href="#SimHei-72" x="50"/>
     <use xlink:href="#SimHei-75" x="100"/>
     <use xlink:href="#SimHei-6e" x="150"/>
     <use xlink:href="#SimHei-63" x="200"/>
     <use xlink:href="#SimHei-61" x="250"/>
     <use xlink:href="#SimHei-74" x="300"/>
     <use xlink:href="#SimHei-65" x="350"/>
     <use xlink:href="#SimHei-64" x="400"/>
     <use xlink:href="#SimHei-5f" x="450"/>
     <use xlink:href="#SimHei-6e" x="500"/>
     <use xlink:href="#SimHei-6f" x="550"/>
     <use xlink:href="#SimHei-72" x="600"/>
     <use xlink:href="#SimHei-6d" x="650"/>
     <use xlink:href="#SimHei-61" x="700"/>
     <use xlink:href="#SimHei-6c" x="750"/>
     <use xlink:href="#SimHei-20" x="800"/>
     <use xlink:href="#SimHei-2d" x="850"/>
     <use xlink:href="#SimHei-20" x="900"/>
     <use xlink:href="#SimHei-46" x="950"/>
     <use xlink:href="#SimHei-5bbd" x="1000"/>
     <use xlink:href="#SimHei-5ea6" x="1100"/>
     <use xlink:href="#SimHei-4e0e" x="1200"/>
     <use xlink:href="#SimHei-53ef" x="1300"/>
     <use xlink:href="#SimHei-884c" x="1400"/>
     <use xlink:href="#SimHei-6027" x="1500"/>
     <use xlink:href="#SimHei-5173" x="1600"/>
     <use xlink:href="#SimHei-7cfb" x="1700"/>
    </g>
   </g>
   <g id="legend_1">
    <g id="patch_7">
     <path d="M 115 379.48 
L 192 379.48 
Q 194 379.48 194 377.48 
L 194 349.808125 
Q 194 347.808125 192 347.808125 
L 115 347.808125 
Q 113 347.808125 113 349.808125 
L 113 377.48 
Q 113 379.48 115 379.48 
z
" style="fill: #ffffff; opacity: 0.8; stroke: #cccccc; stroke-linejoin: miter"/>
    </g>
    <g id="PathCollection_3">
     <g>
      <use xlink:href="#m1510cfbe0f" x="127" y="357.269063" style="fill: #008000; stroke: #008000"/>
     </g>
    </g>
    <g id="text_11">
     <!-- 可行的F -->
     <g transform="translate(145 359.894063) scale(0.1 -0.1)">
      <defs>
       <path id="SimHei-7684" d="M 2100 4975 
Q 1975 4750 1750 3950 
L 2875 3950 
Q 2850 3525 2850 2875 
L 2850 675 
Q 2850 300 2875 -400 
L 2375 -400 
L 2375 100 
L 1100 100 
L 1100 -450 
L 600 -450 
Q 625 350 625 550 
L 625 2850 
Q 625 3525 600 3950 
L 1325 3950 
Q 1450 4525 1525 5150 
Q 1875 5025 2100 4975 
z
M 5825 3075 
Q 5800 1550 5700 175 
Q 5650 -275 5225 -425 
Q 4800 -575 4275 -625 
Q 4250 -350 4050 -50 
Q 4550 -75 4837 -25 
Q 5125 25 5200 200 
Q 5275 375 5312 1225 
Q 5350 2075 5375 3600 
L 3925 3600 
Q 3725 3125 3350 2475 
Q 3175 2650 2925 2750 
Q 3150 3050 3350 3475 
Q 3550 3900 3700 4400 
Q 3850 4900 3875 5175 
Q 4225 5025 4475 4950 
Q 4350 4750 4262 4512 
Q 4175 4275 4075 4050 
L 5850 4050 
Q 5825 3525 5825 3075 
z
M 2375 525 
L 2375 1850 
L 1100 1850 
L 1100 525 
L 2375 525 
z
M 2375 2275 
L 2375 3525 
L 1100 3525 
L 1100 2275 
L 2375 2275 
z
M 4350 2050 
Q 4500 1750 4700 1275 
Q 4525 1200 4225 1025 
Q 4050 1500 3900 1837 
Q 3750 2175 3600 2400 
Q 3775 2500 4050 2650 
L 4350 2050 
z
" transform="scale(0.015625)"/>
      </defs>
      <use xlink:href="#SimHei-53ef"/>
      <use xlink:href="#SimHei-884c" x="100"/>
      <use xlink:href="#SimHei-7684" x="200"/>
      <use xlink:href="#SimHei-46" x="300"/>
     </g>
    </g>
    <g id="PathCollection_4">
     <g>
      <use xlink:href="#m4a56e70d17" x="127" y="371.605" style="fill: #ff0000; stroke: #ff0000; stroke-width: 1.5"/>
     </g>
    </g>
    <g id="text_12">
     <!-- 不可行的F -->
     <g transform="translate(145 374.23) scale(0.1 -0.1)">
      <use xlink:href="#SimHei-4e0d"/>
      <use xlink:href="#SimHei-53ef" x="100"/>
      <use xlink:href="#SimHei-884c" x="200"/>
      <use xlink:href="#SimHei-7684" x="300"/>
      <use xlink:href="#SimHei-46" x="400"/>
     </g>
    </g>
   </g>
  </g>
 </g>
 <defs>
  <clipPath id="p4d9df57513">
   <rect x="108" y="51.84" width="669.6" height="332.64"/>
  </clipPath>
 </defs>
</svg>
