<?xml version="1.0" encoding="utf-8" standalone="no"?>
<!DOCTYPE svg PUBLIC "-//W3C//DTD SVG 1.1//EN"
  "http://www.w3.org/Graphics/SVG/1.1/DTD/svg11.dtd">
<svg xmlns:xlink="http://www.w3.org/1999/xlink" width="1365.130956pt" height="428.018456pt" viewBox="0 0 1365.130956 428.018456" xmlns="http://www.w3.org/2000/svg" version="1.1">
 <metadata>
  <rdf:RDF xmlns:dc="http://purl.org/dc/elements/1.1/" xmlns:cc="http://creativecommons.org/ns#" xmlns:rdf="http://www.w3.org/1999/02/22-rdf-syntax-ns#">
   <cc:Work>
    <dc:type rdf:resource="http://purl.org/dc/dcmitype/StillImage"/>
    <dc:date>2025-04-12T19:34:23.089322</dc:date>
    <dc:format>image/svg+xml</dc:format>
    <dc:creator>
     <cc:Agent>
      <dc:title>Matplotlib v3.9.2, https://matplotlib.org/</dc:title>
     </cc:Agent>
    </dc:creator>
   </cc:Work>
  </rdf:RDF>
 </metadata>
 <defs>
  <style type="text/css">*{stroke-linejoin: round; stroke-linecap: butt}</style>
 </defs>
 <g id="figure_1">
  <g id="patch_1">
   <path d="M 0 428.018456 
L 1365.130956 428.018456 
L 1365.130956 0 
L 0 0 
z
" style="fill: #ffffff"/>
  </g>
  <g id="axes_1">
   <g id="patch_2">
    <path d="M 34.45 393.490331 
L 405.130956 393.490331 
L 405.130956 22.809375 
L 34.45 22.809375 
z
" style="fill: #ffffff"/>
   </g>
   <g id="QuadMesh_1">
    <path d="M 34.45 393.490331 
L 96.230159 393.490331 
L 96.230159 331.710172 
L 34.45 331.710172 
L 34.45 393.490331 
" clip-path="url(#pd7e4cb2828)" style="fill: #ffffff; stroke: #808080; stroke-width: 0.5"/>
    <path d="M 96.230159 393.490331 
L 158.010319 393.490331 
L 158.010319 331.710172 
L 96.230159 331.710172 
L 96.230159 393.490331 
" clip-path="url(#pd7e4cb2828)" style="fill: #ffffff; stroke: #808080; stroke-width: 0.5"/>
    <path d="M 158.010319 393.490331 
L 219.790478 393.490331 
L 219.790478 331.710172 
L 158.010319 331.710172 
L 158.010319 393.490331 
" clip-path="url(#pd7e4cb2828)" style="fill: #ffffff; stroke: #808080; stroke-width: 0.5"/>
    <path d="M 219.790478 393.490331 
L 281.570637 393.490331 
L 281.570637 331.710172 
L 219.790478 331.710172 
L 219.790478 393.490331 
" clip-path="url(#pd7e4cb2828)" style="fill: #ffffff; stroke: #808080; stroke-width: 0.5"/>
    <path d="M 281.570637 393.490331 
L 343.350797 393.490331 
L 343.350797 331.710172 
L 281.570637 331.710172 
L 281.570637 393.490331 
" clip-path="url(#pd7e4cb2828)" style="fill: #ff0000; stroke: #808080; stroke-width: 0.5"/>
    <path d="M 343.350797 393.490331 
L 405.130956 393.490331 
L 405.130956 331.710172 
L 343.350797 331.710172 
L 343.350797 393.490331 
" clip-path="url(#pd7e4cb2828)" style="fill: #ff0000; stroke: #808080; stroke-width: 0.5"/>
    <path d="M 34.45 331.710172 
L 96.230159 331.710172 
L 96.230159 269.930012 
L 34.45 269.930012 
L 34.45 331.710172 
" clip-path="url(#pd7e4cb2828)" style="fill: #ffffff; stroke: #808080; stroke-width: 0.5"/>
    <path d="M 96.230159 331.710172 
L 158.010319 331.710172 
L 158.010319 269.930012 
L 96.230159 269.930012 
L 96.230159 331.710172 
" clip-path="url(#pd7e4cb2828)" style="fill: #ffffff; stroke: #808080; stroke-width: 0.5"/>
    <path d="M 158.010319 331.710172 
L 219.790478 331.710172 
L 219.790478 269.930012 
L 158.010319 269.930012 
L 158.010319 331.710172 
" clip-path="url(#pd7e4cb2828)" style="fill: #ffffff; stroke: #808080; stroke-width: 0.5"/>
    <path d="M 219.790478 331.710172 
L 281.570637 331.710172 
L 281.570637 269.930012 
L 219.790478 269.930012 
L 219.790478 331.710172 
" clip-path="url(#pd7e4cb2828)" style="fill: #ffffff; stroke: #808080; stroke-width: 0.5"/>
    <path d="M 281.570637 331.710172 
L 343.350797 331.710172 
L 343.350797 269.930012 
L 281.570637 269.930012 
L 281.570637 331.710172 
" clip-path="url(#pd7e4cb2828)" style="fill: #ff0000; stroke: #808080; stroke-width: 0.5"/>
    <path d="M 343.350797 331.710172 
L 405.130956 331.710172 
L 405.130956 269.930012 
L 343.350797 269.930012 
L 343.350797 331.710172 
" clip-path="url(#pd7e4cb2828)" style="fill: #ff0000; stroke: #808080; stroke-width: 0.5"/>
    <path d="M 34.45 269.930012 
L 96.230159 269.930012 
L 96.230159 208.149853 
L 34.45 208.149853 
L 34.45 269.930012 
" clip-path="url(#pd7e4cb2828)" style="fill: #ffffff; stroke: #808080; stroke-width: 0.5"/>
    <path d="M 96.230159 269.930012 
L 158.010319 269.930012 
L 158.010319 208.149853 
L 96.230159 208.149853 
L 96.230159 269.930012 
" clip-path="url(#pd7e4cb2828)" style="fill: #ffffff; stroke: #808080; stroke-width: 0.5"/>
    <path d="M 158.010319 269.930012 
L 219.790478 269.930012 
L 219.790478 208.149853 
L 158.010319 208.149853 
L 158.010319 269.930012 
" clip-path="url(#pd7e4cb2828)" style="fill: #ffffff; stroke: #808080; stroke-width: 0.5"/>
    <path d="M 219.790478 269.930012 
L 281.570637 269.930012 
L 281.570637 208.149853 
L 219.790478 208.149853 
L 219.790478 269.930012 
" clip-path="url(#pd7e4cb2828)" style="fill: #ffffff; stroke: #808080; stroke-width: 0.5"/>
    <path d="M 281.570637 269.930012 
L 343.350797 269.930012 
L 343.350797 208.149853 
L 281.570637 208.149853 
L 281.570637 269.930012 
" clip-path="url(#pd7e4cb2828)" style="fill: #ff0000; stroke: #808080; stroke-width: 0.5"/>
    <path d="M 343.350797 269.930012 
L 405.130956 269.930012 
L 405.130956 208.149853 
L 343.350797 208.149853 
L 343.350797 269.930012 
" clip-path="url(#pd7e4cb2828)" style="fill: #ff0000; stroke: #808080; stroke-width: 0.5"/>
    <path d="M 34.45 208.149853 
L 96.230159 208.149853 
L 96.230159 146.369694 
L 34.45 146.369694 
L 34.45 208.149853 
" clip-path="url(#pd7e4cb2828)" style="fill: #ffffff; stroke: #808080; stroke-width: 0.5"/>
    <path d="M 96.230159 208.149853 
L 158.010319 208.149853 
L 158.010319 146.369694 
L 96.230159 146.369694 
L 96.230159 208.149853 
" clip-path="url(#pd7e4cb2828)" style="fill: #ffffff; stroke: #808080; stroke-width: 0.5"/>
    <path d="M 158.010319 208.149853 
L 219.790478 208.149853 
L 219.790478 146.369694 
L 158.010319 146.369694 
L 158.010319 208.149853 
" clip-path="url(#pd7e4cb2828)" style="fill: #ffffff; stroke: #808080; stroke-width: 0.5"/>
    <path d="M 219.790478 208.149853 
L 281.570637 208.149853 
L 281.570637 146.369694 
L 219.790478 146.369694 
L 219.790478 208.149853 
" clip-path="url(#pd7e4cb2828)" style="fill: #ffffff; stroke: #808080; stroke-width: 0.5"/>
    <path d="M 281.570637 208.149853 
L 343.350797 208.149853 
L 343.350797 146.369694 
L 281.570637 146.369694 
L 281.570637 208.149853 
" clip-path="url(#pd7e4cb2828)" style="fill: #ff0000; stroke: #808080; stroke-width: 0.5"/>
    <path d="M 343.350797 208.149853 
L 405.130956 208.149853 
L 405.130956 146.369694 
L 343.350797 146.369694 
L 343.350797 208.149853 
" clip-path="url(#pd7e4cb2828)" style="fill: #ff0000; stroke: #808080; stroke-width: 0.5"/>
    <path d="M 34.45 146.369694 
L 96.230159 146.369694 
L 96.230159 84.589534 
L 34.45 84.589534 
L 34.45 146.369694 
" clip-path="url(#pd7e4cb2828)" style="fill: #ffffff; stroke: #808080; stroke-width: 0.5"/>
    <path d="M 96.230159 146.369694 
L 158.010319 146.369694 
L 158.010319 84.589534 
L 96.230159 84.589534 
L 96.230159 146.369694 
" clip-path="url(#pd7e4cb2828)" style="fill: #ffffff; stroke: #808080; stroke-width: 0.5"/>
    <path d="M 158.010319 146.369694 
L 219.790478 146.369694 
L 219.790478 84.589534 
L 158.010319 84.589534 
L 158.010319 146.369694 
" clip-path="url(#pd7e4cb2828)" style="fill: #ffffff; stroke: #808080; stroke-width: 0.5"/>
    <path d="M 219.790478 146.369694 
L 281.570637 146.369694 
L 281.570637 84.589534 
L 219.790478 84.589534 
L 219.790478 146.369694 
" clip-path="url(#pd7e4cb2828)" style="fill: #ffffff; stroke: #808080; stroke-width: 0.5"/>
    <path d="M 281.570637 146.369694 
L 343.350797 146.369694 
L 343.350797 84.589534 
L 281.570637 84.589534 
L 281.570637 146.369694 
" clip-path="url(#pd7e4cb2828)" style="fill: #ff0000; stroke: #808080; stroke-width: 0.5"/>
    <path d="M 343.350797 146.369694 
L 405.130956 146.369694 
L 405.130956 84.589534 
L 343.350797 84.589534 
L 343.350797 146.369694 
" clip-path="url(#pd7e4cb2828)" style="fill: #ff0000; stroke: #808080; stroke-width: 0.5"/>
    <path d="M 34.45 84.589534 
L 96.230159 84.589534 
L 96.230159 22.809375 
L 34.45 22.809375 
L 34.45 84.589534 
" clip-path="url(#pd7e4cb2828)" style="fill: #ffffff; stroke: #808080; stroke-width: 0.5"/>
    <path d="M 96.230159 84.589534 
L 158.010319 84.589534 
L 158.010319 22.809375 
L 96.230159 22.809375 
L 96.230159 84.589534 
" clip-path="url(#pd7e4cb2828)" style="fill: #ffffff; stroke: #808080; stroke-width: 0.5"/>
    <path d="M 158.010319 84.589534 
L 219.790478 84.589534 
L 219.790478 22.809375 
L 158.010319 22.809375 
L 158.010319 84.589534 
" clip-path="url(#pd7e4cb2828)" style="fill: #ffffff; stroke: #808080; stroke-width: 0.5"/>
    <path d="M 219.790478 84.589534 
L 281.570637 84.589534 
L 281.570637 22.809375 
L 219.790478 22.809375 
L 219.790478 84.589534 
" clip-path="url(#pd7e4cb2828)" style="fill: #ffffff; stroke: #808080; stroke-width: 0.5"/>
    <path d="M 281.570637 84.589534 
L 343.350797 84.589534 
L 343.350797 22.809375 
L 281.570637 22.809375 
L 281.570637 84.589534 
" clip-path="url(#pd7e4cb2828)" style="fill: #ffffff; stroke: #808080; stroke-width: 0.5"/>
    <path d="M 343.350797 84.589534 
L 405.130956 84.589534 
L 405.130956 22.809375 
L 343.350797 22.809375 
L 343.350797 84.589534 
" clip-path="url(#pd7e4cb2828)" style="fill: #ffffff; stroke: #808080; stroke-width: 0.5"/>
   </g>
   <g id="matplotlib.axis_1">
    <g id="xtick_1">
     <g id="line2d_1">
      <defs>
       <path id="m7b3a71ce07" d="M 0 0 
L 0 3.5 
" style="stroke: #000000; stroke-width: 0.8"/>
      </defs>
      <g>
       <use xlink:href="#m7b3a71ce07" x="65.34008" y="393.490331" style="stroke: #000000; stroke-width: 0.8"/>
      </g>
     </g>
     <g id="text_1">
      <!-- 1 -->
      <g transform="translate(62.84008 407.365331) scale(0.1 -0.1)">
       <defs>
        <path id="SimHei-31" d="M 1400 3600 
Q 1075 3275 575 2975 
L 575 3450 
Q 1200 3875 1600 4450 
L 1900 4450 
L 1900 150 
L 1400 150 
L 1400 3600 
z
" transform="scale(0.015625)"/>
       </defs>
       <use xlink:href="#SimHei-31"/>
      </g>
     </g>
    </g>
    <g id="xtick_2">
     <g id="line2d_2">
      <g>
       <use xlink:href="#m7b3a71ce07" x="127.120239" y="393.490331" style="stroke: #000000; stroke-width: 0.8"/>
      </g>
     </g>
     <g id="text_2">
      <!-- 2 -->
      <g transform="translate(124.620239 407.365331) scale(0.1 -0.1)">
       <defs>
        <path id="SimHei-32" d="M 300 250 
Q 325 625 650 925 
Q 975 1225 1475 1862 
Q 1975 2500 2125 2850 
Q 2275 3200 2237 3450 
Q 2200 3700 2000 3862 
Q 1800 4025 1537 4000 
Q 1275 3975 1037 3800 
Q 800 3625 675 3275 
L 200 3350 
Q 400 3925 712 4187 
Q 1025 4450 1450 4475 
Q 1700 4500 1900 4462 
Q 2100 4425 2312 4287 
Q 2525 4150 2662 3875 
Q 2800 3600 2762 3212 
Q 2725 2825 2375 2287 
Q 2025 1750 1025 600 
L 2825 600 
L 2825 150 
L 300 150 
L 300 250 
z
" transform="scale(0.015625)"/>
       </defs>
       <use xlink:href="#SimHei-32"/>
      </g>
     </g>
    </g>
    <g id="xtick_3">
     <g id="line2d_3">
      <g>
       <use xlink:href="#m7b3a71ce07" x="188.900398" y="393.490331" style="stroke: #000000; stroke-width: 0.8"/>
      </g>
     </g>
     <g id="text_3">
      <!-- 4 -->
      <g transform="translate(186.400398 407.365331) scale(0.1 -0.1)">
       <defs>
        <path id="SimHei-34" d="M 2000 1100 
L 75 1100 
L 75 1525 
L 2100 4450 
L 2475 4450 
L 2475 1525 
L 3075 1525 
L 3075 1100 
L 2475 1100 
L 2475 150 
L 2000 150 
L 2000 1100 
z
M 2000 1525 
L 2000 3500 
L 600 1525 
L 2000 1525 
z
" transform="scale(0.015625)"/>
       </defs>
       <use xlink:href="#SimHei-34"/>
      </g>
     </g>
    </g>
    <g id="xtick_4">
     <g id="line2d_4">
      <g>
       <use xlink:href="#m7b3a71ce07" x="250.680558" y="393.490331" style="stroke: #000000; stroke-width: 0.8"/>
      </g>
     </g>
     <g id="text_4">
      <!-- 6 -->
      <g transform="translate(248.180558 407.365331) scale(0.1 -0.1)">
       <defs>
        <path id="SimHei-36" d="M 250 1612 
Q 275 1975 387 2225 
Q 500 2475 725 2850 
L 1750 4450 
L 2325 4450 
L 1275 2800 
Q 1950 2975 2350 2750 
Q 2750 2525 2887 2237 
Q 3025 1950 3037 1612 
Q 3050 1275 2937 950 
Q 2825 625 2537 362 
Q 2250 100 1737 75 
Q 1225 50 862 262 
Q 500 475 362 862 
Q 225 1250 250 1612 
z
M 1025 787 
Q 1250 550 1625 525 
Q 2000 500 2250 775 
Q 2500 1050 2500 1575 
Q 2500 2100 2187 2300 
Q 1875 2500 1487 2450 
Q 1100 2400 925 2075 
Q 750 1750 775 1387 
Q 800 1025 1025 787 
z
" transform="scale(0.015625)"/>
       </defs>
       <use xlink:href="#SimHei-36"/>
      </g>
     </g>
    </g>
    <g id="xtick_5">
     <g id="line2d_5">
      <g>
       <use xlink:href="#m7b3a71ce07" x="312.460717" y="393.490331" style="stroke: #000000; stroke-width: 0.8"/>
      </g>
     </g>
     <g id="text_5">
      <!-- 9 -->
      <g transform="translate(309.960717 407.365331) scale(0.1 -0.1)">
       <defs>
        <path id="SimHei-39" d="M 800 75 
Q 1350 1000 1700 1750 
Q 1075 1650 662 1912 
Q 250 2175 162 2625 
Q 75 3075 175 3437 
Q 275 3800 487 4037 
Q 700 4275 1000 4375 
Q 1300 4475 1537 4475 
Q 1775 4475 2025 4375 
Q 2275 4275 2475 4075 
Q 2675 3875 2750 3662 
Q 2825 3450 2825 3112 
Q 2825 2775 2575 2250 
Q 2325 1725 1350 75 
L 800 75 
z
M 662 2875 
Q 700 2550 937 2337 
Q 1175 2125 1450 2150 
Q 1725 2175 1887 2300 
Q 2050 2425 2200 2725 
Q 2300 3100 2250 3362 
Q 2200 3625 1987 3800 
Q 1775 3975 1525 3975 
Q 1375 4000 1137 3900 
Q 900 3800 762 3500 
Q 625 3200 662 2875 
z
" transform="scale(0.015625)"/>
       </defs>
       <use xlink:href="#SimHei-39"/>
      </g>
     </g>
    </g>
    <g id="xtick_6">
     <g id="line2d_6">
      <g>
       <use xlink:href="#m7b3a71ce07" x="374.240876" y="393.490331" style="stroke: #000000; stroke-width: 0.8"/>
      </g>
     </g>
     <g id="text_6">
      <!-- 10 -->
      <g transform="translate(369.240876 407.365331) scale(0.1 -0.1)">
       <defs>
        <path id="SimHei-30" d="M 225 2537 
Q 250 3200 412 3587 
Q 575 3975 875 4225 
Q 1175 4475 1612 4475 
Q 2050 4475 2375 4112 
Q 2700 3750 2800 3200 
Q 2900 2650 2862 1937 
Q 2825 1225 2612 775 
Q 2400 325 1975 150 
Q 1550 -25 1125 187 
Q 700 400 525 750 
Q 350 1100 275 1487 
Q 200 1875 225 2537 
z
M 750 2687 
Q 675 2000 800 1462 
Q 925 925 1212 700 
Q 1500 475 1800 612 
Q 2100 750 2237 1162 
Q 2375 1575 2375 2062 
Q 2375 2550 2337 2950 
Q 2300 3350 2112 3675 
Q 1925 4000 1612 4012 
Q 1300 4025 1062 3700 
Q 825 3375 750 2687 
z
" transform="scale(0.015625)"/>
       </defs>
       <use xlink:href="#SimHei-31"/>
       <use xlink:href="#SimHei-30" x="50"/>
      </g>
     </g>
    </g>
    <g id="text_7">
     <!-- Upper Bound of F -->
     <g transform="translate(179.790478 419.568456) scale(0.1 -0.1)">
      <defs>
       <path id="SimHei-55" d="M 2875 1375 
Q 2875 775 2562 425 
Q 2250 75 1575 75 
Q 900 75 587 425 
Q 275 775 275 1375 
L 275 4400 
L 850 4400 
L 850 1375 
Q 850 950 1050 750 
Q 1250 550 1575 550 
Q 1900 550 2100 750 
Q 2300 950 2300 1375 
L 2300 4400 
L 2875 4400 
L 2875 1375 
z
" transform="scale(0.015625)"/>
       <path id="SimHei-70" d="M 2825 1525 
Q 2825 800 2475 425 
Q 2125 50 1625 50 
Q 1350 50 1150 162 
Q 950 275 800 500 
L 800 -800 
L 300 -800 
L 300 2925 
L 800 2925 
L 800 2550 
Q 950 2775 1150 2875 
Q 1350 2975 1625 2975 
Q 2125 2975 2475 2612 
Q 2825 2250 2825 1525 
z
M 2275 1525 
Q 2275 2000 2087 2262 
Q 1900 2525 1525 2525 
Q 1225 2525 1012 2262 
Q 800 2000 800 1525 
Q 800 1050 1012 775 
Q 1225 500 1525 500 
Q 1900 500 2087 775 
Q 2275 1050 2275 1525 
z
" transform="scale(0.015625)"/>
       <path id="SimHei-65" d="M 2850 1075 
Q 2800 625 2450 350 
Q 2100 75 1625 75 
Q 1025 75 637 462 
Q 250 850 250 1525 
Q 250 2200 637 2587 
Q 1025 2975 1625 2975 
Q 2150 2975 2487 2637 
Q 2825 2300 2825 1525 
L 800 1525 
Q 800 975 1037 750 
Q 1275 525 1625 525 
Q 1900 525 2075 662 
Q 2250 800 2300 1075 
L 2850 1075 
z
M 2250 1925 
Q 2200 2275 2025 2412 
Q 1850 2550 1575 2550 
Q 1325 2550 1125 2412 
Q 925 2275 825 1925 
L 2250 1925 
z
" transform="scale(0.015625)"/>
       <path id="SimHei-72" d="M 2500 2425 
Q 2025 2500 1700 2287 
Q 1375 2075 1150 1550 
L 1150 125 
L 650 125 
L 650 2925 
L 1150 2925 
L 1150 2200 
Q 1375 2600 1712 2787 
Q 2050 2975 2500 2975 
L 2500 2425 
z
" transform="scale(0.015625)"/>
       <path id="SimHei-20" transform="scale(0.015625)"/>
       <path id="SimHei-42" d="M 2950 1400 
Q 2950 675 2550 400 
Q 2150 125 1525 125 
L 275 125 
L 275 4400 
L 1575 4400 
Q 2200 4400 2512 4075 
Q 2825 3750 2825 3300 
Q 2825 2850 2612 2637 
Q 2400 2425 2175 2350 
Q 2475 2275 2712 2037 
Q 2950 1800 2950 1400 
z
M 2250 3300 
Q 2250 3625 2062 3775 
Q 1875 3925 1600 3925 
L 850 3925 
L 850 2600 
L 1575 2600 
Q 1850 2600 2050 2762 
Q 2250 2925 2250 3300 
z
M 2350 1400 
Q 2350 1800 2087 1962 
Q 1825 2125 1500 2125 
L 850 2125 
L 850 600 
L 1425 600 
Q 1875 600 2112 775 
Q 2350 950 2350 1400 
z
" transform="scale(0.015625)"/>
       <path id="SimHei-6f" d="M 2925 1525 
Q 2925 875 2525 475 
Q 2125 75 1575 75 
Q 1025 75 625 475 
Q 225 875 225 1525 
Q 225 2175 625 2575 
Q 1025 2975 1575 2975 
Q 2125 2975 2525 2575 
Q 2925 2175 2925 1525 
z
M 2375 1525 
Q 2375 2025 2125 2275 
Q 1875 2525 1575 2525 
Q 1275 2525 1025 2275 
Q 775 2025 775 1525 
Q 775 1025 1025 775 
Q 1275 525 1575 525 
Q 1875 525 2125 775 
Q 2375 1025 2375 1525 
z
" transform="scale(0.015625)"/>
       <path id="SimHei-75" d="M 2800 125 
L 2300 125 
L 2300 650 
Q 2100 375 1862 225 
Q 1625 75 1250 75 
Q 800 75 575 325 
Q 350 575 350 950 
L 350 2925 
L 850 2925 
L 850 1125 
Q 850 825 1000 650 
Q 1150 475 1400 475 
Q 1725 475 2012 812 
Q 2300 1150 2300 1650 
L 2300 2925 
L 2800 2925 
L 2800 125 
z
" transform="scale(0.015625)"/>
       <path id="SimHei-6e" d="M 2800 125 
L 2300 125 
L 2300 1925 
Q 2300 2225 2150 2400 
Q 2000 2575 1750 2575 
Q 1425 2575 1137 2237 
Q 850 1900 850 1400 
L 850 125 
L 350 125 
L 350 2925 
L 850 2925 
L 850 2400 
Q 1050 2675 1287 2825 
Q 1525 2975 1900 2975 
Q 2350 2975 2575 2725 
Q 2800 2475 2800 2100 
L 2800 125 
z
" transform="scale(0.015625)"/>
       <path id="SimHei-64" d="M 2750 125 
L 2250 125 
L 2250 500 
Q 2100 275 1900 175 
Q 1700 75 1425 75 
Q 925 75 575 437 
Q 225 800 225 1525 
Q 225 2250 575 2625 
Q 925 3000 1425 3000 
Q 1700 3000 1900 2887 
Q 2100 2775 2250 2550 
L 2250 4400 
L 2750 4400 
L 2750 125 
z
M 2250 1525 
Q 2250 2000 2037 2275 
Q 1825 2550 1525 2550 
Q 1150 2550 962 2275 
Q 775 2000 775 1525 
Q 775 1050 962 787 
Q 1150 525 1525 525 
Q 1825 525 2037 787 
Q 2250 1050 2250 1525 
z
" transform="scale(0.015625)"/>
       <path id="SimHei-66" d="M 2850 3825 
Q 2725 3900 2550 3950 
Q 2375 4000 2100 4000 
Q 1825 4000 1725 3862 
Q 1625 3725 1625 3525 
L 1625 2925 
L 2650 2925 
L 2650 2525 
L 1625 2525 
L 1625 125 
L 1125 125 
L 1125 2525 
L 275 2525 
L 275 2925 
L 1125 2925 
L 1125 3500 
Q 1125 3950 1400 4200 
Q 1675 4450 2125 4450 
Q 2400 4450 2562 4412 
Q 2725 4375 2850 4325 
L 2850 3825 
z
" transform="scale(0.015625)"/>
       <path id="SimHei-46" d="M 2925 3925 
L 875 3925 
L 875 2525 
L 2425 2525 
L 2425 2050 
L 875 2050 
L 875 125 
L 300 125 
L 300 4400 
L 2925 4400 
L 2925 3925 
z
" transform="scale(0.015625)"/>
      </defs>
      <use xlink:href="#SimHei-55"/>
      <use xlink:href="#SimHei-70" x="50"/>
      <use xlink:href="#SimHei-70" x="100"/>
      <use xlink:href="#SimHei-65" x="150"/>
      <use xlink:href="#SimHei-72" x="200"/>
      <use xlink:href="#SimHei-20" x="250"/>
      <use xlink:href="#SimHei-42" x="300"/>
      <use xlink:href="#SimHei-6f" x="350"/>
      <use xlink:href="#SimHei-75" x="400"/>
      <use xlink:href="#SimHei-6e" x="450"/>
      <use xlink:href="#SimHei-64" x="500"/>
      <use xlink:href="#SimHei-20" x="550"/>
      <use xlink:href="#SimHei-6f" x="600"/>
      <use xlink:href="#SimHei-66" x="650"/>
      <use xlink:href="#SimHei-20" x="700"/>
      <use xlink:href="#SimHei-46" x="750"/>
     </g>
    </g>
   </g>
   <g id="matplotlib.axis_2">
    <g id="ytick_1">
     <g id="line2d_7">
      <defs>
       <path id="m1f41e4a92e" d="M 0 0 
L -3.5 0 
" style="stroke: #000000; stroke-width: 0.8"/>
      </defs>
      <g>
       <use xlink:href="#m1f41e4a92e" x="34.45" y="362.600251" style="stroke: #000000; stroke-width: 0.8"/>
      </g>
     </g>
     <g id="text_8">
      <!-- 1 -->
      <g transform="translate(26.2 365.100251) rotate(-90) scale(0.1 -0.1)">
       <use xlink:href="#SimHei-31"/>
      </g>
     </g>
    </g>
    <g id="ytick_2">
     <g id="line2d_8">
      <g>
       <use xlink:href="#m1f41e4a92e" x="34.45" y="300.820092" style="stroke: #000000; stroke-width: 0.8"/>
      </g>
     </g>
     <g id="text_9">
      <!-- 2 -->
      <g transform="translate(26.2 303.320092) rotate(-90) scale(0.1 -0.1)">
       <use xlink:href="#SimHei-32"/>
      </g>
     </g>
    </g>
    <g id="ytick_3">
     <g id="line2d_9">
      <g>
       <use xlink:href="#m1f41e4a92e" x="34.45" y="239.039933" style="stroke: #000000; stroke-width: 0.8"/>
      </g>
     </g>
     <g id="text_10">
      <!-- 4 -->
      <g transform="translate(26.2 241.539933) rotate(-90) scale(0.1 -0.1)">
       <use xlink:href="#SimHei-34"/>
      </g>
     </g>
    </g>
    <g id="ytick_4">
     <g id="line2d_10">
      <g>
       <use xlink:href="#m1f41e4a92e" x="34.45" y="177.259773" style="stroke: #000000; stroke-width: 0.8"/>
      </g>
     </g>
     <g id="text_11">
      <!-- 6 -->
      <g transform="translate(26.2 179.759773) rotate(-90) scale(0.1 -0.1)">
       <use xlink:href="#SimHei-36"/>
      </g>
     </g>
    </g>
    <g id="ytick_5">
     <g id="line2d_11">
      <g>
       <use xlink:href="#m1f41e4a92e" x="34.45" y="115.479614" style="stroke: #000000; stroke-width: 0.8"/>
      </g>
     </g>
     <g id="text_12">
      <!-- 9 -->
      <g transform="translate(26.2 117.979614) rotate(-90) scale(0.1 -0.1)">
       <use xlink:href="#SimHei-39"/>
      </g>
     </g>
    </g>
    <g id="ytick_6">
     <g id="line2d_12">
      <g>
       <use xlink:href="#m1f41e4a92e" x="34.45" y="53.699455" style="stroke: #000000; stroke-width: 0.8"/>
      </g>
     </g>
     <g id="text_13">
      <!-- 10 -->
      <g transform="translate(26.2 58.699455) rotate(-90) scale(0.1 -0.1)">
       <use xlink:href="#SimHei-31"/>
       <use xlink:href="#SimHei-30" x="50"/>
      </g>
     </g>
    </g>
    <g id="text_14">
     <!-- Lower Bound of F -->
     <g transform="translate(14.075 248.149853) rotate(-90) scale(0.1 -0.1)">
      <defs>
       <path id="SimHei-4c" d="M 2900 125 
L 300 125 
L 300 4400 
L 875 4400 
L 875 600 
L 2900 600 
L 2900 125 
z
" transform="scale(0.015625)"/>
       <path id="SimHei-77" d="M 3075 2925 
L 2450 75 
L 1975 75 
L 1575 2250 
L 1525 2250 
L 1125 75 
L 650 75 
L 25 2925 
L 550 2925 
L 875 1050 
L 925 1050 
L 1275 2925 
L 1825 2925 
L 2175 1050 
L 2225 1050 
L 2550 2925 
L 3075 2925 
z
" transform="scale(0.015625)"/>
      </defs>
      <use xlink:href="#SimHei-4c"/>
      <use xlink:href="#SimHei-6f" x="50"/>
      <use xlink:href="#SimHei-77" x="100"/>
      <use xlink:href="#SimHei-65" x="150"/>
      <use xlink:href="#SimHei-72" x="200"/>
      <use xlink:href="#SimHei-20" x="250"/>
      <use xlink:href="#SimHei-42" x="300"/>
      <use xlink:href="#SimHei-6f" x="350"/>
      <use xlink:href="#SimHei-75" x="400"/>
      <use xlink:href="#SimHei-6e" x="450"/>
      <use xlink:href="#SimHei-64" x="500"/>
      <use xlink:href="#SimHei-20" x="550"/>
      <use xlink:href="#SimHei-6f" x="600"/>
      <use xlink:href="#SimHei-66" x="650"/>
      <use xlink:href="#SimHei-20" x="700"/>
      <use xlink:href="#SimHei-46" x="750"/>
     </g>
    </g>
   </g>
   <g id="text_15">
    <!-- 双峰权重 = 0.4 -->
    <g transform="translate(177.790478 16.809375) scale(0.12 -0.12)">
     <defs>
      <path id="SimHei-53cc" d="M 5675 4775 
Q 5500 3400 5250 2525 
Q 5000 1650 4625 1075 
Q 4925 675 5337 362 
Q 5750 50 6200 -125 
Q 5900 -250 5700 -550 
Q 5425 -375 5037 -62 
Q 4650 250 4300 700 
Q 4050 375 3637 25 
Q 3225 -325 2650 -675 
Q 2475 -425 2225 -325 
Q 2875 0 3337 412 
Q 3800 825 4000 1125 
Q 3650 2000 3525 2587 
Q 3400 3175 3300 4325 
L 3050 4325 
L 3050 4800 
Q 3525 4775 4025 4775 
L 5675 4775 
z
M 2875 4725 
Q 2800 4000 2700 3412 
Q 2600 2825 2350 2100 
Q 3075 1225 3300 850 
Q 3100 725 2875 525 
Q 2525 1075 2125 1575 
Q 1875 1050 1587 612 
Q 1300 175 800 -325 
Q 650 -125 350 -25 
Q 850 400 1187 862 
Q 1525 1325 1750 1925 
Q 1400 2400 550 3275 
Q 750 3450 900 3625 
Q 1575 2925 1950 2450 
Q 2075 2750 2175 3225 
Q 2275 3700 2300 4275 
L 1400 4275 
Q 850 4275 475 4250 
L 475 4750 
Q 875 4725 1375 4725 
L 2875 4725 
z
M 3775 4325 
Q 3850 3325 3950 2825 
Q 4050 2325 4350 1600 
Q 4625 2125 4825 2825 
Q 5025 3525 5100 4325 
L 3775 4325 
z
" transform="scale(0.015625)"/>
      <path id="SimHei-5cf0" d="M 400 2925 
Q 400 3300 375 3750 
L 850 3750 
Q 825 3150 825 2925 
L 825 600 
L 1250 700 
L 1250 4125 
Q 1250 4575 1225 4950 
L 1700 4950 
Q 1675 4350 1675 4125 
L 1675 750 
L 2050 825 
L 2050 3000 
Q 2050 3425 2025 3750 
L 2525 3750 
Q 2500 3200 2500 3000 
L 2500 925 
Q 2500 700 2525 -25 
L 2050 -25 
L 2050 425 
L 375 100 
Q 400 550 400 975 
L 400 2925 
z
M 4375 5000 
Q 4225 4825 4075 4600 
L 5675 4600 
Q 5500 4300 5275 3950 
Q 5050 3600 4800 3375 
Q 5475 3050 6200 3025 
Q 6000 2725 5950 2475 
Q 5425 2600 5125 2750 
Q 4825 2900 4450 3100 
Q 4175 2925 3800 2750 
Q 3425 2575 2900 2375 
Q 2775 2600 2600 2825 
Q 3025 2900 3375 3025 
Q 3725 3150 4100 3375 
Q 3850 3625 3625 3975 
Q 3325 3550 3100 3325 
Q 2950 3475 2750 3625 
Q 3100 3950 3362 4350 
Q 3625 4750 3825 5250 
Q 4075 5125 4375 5000 
z
M 5050 2225 
Q 5250 2225 5700 2250 
L 5700 1825 
Q 5250 1850 5075 1850 
L 4625 1850 
L 4625 1375 
L 4900 1375 
Q 5100 1375 5575 1400 
L 5575 975 
Q 5275 1000 4950 1000 
L 4625 1000 
L 4625 525 
L 5150 525 
Q 5500 525 5850 550 
L 5850 125 
Q 5575 150 5175 150 
L 4625 150 
Q 4625 -225 4650 -650 
L 4175 -650 
Q 4200 -200 4200 150 
L 3650 150 
Q 3475 150 2975 125 
L 2975 550 
Q 3325 525 3650 525 
L 4175 525 
L 4175 1000 
L 3850 1000 
Q 3500 1000 3125 975 
L 3125 1400 
Q 3500 1375 3850 1375 
L 4175 1375 
L 4175 1850 
L 3875 1850 
Q 3475 1850 3075 1825 
L 3075 2250 
Q 3475 2225 3875 2225 
L 4175 2225 
Q 4175 2475 4150 2750 
L 4650 2750 
Q 4625 2475 4625 2225 
L 5050 2225 
z
M 4450 3625 
Q 4700 3800 4950 4225 
L 3925 4225 
Q 4225 3775 4450 3625 
z
" transform="scale(0.015625)"/>
      <path id="SimHei-6743" d="M 2700 4575 
Q 3250 4550 3725 4550 
L 5675 4550 
Q 5575 3500 5337 2737 
Q 5100 1975 4475 1075 
Q 4775 675 5200 425 
Q 5625 175 6175 0 
Q 5825 -275 5750 -500 
Q 5175 -225 4775 100 
Q 4375 425 4150 725 
Q 3825 350 3475 62 
Q 3125 -225 2500 -600 
Q 2400 -350 2100 -125 
Q 2475 0 2950 275 
Q 3425 550 3850 1075 
Q 3625 1375 3400 2037 
Q 3175 2700 3050 4125 
L 2700 4125 
L 2700 4575 
z
M 200 1350 
Q 575 1750 825 2275 
Q 1075 2800 1250 3450 
Q 825 3450 425 3425 
L 425 3875 
Q 875 3850 1325 3850 
Q 1325 4900 1300 5250 
L 1850 5250 
Q 1800 4950 1800 3850 
Q 2175 3850 2600 3875 
L 2600 3425 
Q 2175 3450 1800 3450 
L 1800 2525 
Q 1975 2625 2175 2775 
Q 2625 2175 2750 1875 
Q 2475 1725 2325 1575 
Q 2200 1925 1800 2375 
L 1800 525 
Q 1800 0 1825 -600 
L 1275 -600 
Q 1325 0 1325 525 
L 1325 2375 
Q 1125 1675 575 900 
Q 425 1225 200 1350 
z
M 3525 4150 
Q 3675 2850 3787 2412 
Q 3900 1975 4175 1475 
Q 4475 1925 4750 2587 
Q 5025 3250 5100 4150 
L 3525 4150 
z
" transform="scale(0.015625)"/>
      <path id="SimHei-91cd" d="M 5300 4575 
Q 3900 4450 3425 4400 
L 3425 3875 
L 5150 3875 
Q 5500 3875 6000 3900 
L 6000 3450 
Q 5500 3475 5150 3475 
L 3425 3475 
L 3425 3050 
L 5150 3050 
Q 5125 2675 5125 2125 
Q 5125 1575 5150 1175 
L 3425 1175 
L 3425 750 
L 4550 750 
Q 5000 750 5500 775 
L 5500 375 
Q 5025 400 4575 400 
L 3425 400 
L 3425 -50 
L 5050 -50 
Q 5475 -50 5975 -25 
L 5975 -450 
Q 5475 -425 5075 -425 
L 1475 -425 
Q 975 -425 450 -450 
L 450 -25 
Q 975 -50 1450 -50 
L 2925 -50 
L 2925 400 
L 2050 400 
Q 1450 400 950 375 
L 950 775 
Q 1600 750 2075 750 
L 2925 750 
L 2925 1175 
L 1250 1175 
Q 1275 1800 1275 2125 
Q 1275 2450 1250 3050 
L 2925 3050 
L 2925 3475 
L 1225 3475 
Q 875 3475 400 3450 
L 400 3900 
Q 875 3875 1225 3875 
L 2925 3875 
L 2925 4375 
Q 2425 4350 1075 4250 
Q 1000 4475 875 4675 
Q 2275 4700 3362 4812 
Q 4450 4925 4925 5075 
Q 5025 4825 5300 4575 
z
M 4650 2300 
L 4650 2650 
L 3425 2650 
L 3425 2300 
L 4650 2300 
z
M 2925 2300 
L 2925 2650 
L 1750 2650 
L 1750 2300 
L 2925 2300 
z
M 4625 1575 
L 4625 1900 
L 3425 1900 
L 3425 1575 
L 4625 1575 
z
M 2925 1575 
L 2925 1900 
L 1750 1900 
L 1750 1575 
L 2925 1575 
z
" transform="scale(0.015625)"/>
      <path id="SimHei-3d" d="M 2975 2900 
L 125 2900 
L 125 3300 
L 2975 3300 
L 2975 2900 
z
M 2975 1375 
L 125 1375 
L 125 1775 
L 2975 1775 
L 2975 1375 
z
" transform="scale(0.015625)"/>
      <path id="SimHei-2e" d="M 1075 125 
L 500 125 
L 500 675 
L 1075 675 
L 1075 125 
z
" transform="scale(0.015625)"/>
     </defs>
     <use xlink:href="#SimHei-53cc"/>
     <use xlink:href="#SimHei-5cf0" x="100"/>
     <use xlink:href="#SimHei-6743" x="200"/>
     <use xlink:href="#SimHei-91cd" x="300"/>
     <use xlink:href="#SimHei-20" x="400"/>
     <use xlink:href="#SimHei-3d" x="450"/>
     <use xlink:href="#SimHei-20" x="500"/>
     <use xlink:href="#SimHei-30" x="550"/>
     <use xlink:href="#SimHei-2e" x="600"/>
     <use xlink:href="#SimHei-34" x="650"/>
    </g>
   </g>
  </g>
  <g id="axes_2">
   <g id="patch_3">
    <path d="M 510.85 393.490331 
L 881.530956 393.490331 
L 881.530956 22.809375 
L 510.85 22.809375 
z
" style="fill: #ffffff"/>
   </g>
   <g id="QuadMesh_2">
    <path d="M 510.85 393.490331 
L 572.630159 393.490331 
L 572.630159 331.710172 
L 510.85 331.710172 
L 510.85 393.490331 
" clip-path="url(#paf3c94fd89)" style="fill: #ffffff; stroke: #808080; stroke-width: 0.5"/>
    <path d="M 572.630159 393.490331 
L 634.410319 393.490331 
L 634.410319 331.710172 
L 572.630159 331.710172 
L 572.630159 393.490331 
" clip-path="url(#paf3c94fd89)" style="fill: #ffffff; stroke: #808080; stroke-width: 0.5"/>
    <path d="M 634.410319 393.490331 
L 696.190478 393.490331 
L 696.190478 331.710172 
L 634.410319 331.710172 
L 634.410319 393.490331 
" clip-path="url(#paf3c94fd89)" style="fill: #ffffff; stroke: #808080; stroke-width: 0.5"/>
    <path d="M 696.190478 393.490331 
L 757.970637 393.490331 
L 757.970637 331.710172 
L 696.190478 331.710172 
L 696.190478 393.490331 
" clip-path="url(#paf3c94fd89)" style="fill: #ff0000; stroke: #808080; stroke-width: 0.5"/>
    <path d="M 757.970637 393.490331 
L 819.750797 393.490331 
L 819.750797 331.710172 
L 757.970637 331.710172 
L 757.970637 393.490331 
" clip-path="url(#paf3c94fd89)" style="fill: #ff0000; stroke: #808080; stroke-width: 0.5"/>
    <path d="M 819.750797 393.490331 
L 881.530956 393.490331 
L 881.530956 331.710172 
L 819.750797 331.710172 
L 819.750797 393.490331 
" clip-path="url(#paf3c94fd89)" style="fill: #ff0000; stroke: #808080; stroke-width: 0.5"/>
    <path d="M 510.85 331.710172 
L 572.630159 331.710172 
L 572.630159 269.930012 
L 510.85 269.930012 
L 510.85 331.710172 
" clip-path="url(#paf3c94fd89)" style="fill: #ffffff; stroke: #808080; stroke-width: 0.5"/>
    <path d="M 572.630159 331.710172 
L 634.410319 331.710172 
L 634.410319 269.930012 
L 572.630159 269.930012 
L 572.630159 331.710172 
" clip-path="url(#paf3c94fd89)" style="fill: #ffffff; stroke: #808080; stroke-width: 0.5"/>
    <path d="M 634.410319 331.710172 
L 696.190478 331.710172 
L 696.190478 269.930012 
L 634.410319 269.930012 
L 634.410319 331.710172 
" clip-path="url(#paf3c94fd89)" style="fill: #ffffff; stroke: #808080; stroke-width: 0.5"/>
    <path d="M 696.190478 331.710172 
L 757.970637 331.710172 
L 757.970637 269.930012 
L 696.190478 269.930012 
L 696.190478 331.710172 
" clip-path="url(#paf3c94fd89)" style="fill: #ff0000; stroke: #808080; stroke-width: 0.5"/>
    <path d="M 757.970637 331.710172 
L 819.750797 331.710172 
L 819.750797 269.930012 
L 757.970637 269.930012 
L 757.970637 331.710172 
" clip-path="url(#paf3c94fd89)" style="fill: #ff0000; stroke: #808080; stroke-width: 0.5"/>
    <path d="M 819.750797 331.710172 
L 881.530956 331.710172 
L 881.530956 269.930012 
L 819.750797 269.930012 
L 819.750797 331.710172 
" clip-path="url(#paf3c94fd89)" style="fill: #ff0000; stroke: #808080; stroke-width: 0.5"/>
    <path d="M 510.85 269.930012 
L 572.630159 269.930012 
L 572.630159 208.149853 
L 510.85 208.149853 
L 510.85 269.930012 
" clip-path="url(#paf3c94fd89)" style="fill: #ffffff; stroke: #808080; stroke-width: 0.5"/>
    <path d="M 572.630159 269.930012 
L 634.410319 269.930012 
L 634.410319 208.149853 
L 572.630159 208.149853 
L 572.630159 269.930012 
" clip-path="url(#paf3c94fd89)" style="fill: #ffffff; stroke: #808080; stroke-width: 0.5"/>
    <path d="M 634.410319 269.930012 
L 696.190478 269.930012 
L 696.190478 208.149853 
L 634.410319 208.149853 
L 634.410319 269.930012 
" clip-path="url(#paf3c94fd89)" style="fill: #ffffff; stroke: #808080; stroke-width: 0.5"/>
    <path d="M 696.190478 269.930012 
L 757.970637 269.930012 
L 757.970637 208.149853 
L 696.190478 208.149853 
L 696.190478 269.930012 
" clip-path="url(#paf3c94fd89)" style="fill: #ff0000; stroke: #808080; stroke-width: 0.5"/>
    <path d="M 757.970637 269.930012 
L 819.750797 269.930012 
L 819.750797 208.149853 
L 757.970637 208.149853 
L 757.970637 269.930012 
" clip-path="url(#paf3c94fd89)" style="fill: #ff0000; stroke: #808080; stroke-width: 0.5"/>
    <path d="M 819.750797 269.930012 
L 881.530956 269.930012 
L 881.530956 208.149853 
L 819.750797 208.149853 
L 819.750797 269.930012 
" clip-path="url(#paf3c94fd89)" style="fill: #ff0000; stroke: #808080; stroke-width: 0.5"/>
    <path d="M 510.85 208.149853 
L 572.630159 208.149853 
L 572.630159 146.369694 
L 510.85 146.369694 
L 510.85 208.149853 
" clip-path="url(#paf3c94fd89)" style="fill: #ffffff; stroke: #808080; stroke-width: 0.5"/>
    <path d="M 572.630159 208.149853 
L 634.410319 208.149853 
L 634.410319 146.369694 
L 572.630159 146.369694 
L 572.630159 208.149853 
" clip-path="url(#paf3c94fd89)" style="fill: #ffffff; stroke: #808080; stroke-width: 0.5"/>
    <path d="M 634.410319 208.149853 
L 696.190478 208.149853 
L 696.190478 146.369694 
L 634.410319 146.369694 
L 634.410319 208.149853 
" clip-path="url(#paf3c94fd89)" style="fill: #ffffff; stroke: #808080; stroke-width: 0.5"/>
    <path d="M 696.190478 208.149853 
L 757.970637 208.149853 
L 757.970637 146.369694 
L 696.190478 146.369694 
L 696.190478 208.149853 
" clip-path="url(#paf3c94fd89)" style="fill: #ffffff; stroke: #808080; stroke-width: 0.5"/>
    <path d="M 757.970637 208.149853 
L 819.750797 208.149853 
L 819.750797 146.369694 
L 757.970637 146.369694 
L 757.970637 208.149853 
" clip-path="url(#paf3c94fd89)" style="fill: #ff0000; stroke: #808080; stroke-width: 0.5"/>
    <path d="M 819.750797 208.149853 
L 881.530956 208.149853 
L 881.530956 146.369694 
L 819.750797 146.369694 
L 819.750797 208.149853 
" clip-path="url(#paf3c94fd89)" style="fill: #ff0000; stroke: #808080; stroke-width: 0.5"/>
    <path d="M 510.85 146.369694 
L 572.630159 146.369694 
L 572.630159 84.589534 
L 510.85 84.589534 
L 510.85 146.369694 
" clip-path="url(#paf3c94fd89)" style="fill: #ffffff; stroke: #808080; stroke-width: 0.5"/>
    <path d="M 572.630159 146.369694 
L 634.410319 146.369694 
L 634.410319 84.589534 
L 572.630159 84.589534 
L 572.630159 146.369694 
" clip-path="url(#paf3c94fd89)" style="fill: #ffffff; stroke: #808080; stroke-width: 0.5"/>
    <path d="M 634.410319 146.369694 
L 696.190478 146.369694 
L 696.190478 84.589534 
L 634.410319 84.589534 
L 634.410319 146.369694 
" clip-path="url(#paf3c94fd89)" style="fill: #ffffff; stroke: #808080; stroke-width: 0.5"/>
    <path d="M 696.190478 146.369694 
L 757.970637 146.369694 
L 757.970637 84.589534 
L 696.190478 84.589534 
L 696.190478 146.369694 
" clip-path="url(#paf3c94fd89)" style="fill: #ffffff; stroke: #808080; stroke-width: 0.5"/>
    <path d="M 757.970637 146.369694 
L 819.750797 146.369694 
L 819.750797 84.589534 
L 757.970637 84.589534 
L 757.970637 146.369694 
" clip-path="url(#paf3c94fd89)" style="fill: #ff0000; stroke: #808080; stroke-width: 0.5"/>
    <path d="M 819.750797 146.369694 
L 881.530956 146.369694 
L 881.530956 84.589534 
L 819.750797 84.589534 
L 819.750797 146.369694 
" clip-path="url(#paf3c94fd89)" style="fill: #ff0000; stroke: #808080; stroke-width: 0.5"/>
    <path d="M 510.85 84.589534 
L 572.630159 84.589534 
L 572.630159 22.809375 
L 510.85 22.809375 
L 510.85 84.589534 
" clip-path="url(#paf3c94fd89)" style="fill: #ffffff; stroke: #808080; stroke-width: 0.5"/>
    <path d="M 572.630159 84.589534 
L 634.410319 84.589534 
L 634.410319 22.809375 
L 572.630159 22.809375 
L 572.630159 84.589534 
" clip-path="url(#paf3c94fd89)" style="fill: #ffffff; stroke: #808080; stroke-width: 0.5"/>
    <path d="M 634.410319 84.589534 
L 696.190478 84.589534 
L 696.190478 22.809375 
L 634.410319 22.809375 
L 634.410319 84.589534 
" clip-path="url(#paf3c94fd89)" style="fill: #ffffff; stroke: #808080; stroke-width: 0.5"/>
    <path d="M 696.190478 84.589534 
L 757.970637 84.589534 
L 757.970637 22.809375 
L 696.190478 22.809375 
L 696.190478 84.589534 
" clip-path="url(#paf3c94fd89)" style="fill: #ffffff; stroke: #808080; stroke-width: 0.5"/>
    <path d="M 757.970637 84.589534 
L 819.750797 84.589534 
L 819.750797 22.809375 
L 757.970637 22.809375 
L 757.970637 84.589534 
" clip-path="url(#paf3c94fd89)" style="fill: #ffffff; stroke: #808080; stroke-width: 0.5"/>
    <path d="M 819.750797 84.589534 
L 881.530956 84.589534 
L 881.530956 22.809375 
L 819.750797 22.809375 
L 819.750797 84.589534 
" clip-path="url(#paf3c94fd89)" style="fill: #ffffff; stroke: #808080; stroke-width: 0.5"/>
   </g>
   <g id="matplotlib.axis_3">
    <g id="xtick_7">
     <g id="line2d_13">
      <g>
       <use xlink:href="#m7b3a71ce07" x="541.74008" y="393.490331" style="stroke: #000000; stroke-width: 0.8"/>
      </g>
     </g>
     <g id="text_16">
      <!-- 1 -->
      <g transform="translate(539.24008 407.365331) scale(0.1 -0.1)">
       <use xlink:href="#SimHei-31"/>
      </g>
     </g>
    </g>
    <g id="xtick_8">
     <g id="line2d_14">
      <g>
       <use xlink:href="#m7b3a71ce07" x="603.520239" y="393.490331" style="stroke: #000000; stroke-width: 0.8"/>
      </g>
     </g>
     <g id="text_17">
      <!-- 2 -->
      <g transform="translate(601.020239 407.365331) scale(0.1 -0.1)">
       <use xlink:href="#SimHei-32"/>
      </g>
     </g>
    </g>
    <g id="xtick_9">
     <g id="line2d_15">
      <g>
       <use xlink:href="#m7b3a71ce07" x="665.300398" y="393.490331" style="stroke: #000000; stroke-width: 0.8"/>
      </g>
     </g>
     <g id="text_18">
      <!-- 4 -->
      <g transform="translate(662.800398 407.365331) scale(0.1 -0.1)">
       <use xlink:href="#SimHei-34"/>
      </g>
     </g>
    </g>
    <g id="xtick_10">
     <g id="line2d_16">
      <g>
       <use xlink:href="#m7b3a71ce07" x="727.080558" y="393.490331" style="stroke: #000000; stroke-width: 0.8"/>
      </g>
     </g>
     <g id="text_19">
      <!-- 6 -->
      <g transform="translate(724.580558 407.365331) scale(0.1 -0.1)">
       <use xlink:href="#SimHei-36"/>
      </g>
     </g>
    </g>
    <g id="xtick_11">
     <g id="line2d_17">
      <g>
       <use xlink:href="#m7b3a71ce07" x="788.860717" y="393.490331" style="stroke: #000000; stroke-width: 0.8"/>
      </g>
     </g>
     <g id="text_20">
      <!-- 9 -->
      <g transform="translate(786.360717 407.365331) scale(0.1 -0.1)">
       <use xlink:href="#SimHei-39"/>
      </g>
     </g>
    </g>
    <g id="xtick_12">
     <g id="line2d_18">
      <g>
       <use xlink:href="#m7b3a71ce07" x="850.640876" y="393.490331" style="stroke: #000000; stroke-width: 0.8"/>
      </g>
     </g>
     <g id="text_21">
      <!-- 10 -->
      <g transform="translate(845.640876 407.365331) scale(0.1 -0.1)">
       <use xlink:href="#SimHei-31"/>
       <use xlink:href="#SimHei-30" x="50"/>
      </g>
     </g>
    </g>
    <g id="text_22">
     <!-- Upper Bound of F -->
     <g transform="translate(656.190478 419.568456) scale(0.1 -0.1)">
      <use xlink:href="#SimHei-55"/>
      <use xlink:href="#SimHei-70" x="50"/>
      <use xlink:href="#SimHei-70" x="100"/>
      <use xlink:href="#SimHei-65" x="150"/>
      <use xlink:href="#SimHei-72" x="200"/>
      <use xlink:href="#SimHei-20" x="250"/>
      <use xlink:href="#SimHei-42" x="300"/>
      <use xlink:href="#SimHei-6f" x="350"/>
      <use xlink:href="#SimHei-75" x="400"/>
      <use xlink:href="#SimHei-6e" x="450"/>
      <use xlink:href="#SimHei-64" x="500"/>
      <use xlink:href="#SimHei-20" x="550"/>
      <use xlink:href="#SimHei-6f" x="600"/>
      <use xlink:href="#SimHei-66" x="650"/>
      <use xlink:href="#SimHei-20" x="700"/>
      <use xlink:href="#SimHei-46" x="750"/>
     </g>
    </g>
   </g>
   <g id="matplotlib.axis_4">
    <g id="ytick_7">
     <g id="line2d_19">
      <g>
       <use xlink:href="#m1f41e4a92e" x="510.85" y="362.600251" style="stroke: #000000; stroke-width: 0.8"/>
      </g>
     </g>
     <g id="text_23">
      <!-- 1 -->
      <g transform="translate(502.6 365.100251) rotate(-90) scale(0.1 -0.1)">
       <use xlink:href="#SimHei-31"/>
      </g>
     </g>
    </g>
    <g id="ytick_8">
     <g id="line2d_20">
      <g>
       <use xlink:href="#m1f41e4a92e" x="510.85" y="300.820092" style="stroke: #000000; stroke-width: 0.8"/>
      </g>
     </g>
     <g id="text_24">
      <!-- 2 -->
      <g transform="translate(502.6 303.320092) rotate(-90) scale(0.1 -0.1)">
       <use xlink:href="#SimHei-32"/>
      </g>
     </g>
    </g>
    <g id="ytick_9">
     <g id="line2d_21">
      <g>
       <use xlink:href="#m1f41e4a92e" x="510.85" y="239.039933" style="stroke: #000000; stroke-width: 0.8"/>
      </g>
     </g>
     <g id="text_25">
      <!-- 4 -->
      <g transform="translate(502.6 241.539933) rotate(-90) scale(0.1 -0.1)">
       <use xlink:href="#SimHei-34"/>
      </g>
     </g>
    </g>
    <g id="ytick_10">
     <g id="line2d_22">
      <g>
       <use xlink:href="#m1f41e4a92e" x="510.85" y="177.259773" style="stroke: #000000; stroke-width: 0.8"/>
      </g>
     </g>
     <g id="text_26">
      <!-- 6 -->
      <g transform="translate(502.6 179.759773) rotate(-90) scale(0.1 -0.1)">
       <use xlink:href="#SimHei-36"/>
      </g>
     </g>
    </g>
    <g id="ytick_11">
     <g id="line2d_23">
      <g>
       <use xlink:href="#m1f41e4a92e" x="510.85" y="115.479614" style="stroke: #000000; stroke-width: 0.8"/>
      </g>
     </g>
     <g id="text_27">
      <!-- 9 -->
      <g transform="translate(502.6 117.979614) rotate(-90) scale(0.1 -0.1)">
       <use xlink:href="#SimHei-39"/>
      </g>
     </g>
    </g>
    <g id="ytick_12">
     <g id="line2d_24">
      <g>
       <use xlink:href="#m1f41e4a92e" x="510.85" y="53.699455" style="stroke: #000000; stroke-width: 0.8"/>
      </g>
     </g>
     <g id="text_28">
      <!-- 10 -->
      <g transform="translate(502.6 58.699455) rotate(-90) scale(0.1 -0.1)">
       <use xlink:href="#SimHei-31"/>
       <use xlink:href="#SimHei-30" x="50"/>
      </g>
     </g>
    </g>
    <g id="text_29">
     <!-- Lower Bound of F -->
     <g transform="translate(490.475 248.149853) rotate(-90) scale(0.1 -0.1)">
      <use xlink:href="#SimHei-4c"/>
      <use xlink:href="#SimHei-6f" x="50"/>
      <use xlink:href="#SimHei-77" x="100"/>
      <use xlink:href="#SimHei-65" x="150"/>
      <use xlink:href="#SimHei-72" x="200"/>
      <use xlink:href="#SimHei-20" x="250"/>
      <use xlink:href="#SimHei-42" x="300"/>
      <use xlink:href="#SimHei-6f" x="350"/>
      <use xlink:href="#SimHei-75" x="400"/>
      <use xlink:href="#SimHei-6e" x="450"/>
      <use xlink:href="#SimHei-64" x="500"/>
      <use xlink:href="#SimHei-20" x="550"/>
      <use xlink:href="#SimHei-6f" x="600"/>
      <use xlink:href="#SimHei-66" x="650"/>
      <use xlink:href="#SimHei-20" x="700"/>
      <use xlink:href="#SimHei-46" x="750"/>
     </g>
    </g>
   </g>
   <g id="text_30">
    <!-- 双峰权重 = 0.6 -->
    <g transform="translate(654.190478 16.809375) scale(0.12 -0.12)">
     <use xlink:href="#SimHei-53cc"/>
     <use xlink:href="#SimHei-5cf0" x="100"/>
     <use xlink:href="#SimHei-6743" x="200"/>
     <use xlink:href="#SimHei-91cd" x="300"/>
     <use xlink:href="#SimHei-20" x="400"/>
     <use xlink:href="#SimHei-3d" x="450"/>
     <use xlink:href="#SimHei-20" x="500"/>
     <use xlink:href="#SimHei-30" x="550"/>
     <use xlink:href="#SimHei-2e" x="600"/>
     <use xlink:href="#SimHei-36" x="650"/>
    </g>
   </g>
  </g>
  <g id="axes_3">
   <g id="patch_4">
    <path d="M 987.25 393.490331 
L 1357.930956 393.490331 
L 1357.930956 22.809375 
L 987.25 22.809375 
z
" style="fill: #ffffff"/>
   </g>
   <g id="QuadMesh_3">
    <path d="M 987.25 393.490331 
L 1049.030159 393.490331 
L 1049.030159 331.710172 
L 987.25 331.710172 
L 987.25 393.490331 
" clip-path="url(#p759c5ca2ed)" style="fill: #ffffff; stroke: #808080; stroke-width: 0.5"/>
    <path d="M 1049.030159 393.490331 
L 1110.810319 393.490331 
L 1110.810319 331.710172 
L 1049.030159 331.710172 
L 1049.030159 393.490331 
" clip-path="url(#p759c5ca2ed)" style="fill: #ffffff; stroke: #808080; stroke-width: 0.5"/>
    <path d="M 1110.810319 393.490331 
L 1172.590478 393.490331 
L 1172.590478 331.710172 
L 1110.810319 331.710172 
L 1110.810319 393.490331 
" clip-path="url(#p759c5ca2ed)" style="fill: #ff0000; stroke: #808080; stroke-width: 0.5"/>
    <path d="M 1172.590478 393.490331 
L 1234.370637 393.490331 
L 1234.370637 331.710172 
L 1172.590478 331.710172 
L 1172.590478 393.490331 
" clip-path="url(#p759c5ca2ed)" style="fill: #ff0000; stroke: #808080; stroke-width: 0.5"/>
    <path d="M 1234.370637 393.490331 
L 1296.150797 393.490331 
L 1296.150797 331.710172 
L 1234.370637 331.710172 
L 1234.370637 393.490331 
" clip-path="url(#p759c5ca2ed)" style="fill: #ff0000; stroke: #808080; stroke-width: 0.5"/>
    <path d="M 1296.150797 393.490331 
L 1357.930956 393.490331 
L 1357.930956 331.710172 
L 1296.150797 331.710172 
L 1296.150797 393.490331 
" clip-path="url(#p759c5ca2ed)" style="fill: #ff0000; stroke: #808080; stroke-width: 0.5"/>
    <path d="M 987.25 331.710172 
L 1049.030159 331.710172 
L 1049.030159 269.930012 
L 987.25 269.930012 
L 987.25 331.710172 
" clip-path="url(#p759c5ca2ed)" style="fill: #ffffff; stroke: #808080; stroke-width: 0.5"/>
    <path d="M 1049.030159 331.710172 
L 1110.810319 331.710172 
L 1110.810319 269.930012 
L 1049.030159 269.930012 
L 1049.030159 331.710172 
" clip-path="url(#p759c5ca2ed)" style="fill: #ffffff; stroke: #808080; stroke-width: 0.5"/>
    <path d="M 1110.810319 331.710172 
L 1172.590478 331.710172 
L 1172.590478 269.930012 
L 1110.810319 269.930012 
L 1110.810319 331.710172 
" clip-path="url(#p759c5ca2ed)" style="fill: #ff0000; stroke: #808080; stroke-width: 0.5"/>
    <path d="M 1172.590478 331.710172 
L 1234.370637 331.710172 
L 1234.370637 269.930012 
L 1172.590478 269.930012 
L 1172.590478 331.710172 
" clip-path="url(#p759c5ca2ed)" style="fill: #ff0000; stroke: #808080; stroke-width: 0.5"/>
    <path d="M 1234.370637 331.710172 
L 1296.150797 331.710172 
L 1296.150797 269.930012 
L 1234.370637 269.930012 
L 1234.370637 331.710172 
" clip-path="url(#p759c5ca2ed)" style="fill: #ff0000; stroke: #808080; stroke-width: 0.5"/>
    <path d="M 1296.150797 331.710172 
L 1357.930956 331.710172 
L 1357.930956 269.930012 
L 1296.150797 269.930012 
L 1296.150797 331.710172 
" clip-path="url(#p759c5ca2ed)" style="fill: #ff0000; stroke: #808080; stroke-width: 0.5"/>
    <path d="M 987.25 269.930012 
L 1049.030159 269.930012 
L 1049.030159 208.149853 
L 987.25 208.149853 
L 987.25 269.930012 
" clip-path="url(#p759c5ca2ed)" style="fill: #ffffff; stroke: #808080; stroke-width: 0.5"/>
    <path d="M 1049.030159 269.930012 
L 1110.810319 269.930012 
L 1110.810319 208.149853 
L 1049.030159 208.149853 
L 1049.030159 269.930012 
" clip-path="url(#p759c5ca2ed)" style="fill: #ffffff; stroke: #808080; stroke-width: 0.5"/>
    <path d="M 1110.810319 269.930012 
L 1172.590478 269.930012 
L 1172.590478 208.149853 
L 1110.810319 208.149853 
L 1110.810319 269.930012 
" clip-path="url(#p759c5ca2ed)" style="fill: #ff0000; stroke: #808080; stroke-width: 0.5"/>
    <path d="M 1172.590478 269.930012 
L 1234.370637 269.930012 
L 1234.370637 208.149853 
L 1172.590478 208.149853 
L 1172.590478 269.930012 
" clip-path="url(#p759c5ca2ed)" style="fill: #ff0000; stroke: #808080; stroke-width: 0.5"/>
    <path d="M 1234.370637 269.930012 
L 1296.150797 269.930012 
L 1296.150797 208.149853 
L 1234.370637 208.149853 
L 1234.370637 269.930012 
" clip-path="url(#p759c5ca2ed)" style="fill: #ff0000; stroke: #808080; stroke-width: 0.5"/>
    <path d="M 1296.150797 269.930012 
L 1357.930956 269.930012 
L 1357.930956 208.149853 
L 1296.150797 208.149853 
L 1296.150797 269.930012 
" clip-path="url(#p759c5ca2ed)" style="fill: #ff0000; stroke: #808080; stroke-width: 0.5"/>
    <path d="M 987.25 208.149853 
L 1049.030159 208.149853 
L 1049.030159 146.369694 
L 987.25 146.369694 
L 987.25 208.149853 
" clip-path="url(#p759c5ca2ed)" style="fill: #ffffff; stroke: #808080; stroke-width: 0.5"/>
    <path d="M 1049.030159 208.149853 
L 1110.810319 208.149853 
L 1110.810319 146.369694 
L 1049.030159 146.369694 
L 1049.030159 208.149853 
" clip-path="url(#p759c5ca2ed)" style="fill: #ffffff; stroke: #808080; stroke-width: 0.5"/>
    <path d="M 1110.810319 208.149853 
L 1172.590478 208.149853 
L 1172.590478 146.369694 
L 1110.810319 146.369694 
L 1110.810319 208.149853 
" clip-path="url(#p759c5ca2ed)" style="fill: #ffffff; stroke: #808080; stroke-width: 0.5"/>
    <path d="M 1172.590478 208.149853 
L 1234.370637 208.149853 
L 1234.370637 146.369694 
L 1172.590478 146.369694 
L 1172.590478 208.149853 
" clip-path="url(#p759c5ca2ed)" style="fill: #ff0000; stroke: #808080; stroke-width: 0.5"/>
    <path d="M 1234.370637 208.149853 
L 1296.150797 208.149853 
L 1296.150797 146.369694 
L 1234.370637 146.369694 
L 1234.370637 208.149853 
" clip-path="url(#p759c5ca2ed)" style="fill: #ff0000; stroke: #808080; stroke-width: 0.5"/>
    <path d="M 1296.150797 208.149853 
L 1357.930956 208.149853 
L 1357.930956 146.369694 
L 1296.150797 146.369694 
L 1296.150797 208.149853 
" clip-path="url(#p759c5ca2ed)" style="fill: #ff0000; stroke: #808080; stroke-width: 0.5"/>
    <path d="M 987.25 146.369694 
L 1049.030159 146.369694 
L 1049.030159 84.589534 
L 987.25 84.589534 
L 987.25 146.369694 
" clip-path="url(#p759c5ca2ed)" style="fill: #ffffff; stroke: #808080; stroke-width: 0.5"/>
    <path d="M 1049.030159 146.369694 
L 1110.810319 146.369694 
L 1110.810319 84.589534 
L 1049.030159 84.589534 
L 1049.030159 146.369694 
" clip-path="url(#p759c5ca2ed)" style="fill: #ffffff; stroke: #808080; stroke-width: 0.5"/>
    <path d="M 1110.810319 146.369694 
L 1172.590478 146.369694 
L 1172.590478 84.589534 
L 1110.810319 84.589534 
L 1110.810319 146.369694 
" clip-path="url(#p759c5ca2ed)" style="fill: #ffffff; stroke: #808080; stroke-width: 0.5"/>
    <path d="M 1172.590478 146.369694 
L 1234.370637 146.369694 
L 1234.370637 84.589534 
L 1172.590478 84.589534 
L 1172.590478 146.369694 
" clip-path="url(#p759c5ca2ed)" style="fill: #ffffff; stroke: #808080; stroke-width: 0.5"/>
    <path d="M 1234.370637 146.369694 
L 1296.150797 146.369694 
L 1296.150797 84.589534 
L 1234.370637 84.589534 
L 1234.370637 146.369694 
" clip-path="url(#p759c5ca2ed)" style="fill: #ffffff; stroke: #808080; stroke-width: 0.5"/>
    <path d="M 1296.150797 146.369694 
L 1357.930956 146.369694 
L 1357.930956 84.589534 
L 1296.150797 84.589534 
L 1296.150797 146.369694 
" clip-path="url(#p759c5ca2ed)" style="fill: #ffffff; stroke: #808080; stroke-width: 0.5"/>
    <path d="M 987.25 84.589534 
L 1049.030159 84.589534 
L 1049.030159 22.809375 
L 987.25 22.809375 
L 987.25 84.589534 
" clip-path="url(#p759c5ca2ed)" style="fill: #ffffff; stroke: #808080; stroke-width: 0.5"/>
    <path d="M 1049.030159 84.589534 
L 1110.810319 84.589534 
L 1110.810319 22.809375 
L 1049.030159 22.809375 
L 1049.030159 84.589534 
" clip-path="url(#p759c5ca2ed)" style="fill: #ffffff; stroke: #808080; stroke-width: 0.5"/>
    <path d="M 1110.810319 84.589534 
L 1172.590478 84.589534 
L 1172.590478 22.809375 
L 1110.810319 22.809375 
L 1110.810319 84.589534 
" clip-path="url(#p759c5ca2ed)" style="fill: #ffffff; stroke: #808080; stroke-width: 0.5"/>
    <path d="M 1172.590478 84.589534 
L 1234.370637 84.589534 
L 1234.370637 22.809375 
L 1172.590478 22.809375 
L 1172.590478 84.589534 
" clip-path="url(#p759c5ca2ed)" style="fill: #ffffff; stroke: #808080; stroke-width: 0.5"/>
    <path d="M 1234.370637 84.589534 
L 1296.150797 84.589534 
L 1296.150797 22.809375 
L 1234.370637 22.809375 
L 1234.370637 84.589534 
" clip-path="url(#p759c5ca2ed)" style="fill: #ffffff; stroke: #808080; stroke-width: 0.5"/>
    <path d="M 1296.150797 84.589534 
L 1357.930956 84.589534 
L 1357.930956 22.809375 
L 1296.150797 22.809375 
L 1296.150797 84.589534 
" clip-path="url(#p759c5ca2ed)" style="fill: #ffffff; stroke: #808080; stroke-width: 0.5"/>
   </g>
   <g id="matplotlib.axis_5">
    <g id="xtick_13">
     <g id="line2d_25">
      <g>
       <use xlink:href="#m7b3a71ce07" x="1018.14008" y="393.490331" style="stroke: #000000; stroke-width: 0.8"/>
      </g>
     </g>
     <g id="text_31">
      <!-- 1 -->
      <g transform="translate(1015.64008 407.365331) scale(0.1 -0.1)">
       <use xlink:href="#SimHei-31"/>
      </g>
     </g>
    </g>
    <g id="xtick_14">
     <g id="line2d_26">
      <g>
       <use xlink:href="#m7b3a71ce07" x="1079.920239" y="393.490331" style="stroke: #000000; stroke-width: 0.8"/>
      </g>
     </g>
     <g id="text_32">
      <!-- 2 -->
      <g transform="translate(1077.420239 407.365331) scale(0.1 -0.1)">
       <use xlink:href="#SimHei-32"/>
      </g>
     </g>
    </g>
    <g id="xtick_15">
     <g id="line2d_27">
      <g>
       <use xlink:href="#m7b3a71ce07" x="1141.700398" y="393.490331" style="stroke: #000000; stroke-width: 0.8"/>
      </g>
     </g>
     <g id="text_33">
      <!-- 4 -->
      <g transform="translate(1139.200398 407.365331) scale(0.1 -0.1)">
       <use xlink:href="#SimHei-34"/>
      </g>
     </g>
    </g>
    <g id="xtick_16">
     <g id="line2d_28">
      <g>
       <use xlink:href="#m7b3a71ce07" x="1203.480558" y="393.490331" style="stroke: #000000; stroke-width: 0.8"/>
      </g>
     </g>
     <g id="text_34">
      <!-- 6 -->
      <g transform="translate(1200.980558 407.365331) scale(0.1 -0.1)">
       <use xlink:href="#SimHei-36"/>
      </g>
     </g>
    </g>
    <g id="xtick_17">
     <g id="line2d_29">
      <g>
       <use xlink:href="#m7b3a71ce07" x="1265.260717" y="393.490331" style="stroke: #000000; stroke-width: 0.8"/>
      </g>
     </g>
     <g id="text_35">
      <!-- 9 -->
      <g transform="translate(1262.760717 407.365331) scale(0.1 -0.1)">
       <use xlink:href="#SimHei-39"/>
      </g>
     </g>
    </g>
    <g id="xtick_18">
     <g id="line2d_30">
      <g>
       <use xlink:href="#m7b3a71ce07" x="1327.040876" y="393.490331" style="stroke: #000000; stroke-width: 0.8"/>
      </g>
     </g>
     <g id="text_36">
      <!-- 10 -->
      <g transform="translate(1322.040876 407.365331) scale(0.1 -0.1)">
       <use xlink:href="#SimHei-31"/>
       <use xlink:href="#SimHei-30" x="50"/>
      </g>
     </g>
    </g>
    <g id="text_37">
     <!-- Upper Bound of F -->
     <g transform="translate(1132.590478 419.568456) scale(0.1 -0.1)">
      <use xlink:href="#SimHei-55"/>
      <use xlink:href="#SimHei-70" x="50"/>
      <use xlink:href="#SimHei-70" x="100"/>
      <use xlink:href="#SimHei-65" x="150"/>
      <use xlink:href="#SimHei-72" x="200"/>
      <use xlink:href="#SimHei-20" x="250"/>
      <use xlink:href="#SimHei-42" x="300"/>
      <use xlink:href="#SimHei-6f" x="350"/>
      <use xlink:href="#SimHei-75" x="400"/>
      <use xlink:href="#SimHei-6e" x="450"/>
      <use xlink:href="#SimHei-64" x="500"/>
      <use xlink:href="#SimHei-20" x="550"/>
      <use xlink:href="#SimHei-6f" x="600"/>
      <use xlink:href="#SimHei-66" x="650"/>
      <use xlink:href="#SimHei-20" x="700"/>
      <use xlink:href="#SimHei-46" x="750"/>
     </g>
    </g>
   </g>
   <g id="matplotlib.axis_6">
    <g id="ytick_13">
     <g id="line2d_31">
      <g>
       <use xlink:href="#m1f41e4a92e" x="987.25" y="362.600251" style="stroke: #000000; stroke-width: 0.8"/>
      </g>
     </g>
     <g id="text_38">
      <!-- 1 -->
      <g transform="translate(979 365.100251) rotate(-90) scale(0.1 -0.1)">
       <use xlink:href="#SimHei-31"/>
      </g>
     </g>
    </g>
    <g id="ytick_14">
     <g id="line2d_32">
      <g>
       <use xlink:href="#m1f41e4a92e" x="987.25" y="300.820092" style="stroke: #000000; stroke-width: 0.8"/>
      </g>
     </g>
     <g id="text_39">
      <!-- 2 -->
      <g transform="translate(979 303.320092) rotate(-90) scale(0.1 -0.1)">
       <use xlink:href="#SimHei-32"/>
      </g>
     </g>
    </g>
    <g id="ytick_15">
     <g id="line2d_33">
      <g>
       <use xlink:href="#m1f41e4a92e" x="987.25" y="239.039933" style="stroke: #000000; stroke-width: 0.8"/>
      </g>
     </g>
     <g id="text_40">
      <!-- 4 -->
      <g transform="translate(979 241.539933) rotate(-90) scale(0.1 -0.1)">
       <use xlink:href="#SimHei-34"/>
      </g>
     </g>
    </g>
    <g id="ytick_16">
     <g id="line2d_34">
      <g>
       <use xlink:href="#m1f41e4a92e" x="987.25" y="177.259773" style="stroke: #000000; stroke-width: 0.8"/>
      </g>
     </g>
     <g id="text_41">
      <!-- 6 -->
      <g transform="translate(979 179.759773) rotate(-90) scale(0.1 -0.1)">
       <use xlink:href="#SimHei-36"/>
      </g>
     </g>
    </g>
    <g id="ytick_17">
     <g id="line2d_35">
      <g>
       <use xlink:href="#m1f41e4a92e" x="987.25" y="115.479614" style="stroke: #000000; stroke-width: 0.8"/>
      </g>
     </g>
     <g id="text_42">
      <!-- 9 -->
      <g transform="translate(979 117.979614) rotate(-90) scale(0.1 -0.1)">
       <use xlink:href="#SimHei-39"/>
      </g>
     </g>
    </g>
    <g id="ytick_18">
     <g id="line2d_36">
      <g>
       <use xlink:href="#m1f41e4a92e" x="987.25" y="53.699455" style="stroke: #000000; stroke-width: 0.8"/>
      </g>
     </g>
     <g id="text_43">
      <!-- 10 -->
      <g transform="translate(979 58.699455) rotate(-90) scale(0.1 -0.1)">
       <use xlink:href="#SimHei-31"/>
       <use xlink:href="#SimHei-30" x="50"/>
      </g>
     </g>
    </g>
    <g id="text_44">
     <!-- Lower Bound of F -->
     <g transform="translate(966.875 248.149853) rotate(-90) scale(0.1 -0.1)">
      <use xlink:href="#SimHei-4c"/>
      <use xlink:href="#SimHei-6f" x="50"/>
      <use xlink:href="#SimHei-77" x="100"/>
      <use xlink:href="#SimHei-65" x="150"/>
      <use xlink:href="#SimHei-72" x="200"/>
      <use xlink:href="#SimHei-20" x="250"/>
      <use xlink:href="#SimHei-42" x="300"/>
      <use xlink:href="#SimHei-6f" x="350"/>
      <use xlink:href="#SimHei-75" x="400"/>
      <use xlink:href="#SimHei-6e" x="450"/>
      <use xlink:href="#SimHei-64" x="500"/>
      <use xlink:href="#SimHei-20" x="550"/>
      <use xlink:href="#SimHei-6f" x="600"/>
      <use xlink:href="#SimHei-66" x="650"/>
      <use xlink:href="#SimHei-20" x="700"/>
      <use xlink:href="#SimHei-46" x="750"/>
     </g>
    </g>
   </g>
   <g id="text_45">
    <!-- 双峰权重 = 0.8 -->
    <g transform="translate(1130.590478 16.809375) scale(0.12 -0.12)">
     <defs>
      <path id="SimHei-38" d="M 175 1375 
Q 175 1675 325 1962 
Q 475 2250 825 2425 
Q 525 2600 425 2812 
Q 325 3025 312 3300 
Q 300 3575 387 3775 
Q 475 3975 650 4150 
Q 825 4325 1037 4387 
Q 1250 4450 1500 4450 
Q 1750 4450 1950 4400 
Q 2150 4350 2375 4187 
Q 2600 4025 2700 3725 
Q 2800 3425 2687 3025 
Q 2575 2625 2100 2400 
Q 2525 2275 2700 2012 
Q 2875 1750 2875 1375 
Q 2875 1000 2762 775 
Q 2650 550 2512 400 
Q 2375 250 2137 162 
Q 1900 75 1537 75 
Q 1175 75 912 162 
Q 650 250 475 425 
Q 300 600 237 837 
Q 175 1075 175 1375 
z
M 687 1400 
Q 675 1100 787 875 
Q 900 650 1200 587 
Q 1500 525 1825 600 
Q 2150 675 2275 950 
Q 2400 1225 2362 1500 
Q 2325 1775 2050 1962 
Q 1775 2150 1450 2125 
Q 1125 2100 912 1900 
Q 700 1700 687 1400 
z
M 775 3350 
Q 775 3100 950 2875 
Q 1125 2650 1500 2650 
Q 1875 2650 2062 2875 
Q 2250 3100 2237 3412 
Q 2225 3725 2012 3875 
Q 1800 4025 1437 4000 
Q 1075 3975 925 3787 
Q 775 3600 775 3350 
z
" transform="scale(0.015625)"/>
     </defs>
     <use xlink:href="#SimHei-53cc"/>
     <use xlink:href="#SimHei-5cf0" x="100"/>
     <use xlink:href="#SimHei-6743" x="200"/>
     <use xlink:href="#SimHei-91cd" x="300"/>
     <use xlink:href="#SimHei-20" x="400"/>
     <use xlink:href="#SimHei-3d" x="450"/>
     <use xlink:href="#SimHei-20" x="500"/>
     <use xlink:href="#SimHei-30" x="550"/>
     <use xlink:href="#SimHei-2e" x="600"/>
     <use xlink:href="#SimHei-38" x="650"/>
    </g>
   </g>
  </g>
 </g>
 <defs>
  <clipPath id="pd7e4cb2828">
   <rect x="34.45" y="22.809375" width="370.680956" height="370.680956"/>
  </clipPath>
  <clipPath id="paf3c94fd89">
   <rect x="510.85" y="22.809375" width="370.680956" height="370.680956"/>
  </clipPath>
  <clipPath id="p759c5ca2ed">
   <rect x="987.25" y="22.809375" width="370.680956" height="370.680956"/>
  </clipPath>
 </defs>
</svg>
