<?xml version="1.0" encoding="utf-8" standalone="no"?>
<!DOCTYPE svg PUBLIC "-//W3C//DTD SVG 1.1//EN"
  "http://www.w3.org/Graphics/SVG/1.1/DTD/svg11.dtd">
<svg xmlns:xlink="http://www.w3.org/1999/xlink" width="576pt" height="432pt" viewBox="0 0 576 432" xmlns="http://www.w3.org/2000/svg" version="1.1">
 <metadata>
  <rdf:RDF xmlns:dc="http://purl.org/dc/elements/1.1/" xmlns:cc="http://creativecommons.org/ns#" xmlns:rdf="http://www.w3.org/1999/02/22-rdf-syntax-ns#">
   <cc:Work>
    <dc:type rdf:resource="http://purl.org/dc/dcmitype/StillImage"/>
    <dc:date>2025-04-12T23:12:25.018860</dc:date>
    <dc:format>image/svg+xml</dc:format>
    <dc:creator>
     <cc:Agent>
      <dc:title>Matplotlib v3.9.2, https://matplotlib.org/</dc:title>
     </cc:Agent>
    </dc:creator>
   </cc:Work>
  </rdf:RDF>
 </metadata>
 <defs>
  <style type="text/css">*{stroke-linejoin: round; stroke-linecap: butt}</style>
 </defs>
 <g id="figure_1">
  <g id="patch_1">
   <path d="M 0 432 
L 576 432 
L 576 0 
L 0 0 
z
" style="fill: #ffffff"/>
  </g>
  <g id="axes_1">
   <g id="patch_2">
    <path d="M 72 384.48 
L 518.4 384.48 
L 518.4 51.84 
L 72 51.84 
z
" style="fill: #ffffff"/>
   </g>
   <g id="patch_3">
    <path d="M 87.572093 63.863133 
L 87.572093 184.094458 
L 243.293023 184.094458 
z
" clip-path="url(#p9bceaa950c)" style="fill: #808080; opacity: 0.3"/>
   </g>
   <g id="patch_4">
    <path d="M 87.572093 63.863133 
L 87.572093 64.464289 
L 88.350698 64.464289 
z
" clip-path="url(#p9bceaa950c)" style="fill: #0000ff; opacity: 0.3"/>
   </g>
   <g id="patch_5">
    <path d="M 230.316279 174.075181 
L 230.316279 184.094458 
L 243.293023 184.094458 
z
" clip-path="url(#p9bceaa950c)" style="fill: #ff0000; opacity: 0.3"/>
   </g>
   <g id="matplotlib.axis_1">
    <g id="xtick_1">
     <g id="line2d_1">
      <path d="M 87.572093 384.48 
L 87.572093 51.84 
" clip-path="url(#p9bceaa950c)" style="fill: none; stroke-dasharray: 2.96,1.28; stroke-dashoffset: 0; stroke: #b0b0b0; stroke-opacity: 0.7; stroke-width: 0.8"/>
     </g>
     <g id="line2d_2">
      <defs>
       <path id="me6e736a2ce" d="M 0 0 
L 0 3.5 
" style="stroke: #000000; stroke-width: 0.8"/>
      </defs>
      <g>
       <use xlink:href="#me6e736a2ce" x="87.572093" y="384.48" style="stroke: #000000; stroke-width: 0.8"/>
      </g>
     </g>
     <g id="text_1">
      <!-- 0 -->
      <g transform="translate(84.390843 399.078438) scale(0.1 -0.1)">
       <defs>
        <path id="DejaVuSans-30" d="M 2034 4250 
Q 1547 4250 1301 3770 
Q 1056 3291 1056 2328 
Q 1056 1369 1301 889 
Q 1547 409 2034 409 
Q 2525 409 2770 889 
Q 3016 1369 3016 2328 
Q 3016 3291 2770 3770 
Q 2525 4250 2034 4250 
z
M 2034 4750 
Q 2819 4750 3233 4129 
Q 3647 3509 3647 2328 
Q 3647 1150 3233 529 
Q 2819 -91 2034 -91 
Q 1250 -91 836 529 
Q 422 1150 422 2328 
Q 422 3509 836 4129 
Q 1250 4750 2034 4750 
z
" transform="scale(0.015625)"/>
       </defs>
       <use xlink:href="#DejaVuSans-30"/>
      </g>
     </g>
    </g>
    <g id="xtick_2">
     <g id="line2d_3">
      <path d="M 165.432558 384.48 
L 165.432558 51.84 
" clip-path="url(#p9bceaa950c)" style="fill: none; stroke-dasharray: 2.96,1.28; stroke-dashoffset: 0; stroke: #b0b0b0; stroke-opacity: 0.7; stroke-width: 0.8"/>
     </g>
     <g id="line2d_4">
      <g>
       <use xlink:href="#me6e736a2ce" x="165.432558" y="384.48" style="stroke: #000000; stroke-width: 0.8"/>
      </g>
     </g>
     <g id="text_2">
      <!-- 1 -->
      <g transform="translate(162.251308 399.078438) scale(0.1 -0.1)">
       <defs>
        <path id="DejaVuSans-31" d="M 794 531 
L 1825 531 
L 1825 4091 
L 703 3866 
L 703 4441 
L 1819 4666 
L 2450 4666 
L 2450 531 
L 3481 531 
L 3481 0 
L 794 0 
L 794 531 
z
" transform="scale(0.015625)"/>
       </defs>
       <use xlink:href="#DejaVuSans-31"/>
      </g>
     </g>
    </g>
    <g id="xtick_3">
     <g id="line2d_5">
      <path d="M 243.293023 384.48 
L 243.293023 51.84 
" clip-path="url(#p9bceaa950c)" style="fill: none; stroke-dasharray: 2.96,1.28; stroke-dashoffset: 0; stroke: #b0b0b0; stroke-opacity: 0.7; stroke-width: 0.8"/>
     </g>
     <g id="line2d_6">
      <g>
       <use xlink:href="#me6e736a2ce" x="243.293023" y="384.48" style="stroke: #000000; stroke-width: 0.8"/>
      </g>
     </g>
     <g id="text_3">
      <!-- 2 -->
      <g transform="translate(240.111773 399.078438) scale(0.1 -0.1)">
       <defs>
        <path id="DejaVuSans-32" d="M 1228 531 
L 3431 531 
L 3431 0 
L 469 0 
L 469 531 
Q 828 903 1448 1529 
Q 2069 2156 2228 2338 
Q 2531 2678 2651 2914 
Q 2772 3150 2772 3378 
Q 2772 3750 2511 3984 
Q 2250 4219 1831 4219 
Q 1534 4219 1204 4116 
Q 875 4013 500 3803 
L 500 4441 
Q 881 4594 1212 4672 
Q 1544 4750 1819 4750 
Q 2544 4750 2975 4387 
Q 3406 4025 3406 3419 
Q 3406 3131 3298 2873 
Q 3191 2616 2906 2266 
Q 2828 2175 2409 1742 
Q 1991 1309 1228 531 
z
" transform="scale(0.015625)"/>
       </defs>
       <use xlink:href="#DejaVuSans-32"/>
      </g>
     </g>
    </g>
    <g id="xtick_4">
     <g id="line2d_7">
      <path d="M 321.153488 384.48 
L 321.153488 51.84 
" clip-path="url(#p9bceaa950c)" style="fill: none; stroke-dasharray: 2.96,1.28; stroke-dashoffset: 0; stroke: #b0b0b0; stroke-opacity: 0.7; stroke-width: 0.8"/>
     </g>
     <g id="line2d_8">
      <g>
       <use xlink:href="#me6e736a2ce" x="321.153488" y="384.48" style="stroke: #000000; stroke-width: 0.8"/>
      </g>
     </g>
     <g id="text_4">
      <!-- 3 -->
      <g transform="translate(317.972238 399.078438) scale(0.1 -0.1)">
       <defs>
        <path id="DejaVuSans-33" d="M 2597 2516 
Q 3050 2419 3304 2112 
Q 3559 1806 3559 1356 
Q 3559 666 3084 287 
Q 2609 -91 1734 -91 
Q 1441 -91 1130 -33 
Q 819 25 488 141 
L 488 750 
Q 750 597 1062 519 
Q 1375 441 1716 441 
Q 2309 441 2620 675 
Q 2931 909 2931 1356 
Q 2931 1769 2642 2001 
Q 2353 2234 1838 2234 
L 1294 2234 
L 1294 2753 
L 1863 2753 
Q 2328 2753 2575 2939 
Q 2822 3125 2822 3475 
Q 2822 3834 2567 4026 
Q 2313 4219 1838 4219 
Q 1578 4219 1281 4162 
Q 984 4106 628 3988 
L 628 4550 
Q 988 4650 1302 4700 
Q 1616 4750 1894 4750 
Q 2613 4750 3031 4423 
Q 3450 4097 3450 3541 
Q 3450 3153 3228 2886 
Q 3006 2619 2597 2516 
z
" transform="scale(0.015625)"/>
       </defs>
       <use xlink:href="#DejaVuSans-33"/>
      </g>
     </g>
    </g>
    <g id="xtick_5">
     <g id="line2d_9">
      <path d="M 399.013953 384.48 
L 399.013953 51.84 
" clip-path="url(#p9bceaa950c)" style="fill: none; stroke-dasharray: 2.96,1.28; stroke-dashoffset: 0; stroke: #b0b0b0; stroke-opacity: 0.7; stroke-width: 0.8"/>
     </g>
     <g id="line2d_10">
      <g>
       <use xlink:href="#me6e736a2ce" x="399.013953" y="384.48" style="stroke: #000000; stroke-width: 0.8"/>
      </g>
     </g>
     <g id="text_5">
      <!-- 4 -->
      <g transform="translate(395.832703 399.078438) scale(0.1 -0.1)">
       <defs>
        <path id="DejaVuSans-34" d="M 2419 4116 
L 825 1625 
L 2419 1625 
L 2419 4116 
z
M 2253 4666 
L 3047 4666 
L 3047 1625 
L 3713 1625 
L 3713 1100 
L 3047 1100 
L 3047 0 
L 2419 0 
L 2419 1100 
L 313 1100 
L 313 1709 
L 2253 4666 
z
" transform="scale(0.015625)"/>
       </defs>
       <use xlink:href="#DejaVuSans-34"/>
      </g>
     </g>
    </g>
    <g id="xtick_6">
     <g id="line2d_11">
      <path d="M 476.874419 384.48 
L 476.874419 51.84 
" clip-path="url(#p9bceaa950c)" style="fill: none; stroke-dasharray: 2.96,1.28; stroke-dashoffset: 0; stroke: #b0b0b0; stroke-opacity: 0.7; stroke-width: 0.8"/>
     </g>
     <g id="line2d_12">
      <g>
       <use xlink:href="#me6e736a2ce" x="476.874419" y="384.48" style="stroke: #000000; stroke-width: 0.8"/>
      </g>
     </g>
     <g id="text_6">
      <!-- 5 -->
      <g transform="translate(473.693169 399.078438) scale(0.1 -0.1)">
       <defs>
        <path id="DejaVuSans-35" d="M 691 4666 
L 3169 4666 
L 3169 4134 
L 1269 4134 
L 1269 2991 
Q 1406 3038 1543 3061 
Q 1681 3084 1819 3084 
Q 2600 3084 3056 2656 
Q 3513 2228 3513 1497 
Q 3513 744 3044 326 
Q 2575 -91 1722 -91 
Q 1428 -91 1123 -41 
Q 819 9 494 109 
L 494 744 
Q 775 591 1075 516 
Q 1375 441 1709 441 
Q 2250 441 2565 725 
Q 2881 1009 2881 1497 
Q 2881 1984 2565 2268 
Q 2250 2553 1709 2553 
Q 1456 2553 1204 2497 
Q 953 2441 691 2322 
L 691 4666 
z
" transform="scale(0.015625)"/>
       </defs>
       <use xlink:href="#DejaVuSans-35"/>
      </g>
     </g>
    </g>
    <g id="text_7">
     <!-- Consumer Surplus (CS) -->
     <g transform="translate(237.224219 412.756563) scale(0.1 -0.1)">
      <defs>
       <path id="DejaVuSans-43" d="M 4122 4306 
L 4122 3641 
Q 3803 3938 3442 4084 
Q 3081 4231 2675 4231 
Q 1875 4231 1450 3742 
Q 1025 3253 1025 2328 
Q 1025 1406 1450 917 
Q 1875 428 2675 428 
Q 3081 428 3442 575 
Q 3803 722 4122 1019 
L 4122 359 
Q 3791 134 3420 21 
Q 3050 -91 2638 -91 
Q 1578 -91 968 557 
Q 359 1206 359 2328 
Q 359 3453 968 4101 
Q 1578 4750 2638 4750 
Q 3056 4750 3426 4639 
Q 3797 4528 4122 4306 
z
" transform="scale(0.015625)"/>
       <path id="DejaVuSans-6f" d="M 1959 3097 
Q 1497 3097 1228 2736 
Q 959 2375 959 1747 
Q 959 1119 1226 758 
Q 1494 397 1959 397 
Q 2419 397 2687 759 
Q 2956 1122 2956 1747 
Q 2956 2369 2687 2733 
Q 2419 3097 1959 3097 
z
M 1959 3584 
Q 2709 3584 3137 3096 
Q 3566 2609 3566 1747 
Q 3566 888 3137 398 
Q 2709 -91 1959 -91 
Q 1206 -91 779 398 
Q 353 888 353 1747 
Q 353 2609 779 3096 
Q 1206 3584 1959 3584 
z
" transform="scale(0.015625)"/>
       <path id="DejaVuSans-6e" d="M 3513 2113 
L 3513 0 
L 2938 0 
L 2938 2094 
Q 2938 2591 2744 2837 
Q 2550 3084 2163 3084 
Q 1697 3084 1428 2787 
Q 1159 2491 1159 1978 
L 1159 0 
L 581 0 
L 581 3500 
L 1159 3500 
L 1159 2956 
Q 1366 3272 1645 3428 
Q 1925 3584 2291 3584 
Q 2894 3584 3203 3211 
Q 3513 2838 3513 2113 
z
" transform="scale(0.015625)"/>
       <path id="DejaVuSans-73" d="M 2834 3397 
L 2834 2853 
Q 2591 2978 2328 3040 
Q 2066 3103 1784 3103 
Q 1356 3103 1142 2972 
Q 928 2841 928 2578 
Q 928 2378 1081 2264 
Q 1234 2150 1697 2047 
L 1894 2003 
Q 2506 1872 2764 1633 
Q 3022 1394 3022 966 
Q 3022 478 2636 193 
Q 2250 -91 1575 -91 
Q 1294 -91 989 -36 
Q 684 19 347 128 
L 347 722 
Q 666 556 975 473 
Q 1284 391 1588 391 
Q 1994 391 2212 530 
Q 2431 669 2431 922 
Q 2431 1156 2273 1281 
Q 2116 1406 1581 1522 
L 1381 1569 
Q 847 1681 609 1914 
Q 372 2147 372 2553 
Q 372 3047 722 3315 
Q 1072 3584 1716 3584 
Q 2034 3584 2315 3537 
Q 2597 3491 2834 3397 
z
" transform="scale(0.015625)"/>
       <path id="DejaVuSans-75" d="M 544 1381 
L 544 3500 
L 1119 3500 
L 1119 1403 
Q 1119 906 1312 657 
Q 1506 409 1894 409 
Q 2359 409 2629 706 
Q 2900 1003 2900 1516 
L 2900 3500 
L 3475 3500 
L 3475 0 
L 2900 0 
L 2900 538 
Q 2691 219 2414 64 
Q 2138 -91 1772 -91 
Q 1169 -91 856 284 
Q 544 659 544 1381 
z
M 1991 3584 
L 1991 3584 
z
" transform="scale(0.015625)"/>
       <path id="DejaVuSans-6d" d="M 3328 2828 
Q 3544 3216 3844 3400 
Q 4144 3584 4550 3584 
Q 5097 3584 5394 3201 
Q 5691 2819 5691 2113 
L 5691 0 
L 5113 0 
L 5113 2094 
Q 5113 2597 4934 2840 
Q 4756 3084 4391 3084 
Q 3944 3084 3684 2787 
Q 3425 2491 3425 1978 
L 3425 0 
L 2847 0 
L 2847 2094 
Q 2847 2600 2669 2842 
Q 2491 3084 2119 3084 
Q 1678 3084 1418 2786 
Q 1159 2488 1159 1978 
L 1159 0 
L 581 0 
L 581 3500 
L 1159 3500 
L 1159 2956 
Q 1356 3278 1631 3431 
Q 1906 3584 2284 3584 
Q 2666 3584 2933 3390 
Q 3200 3197 3328 2828 
z
" transform="scale(0.015625)"/>
       <path id="DejaVuSans-65" d="M 3597 1894 
L 3597 1613 
L 953 1613 
Q 991 1019 1311 708 
Q 1631 397 2203 397 
Q 2534 397 2845 478 
Q 3156 559 3463 722 
L 3463 178 
Q 3153 47 2828 -22 
Q 2503 -91 2169 -91 
Q 1331 -91 842 396 
Q 353 884 353 1716 
Q 353 2575 817 3079 
Q 1281 3584 2069 3584 
Q 2775 3584 3186 3129 
Q 3597 2675 3597 1894 
z
M 3022 2063 
Q 3016 2534 2758 2815 
Q 2500 3097 2075 3097 
Q 1594 3097 1305 2825 
Q 1016 2553 972 2059 
L 3022 2063 
z
" transform="scale(0.015625)"/>
       <path id="DejaVuSans-72" d="M 2631 2963 
Q 2534 3019 2420 3045 
Q 2306 3072 2169 3072 
Q 1681 3072 1420 2755 
Q 1159 2438 1159 1844 
L 1159 0 
L 581 0 
L 581 3500 
L 1159 3500 
L 1159 2956 
Q 1341 3275 1631 3429 
Q 1922 3584 2338 3584 
Q 2397 3584 2469 3576 
Q 2541 3569 2628 3553 
L 2631 2963 
z
" transform="scale(0.015625)"/>
       <path id="DejaVuSans-20" transform="scale(0.015625)"/>
       <path id="DejaVuSans-53" d="M 3425 4513 
L 3425 3897 
Q 3066 4069 2747 4153 
Q 2428 4238 2131 4238 
Q 1616 4238 1336 4038 
Q 1056 3838 1056 3469 
Q 1056 3159 1242 3001 
Q 1428 2844 1947 2747 
L 2328 2669 
Q 3034 2534 3370 2195 
Q 3706 1856 3706 1288 
Q 3706 609 3251 259 
Q 2797 -91 1919 -91 
Q 1588 -91 1214 -16 
Q 841 59 441 206 
L 441 856 
Q 825 641 1194 531 
Q 1563 422 1919 422 
Q 2459 422 2753 634 
Q 3047 847 3047 1241 
Q 3047 1584 2836 1778 
Q 2625 1972 2144 2069 
L 1759 2144 
Q 1053 2284 737 2584 
Q 422 2884 422 3419 
Q 422 4038 858 4394 
Q 1294 4750 2059 4750 
Q 2388 4750 2728 4690 
Q 3069 4631 3425 4513 
z
" transform="scale(0.015625)"/>
       <path id="DejaVuSans-70" d="M 1159 525 
L 1159 -1331 
L 581 -1331 
L 581 3500 
L 1159 3500 
L 1159 2969 
Q 1341 3281 1617 3432 
Q 1894 3584 2278 3584 
Q 2916 3584 3314 3078 
Q 3713 2572 3713 1747 
Q 3713 922 3314 415 
Q 2916 -91 2278 -91 
Q 1894 -91 1617 61 
Q 1341 213 1159 525 
z
M 3116 1747 
Q 3116 2381 2855 2742 
Q 2594 3103 2138 3103 
Q 1681 3103 1420 2742 
Q 1159 2381 1159 1747 
Q 1159 1113 1420 752 
Q 1681 391 2138 391 
Q 2594 391 2855 752 
Q 3116 1113 3116 1747 
z
" transform="scale(0.015625)"/>
       <path id="DejaVuSans-6c" d="M 603 4863 
L 1178 4863 
L 1178 0 
L 603 0 
L 603 4863 
z
" transform="scale(0.015625)"/>
       <path id="DejaVuSans-28" d="M 1984 4856 
Q 1566 4138 1362 3434 
Q 1159 2731 1159 2009 
Q 1159 1288 1364 580 
Q 1569 -128 1984 -844 
L 1484 -844 
Q 1016 -109 783 600 
Q 550 1309 550 2009 
Q 550 2706 781 3412 
Q 1013 4119 1484 4856 
L 1984 4856 
z
" transform="scale(0.015625)"/>
       <path id="DejaVuSans-29" d="M 513 4856 
L 1013 4856 
Q 1481 4119 1714 3412 
Q 1947 2706 1947 2009 
Q 1947 1309 1714 600 
Q 1481 -109 1013 -844 
L 513 -844 
Q 928 -128 1133 580 
Q 1338 1288 1338 2009 
Q 1338 2731 1133 3434 
Q 928 4138 513 4856 
z
" transform="scale(0.015625)"/>
      </defs>
      <use xlink:href="#DejaVuSans-43"/>
      <use xlink:href="#DejaVuSans-6f" x="69.824219"/>
      <use xlink:href="#DejaVuSans-6e" x="131.005859"/>
      <use xlink:href="#DejaVuSans-73" x="194.384766"/>
      <use xlink:href="#DejaVuSans-75" x="246.484375"/>
      <use xlink:href="#DejaVuSans-6d" x="309.863281"/>
      <use xlink:href="#DejaVuSans-65" x="407.275391"/>
      <use xlink:href="#DejaVuSans-72" x="468.798828"/>
      <use xlink:href="#DejaVuSans-20" x="509.912109"/>
      <use xlink:href="#DejaVuSans-53" x="541.699219"/>
      <use xlink:href="#DejaVuSans-75" x="605.175781"/>
      <use xlink:href="#DejaVuSans-72" x="668.554688"/>
      <use xlink:href="#DejaVuSans-70" x="709.667969"/>
      <use xlink:href="#DejaVuSans-6c" x="773.144531"/>
      <use xlink:href="#DejaVuSans-75" x="800.927734"/>
      <use xlink:href="#DejaVuSans-73" x="864.306641"/>
      <use xlink:href="#DejaVuSans-20" x="916.40625"/>
      <use xlink:href="#DejaVuSans-28" x="948.193359"/>
      <use xlink:href="#DejaVuSans-43" x="987.207031"/>
      <use xlink:href="#DejaVuSans-53" x="1057.03125"/>
      <use xlink:href="#DejaVuSans-29" x="1120.507812"/>
     </g>
    </g>
   </g>
   <g id="matplotlib.axis_2">
    <g id="ytick_1">
     <g id="line2d_13">
      <path d="M 72 384.48 
L 518.4 384.48 
" clip-path="url(#p9bceaa950c)" style="fill: none; stroke-dasharray: 2.96,1.28; stroke-dashoffset: 0; stroke: #b0b0b0; stroke-opacity: 0.7; stroke-width: 0.8"/>
     </g>
     <g id="line2d_14">
      <defs>
       <path id="m4ddd313037" d="M 0 0 
L -3.5 0 
" style="stroke: #000000; stroke-width: 0.8"/>
      </defs>
      <g>
       <use xlink:href="#m4ddd313037" x="72" y="384.48" style="stroke: #000000; stroke-width: 0.8"/>
      </g>
     </g>
     <g id="text_8">
      <!-- 0 -->
      <g transform="translate(58.6375 388.279219) scale(0.1 -0.1)">
       <use xlink:href="#DejaVuSans-30"/>
      </g>
     </g>
    </g>
    <g id="ytick_2">
     <g id="line2d_15">
      <path d="M 72 324.364337 
L 518.4 324.364337 
" clip-path="url(#p9bceaa950c)" style="fill: none; stroke-dasharray: 2.96,1.28; stroke-dashoffset: 0; stroke: #b0b0b0; stroke-opacity: 0.7; stroke-width: 0.8"/>
     </g>
     <g id="line2d_16">
      <g>
       <use xlink:href="#m4ddd313037" x="72" y="324.364337" style="stroke: #000000; stroke-width: 0.8"/>
      </g>
     </g>
     <g id="text_9">
      <!-- 1 -->
      <g transform="translate(58.6375 328.163556) scale(0.1 -0.1)">
       <use xlink:href="#DejaVuSans-31"/>
      </g>
     </g>
    </g>
    <g id="ytick_3">
     <g id="line2d_17">
      <path d="M 72 264.248675 
L 518.4 264.248675 
" clip-path="url(#p9bceaa950c)" style="fill: none; stroke-dasharray: 2.96,1.28; stroke-dashoffset: 0; stroke: #b0b0b0; stroke-opacity: 0.7; stroke-width: 0.8"/>
     </g>
     <g id="line2d_18">
      <g>
       <use xlink:href="#m4ddd313037" x="72" y="264.248675" style="stroke: #000000; stroke-width: 0.8"/>
      </g>
     </g>
     <g id="text_10">
      <!-- 2 -->
      <g transform="translate(58.6375 268.047893) scale(0.1 -0.1)">
       <use xlink:href="#DejaVuSans-32"/>
      </g>
     </g>
    </g>
    <g id="ytick_4">
     <g id="line2d_19">
      <path d="M 72 204.133012 
L 518.4 204.133012 
" clip-path="url(#p9bceaa950c)" style="fill: none; stroke-dasharray: 2.96,1.28; stroke-dashoffset: 0; stroke: #b0b0b0; stroke-opacity: 0.7; stroke-width: 0.8"/>
     </g>
     <g id="line2d_20">
      <g>
       <use xlink:href="#m4ddd313037" x="72" y="204.133012" style="stroke: #000000; stroke-width: 0.8"/>
      </g>
     </g>
     <g id="text_11">
      <!-- 3 -->
      <g transform="translate(58.6375 207.932231) scale(0.1 -0.1)">
       <use xlink:href="#DejaVuSans-33"/>
      </g>
     </g>
    </g>
    <g id="ytick_5">
     <g id="line2d_21">
      <path d="M 72 144.017349 
L 518.4 144.017349 
" clip-path="url(#p9bceaa950c)" style="fill: none; stroke-dasharray: 2.96,1.28; stroke-dashoffset: 0; stroke: #b0b0b0; stroke-opacity: 0.7; stroke-width: 0.8"/>
     </g>
     <g id="line2d_22">
      <g>
       <use xlink:href="#m4ddd313037" x="72" y="144.017349" style="stroke: #000000; stroke-width: 0.8"/>
      </g>
     </g>
     <g id="text_12">
      <!-- 4 -->
      <g transform="translate(58.6375 147.816568) scale(0.1 -0.1)">
       <use xlink:href="#DejaVuSans-34"/>
      </g>
     </g>
    </g>
    <g id="ytick_6">
     <g id="line2d_23">
      <path d="M 72 83.901687 
L 518.4 83.901687 
" clip-path="url(#p9bceaa950c)" style="fill: none; stroke-dasharray: 2.96,1.28; stroke-dashoffset: 0; stroke: #b0b0b0; stroke-opacity: 0.7; stroke-width: 0.8"/>
     </g>
     <g id="line2d_24">
      <g>
       <use xlink:href="#m4ddd313037" x="72" y="83.901687" style="stroke: #000000; stroke-width: 0.8"/>
      </g>
     </g>
     <g id="text_13">
      <!-- 5 -->
      <g transform="translate(58.6375 87.700905) scale(0.1 -0.1)">
       <use xlink:href="#DejaVuSans-35"/>
      </g>
     </g>
    </g>
    <g id="text_14">
     <!-- Producer Surplus (PS) -->
     <g transform="translate(52.557812 272.317812) rotate(-90) scale(0.1 -0.1)">
      <defs>
       <path id="DejaVuSans-50" d="M 1259 4147 
L 1259 2394 
L 2053 2394 
Q 2494 2394 2734 2622 
Q 2975 2850 2975 3272 
Q 2975 3691 2734 3919 
Q 2494 4147 2053 4147 
L 1259 4147 
z
M 628 4666 
L 2053 4666 
Q 2838 4666 3239 4311 
Q 3641 3956 3641 3272 
Q 3641 2581 3239 2228 
Q 2838 1875 2053 1875 
L 1259 1875 
L 1259 0 
L 628 0 
L 628 4666 
z
" transform="scale(0.015625)"/>
       <path id="DejaVuSans-64" d="M 2906 2969 
L 2906 4863 
L 3481 4863 
L 3481 0 
L 2906 0 
L 2906 525 
Q 2725 213 2448 61 
Q 2172 -91 1784 -91 
Q 1150 -91 751 415 
Q 353 922 353 1747 
Q 353 2572 751 3078 
Q 1150 3584 1784 3584 
Q 2172 3584 2448 3432 
Q 2725 3281 2906 2969 
z
M 947 1747 
Q 947 1113 1208 752 
Q 1469 391 1925 391 
Q 2381 391 2643 752 
Q 2906 1113 2906 1747 
Q 2906 2381 2643 2742 
Q 2381 3103 1925 3103 
Q 1469 3103 1208 2742 
Q 947 2381 947 1747 
z
" transform="scale(0.015625)"/>
       <path id="DejaVuSans-63" d="M 3122 3366 
L 3122 2828 
Q 2878 2963 2633 3030 
Q 2388 3097 2138 3097 
Q 1578 3097 1268 2742 
Q 959 2388 959 1747 
Q 959 1106 1268 751 
Q 1578 397 2138 397 
Q 2388 397 2633 464 
Q 2878 531 3122 666 
L 3122 134 
Q 2881 22 2623 -34 
Q 2366 -91 2075 -91 
Q 1284 -91 818 406 
Q 353 903 353 1747 
Q 353 2603 823 3093 
Q 1294 3584 2113 3584 
Q 2378 3584 2631 3529 
Q 2884 3475 3122 3366 
z
" transform="scale(0.015625)"/>
      </defs>
      <use xlink:href="#DejaVuSans-50"/>
      <use xlink:href="#DejaVuSans-72" x="58.552734"/>
      <use xlink:href="#DejaVuSans-6f" x="97.416016"/>
      <use xlink:href="#DejaVuSans-64" x="158.597656"/>
      <use xlink:href="#DejaVuSans-75" x="222.074219"/>
      <use xlink:href="#DejaVuSans-63" x="285.453125"/>
      <use xlink:href="#DejaVuSans-65" x="340.433594"/>
      <use xlink:href="#DejaVuSans-72" x="401.957031"/>
      <use xlink:href="#DejaVuSans-20" x="443.070312"/>
      <use xlink:href="#DejaVuSans-53" x="474.857422"/>
      <use xlink:href="#DejaVuSans-75" x="538.333984"/>
      <use xlink:href="#DejaVuSans-72" x="601.712891"/>
      <use xlink:href="#DejaVuSans-70" x="642.826172"/>
      <use xlink:href="#DejaVuSans-6c" x="706.302734"/>
      <use xlink:href="#DejaVuSans-75" x="734.085938"/>
      <use xlink:href="#DejaVuSans-73" x="797.464844"/>
      <use xlink:href="#DejaVuSans-20" x="849.564453"/>
      <use xlink:href="#DejaVuSans-28" x="881.351562"/>
      <use xlink:href="#DejaVuSans-50" x="920.365234"/>
      <use xlink:href="#DejaVuSans-53" x="980.667969"/>
      <use xlink:href="#DejaVuSans-29" x="1044.144531"/>
     </g>
    </g>
   </g>
   <g id="patch_6">
    <path d="M 72 384.48 
L 72 51.84 
" style="fill: none; stroke: #000000; stroke-width: 0.8; stroke-linejoin: miter; stroke-linecap: square"/>
   </g>
   <g id="patch_7">
    <path d="M 518.4 384.48 
L 518.4 51.84 
" style="fill: none; stroke: #000000; stroke-width: 0.8; stroke-linejoin: miter; stroke-linecap: square"/>
   </g>
   <g id="patch_8">
    <path d="M 72 384.48 
L 518.4 384.48 
" style="fill: none; stroke: #000000; stroke-width: 0.8; stroke-linejoin: miter; stroke-linecap: square"/>
   </g>
   <g id="patch_9">
    <path d="M 72 51.84 
L 518.4 51.84 
" style="fill: none; stroke: #000000; stroke-width: 0.8; stroke-linejoin: miter; stroke-linecap: square"/>
   </g>
   <g id="text_15">
    <!-- Sparse Price Points (n=3) -->
    <g transform="translate(218.914687 45.84) scale(0.12 -0.12)">
     <defs>
      <path id="DejaVuSans-61" d="M 2194 1759 
Q 1497 1759 1228 1600 
Q 959 1441 959 1056 
Q 959 750 1161 570 
Q 1363 391 1709 391 
Q 2188 391 2477 730 
Q 2766 1069 2766 1631 
L 2766 1759 
L 2194 1759 
z
M 3341 1997 
L 3341 0 
L 2766 0 
L 2766 531 
Q 2569 213 2275 61 
Q 1981 -91 1556 -91 
Q 1019 -91 701 211 
Q 384 513 384 1019 
Q 384 1609 779 1909 
Q 1175 2209 1959 2209 
L 2766 2209 
L 2766 2266 
Q 2766 2663 2505 2880 
Q 2244 3097 1772 3097 
Q 1472 3097 1187 3025 
Q 903 2953 641 2809 
L 641 3341 
Q 956 3463 1253 3523 
Q 1550 3584 1831 3584 
Q 2591 3584 2966 3190 
Q 3341 2797 3341 1997 
z
" transform="scale(0.015625)"/>
      <path id="DejaVuSans-69" d="M 603 3500 
L 1178 3500 
L 1178 0 
L 603 0 
L 603 3500 
z
M 603 4863 
L 1178 4863 
L 1178 4134 
L 603 4134 
L 603 4863 
z
" transform="scale(0.015625)"/>
      <path id="DejaVuSans-74" d="M 1172 4494 
L 1172 3500 
L 2356 3500 
L 2356 3053 
L 1172 3053 
L 1172 1153 
Q 1172 725 1289 603 
Q 1406 481 1766 481 
L 2356 481 
L 2356 0 
L 1766 0 
Q 1100 0 847 248 
Q 594 497 594 1153 
L 594 3053 
L 172 3053 
L 172 3500 
L 594 3500 
L 594 4494 
L 1172 4494 
z
" transform="scale(0.015625)"/>
      <path id="DejaVuSans-3d" d="M 678 2906 
L 4684 2906 
L 4684 2381 
L 678 2381 
L 678 2906 
z
M 678 1631 
L 4684 1631 
L 4684 1100 
L 678 1100 
L 678 1631 
z
" transform="scale(0.015625)"/>
     </defs>
     <use xlink:href="#DejaVuSans-53"/>
     <use xlink:href="#DejaVuSans-70" x="63.476562"/>
     <use xlink:href="#DejaVuSans-61" x="126.953125"/>
     <use xlink:href="#DejaVuSans-72" x="188.232422"/>
     <use xlink:href="#DejaVuSans-73" x="229.345703"/>
     <use xlink:href="#DejaVuSans-65" x="281.445312"/>
     <use xlink:href="#DejaVuSans-20" x="342.96875"/>
     <use xlink:href="#DejaVuSans-50" x="374.755859"/>
     <use xlink:href="#DejaVuSans-72" x="433.308594"/>
     <use xlink:href="#DejaVuSans-69" x="474.421875"/>
     <use xlink:href="#DejaVuSans-63" x="502.205078"/>
     <use xlink:href="#DejaVuSans-65" x="557.185547"/>
     <use xlink:href="#DejaVuSans-20" x="618.708984"/>
     <use xlink:href="#DejaVuSans-50" x="650.496094"/>
     <use xlink:href="#DejaVuSans-6f" x="707.173828"/>
     <use xlink:href="#DejaVuSans-69" x="768.355469"/>
     <use xlink:href="#DejaVuSans-6e" x="796.138672"/>
     <use xlink:href="#DejaVuSans-74" x="859.517578"/>
     <use xlink:href="#DejaVuSans-73" x="898.726562"/>
     <use xlink:href="#DejaVuSans-20" x="950.826172"/>
     <use xlink:href="#DejaVuSans-28" x="982.613281"/>
     <use xlink:href="#DejaVuSans-6e" x="1021.626953"/>
     <use xlink:href="#DejaVuSans-3d" x="1085.005859"/>
     <use xlink:href="#DejaVuSans-33" x="1168.794922"/>
     <use xlink:href="#DejaVuSans-29" x="1232.417969"/>
    </g>
   </g>
   <g id="PathCollection_1">
    <defs>
     <path id="m6db0c96b7e" d="M 0 3.535534 
C 0.937635 3.535534 1.836992 3.163008 2.5 2.5 
C 3.163008 1.836992 3.535534 0.937635 3.535534 0 
C 3.535534 -0.937635 3.163008 -1.836992 2.5 -2.5 
C 1.836992 -3.163008 0.937635 -3.535534 0 -3.535534 
C -0.937635 -3.535534 -1.836992 -3.163008 -2.5 -2.5 
C -3.163008 -1.836992 -3.535534 -0.937635 -3.535534 0 
C -3.535534 0.937635 -3.163008 1.836992 -2.5 2.5 
C -1.836992 3.163008 -0.937635 3.535534 0 3.535534 
z
" style="stroke: #808080"/>
    </defs>
    <g clip-path="url(#p9bceaa950c)">
     <use xlink:href="#m6db0c96b7e" x="87.572093" y="63.863133" style="fill: #808080; stroke: #808080"/>
     <use xlink:href="#m6db0c96b7e" x="87.572093" y="184.094458" style="fill: #808080; stroke: #808080"/>
     <use xlink:href="#m6db0c96b7e" x="243.293023" y="184.094458" style="fill: #808080; stroke: #808080"/>
    </g>
   </g>
   <g id="PathCollection_2">
    <defs>
     <path id="m195fdf8220" d="M -3.535534 3.535534 
L 3.535534 3.535534 
L 3.535534 -3.535534 
L -3.535534 -3.535534 
z
" style="stroke: #0000ff"/>
    </defs>
    <g clip-path="url(#p9bceaa950c)">
     <use xlink:href="#m195fdf8220" x="87.572093" y="63.863133" style="fill: #0000ff; stroke: #0000ff"/>
     <use xlink:href="#m195fdf8220" x="87.572093" y="64.464289" style="fill: #0000ff; stroke: #0000ff"/>
     <use xlink:href="#m195fdf8220" x="88.350698" y="64.464289" style="fill: #0000ff; stroke: #0000ff"/>
    </g>
   </g>
   <g id="PathCollection_3">
    <defs>
     <path id="mfe4526a080" d="M 0 -3.535534 
L -3.535534 3.535534 
L 3.535534 3.535534 
z
" style="stroke: #ff0000"/>
    </defs>
    <g clip-path="url(#p9bceaa950c)">
     <use xlink:href="#mfe4526a080" x="230.316279" y="174.075181" style="fill: #ff0000; stroke: #ff0000"/>
     <use xlink:href="#mfe4526a080" x="230.316279" y="184.094458" style="fill: #ff0000; stroke: #ff0000"/>
     <use xlink:href="#mfe4526a080" x="243.293023" y="184.094458" style="fill: #ff0000; stroke: #ff0000"/>
    </g>
   </g>
   <g id="legend_1">
    <g id="patch_10">
     <path d="M 326.303125 103.874375 
L 511.4 103.874375 
Q 513.4 103.874375 513.4 101.874375 
L 513.4 58.84 
Q 513.4 56.84 511.4 56.84 
L 326.303125 56.84 
Q 324.303125 56.84 324.303125 58.84 
L 324.303125 101.874375 
Q 324.303125 103.874375 326.303125 103.874375 
z
" style="fill: #ffffff; opacity: 0.8; stroke: #cccccc; stroke-linejoin: miter"/>
    </g>
    <g id="patch_11">
     <path d="M 328.303125 68.438437 
L 348.303125 68.438437 
L 348.303125 61.438437 
L 328.303125 61.438437 
z
" style="fill: #808080; opacity: 0.3"/>
    </g>
    <g id="text_16">
     <!-- No Regulation (A=2.00) -->
     <g transform="translate(356.303125 68.438437) scale(0.1 -0.1)">
      <defs>
       <path id="DejaVuSans-4e" d="M 628 4666 
L 1478 4666 
L 3547 763 
L 3547 4666 
L 4159 4666 
L 4159 0 
L 3309 0 
L 1241 3903 
L 1241 0 
L 628 0 
L 628 4666 
z
" transform="scale(0.015625)"/>
       <path id="DejaVuSans-52" d="M 2841 2188 
Q 3044 2119 3236 1894 
Q 3428 1669 3622 1275 
L 4263 0 
L 3584 0 
L 2988 1197 
Q 2756 1666 2539 1819 
Q 2322 1972 1947 1972 
L 1259 1972 
L 1259 0 
L 628 0 
L 628 4666 
L 2053 4666 
Q 2853 4666 3247 4331 
Q 3641 3997 3641 3322 
Q 3641 2881 3436 2590 
Q 3231 2300 2841 2188 
z
M 1259 4147 
L 1259 2491 
L 2053 2491 
Q 2509 2491 2742 2702 
Q 2975 2913 2975 3322 
Q 2975 3731 2742 3939 
Q 2509 4147 2053 4147 
L 1259 4147 
z
" transform="scale(0.015625)"/>
       <path id="DejaVuSans-67" d="M 2906 1791 
Q 2906 2416 2648 2759 
Q 2391 3103 1925 3103 
Q 1463 3103 1205 2759 
Q 947 2416 947 1791 
Q 947 1169 1205 825 
Q 1463 481 1925 481 
Q 2391 481 2648 825 
Q 2906 1169 2906 1791 
z
M 3481 434 
Q 3481 -459 3084 -895 
Q 2688 -1331 1869 -1331 
Q 1566 -1331 1297 -1286 
Q 1028 -1241 775 -1147 
L 775 -588 
Q 1028 -725 1275 -790 
Q 1522 -856 1778 -856 
Q 2344 -856 2625 -561 
Q 2906 -266 2906 331 
L 2906 616 
Q 2728 306 2450 153 
Q 2172 0 1784 0 
Q 1141 0 747 490 
Q 353 981 353 1791 
Q 353 2603 747 3093 
Q 1141 3584 1784 3584 
Q 2172 3584 2450 3431 
Q 2728 3278 2906 2969 
L 2906 3500 
L 3481 3500 
L 3481 434 
z
" transform="scale(0.015625)"/>
       <path id="DejaVuSans-41" d="M 2188 4044 
L 1331 1722 
L 3047 1722 
L 2188 4044 
z
M 1831 4666 
L 2547 4666 
L 4325 0 
L 3669 0 
L 3244 1197 
L 1141 1197 
L 716 0 
L 50 0 
L 1831 4666 
z
" transform="scale(0.015625)"/>
       <path id="DejaVuSans-2e" d="M 684 794 
L 1344 794 
L 1344 0 
L 684 0 
L 684 794 
z
" transform="scale(0.015625)"/>
      </defs>
      <use xlink:href="#DejaVuSans-4e"/>
      <use xlink:href="#DejaVuSans-6f" x="74.804688"/>
      <use xlink:href="#DejaVuSans-20" x="135.986328"/>
      <use xlink:href="#DejaVuSans-52" x="167.773438"/>
      <use xlink:href="#DejaVuSans-65" x="232.755859"/>
      <use xlink:href="#DejaVuSans-67" x="294.279297"/>
      <use xlink:href="#DejaVuSans-75" x="357.755859"/>
      <use xlink:href="#DejaVuSans-6c" x="421.134766"/>
      <use xlink:href="#DejaVuSans-61" x="448.917969"/>
      <use xlink:href="#DejaVuSans-74" x="510.197266"/>
      <use xlink:href="#DejaVuSans-69" x="549.40625"/>
      <use xlink:href="#DejaVuSans-6f" x="577.189453"/>
      <use xlink:href="#DejaVuSans-6e" x="638.371094"/>
      <use xlink:href="#DejaVuSans-20" x="701.75"/>
      <use xlink:href="#DejaVuSans-28" x="733.537109"/>
      <use xlink:href="#DejaVuSans-41" x="772.550781"/>
      <use xlink:href="#DejaVuSans-3d" x="840.958984"/>
      <use xlink:href="#DejaVuSans-32" x="924.748047"/>
      <use xlink:href="#DejaVuSans-2e" x="988.371094"/>
      <use xlink:href="#DejaVuSans-30" x="1020.158203"/>
      <use xlink:href="#DejaVuSans-30" x="1083.78125"/>
      <use xlink:href="#DejaVuSans-29" x="1147.404297"/>
     </g>
    </g>
    <g id="patch_12">
     <path d="M 328.303125 83.116562 
L 348.303125 83.116562 
L 348.303125 76.116562 
L 328.303125 76.116562 
z
" style="fill: #0000ff; opacity: 0.3"/>
    </g>
    <g id="text_17">
     <!-- Active Intermediary (A=0.00) -->
     <g transform="translate(356.303125 83.116562) scale(0.1 -0.1)">
      <defs>
       <path id="DejaVuSans-76" d="M 191 3500 
L 800 3500 
L 1894 563 
L 2988 3500 
L 3597 3500 
L 2284 0 
L 1503 0 
L 191 3500 
z
" transform="scale(0.015625)"/>
       <path id="DejaVuSans-49" d="M 628 4666 
L 1259 4666 
L 1259 0 
L 628 0 
L 628 4666 
z
" transform="scale(0.015625)"/>
       <path id="DejaVuSans-79" d="M 2059 -325 
Q 1816 -950 1584 -1140 
Q 1353 -1331 966 -1331 
L 506 -1331 
L 506 -850 
L 844 -850 
Q 1081 -850 1212 -737 
Q 1344 -625 1503 -206 
L 1606 56 
L 191 3500 
L 800 3500 
L 1894 763 
L 2988 3500 
L 3597 3500 
L 2059 -325 
z
" transform="scale(0.015625)"/>
      </defs>
      <use xlink:href="#DejaVuSans-41"/>
      <use xlink:href="#DejaVuSans-63" x="66.658203"/>
      <use xlink:href="#DejaVuSans-74" x="121.638672"/>
      <use xlink:href="#DejaVuSans-69" x="160.847656"/>
      <use xlink:href="#DejaVuSans-76" x="188.630859"/>
      <use xlink:href="#DejaVuSans-65" x="247.810547"/>
      <use xlink:href="#DejaVuSans-20" x="309.333984"/>
      <use xlink:href="#DejaVuSans-49" x="341.121094"/>
      <use xlink:href="#DejaVuSans-6e" x="370.613281"/>
      <use xlink:href="#DejaVuSans-74" x="433.992188"/>
      <use xlink:href="#DejaVuSans-65" x="473.201172"/>
      <use xlink:href="#DejaVuSans-72" x="534.724609"/>
      <use xlink:href="#DejaVuSans-6d" x="574.087891"/>
      <use xlink:href="#DejaVuSans-65" x="671.5"/>
      <use xlink:href="#DejaVuSans-64" x="733.023438"/>
      <use xlink:href="#DejaVuSans-69" x="796.5"/>
      <use xlink:href="#DejaVuSans-61" x="824.283203"/>
      <use xlink:href="#DejaVuSans-72" x="885.5625"/>
      <use xlink:href="#DejaVuSans-79" x="926.675781"/>
      <use xlink:href="#DejaVuSans-20" x="985.855469"/>
      <use xlink:href="#DejaVuSans-28" x="1017.642578"/>
      <use xlink:href="#DejaVuSans-41" x="1056.65625"/>
      <use xlink:href="#DejaVuSans-3d" x="1125.064453"/>
      <use xlink:href="#DejaVuSans-30" x="1208.853516"/>
      <use xlink:href="#DejaVuSans-2e" x="1272.476562"/>
      <use xlink:href="#DejaVuSans-30" x="1304.263672"/>
      <use xlink:href="#DejaVuSans-30" x="1367.886719"/>
      <use xlink:href="#DejaVuSans-29" x="1431.509766"/>
     </g>
    </g>
    <g id="patch_13">
     <path d="M 328.303125 97.794687 
L 348.303125 97.794687 
L 348.303125 90.794687 
L 328.303125 90.794687 
z
" style="fill: #ff0000; opacity: 0.3"/>
    </g>
    <g id="text_18">
     <!-- Passive Intermediary (A=0.01) -->
     <g transform="translate(356.303125 97.794687) scale(0.1 -0.1)">
      <use xlink:href="#DejaVuSans-50"/>
      <use xlink:href="#DejaVuSans-61" x="55.802734"/>
      <use xlink:href="#DejaVuSans-73" x="117.082031"/>
      <use xlink:href="#DejaVuSans-73" x="169.181641"/>
      <use xlink:href="#DejaVuSans-69" x="221.28125"/>
      <use xlink:href="#DejaVuSans-76" x="249.064453"/>
      <use xlink:href="#DejaVuSans-65" x="308.244141"/>
      <use xlink:href="#DejaVuSans-20" x="369.767578"/>
      <use xlink:href="#DejaVuSans-49" x="401.554688"/>
      <use xlink:href="#DejaVuSans-6e" x="431.046875"/>
      <use xlink:href="#DejaVuSans-74" x="494.425781"/>
      <use xlink:href="#DejaVuSans-65" x="533.634766"/>
      <use xlink:href="#DejaVuSans-72" x="595.158203"/>
      <use xlink:href="#DejaVuSans-6d" x="634.521484"/>
      <use xlink:href="#DejaVuSans-65" x="731.933594"/>
      <use xlink:href="#DejaVuSans-64" x="793.457031"/>
      <use xlink:href="#DejaVuSans-69" x="856.933594"/>
      <use xlink:href="#DejaVuSans-61" x="884.716797"/>
      <use xlink:href="#DejaVuSans-72" x="945.996094"/>
      <use xlink:href="#DejaVuSans-79" x="987.109375"/>
      <use xlink:href="#DejaVuSans-20" x="1046.289062"/>
      <use xlink:href="#DejaVuSans-28" x="1078.076172"/>
      <use xlink:href="#DejaVuSans-41" x="1117.089844"/>
      <use xlink:href="#DejaVuSans-3d" x="1185.498047"/>
      <use xlink:href="#DejaVuSans-30" x="1269.287109"/>
      <use xlink:href="#DejaVuSans-2e" x="1332.910156"/>
      <use xlink:href="#DejaVuSans-30" x="1364.697266"/>
      <use xlink:href="#DejaVuSans-31" x="1428.320312"/>
      <use xlink:href="#DejaVuSans-29" x="1491.943359"/>
     </g>
    </g>
   </g>
  </g>
 </g>
 <defs>
  <clipPath id="p9bceaa950c">
   <rect x="72" y="51.84" width="446.4" height="332.64"/>
  </clipPath>
 </defs>
</svg>
